<?xml version="1.0" encoding="utf-8"?>
<!-- Generator: Adobe Illustrator 19.0.0, SVG Export Plug-In . SVG Version: 6.00 Build 0)  -->
<svg version="1.0" id="Layer_2" xmlns="http://www.w3.org/2000/svg" xmlns:xlink="http://www.w3.org/1999/xlink" x="0px" y="0px"
	 width="1920px" height="1419.9px" viewBox="860 -609.9 1920 1419.9" enable-background="new 860 -609.9 1920 1419.9"
	 xml:space="preserve">
<g>
	<path id="XMLID_105_" fill="#192333" stroke="#000000" stroke-width="2" stroke-linejoin="round" stroke-miterlimit="10" d="
		M1996.7,7.8h-9.8l-9.7,1l-1.8,19h-34.5l-2.4-20h-12.4h-7c-32.1,0-57.2,26.8-57.2,58.9v165.1c0,10.7,7.7,19,18.3,19h155.4
		c10.7,0,20.2-8.3,20.2-19V66.7C2055.8,34.6,2028.8,7.8,1996.7,7.8z"/>
	
		<polygon id="XMLID_104_" fill="#FFFFFF" stroke="#000000" stroke-width="2" stroke-linejoin="round" stroke-miterlimit="10" points="
		1977.8,17.7 1977.8,8.4 1977.8,-15.1 1938.8,-15.1 1938.8,8.4 1938.8,17.7 1959.1,93.6 	"/>
	<polygon id="XMLID_103_" fill="#85A2CC" stroke="#000000" stroke-miterlimit="10" points="1958.5,199 1940.5,28.7 1959.2,86.2 
		1976.9,28.6 	"/>
	<polygon id="XMLID_101_" fill="#192333" stroke="#000000" stroke-miterlimit="10" points="1938.4,8 1899.8,31.7 1915.1,46.8 
		1900.1,61.6 1957.2,202.4 	"/>
	<polygon id="XMLID_100_" fill="#192333" stroke="#000000" stroke-miterlimit="10" points="1978.8,8.6 2017.8,31.7 2002.4,46.8 
		2017.4,61.6 1959.8,202.4 	"/>
	<polygon id="XMLID_99_" fill="#85A2CC" stroke="#000000" stroke-miterlimit="10" points="1938.9,8.4 1947.5,13 1959.2,86.2 
		1938.9,30.2 1920.3,33.1 	"/>
	<path id="XMLID_19_" fill="#85A2CC" stroke="#000000" stroke-miterlimit="10" d="M1978.5,8.5l-8.3,4.4l-0.1,0.1l-10.9,73.1
		l19.4-55.9c0-0.1,0.1-0.1,0.2-0.1l18,2.8c0.2,0,0.3-0.2,0.2-0.3l-18.2-24.1C1978.6,8.5,1978.5,8.4,1978.5,8.5z"/>
	<path id="XMLID_36_" fill="#FFFFFF" stroke="#000000" stroke-width="2" stroke-linejoin="round" stroke-miterlimit="10" d="
		M1961.4-5.6h-7.1c-24.7,0-45-20.2-45-45v-46c0-24.7,20.3-45,45-45h7.1c24.7,0,45,20.2,45,45v46C2006.4-25.9,1986.1-5.6,1961.4-5.6z
		"/>
	<path id="XMLID_37_" fill="none" stroke="#000000" stroke-width="2" stroke-linejoin="round" stroke-miterlimit="10" d="
		M1961.8-72.2c0,0,0,16.9,0,20c0,6.5-8.9,6.4-8.9,6.4"/>
	<path id="XMLID_11_" fill="#4D4D4D" stroke="#000000" stroke-width="2" stroke-linejoin="round" stroke-miterlimit="10" d="
		M2005-37.3C2005-37.4,2005-37.4,2005-37.3c8-7.9,8.2-42.4,8.2-42.4v-24.2c0-21.4-17.2-38.8-38.3-38.8h-32.6
		c-21.9,0-39.8,18.2-39.8,40.4v22.7c0,0,1.5,33.1,9.6,41.4l0,0c-5.7,3.9-9.3,10.7-8.5,18.4c0.9,8.8,7.8,16,16.4,17.3
		c7.2,1.1,13.7-1.9,17.8-6.9c-11.9-5.7-20.9-16-25.2-28.8l0,0c-1.7-5-2.3-10.3-2.3-15.9v-28.1c13.8-36,54.7-14.5,76.4-37.5
		c7.1,9,16.9,22.2,20.2,39.9l0.6,25.6c0,5.7-3.2,16.1-3.2,16c-4.4,12.8-13.9,23.3-26,28.9c4.1,4.8,10.4,7.6,17.4,6.6
		c8.6-1.2,15.5-8.3,16.5-17C2012.9-26.8,2010-33.2,2005-37.3z"/>
</g>
<g>
	<path id="XMLID_97_" fill="#161E2B" stroke="#000000" stroke-width="2" stroke-linejoin="round" stroke-miterlimit="10" d="
		M1740.3,7.8h-9.8l-9.7,1l-1.8,19h-34.5l-2.4-20h-12.4h-7c-32.1,0-57.8,26.8-57.8,58.9v165.1c0,10.7,8.2,19,18.9,19h155.4
		c10.7,0,19.7-8.3,19.7-19V66.7C1798.8,34.6,1772.3,7.8,1740.3,7.8z"/>
	
		<polygon id="XMLID_96_" fill="#FFFFFF" stroke="#000000" stroke-width="2" stroke-linejoin="round" stroke-miterlimit="10" points="
		1721.8,17.8 1721.8,8.4 1721.8,-15.1 1681.8,-15.1 1681.8,8.4 1681.8,17.8 	"/>
	<polygon id="XMLID_22_" fill="#DAE8F7" stroke="#000000" stroke-miterlimit="10" points="1701.9,199 1683.9,28.8 1701.9,16.8 
		1720.3,28.6 	"/>
	<path id="XMLID_93_" fill="#1A4082" stroke="#000000" stroke-miterlimit="10" d="M1713,136.1c1.1-55-8.4-99.8-8.4-99.8l11.6-8.7
		l-14.3-8.2l-14.2,8.2l11.6,8.4c0,0-9.5,44.9-8.4,99.9l11,10.3L1713,136.1z"/>
	<polygon id="XMLID_91_" fill="#161E2B" stroke="#000000" stroke-miterlimit="10" points="1682,8 1643.4,31.7 1658.7,46.8 
		1643.7,61.6 1700.8,202.4 	"/>
	<polygon id="XMLID_92_" fill="#161E2B" stroke="#000000" stroke-miterlimit="10" points="1722.3,8.6 1761.3,31.7 1746,46.8 
		1761,61.6 1703.4,202.4 	"/>
	<polygon id="XMLID_57_" fill="#DAE8F7" stroke="#000000" stroke-miterlimit="10" points="1682.5,8.4 1701.9,16.8 1722.3,8.6 
		1723.2,30.5 1701.9,19.6 1681.4,30.5 	"/>
	<path id="XMLID_13_" fill="#FFFFFF" stroke="#000000" stroke-width="2" stroke-linejoin="round" stroke-miterlimit="10" d="
		M1704.9-5.6h-7.1c-24.8,0-45-20.3-45-45v-46c0-24.7,20.2-45,45-45h7.1c24.8,0,45,20.3,45,45v46C1749.9-25.9,1729.7-5.6,1704.9-5.6z
		"/>
	<path id="XMLID_26_" fill="none" stroke="#000000" stroke-width="2" stroke-linejoin="round" stroke-miterlimit="10" d="
		M1705.8-72.2c0,0,0,16.9,0,20c0,6.5-8.9,6.4-8.9,6.4"/>
	<path id="XMLID_8_" fill="#4D4D4D" stroke="#000000" stroke-width="2" stroke-linejoin="round" stroke-miterlimit="10" d="
		M1715-141.6h-27.2c-19.2,0-35,15.7-35,35v21.2h9v-28.1l80.5,12.9l0.2,15.2h7.6v-21.2C1750-125.9,1734.3-141.6,1715-141.6z"/>
</g>
</svg>
