<?xml version="1.0" encoding="utf-8"?>
<!-- Generator: Adobe Illustrator 19.0.0, SVG Export Plug-In . SVG Version: 6.00 Build 0)  -->
<svg version="1.0" id="Peeps" xmlns="http://www.w3.org/2000/svg" xmlns:xlink="http://www.w3.org/1999/xlink" x="0px" y="0px"
	 width="1920px" height="1080px" viewBox="860 -440 1920 1080" enable-background="new 860 -440 1920 1080" xml:space="preserve">
<g id="Auke">
	<path id="XMLID_161_" fill="#262626" stroke="#000000" stroke-width="2" stroke-linejoin="round" stroke-miterlimit="10" d="
		M1834.7,218.1h10c16.5,0,30,13.5,30,30v85c0,5.5-4.5,10-10,10h-80c-5.5,0-10-4.5-10-10v-85c0-16.5,13.5-30,30-30h10"/>
	
		<polygon id="XMLID_160_" fill="#FFFFFF" stroke="#000000" stroke-width="2" stroke-linejoin="round" stroke-miterlimit="10" points="
		1835,223 1835,218.2 1835,206.1 1815,206.1 1815,218.2 1815,223 1824.8,258.9 	"/>
	<path id="XMLID_157_" fill="#191B26" stroke="#000000" stroke-width="2" stroke-linejoin="round" stroke-miterlimit="10" d="
		M1815,218c6.7,5.7,13.3,5.7,20,0l10,0.1l-14.1,35.1l-5.9,6.7l-12.7-13l-7.6-28.8L1815,218z"/>
	<path id="XMLID_156_" fill="#262626" stroke="#000000" stroke-width="2" stroke-linejoin="round" stroke-miterlimit="10" d="
		M1825.1,259.8c11.7-7.8,22.4-10.4,39.9-12.5c-2.7-13.6-9.1-24.2-19.8-29.1l-5.9-0.1L1825.1,259.8z"/>
	<path id="XMLID_158_" fill="#262626" stroke="#000000" stroke-width="2" stroke-linejoin="round" stroke-miterlimit="10" d="
		M1824.8,259.8c-11.7-7.8-22.4-10.4-39.9-12.5c2.7-13.6,9.1-24.2,19.8-29.1l5.9-0.1L1824.8,259.8z"/>
	
		<line id="XMLID_155_" fill="none" stroke="#000000" stroke-width="2" stroke-linejoin="round" stroke-miterlimit="10" x1="1825" y1="260" x2="1825" y2="343"/>
	<path id="XMLID_176_" fill="#FFFFFF" stroke="#000000" stroke-width="2" stroke-linejoin="round" stroke-miterlimit="10" d="
		M1824.7,211L1824.7,211c-13.8,0-25-11.3-25-25v-20c0-13.8,11.3-25,25-25l0,0c13.8,0,25,11.3,25,25v20
		C1849.7,199.8,1838.5,211,1824.7,211z"/>
	<path id="XMLID_164_" fill="none" stroke="#000000" stroke-width="2" stroke-linejoin="round" stroke-miterlimit="10" d="M1827,177
		c0,0,0,8.4,0,10c0,3.3-4.6,3.4-4.6,3.4"/>
	<path id="XMLID_163_" fill="#AFAFAF" stroke="#512F15" stroke-width="2" stroke-linejoin="round" stroke-miterlimit="10" d="
		M1827,141c-0.1,0-25.8-7.3-27,16c-0.3,5-0.3,18.5-0.3,18.5s4.9-27.9,11.9-27.9c2.5,0,5.2,1,13.5,1c8.3,0,14.4-1,16.3-1
		c3.3,0,8.3,27.9,8.3,27.9s0.7-11.2,0.3-17.3C1848.3,134.3,1827,141,1827,141z"/>
	<path id="XMLID_75_" fill="#AFAFAF" stroke="#512F15" stroke-width="2" stroke-linejoin="round" stroke-miterlimit="10" d="
		M1799.8,180.3L1815,193c6.9-1,13.5-1,20,0l14.7-12.7l7.5,47.7c-21.5,3.5-42.9,3.5-64.2,0L1799.8,180.3z"/>
</g>
<g id="Joris">
	<path id="XMLID_31_" fill="#1EB1D3" stroke="#000000" stroke-width="2" stroke-linejoin="round" stroke-miterlimit="10" d="
		M1982.7,172h-5l-5,0.4l-0.9,9.6H1954l-1.3-10h-6.4h-3.6c-16.5,0-29.7,13.7-29.7,30.2v85c0,5.5,4.2,9.8,9.7,9.8h80
		c5.5,0,10.3-4.3,10.3-9.8v-85C2013,185.7,1999.2,172,1982.7,172z"/>
	
		<polygon id="XMLID_30_" fill="#FFFFFF" stroke="#000000" stroke-width="2" stroke-linejoin="round" stroke-miterlimit="10" points="
		1973,175.8 1973,171.4 1973,160.1 1953,160.1 1953,171.4 1953,175.8 1963.4,212.3 	"/>
	<polygon id="XMLID_12_" fill="#1EB1D3" stroke="#000000" stroke-miterlimit="10" points="1953,172.2 1957.4,174.6 1963.4,212.3 
		1953,183.4 1943.4,184.9 	"/>
	<path id="XMLID_11_" fill="#1EB1D3" stroke="#000000" stroke-miterlimit="10" d="M1973.3,172.3l-4.3,2.3c0,0,0,0-0.1,0.1l-5.6,37.6
		l10-28.8h0.1l9.3,1.5c0.1,0,0.2-0.1,0.1-0.2L1973.3,172.3C1973.4,172.3,1973.4,172.2,1973.3,172.3z"/>
	<path id="XMLID_6_" fill="#FFFFFF" stroke="#000000" stroke-width="2" stroke-linejoin="round" stroke-miterlimit="10" d="
		M1962.7,167L1962.7,167c-13.8,0-25-11.3-25-25v-20c0-13.8,11.3-25,25-25l0,0c13.8,0,25,11.3,25,25v20
		C1987.7,155.8,1976.5,167,1962.7,167z"/>
	<path id="XMLID_5_" fill="none" stroke="#000000" stroke-width="2" stroke-linejoin="round" stroke-miterlimit="10" d="M1965,133
		c0,0,0,8.4,0,10c0,3.3-4.6,3.4-4.6,3.4"/>
	<path id="XMLID_4_" fill="#38281F" stroke="#000000" stroke-width="2" stroke-linejoin="round" stroke-miterlimit="10" d="
		M1967.7,96h-10c-11,0-20.1,9.5-20.1,20.5l0.1,10.2l3.6,2.6c0,0,0.4-22.3,12-21.3s20.1-8.8,26.3-0.9c3.3,4.1,4.1,16.3,4,22.3l4-3.4
		l0.3-9.5C1988,105.4,1978.7,96,1967.7,96z"/>
</g>
<g id="Nienke">
	<path id="XMLID_61_" fill="#000047" stroke="#000000" stroke-width="2" stroke-linejoin="round" stroke-miterlimit="10" d="
		M1699.7,172h-5l-5,0.4l-0.9,9.6H1671l-1.3-10h-6.4h-3.6c-16.5,0-29.7,13.7-29.7,30.2v85c0,5.5,4.2,9.8,9.7,9.8h80
		c5.5,0,10.3-4.3,10.3-9.8v-85C1730,185.7,1716.2,172,1699.7,172z"/>
	
		<polygon id="XMLID_60_" fill="#FFFFFF" stroke="#000000" stroke-width="2" stroke-linejoin="round" stroke-miterlimit="10" points="
		1690,177 1690,172.2 1690,160.1 1670,160.1 1670,172.2 1670,177 1680.4,216.1 	"/>
	<polygon id="XMLID_58_" fill="#E2EDED" stroke="#000000" stroke-miterlimit="10" points="1680.1,270.3 1670.8,182.7 1680.4,212.3 
		1689.5,182.6 	"/>
	<polygon id="XMLID_56_" fill="#000047" stroke="#000000" stroke-miterlimit="10" points="1669.7,172 1649.8,184.2 1657.7,192 
		1650,199.6 1679.4,272.1 	"/>
	<polygon id="XMLID_53_" fill="#000047" stroke="#000000" stroke-miterlimit="10" points="1690.5,172.3 1710.6,184.2 1702.7,192 
		1710.4,199.6 1680.8,272.1 	"/>
	<polygon id="XMLID_52_" fill="#E2EDED" stroke="#000000" stroke-miterlimit="10" points="1670,172.2 1674.4,174.6 1680.4,212.3 
		1670,183.4 1660.4,184.9 	"/>
	<path id="XMLID_50_" fill="#E2EDED" stroke="#000000" stroke-miterlimit="10" d="M1690.3,172.3l-4.3,2.3c0,0,0,0-0.1,0.1l-5.6,37.6
		l10-28.8h0.1l9.3,1.5c0.1,0,0.2-0.1,0.1-0.2L1690.3,172.3C1690.4,172.3,1690.4,172.2,1690.3,172.3z"/>
	<path id="XMLID_45_" fill="#FFFFFF" stroke="#000000" stroke-width="2" stroke-linejoin="round" stroke-miterlimit="10" d="
		M1679.7,165L1679.7,165c-13.8,0-25-11.3-25-25v-20c0-13.8,11.3-25,25-25l0,0c13.8,0,25,11.3,25,25v20
		C1704.7,153.8,1693.5,165,1679.7,165z"/>
	<path id="XMLID_27_" fill="none" stroke="#000000" stroke-width="2" stroke-linejoin="round" stroke-miterlimit="10" d="M1682,131
		c0,0,0,8.4,0,10c0,3.3-4.6,3.4-4.6,3.4"/>
	<path id="XMLID_21_" fill="#2D221A" stroke="#000000" stroke-width="2" stroke-linejoin="round" stroke-miterlimit="10" d="
		M1708.3,121c2.2-11.3-7.4-26-19.3-26h-9h-8.7c-11.9,0-21.6,12-19.3,24.7c1,5.7-5.4,8.3-4,16.7c1.1,6.5-2.6,14.3-2.6,14.3
		c0,10,14.9,9,14.9,5c-4.3-6-5.6-15.7-5.6-26.9c0-7.3,13-26.9,18.1-26.9c2.5,0,6.2,0.5,7.2,1.9c1-1.4,4.9-1.9,7.4-1.9
		c5.2,0,17.3,19.5,17.3,26.9c0,11.2-0.3,20.9-4.6,26.9c0,4,14.9,5,14.9-5c0,0-4.9-5.4-2.3-11.6C1715,133.3,1707.3,126.2,1708.3,121z
		"/>
</g>
<g id="Peter">
	<path id="XMLID_74_" fill="#191919" stroke="#000000" stroke-width="2" stroke-linejoin="round" stroke-miterlimit="10" d="
		M1982.7-54h-5l-5,0.4l-0.9,9.6H1954l-1.3-10h-6.4h-3.6c-16.5,0-29.7,13.7-29.7,30.2v85c0,5.5,4.2,9.8,9.7,9.8h80
		c5.5,0,10.3-4.3,10.3-9.8v-85C2013-40.3,1999.2-54,1982.7-54z"/>
	
		<polygon id="XMLID_73_" fill="#FFFFFF" stroke="#000000" stroke-width="2" stroke-linejoin="round" stroke-miterlimit="10" points="
		1973,-49 1973,-53.8 1973,-65.9 1953,-65.9 1953,-53.8 1953,-49 	"/>
	<polygon id="XMLID_72_" fill="#FFFFFF" stroke="#000000" stroke-miterlimit="10" points="1963,44.3 1953.7,-43.3 1963,-49.5 
		1972.5,-43.4 	"/>
	<path id="XMLID_71_" fill="#0A082D" stroke="#000000" stroke-miterlimit="10" d="M1968.7,12c0.6-28.3-4.3-51.4-4.3-51.4l6-4.5
		l-7.4-4.2l-7.3,4.2l6,4.3c0,0-4.9,23.1-4.3,51.4l5.6,5.3L1968.7,12z"/>
	<polygon id="XMLID_70_" fill="#191919" stroke="#000000" stroke-miterlimit="10" points="1952.7,-54 1932.8,-41.8 1940.7,-34 
		1933,-26.4 1962.4,46.1 	"/>
	<polygon id="XMLID_69_" fill="#191919" stroke="#000000" stroke-miterlimit="10" points="1973.5,-53.7 1993.6,-41.8 1985.7,-34 
		1993.4,-26.4 1963.8,46.1 	"/>
	<polygon id="XMLID_68_" fill="#FFFFFF" stroke="#000000" stroke-miterlimit="10" points="1953,-53.8 1963,-49.5 1973.5,-53.7 
		1974,-42.4 1963,-48 1952.5,-42.4 	"/>
	<path id="XMLID_66_" fill="#FFFFFF" stroke="#000000" stroke-width="2" stroke-linejoin="round" stroke-miterlimit="10" d="
		M1962.7-61L1962.7-61c-13.8,0-25-11.3-25-25v-20c0-13.7,11.3-25,25-25l0,0c13.8,0,25,11.3,25,25v20
		C1987.7-72.2,1976.5-61,1962.7-61z"/>
	<path id="XMLID_65_" fill="none" stroke="#000000" stroke-width="2" stroke-linejoin="round" stroke-miterlimit="10" d="M1965-95
		c0,0,0,8.4,0,10c0,3.3-4.6,3.4-4.6,3.4"/>
	<path id="XMLID_64_" fill="#442A00" stroke="#000000" stroke-width="2" stroke-linejoin="round" stroke-miterlimit="10" d="
		M1965.8-135h-16c-6.6,0-12,5.4-12,12v16h28c2.8,0,5-2.3,5-5v-18C1970.8-132.7,1968.5-135,1965.8-135z"/>
	<path id="XMLID_63_" fill="#442A00" stroke="#000000" stroke-width="2" stroke-linejoin="round" stroke-miterlimit="10" d="
		M1970.8-130.1h7c5.5,0,10,4.5,10,10v13.1h-12c-2.8,0-5-2.3-5-5V-130.1z"/>
	<circle id="XMLID_1_" fill="none" stroke="#FFFFFF" stroke-miterlimit="10" cx="1961.7" cy="-25.7" r="0.1"/>
	<circle id="XMLID_76_" fill="none" stroke="#FFFFFF" stroke-miterlimit="10" cx="1962.7" cy="-30.7" r="0.1"/>
	<circle id="XMLID_77_" fill="none" stroke="#FFFFFF" stroke-miterlimit="10" cx="1964.7" cy="-23.7" r="0.1"/>
	<circle id="XMLID_80_" fill="none" stroke="#FFFFFF" stroke-miterlimit="10" cx="1965.7" cy="-16.7" r="0.1"/>
	<circle id="XMLID_81_" fill="none" stroke="#FFFFFF" stroke-miterlimit="10" cx="1961.7" cy="-14.7" r="0.1"/>
	<circle id="XMLID_82_" fill="none" stroke="#FFFFFF" stroke-miterlimit="10" cx="1962.7" cy="-20.7" r="0.1"/>
	<circle id="XMLID_102_" fill="none" stroke="#FFFFFF" stroke-miterlimit="10" cx="1963.7" cy="-35.7" r="0.1"/>
	<circle id="XMLID_106_" fill="none" stroke="#FFFFFF" stroke-miterlimit="10" cx="1961.7" cy="-41.7" r="0.1"/>
	<circle id="XMLID_107_" fill="none" stroke="#FFFFFF" stroke-miterlimit="10" cx="1965.7" cy="-42.7" r="0.1"/>
	<circle id="XMLID_108_" fill="none" stroke="#FFFFFF" stroke-miterlimit="10" cx="1962.7" cy="-45.7" r="0.1"/>
	<circle id="XMLID_109_" fill="none" stroke="#FFFFFF" stroke-miterlimit="10" cx="1964.7" cy="-10.7" r="0.1"/>
	<circle id="XMLID_78_" fill="none" stroke="#FFFFFF" stroke-miterlimit="10" cx="1959.7" cy="-17.7" r="0.1"/>
	<circle id="XMLID_110_" fill="none" stroke="#FFFFFF" stroke-miterlimit="10" cx="1960.7" cy="-10.7" r="0.1"/>
	<circle id="XMLID_111_" fill="none" stroke="#FFFFFF" stroke-miterlimit="10" cx="1959.7" cy="-3.7" r="0.1"/>
	<circle id="XMLID_112_" fill="none" stroke="#FFFFFF" stroke-miterlimit="10" cx="1962.7" cy="-5.7" r="0.1"/>
	<circle id="XMLID_113_" fill="none" stroke="#FFFFFF" stroke-miterlimit="10" cx="1966.7" cy="-1.7" r="0.1"/>
	<circle id="XMLID_114_" fill="none" stroke="#FFFFFF" stroke-miterlimit="10" cx="1966.7" cy="-7.7" r="0.1"/>
	<circle id="XMLID_115_" fill="none" stroke="#FFFFFF" stroke-miterlimit="10" cx="1963.7" cy="0.3" r="0.1"/>
	<circle id="XMLID_116_" fill="none" stroke="#FFFFFF" stroke-miterlimit="10" cx="1960.7" cy="5.3" r="0.1"/>
	<circle id="XMLID_117_" fill="none" stroke="#FFFFFF" stroke-miterlimit="10" cx="1965.7" cy="8.3" r="0.1"/>
	<circle id="XMLID_118_" fill="none" stroke="#FFFFFF" stroke-miterlimit="10" cx="1962.7" cy="12.3" r="0.1"/>
</g>
<g id="Annelies">
	<path id="XMLID_154_" fill="#E5DBC1" stroke="#000000" stroke-width="2" stroke-linejoin="round" stroke-miterlimit="10" d="
		M1832.7-85.9h10c16.5,0,30,13.5,30,30v85c0,5.5-4.5,10-10,10h-80c-5.5,0-10-4.5-10-10v-85c0-16.5,13.5-30,30-30h10"/>
	
		<polygon id="XMLID_153_" fill="#FFFFFF" stroke="#000000" stroke-width="2" stroke-linejoin="round" stroke-miterlimit="10" points="
		1833,-81 1833,-85.8 1833,-97.9 1813,-97.9 1813,-85.8 1813,-81 1823.4,-41.9 	"/>
	<path id="XMLID_152_" fill="none" stroke="#000000" stroke-width="2" stroke-linejoin="round" stroke-miterlimit="10" d="M1823-44"
		/>
	<path id="XMLID_151_" fill="#FFFFFF" stroke="#000000" stroke-width="2" stroke-linejoin="round" stroke-miterlimit="10" d="
		M1813-86c6.7,5.7,13.3,5.7,20,0l10,0.1l-5.3,35.9h-32.4l-2.6-35.9L1813-86z"/>
	
		<polygon id="XMLID_150_" fill="#FFFFFF" stroke="#000000" stroke-width="2" stroke-linejoin="round" stroke-miterlimit="10" points="
		1802.6,-85.9 1823.1,-65.1 1843,-85.9 1843,39 1802,39 	"/>
	
		<polygon id="XMLID_149_" fill="#B6B6CE" stroke="#000000" stroke-width="2" stroke-linejoin="round" stroke-miterlimit="10" points="
		1802.6,-85.9 1823.1,-65.1 1843,-85.9 1843,39 1802,39 	"/>
	<path id="XMLID_148_" fill="#E5DBC1" stroke="#000000" stroke-width="2" stroke-linejoin="round" stroke-miterlimit="10" d="
		M1802.6-85.9c0,0-5.3,1.9-8.8,6.9c-2.5,3.5,8.2,92.7,8.2,92.7L1802.6-85.9z"/>
	<path id="XMLID_147_" fill="#E5DBC1" stroke="#000000" stroke-width="2" stroke-linejoin="round" stroke-miterlimit="10" d="
		M1843.4-85.9c0,0,5.3,1.9,8.8,6.9c2.5,3.5-9.3,92.7-9.3,92.7L1843.4-85.9z"/>
	<path id="XMLID_146_" fill="#CC8850" stroke="#000000" stroke-width="2" stroke-linejoin="round" stroke-miterlimit="10" d="
		M1853-106.9c0-0.3,0-33.8,0-33.8c0-13.8-11.5-25.3-25.3-25.3h-10c-13.8,0-24.7,11.5-24.7,25.3c0,0,0,33.4,0,33.7
		c0,5.5,9,11,16.2,11h27C1842.8-96,1853-101.5,1853-106.9z"/>
	<path id="XMLID_143_" fill="#FFFFFF" stroke="#000000" stroke-width="2" stroke-linejoin="round" stroke-miterlimit="10" d="
		M1822.7-92L1822.7-92c-13.8,0-25-11.3-25-25v-20c0-13.7,11.3-25,25-25l0,0c13.8,0,25,11.3,25,25v20
		C1847.7-103.2,1836.5-92,1822.7-92z"/>
	<path id="XMLID_130_" fill="#FFFFFF" stroke="#000000" stroke-width="2" stroke-linejoin="round" stroke-miterlimit="10" d="
		M1825-126c0,0,0,8.4,0,10c0,3.3-4.6,3.4-4.6,3.4"/>
	<path id="XMLID_129_" fill="#CC8850" stroke="#000000" stroke-width="2" stroke-linejoin="round" stroke-miterlimit="10" d="
		M1853-140.7c0-13.8-11.5-25.3-25.3-25.3h-4.7c-0.1,0.5-0.2,0.9-0.3,1.4c-0.1-0.5-0.2-0.9-0.3-1.4h-4.8c-13.8,0-24.7,11.5-24.7,25.3
		v1c2.3,0.8,4.7,1.2,7.2,1.2c11.4,0,20.9-8.4,22.5-19.4c1.6,11,11.1,19.4,22.5,19.4c2.7,0,5.3-0.5,7.8-1.4L1853-140.7L1853-140.7z"
		/>
</g>
<g id="Seth">
	<path id="XMLID_127_" fill="#3AA1CE" stroke="#000000" stroke-width="2" stroke-linejoin="round" stroke-miterlimit="10" d="
		M1699.7-54h-5l-5,0.4l-0.9,9.6H1671l-1.3-10h-6.4h-3.6c-16.5,0-29.7,13.7-29.7,30.2v85c0,5.5,4.2,9.8,9.7,9.8h80
		c5.5,0,10.3-4.3,10.3-9.8v-85C1730-40.3,1716.2-54,1699.7-54z"/>
	
		<polygon id="XMLID_126_" fill="#FFFFFF" stroke="#000000" stroke-width="2" stroke-linejoin="round" stroke-miterlimit="10" points="
		1690,-50.2 1690,-54.6 1690,-65.9 1670,-65.9 1670,-54.6 1670,-50.2 1680.4,-13.7 	"/>
	<polygon id="XMLID_125_" fill="#3AA1CE" stroke="#000000" stroke-miterlimit="10" points="1670,-53.8 1674.4,-51.4 1680.4,-13.7 
		1670,-42.6 1660.4,-41.1 	"/>
	<path id="XMLID_121_" fill="#3AA1CE" stroke="#000000" stroke-miterlimit="10" d="M1690.3-53.7l-4.3,2.3c0,0,0,0-0.1,0.1l-5.6,37.6
		l10-28.8h0.1l9.3,1.5c0.1,0,0.2-0.1,0.1-0.2l-9.4-12.4C1690.4-53.7,1690.4-53.8,1690.3-53.7z"/>
	<path id="XMLID_124_" fill="#FFFFFF" stroke="#000000" stroke-width="2" stroke-linejoin="round" stroke-miterlimit="10" d="
		M1679.7-61L1679.7-61c-13.8,0-25-11.3-25-25v-20c0-13.7,11.3-25,25-25l0,0c13.8,0,25,11.3,25,25v20
		C1704.7-72.2,1693.5-61,1679.7-61z"/>
	<path id="XMLID_123_" fill="none" stroke="#000000" stroke-width="2" stroke-linejoin="round" stroke-miterlimit="10" d="M1682-95
		c0,0,0,8.4,0,10c0,3.3-4.6,3.4-4.6,3.4"/>
	<path id="XMLID_122_" fill="#3D1F0F" stroke="#000000" stroke-width="2" stroke-linejoin="round" stroke-miterlimit="10" d="
		M1703.6-78.7c0,0,0.4-4.9,0.4-7.8v-14.4c-5-23.5-28.3-7.4-39.4-19.3c-3.6,4.6-8.7,11.4-10.4,20.5l-0.3,13.2c0,2.9,1.6,7.8,1.6,7.8
		c-4-4.3-4.4-21-4.4-21v-4.3c1.5-21.2,10.3-26,23.9-28h8.7c25.3,0,22.5,6.2,24.3,28v4.3C1708-99.7,1707.8-83,1703.6-78.7z"/>
</g>
</svg>
