<?xml version="1.0" encoding="utf-8"?>
<!-- Generator: Adobe Illustrator 19.0.0, SVG Export Plug-In . SVG Version: 6.00 Build 0)  -->
<svg version="1.0" id="Layer_1" xmlns="http://www.w3.org/2000/svg" xmlns:xlink="http://www.w3.org/1999/xlink" x="0px" y="0px"
	 width="1920px" height="1080px" viewBox="480 -260 1920 1080" enable-background="new 480 -260 1920 1080" xml:space="preserve">
<pattern  x="480" y="820" width="108.3" height="109.6" patternUnits="userSpaceOnUse" id="XMLID_64_" viewBox="47.6 -219.4 108.3 109.6" overflow="visible">
	<g>
		<polygon fill="none" points="47.6,-109.8 155.9,-109.8 155.9,-219.4 47.6,-219.4 		"/>
		<g>
			<polygon fill="none" points="47.6,-219.4 155.9,-219.4 155.9,-109.8 47.6,-109.8 			"/>
			<g id="XMLID_15_">
				<polygon id="XMLID_31_" fill="none" points="47.6,-219.4 155.9,-219.4 155.9,-109.7 47.6,-109.7 				"/>
				<g id="XMLID_26_">
					<path id="XMLID_30_" fill="#00427E" d="M135-75c0-0.1,0.1-0.2,0.2-0.2c12.9-0.1,24.8-3.3,34-11.5c-8,5.6-22.9,7.5-31.5,3.6
						c-0.1,0-0.2-0.2-0.1-0.3c0-0.1,0.1-0.2,0.3-0.2c10.7,0.3,19.3-3,26-9c-6.9-0.4-12.6-4.7-12.6-9.8c0-0.1,0.1-0.2,0.2-0.2
						c0.1,0,0.2,0,0.3,0.1c1.1,2.5,4.7,3.8,8.6,2.9c4.2-1,7-4.2,6.3-7.2c-0.5-2-2.4-3.4-5-3.8c-0.1,0-0.2-0.1-0.2-0.3
						c0-0.1,0.1-0.2,0.2-0.2c1.1-0.1,2.2-0.1,3.3,0c6.5,0.6,11.5,4.6,11.9,9.2c4.7-0.5,8.9-3.2,10.4-6.8c0-0.1,0.2-0.2,0.3-0.2
						s0.2,0.1,0.2,0.2c0.4,4.8-1.3,7.8-5,10.9c5.4-2.1,11.4-2.2,17.3,0.5c0.1,0,0.2,0.2,0.1,0.3c0,0.1-0.1,0.2-0.2,0.2
						c-4.9,0.2-8.4,1.8-11.7,5.1c18.3-5.1,33.1,6.2,28,23.1c0,0.1-0.1,0.2-0.3,0.2c-0.1,0-0.2-0.1-0.2-0.2
						c-0.9-9.7-7.7-16.1-17.9-17.1c5.4,2.1,11,7,11.6,15.5c0,0.1-0.1,0.2-0.2,0.3c-0.1,0-0.2,0-0.3-0.1c-2.8-6.2-8.3-9.3-14.2-9.8
						c6.3,2.6,10.4,8.6,11.6,16.4c0,0.1-0.1,0.2-0.2,0.3c-0.1,0-0.2,0-0.3-0.1C202-70.8,193.7-76,183.5-72
						c-10.6,4.1-15.3,16.4-16.3,25c0,0.1-0.1,0.2-0.2,0.2c-0.1,0-0.2-0.1-0.3-0.2c-3.7-15.7,3.6-31.9,16.6-38.8
						c-7.1,2-13.4,6.3-17,13.4c-8.3,1-14,3.9-16.9,9.2c-0.1,0.1-0.2,0.2-0.3,0.1c-0.1,0-0.2-0.1-0.2-0.3c0.2-2.1,0.9-6.3,4.1-8.3
						c-7,0-12.5-0.9-17.8-3C135.1-74.8,135-74.9,135-75z M164.5-21.6c-0.1-0.1-0.2-0.1-0.3,0s-0.1,0.2,0,0.3
						c1.6,2.8,0.1,6.8-3.1,6.8c-5.7,0-8.5-10.8-7.6-20.6c2.2,5.8,4,8.1,7.3,10.8c0.1,0.1,0.2,0.1,0.3,0s0.1-0.2,0.1-0.3
						c-4.9-9.1-5.9-16.1-5.9-24.1c1.5,6,3.2,9.3,8.1,14.4c0.1,0.1,0.2,0.1,0.3,0s0.1-0.2,0.1-0.3c-5.3-11.6-4.9-24.4-0.9-34.3
						c0-0.1,0-0.2-0.1-0.3s-0.2-0.1-0.3,0c-5.2,2.6-8.3,4.2-12.8,10.4c1.4,7.4,0.2,11-3.2,17.2c3.9-9.9,1.8-23.9-8.2-29.6
						c-0.1-0.1-0.2,0-0.3,0.1s-0.1,0.2,0,0.3c3.8,4,6.5,10.6,4.2,17.9c1.5-10.4-7.6-19.1-17.8-19.1c-9.6,0-16.2,7.5-15.6,14.9
						c0.5,7.4,5.4,11,9.7,12.5c0.1,0,0.2,0,0.3-0.1c0.1-0.1,0-0.2,0-0.3c-5.6-5.7-6.4-16.5,3.6-19.8c-5.9,5.1-3.7,16.8,5.7,17.7
						c0.1,0,0.2-0.1,0.3-0.2c0-0.1,0-0.2-0.1-0.3c-2-1.3-3.7-3.8-3.7-6.6c0-4.7,3.4-6.5,5.7-6.5c3.4,0,6.3,3.3,6.3,8.2
						c0,5.8-5.3,10.7-12,11.4c-6.6,0.7-12.8-2.2-15.7-6.5c-0.1-0.1-0.2-0.1-0.3-0.1s-0.2,0.2-0.1,0.3c3,11.7,16.8,16.9,26.9,9.5
						c-6.6,7.5-17,7.6-25.7-0.1c-0.1-0.1-0.2-0.1-0.3,0c-0.1,0.1-0.1,0.2-0.1,0.3c2.7,5.4,9.3,11.8,18.6,10.9
						c8.6-0.9,13.5-9,14.5-15.7C143-34,141-28,133.6-22.4c-0.1,0.1-0.1,0.2-0.1,0.3c0.1,0.1,0.2,0.2,0.3,0.1c6.8-2,12.2-5.4,15-12.5
						c0,6.2-2.1,12.4-7.5,16.5c-0.1,0.1-0.1,0.2-0.1,0.3c0.1,0.1,0.2,0.2,0.3,0.1c3.5-1,6.2-2.5,8.1-5.2
						c1.3,11.1,6.5,17.7,12.5,17.7c4.1,0,7.2-3,7.2-7.9C169.3-15.4,167.8-19.4,164.5-21.6z M263.7-113.2c-3.2-3.9-9.5-5.4-16.4-4
						c0.5-4.3-0.3-8.8-1.6-11.5c-0.1-0.1-0.2-0.2-0.3-0.1c-0.1,0-0.2,0.1-0.2,0.3c0.4,8.8-4.6,15.8-13.4,18.9
						c6.9-4.8,8.9-14.2,5.6-19.1c-0.1-0.1-0.2-0.1-0.3-0.1s-0.2,0.2-0.2,0.3c0.4,2.1-0.6,4.7-2.7,6.7c-2.9,2.8-6.8,3.5-8.8,1.4
						c-2-2-1.2-5.9,1.7-8.8c1.1-1,2.3-1.8,3.4-2.2c0.1,0,0.2-0.2,0.2-0.3s-0.1-0.2-0.2-0.2c-6.4-0.6-10.8,3.3-13.5,7.9
						c-2.8,4.7-7.6,8.4-13.2,7.7c-0.1,0-0.2,0.1-0.3,0.2c0,0.1,0,0.2,0.1,0.3c2.8,1.7,5.9,2.4,9.9,1.1c-5.8,4.9-14,7.7-21.8,5.2
						c-0.1,0-0.2,0-0.3,0.1s-0.1,0.2,0,0.3c5.9,6.6,17.7,6.7,25.1,1.4c-3,4.3-7.1,7.5-14.3,8.5c-0.1,0-0.2,0.1-0.2,0.2
						c0,0.1,0.1,0.2,0.2,0.3c8.3,3.1,16.6,0,23.4-8.2c-3,6.4-7.9,11.5-14.8,14c-0.1,0-0.2,0.2-0.2,0.3s0.1,0.2,0.2,0.2
						c3.9,0.1,7.5-0.9,12.3-3.6c-3.5,5.7-2.7,15.6,2.4,22.3c0.1,0.1,0.2,0.1,0.3,0.1s0.2-0.2,0.1-0.3c-1.2-7.2,1.3-15.3,5.6-19.6
						c-2.2,7.6,0,14.6,5.9,19.6c0.1,0.1,0.2,0.1,0.3,0c0.1,0,0.1-0.1,0.2-0.2c1.2-9.4,11.8-19,20.6-19.8c0.1,0,0.2-0.1,0.2-0.2
						c0-0.1-0.1-0.2-0.2-0.3c-4.3-1-8.7-0.5-12.4,1c2.7-2.9,5.9-5.1,9.6-6.2c0.1,0,0.2-0.2,0.2-0.3s-0.1-0.2-0.2-0.2
						c-4.5-0.3-8.9,1-12.7,3.5c4.4-6.6,11-11.5,19.4-13.5c0.1,0,0.2-0.1,0.2-0.3c0-0.1-0.1-0.2-0.2-0.2
						c-11.9-1.3-21.7,3.3-28.2,11.9c1.6-4.9,6.4-9.8,12.9-12.6c5.8-2.5,11.8-2.9,16.4-1.5c0.1,0,0.2,0,0.3-0.1
						C263.8-113,263.8-113.1,263.7-113.2z M210.8-37.6c4.8-10.5,4.5-18.7,0.6-29.1c0-0.1-0.2-0.2-0.3-0.2s-0.2,0.1-0.2,0.3
						c0.6,12.6-2.8,21.7-10.3,27.8c8.3-9.9,4.4-29.6-8.8-29.6c-9.6,0-17.5,8-19.5,17.5c0,0.1,0,0.2,0.2,0.3c0.1,0,0.2,0,0.3-0.1
						c2.8-4.8,7.4-7.9,12.5-7.9c8.1,0,10.5,6.5,10.5,11c0,6.2-4.9,11.3-8.7,11.3c-3.4,0-5-2.8-5-4.9c0-3.9,3-7.2,6.4-8.2
						c0.1,0,0.2-0.2,0.2-0.3s-0.1-0.2-0.3-0.2c-4.1,0-7.6,1.9-9.6,5.6c-0.3-2.9-0.3-4.7,0.6-7.7c0-0.1,0-0.2-0.1-0.3s-0.2,0-0.3,0.1
						c-7.4,9.4-3.8,25.6,2,32.4c-5.5-4-10.4-12.6-10.3-24.4c0-0.1-0.1-0.2-0.2-0.3c-0.1,0-0.2,0-0.3,0.2
						c-4.1,10.3-1.9,29.2,9.3,39.9c-2.9,0.4-5.9,0.3-9.1-0.7c-0.1,0-0.2,0-0.3,0.1s0,0.2,0.1,0.3c4.1,3.5,9.8,4.5,15.3,4.5
						c-4.7-5.5-3.1-16.6,4.4-16.6c5.3,0,7.8,8.3,3.6,12.8c-0.1,0.1-0.1,0.2,0,0.3s0.2,0.1,0.3,0.1c4.8-1.7,9.9-5.8,9.9-11
						c0-5-4.8-9.4-11.8-9.1c8.8-2.5,18.1,0.3,22.9,6.3c0.1,0.1,0.2,0.1,0.3,0.1c0.1-0.1,0.2-0.2,0.1-0.3
						c-2.8-10.7-12-15.2-23.4-13.7c9.3-3.8,23.3-0.5,29.4,7.3c0.1,0.1,0.2,0.1,0.3,0.1c0.1-0.1,0.2-0.2,0.1-0.3
						C220.1-30.7,216.6-35.7,210.8-37.6z"/>
					<path id="XMLID_27_" opacity="0.4" fill="#9DDCF9" enable-background="new    " d="M237.2-56.9c0,0.1-0.1,0.2-0.2,0.2
						c-12.9,0.1-24.8,3.3-34,11.5c8-5.6,22.9-7.5,31.5-3.6c0.1,0.1,0.2,0.2,0.1,0.3c0,0.1-0.1,0.2-0.3,0.2c-10.7-0.3-19.3,3-26,9
						c6.9,0.4,12.6,4.7,12.6,9.8c0,0.1-0.1,0.2-0.2,0.2c-0.1,0-0.2,0-0.3-0.1c-1.1-2.5-4.7-3.8-8.6-2.9c-4.2,1-7,4.2-6.3,7.2
						c0.5,2,2.4,3.4,5,3.8c0.1,0,0.2,0.1,0.2,0.3c0,0.1-0.1,0.2-0.2,0.2c-1.1,0.1-2.2,0.1-3.3,0c-6.5-0.6-11.5-4.6-11.9-9.2
						c-4.7,0.5-8.9,3.2-10.4,6.8c0,0.1-0.2,0.2-0.3,0.2s-0.2-0.1-0.2-0.2c-0.4-4.8,1.3-7.8,5-10.9c-5.4,2.1-11.4,2.2-17.3-0.5
						c-0.1-0.1-0.2-0.2-0.1-0.3c0-0.1,0.1-0.2,0.2-0.2c4.9-0.2,8.4-1.8,11.7-5.1c-18.3,5.1-33.1-6.2-28-23.1c0-0.1,0.1-0.2,0.3-0.2
						c0.1,0,0.2,0.1,0.2,0.2c0.9,9.7,7.7,16.1,17.9,17.1c-5.4-2.1-11-7-11.6-15.5c0-0.1,0.1-0.2,0.2-0.3c0.1,0,0.2,0,0.3,0.1
						c2.8,6.2,8.3,9.3,14.2,9.8c-6.3-2.6-10.4-8.6-11.6-16.4c0-0.1,0.1-0.2,0.2-0.3c0.1,0,0.2,0,0.3,0.1c3.9,7.6,12.2,12.8,22.4,8.8
						c10.6-4.1,15.3-16.4,16.3-25c0-0.1,0.1-0.2,0.2-0.2c0.1,0,0.2,0.1,0.3,0.2c3.7,15.7-3.6,31.9-16.6,38.8c7.1-2,13.4-6.3,17-13.4
						c8.3-1,14-3.9,16.9-9.2c0.1-0.1,0.2-0.2,0.3-0.1c0.1,0,0.2,0.1,0.2,0.3c-0.2,2.1-0.9,6.3-4.1,8.3c7,0,12.5,0.9,17.8,3
						C237.2-57.1,237.2-57,237.2-56.9z M207.7-110.4c0.1,0.1,0.2,0.1,0.3,0s0.1-0.2,0-0.3c-1.6-2.8-0.1-6.8,3.1-6.8
						c5.7,0,8.5,10.8,7.6,20.6c-2.2-5.8-4-8.1-7.3-10.8c-0.1-0.1-0.2-0.1-0.3,0s-0.1,0.2-0.1,0.3c4.9,9.1,5.9,16.1,5.9,24.1
						c-1.5-6-3.2-9.3-8.1-14.4c-0.1-0.1-0.2-0.1-0.3,0s-0.1,0.2-0.1,0.3c5.3,11.6,4.9,24.4,0.9,34.3c0,0.1,0,0.2,0.1,0.3
						s0.2,0.1,0.3,0c5.2-2.6,8.3-4.2,12.8-10.4c-1.4-7.4-0.2-11,3.2-17.2c-3.9,9.9-1.8,23.9,8.2,29.6c0.1,0.1,0.2,0,0.3-0.1
						s0.1-0.2,0-0.3c-3.8-4-6.5-10.6-4.2-17.9c-1.5,10.4,7.6,19.1,17.8,19.1c9.6,0,16.2-7.5,15.6-14.9c-0.5-7.4-5.4-11-9.7-12.5
						c-0.1,0-0.2,0-0.3,0.1s-0.1,0.2,0,0.3c5.6,5.7,6.4,16.5-3.6,19.8c5.9-5.1,3.7-16.8-5.7-17.7c-0.1,0-0.2,0.1-0.3,0.2
						c0,0.1,0,0.2,0.1,0.3c2,1.3,3.7,3.8,3.7,6.6c0,4.7-3.4,6.5-5.7,6.5c-3.4,0-6.3-3.3-6.3-8.2c0-5.8,5.3-10.7,12-11.4
						c6.6-0.7,12.8,2.2,15.8,6.5c0.1,0.1,0.2,0.1,0.3,0.1c0.1-0.1,0.2-0.2,0.1-0.3c-3-11.7-16.8-16.9-26.9-9.5
						c6.6-7.5,17-7.6,25.7,0.1c0.1,0.1,0.2,0.1,0.3,0c0.1-0.1,0.1-0.2,0.1-0.3c-2.7-5.4-9.3-11.8-18.6-10.9
						c-8.6,0.9-13.5,9-14.5,15.7c-0.6-8.5,1.4-14.5,8.8-20.1c0.1-0.1,0.1-0.2,0.1-0.3s-0.2-0.2-0.3-0.1c-6.8,2-12.2,5.4-15,12.5
						c0-6.2,2.1-12.4,7.5-16.5c0.1-0.1,0.1-0.2,0.1-0.3c-0.1-0.1-0.2-0.2-0.3-0.1c-3.5,1-6.2,2.5-8.1,5.2
						c-1.3-11.1-6.5-17.7-12.5-17.7c-4.1,0-7.2,3-7.2,7.9C202.9-116.6,204.4-112.6,207.7-110.4z M108.5-18.8c3.2,3.9,9.5,5.4,16.4,4
						c-0.5,4.3,0.3,8.8,1.6,11.5c0.1,0.1,0.2,0.2,0.3,0.1c0.1,0,0.2-0.1,0.2-0.3c-0.4-8.8,4.6-15.8,13.4-18.9
						c-6.9,4.8-8.9,14.2-5.6,19.1c0.1,0.1,0.2,0.1,0.3,0.1s0.2-0.2,0.2-0.3c-0.4-2.1,0.6-4.7,2.7-6.7c2.9-2.8,6.8-3.5,8.8-1.4
						c2,2,1.2,5.9-1.7,8.8c-1.1,1-2.3,1.8-3.4,2.2c-0.1,0-0.2,0.2-0.2,0.3s0.1,0.2,0.2,0.2c6.4,0.6,10.8-3.3,13.5-7.9
						c2.8-4.7,7.6-8.4,13.2-7.7c0.1,0,0.2-0.1,0.3-0.2c0-0.1,0-0.2-0.1-0.3c-2.8-1.7-5.9-2.4-9.9-1.1c5.8-4.9,14-7.7,21.8-5.2
						c0.1,0,0.2,0,0.3-0.1s0.1-0.2,0-0.3c-5.9-6.6-17.7-6.7-25.1-1.4c3-4.3,7.1-7.5,14.3-8.5c0.1,0,0.2-0.1,0.2-0.2
						c0-0.1-0.1-0.2-0.2-0.3c-8.3-3.1-16.6,0-23.4,8.2c3-6.4,7.9-11.5,14.8-14c0.1,0,0.2-0.2,0.2-0.3s-0.1-0.2-0.2-0.2
						c-3.9-0.1-7.5,0.9-12.3,3.6c3.5-5.7,2.7-15.6-2.4-22.3c-0.1-0.1-0.2-0.1-0.3-0.1s-0.2,0.2-0.1,0.3c1.2,7.2-1.3,15.3-5.6,19.6
						c2.2-7.6,0-14.6-5.9-19.6c-0.1-0.1-0.2-0.1-0.3,0c-0.1,0-0.1,0.1-0.2,0.2c-1.2,9.4-11.8,19-20.6,19.8c-0.1,0-0.2,0.1-0.2,0.2
						s0.1,0.2,0.2,0.3c4.3,1,8.7,0.5,12.4-1c-2.7,2.9-5.9,5.1-9.6,6.2c-0.1,0-0.2,0.2-0.2,0.3c0,0.1,0.1,0.2,0.2,0.2
						c4.5,0.3,8.9-1,12.7-3.5c-4.4,6.6-11,11.5-19.4,13.5c-0.1,0-0.2,0.1-0.2,0.3c0,0.1,0.1,0.2,0.2,0.2
						c11.9,1.3,21.7-3.3,28.2-11.9c-1.6,4.9-6.4,9.8-12.9,12.6c-5.8,2.5-11.8,2.9-16.4,1.5c-0.1,0-0.2,0-0.3,0.1
						C108.4-19,108.4-18.8,108.5-18.8z M161.4-94.3c-4.8,10.5-4.5,18.7-0.6,29.1c0,0.1,0.2,0.2,0.3,0.2s0.2-0.1,0.2-0.3
						c-0.6-12.6,2.8-21.7,10.3-27.8c-8.3,9.9-4.4,29.6,8.8,29.6c9.6,0,17.5-8,19.5-17.5c0-0.1,0-0.2-0.2-0.3c-0.1,0-0.2,0-0.3,0.1
						c-2.8,4.8-7.4,7.9-12.5,7.9c-8.1,0-10.5-6.5-10.5-11c0-6.2,4.9-11.3,8.7-11.3c3.4,0,5,2.8,5,4.9c0,3.9-3,7.2-6.4,8.2
						c-0.1,0-0.2,0.2-0.2,0.3s0.1,0.2,0.3,0.2c4.1,0,7.6-1.9,9.6-5.6c0.3,2.9,0.3,4.7-0.6,7.7c0,0.1,0,0.2,0.1,0.3s0.2,0,0.3-0.1
						c7.4-9.4,3.8-25.6-2-32.4c5.5,4,10.4,12.6,10.3,24.4c0,0.1,0.1,0.2,0.2,0.3c0.1,0,0.2,0,0.3-0.2c4.1-10.3,1.9-29.2-9.3-39.9
						c2.9-0.4,5.9-0.3,9.1,0.7c0.1,0,0.2,0,0.3-0.1s0-0.2-0.1-0.3c-4.1-3.5-9.8-4.5-15.3-4.5c4.7,5.5,3.1,16.6-4.4,16.6
						c-5.3,0-7.8-8.3-3.6-12.8c0.1-0.1,0.1-0.2,0-0.3c-0.1-0.1-0.2-0.1-0.3-0.1c-4.8,1.7-9.9,5.8-9.9,11c0,5,4.8,9.4,11.8,9.1
						c-8.8,2.5-18.1-0.3-22.9-6.3c-0.1-0.1-0.2-0.1-0.3-0.1c-0.1,0.1-0.2,0.2-0.1,0.3c2.8,10.7,12,15.2,23.4,13.7
						c-9.3,3.8-23.3,0.5-29.4-7.3c-0.1-0.1-0.2-0.1-0.3-0.1s-0.2,0.2-0.1,0.3C152.2-101.2,155.7-96.3,161.4-94.3z"/>
				</g>
				<g id="XMLID_23_">
					<path id="XMLID_25_" fill="#00427E" d="M26.7-75c0-0.1,0.1-0.2,0.2-0.2c12.9-0.1,24.8-3.3,34-11.5c-8,5.6-22.9,7.5-31.5,3.6
						c-0.1,0-0.2-0.2-0.1-0.3c0-0.1,0.1-0.2,0.3-0.2c10.7,0.3,19.3-3,26-9C48.7-93,43-97.3,43-102.4c0-0.1,0.1-0.2,0.2-0.2
						c0.1,0,0.2,0,0.3,0.1c1.1,2.5,4.7,3.8,8.6,2.9c4.2-1,7-4.2,6.3-7.2c-0.5-2-2.4-3.4-5-3.8c-0.1,0-0.2-0.1-0.2-0.3
						c0-0.1,0.1-0.2,0.2-0.2c1.1-0.1,2.2-0.1,3.3,0c6.5,0.6,11.5,4.6,11.9,9.2c4.7-0.5,8.9-3.2,10.4-6.8c0-0.1,0.2-0.2,0.3-0.2
						c0.1,0,0.2,0.1,0.2,0.2c0.4,4.8-1.3,7.8-5,10.9c5.4-2.1,11.4-2.2,17.3,0.5c0.1,0,0.2,0.2,0.1,0.3c0,0.1-0.1,0.2-0.2,0.2
						c-4.9,0.2-8.4,1.8-11.7,5.1c18.3-5.1,33.1,6.2,28,23.1c0,0.1-0.1,0.2-0.3,0.2c-0.1,0-0.2-0.1-0.2-0.2
						c-0.9-9.7-7.7-16.1-17.9-17.1c5.4,2.1,11,7,11.6,15.5c0,0.1-0.1,0.2-0.2,0.3c-0.1,0-0.2,0-0.3-0.1c-2.8-6.2-8.3-9.3-14.2-9.8
						c6.3,2.6,10.4,8.6,11.6,16.4c0,0.1-0.1,0.2-0.2,0.3c-0.1,0-0.2,0-0.3-0.1C93.7-70.8,85.4-76,75.2-72
						c-10.7,3.9-15.4,16.2-16.4,24.9c0,0.1-0.1,0.2-0.2,0.2c-0.1,0-0.2-0.1-0.3-0.2C54.6-62.8,61.9-79,74.9-85.9
						c-7.1,2-13.4,6.3-17,13.4c-8.3,1-14,3.9-16.9,9.2c-0.1,0.1-0.2,0.2-0.3,0.1c-0.1,0-0.2-0.1-0.2-0.3c0.2-2.1,0.9-6.3,4.1-8.3
						c-7,0-12.5-0.9-17.8-3C26.7-74.8,26.7-74.9,26.7-75z M56.2-21.6c-0.1-0.1-0.2-0.1-0.3,0s-0.1,0.2,0,0.3
						c1.6,2.8,0.1,6.8-3.1,6.8c-5.7,0-8.5-10.8-7.6-20.6c2.2,5.8,4,8.1,7.3,10.8c0.1,0.1,0.2,0.1,0.3,0s0.1-0.2,0.1-0.3
						c-4.8-9-5.9-16-5.9-24c1.5,6,3.2,9.3,8.1,14.4c0.1,0.1,0.2,0.1,0.3,0s0.1-0.2,0.1-0.3c-5.3-11.6-4.9-24.4-0.9-34.3
						c0-0.1,0-0.2-0.1-0.3s-0.2-0.1-0.3,0c-5.2,2.6-8.3,4.2-12.8,10.4c1.4,7.4,0.2,11-3.2,17.2c3.9-9.9,1.8-23.9-8.2-29.6
						c-0.1-0.1-0.2,0-0.3,0.1c-0.1,0.1-0.1,0.2,0,0.3c3.8,4,6.5,10.6,4.2,17.9c1.5-10.4-7.6-19.1-17.8-19.1
						C6.5-71.9-0.1-64.4,0.5-57c0.5,7.4,5.4,11,9.7,12.5c0.1,0,0.2,0,0.3-0.1s0-0.2,0-0.3c-5.6-5.7-6.4-16.5,3.6-19.8
						c-5.9,5.1-3.7,16.8,5.7,17.7c0.1,0,0.2-0.1,0.3-0.2c0-0.1,0-0.2-0.1-0.3c-2-1.3-3.7-3.8-3.7-6.6c0-4.7,3.4-6.5,5.7-6.5
						c3.4,0,6.3,3.3,6.3,8.2c0,5.8-5.3,10.7-12,11.4c-6.7,0.9-12.9-2-15.8-6.3c-0.1-0.1-0.2-0.1-0.3-0.1C0-47.4,0-47.2,0-47.1
						c3,11.7,16.8,16.9,26.9,9.5c-6.6,7.5-17,7.6-25.7-0.1c-0.1-0.1-0.2-0.1-0.3,0s-0.1,0.2-0.1,0.3c2.7,5.4,9.3,11.8,18.6,10.9
						c8.6-0.9,13.5-9,14.5-15.7c0.6,8.5-1.4,14.5-8.8,20.1C25-22,25-21.9,25-21.8c0.1,0.1,0.2,0.2,0.3,0.1c6.8-2,12.2-5.4,15-12.5
						c0,6.2-2.1,12.4-7.5,16.5c-0.1,0.1-0.1,0.2-0.1,0.3c0.1,0.1,0.2,0.2,0.3,0.1c3.5-1,6.2-2.5,8.1-5.2
						c1.3,11.1,6.5,17.7,12.5,17.7c4.1,0,7.2-3,7.2-7.9C61-15.4,59.5-19.4,56.2-21.6z M155.4-113.2c-3.2-3.9-9.5-5.4-16.4-4
						c0.5-4.3-0.3-8.8-1.6-11.5c-0.1-0.1-0.2-0.2-0.3-0.1c-0.1,0-0.2,0.1-0.2,0.3c0.4,8.8-4.6,15.8-13.4,18.9
						c6.9-4.8,8.9-14.2,5.6-19.1c-0.1-0.1-0.2-0.1-0.3-0.1s-0.2,0.2-0.2,0.3c0.4,2.1-0.6,4.7-2.7,6.7c-2.9,2.8-6.8,3.5-8.8,1.4
						c-2-2-1.2-5.9,1.7-8.8c1.1-1,2.3-1.8,3.4-2.2c0.1,0,0.2-0.2,0.2-0.3s-0.1-0.2-0.2-0.2c-6.4-0.6-10.8,3.3-13.5,7.9
						c-2.8,4.7-7.6,8.4-13.2,7.7c-0.1,0-0.2,0.1-0.3,0.2c0,0.1,0,0.2,0.1,0.3c2.8,1.7,5.9,2.4,9.9,1.1c-5.8,4.9-14,7.7-21.8,5.2
						c-0.1,0-0.2,0-0.3,0.1c-0.1,0.1-0.1,0.2,0,0.3c5.9,6.6,17.7,6.7,25.1,1.4c-3,4.3-7.1,7.5-14.3,8.5c-0.1,0-0.2,0.1-0.2,0.2
						c0,0.1,0.1,0.2,0.2,0.3c8.3,3.1,16.6,0,23.4-8.2c-3,6.4-7.9,11.5-14.8,14c-0.1,0-0.2,0.2-0.2,0.3s0.1,0.2,0.2,0.2
						c3.9,0.1,7.5-0.9,12.3-3.6c-3.5,5.7-2.7,15.6,2.4,22.3c0.1,0.1,0.2,0.1,0.3,0.1c0.1,0,0.2-0.2,0.1-0.3
						c-1.2-7.2,1.3-15.3,5.6-19.6c-2.2,7.6,0,14.6,5.9,19.6c0.1,0.1,0.2,0.1,0.3,0c0.1,0,0.1-0.1,0.2-0.2c1.2-9.4,11.8-19,20.6-19.8
						c0.1,0,0.2-0.1,0.2-0.2c0-0.1-0.1-0.2-0.2-0.3c-4.3-1-8.7-0.5-12.4,1c2.7-2.9,5.9-5.1,9.6-6.2c0.1,0,0.2-0.2,0.2-0.3
						s-0.1-0.2-0.2-0.2c-4.5-0.3-8.9,1-12.7,3.5c4.4-6.6,11-11.5,19.4-13.5c0.1,0,0.2-0.1,0.2-0.3c0-0.1-0.1-0.2-0.2-0.2
						c-11.9-1.3-21.7,3.3-28.2,11.9c1.6-4.9,6.4-9.8,12.9-12.6c5.8-2.5,11.8-2.9,16.4-1.5c0.1,0,0.2,0,0.3-0.1
						C155.5-113,155.5-113.1,155.4-113.2z M102.5-37.6c4.8-10.5,4.5-18.7,0.6-29.1c0-0.1-0.2-0.2-0.3-0.2c-0.1,0-0.2,0.1-0.2,0.3
						c0.6,12.6-2.8,21.7-10.3,27.8c8.3-9.9,4.4-29.6-8.8-29.6c-9.6,0-17.5,8-19.5,17.5c0,0.1,0,0.2,0.2,0.3c0.1,0,0.2,0,0.3-0.1
						c2.8-4.8,7.4-7.9,12.5-7.9c8.1,0,10.5,6.5,10.5,11c0,6.2-4.9,11.3-8.7,11.3c-3.4,0-5-2.8-5-4.9c0-3.9,3-7.2,6.4-8.2
						c0.1,0,0.2-0.2,0.2-0.3s-0.1-0.2-0.3-0.2c-4.1,0-7.6,1.9-9.6,5.6c-0.3-2.9-0.3-4.7,0.6-7.7c0-0.1,0-0.2-0.1-0.3s-0.2,0-0.3,0.1
						c-7.4,9.4-3.8,25.6,2,32.4c-5.5-4-10.4-12.6-10.3-24.4c0-0.1-0.1-0.2-0.2-0.3c-0.1,0-0.2,0-0.3,0.2C57.8-34,60-15.1,71.2-4.4
						c-2.9,0.4-5.9,0.3-9.1-0.7c-0.1,0-0.2,0-0.3,0.1s0,0.2,0.1,0.3c3.9,3.5,9.6,4.6,15.1,4.6c-4.7-5.5-3.1-16.6,4.4-16.6
						c5.3,0,7.8,8.3,3.6,12.8c-0.1,0.1-0.1,0.2,0,0.3s0.2,0.1,0.3,0.1c4.8-1.7,9.9-5.8,9.9-11c0-5-4.8-9.4-11.8-9.1
						c8.8-2.5,18.1,0.3,22.9,6.3c0.1,0.1,0.2,0.1,0.3,0.1c0.1-0.1,0.2-0.2,0.1-0.3c-2.8-10.7-12-15.2-23.4-13.7
						c9.3-3.8,23.2-0.5,29.4,7.3c0.1,0.1,0.2,0.1,0.3,0.1c0.1-0.1,0.2-0.2,0.1-0.3C111.8-30.7,108.3-35.7,102.5-37.6z"/>
					<path id="XMLID_24_" opacity="0.4" fill="#9DDCF9" enable-background="new    " d="M128.9-56.9c0,0.1-0.1,0.2-0.2,0.2
						c-12.9,0.1-24.8,3.3-34,11.5c8-5.6,22.9-7.5,31.5-3.6c0.1,0.1,0.2,0.2,0.1,0.3c0,0.1-0.1,0.2-0.3,0.2c-10.7-0.3-19.3,3-26,9
						c6.9,0.4,12.6,4.7,12.6,9.8c0,0.1-0.1,0.2-0.2,0.2s-0.2,0-0.3-0.1c-1.1-2.5-4.7-3.8-8.6-2.9c-4.2,1-7,4.2-6.3,7.2
						c0.5,2,2.4,3.4,5,3.8c0.1,0,0.2,0.1,0.2,0.3c0,0.1-0.1,0.2-0.2,0.2c-1.1,0.1-2.2,0.1-3.3,0C92.4-21.4,87.4-25.4,87-30
						c-4.7,0.5-8.9,3.2-10.4,6.8c0,0.1-0.2,0.2-0.3,0.2c-0.1,0-0.2-0.1-0.2-0.2c-0.4-4.8,1.3-7.8,5-10.9c-5.4,2.1-11.4,2.2-17.3-0.5
						c-0.1-0.1-0.2-0.2-0.1-0.3c0-0.1,0.1-0.2,0.2-0.2c4.9-0.2,8.4-1.8,11.7-5.1c-18.3,5.1-33.1-6.2-28-23.1c0-0.1,0.1-0.2,0.3-0.2
						c0.1,0,0.2,0.1,0.2,0.2c1,9.8,7.8,16.2,17.9,17.1c-5.4-2.1-11-7-11.6-15.5c0-0.1,0.1-0.2,0.2-0.3c0.1,0,0.2,0,0.3,0.1
						c2.8,6.2,8.3,9.3,14.2,9.8c-6.3-2.6-10.4-8.6-11.6-16.4c0-0.1,0.1-0.2,0.2-0.3c0.1,0,0.2,0,0.3,0.1c3.9,7.6,12.2,12.8,22.4,8.8
						C91-64,95.7-76.3,96.7-84.9c0-0.1,0.1-0.2,0.2-0.2s0.2,0.1,0.3,0.2c3.7,15.7-3.6,31.9-16.6,38.8c7.1-2,13.4-6.3,17-13.4
						c8.3-1,14-3.9,16.9-9.2c0.1-0.1,0.2-0.2,0.3-0.1c0.1,0,0.2,0.1,0.2,0.3c-0.2,2.1-0.9,6.3-4.1,8.3c7,0,12.5,0.9,17.8,3
						C128.8-57.1,128.9-57,128.9-56.9z M99.4-110.4c0.1,0.1,0.2,0.1,0.3,0c0.1-0.1,0.1-0.2,0-0.3c-1.6-2.8-0.1-6.8,3.1-6.8
						c5.7,0,8.5,10.8,7.6,20.6c-2.2-5.8-4-8.1-7.3-10.8c-0.1-0.1-0.2-0.1-0.3,0c-0.1,0.1-0.1,0.2-0.1,0.3c4.9,9.1,5.9,16.1,5.9,24.1
						c-1.5-6-3.2-9.3-8.1-14.4c-0.1-0.1-0.2-0.1-0.3,0c-0.1,0.1-0.1,0.2-0.1,0.3c5.3,11.6,4.9,24.4,0.9,34.3c0,0.1,0,0.2,0.1,0.3
						s0.2,0.1,0.3,0c5.2-2.6,8.3-4.2,12.8-10.4c-1.4-7.4-0.2-11,3.2-17.2c-3.9,9.9-1.8,23.9,8.2,29.6c0.1,0.1,0.2,0,0.3-0.1
						c0.1-0.1,0.1-0.2,0-0.3c-3.8-4-6.5-10.6-4.2-17.9c-1.5,10.4,7.6,19.1,17.8,19.1c9.6,0,16.2-7.5,15.6-14.9
						c-0.5-7.4-5.4-11-9.7-12.5c-0.1,0-0.2,0-0.3,0.1s-0.1,0.2,0,0.3c5.6,5.7,6.4,16.5-3.6,19.8c5.9-5.1,3.7-16.8-5.7-17.7
						c-0.1,0-0.2,0.1-0.3,0.2c0,0.1,0,0.2,0.1,0.3c2,1.3,3.7,3.8,3.7,6.6c0,4.7-3.4,6.5-5.7,6.5c-3.4,0-6.3-3.3-6.3-8.2
						c0-5.8,5.3-10.7,12-11.4c6.6-0.7,12.8,2.2,15.8,6.5c0.1,0.1,0.2,0.1,0.3,0.1c0.1-0.1,0.2-0.2,0.1-0.3
						c-3-11.7-16.8-16.9-26.9-9.5c6.6-7.5,17-7.6,25.7,0.1c0.1,0.1,0.2,0.1,0.3,0s0.1-0.2,0.1-0.3c-2.7-5.4-9.3-11.8-18.6-10.9
						c-8.6,0.9-13.5,9-14.5,15.7c-0.6-8.5,1.4-14.5,8.8-20.1c0.1-0.1,0.1-0.2,0.1-0.3s-0.2-0.2-0.3-0.1c-6.8,2-12.2,5.4-15,12.5
						c0-6.2,2.1-12.4,7.5-16.5c0.1-0.1,0.1-0.2,0.1-0.3c-0.1-0.1-0.2-0.2-0.3-0.1c-3.5,1-6.2,2.5-8.1,5.2
						c-1.3-11.1-6.5-17.7-12.5-17.7c-4.1,0-7.2,3-7.2,7.9C94.6-116.6,96.1-112.6,99.4-110.4z M0.2-18.8c3.2,3.9,9.5,5.4,16.4,4
						c-0.5,4.3,0.3,8.8,1.6,11.5c0.1,0.1,0.2,0.2,0.3,0.2s0.2-0.1,0.2-0.3c-0.4-8.8,4.6-15.8,13.4-18.9c-6.9,4.7-8.9,14.2-5.6,19
						c0.1,0.1,0.2,0.1,0.3,0.1c0.1,0,0.2-0.2,0.2-0.3c-0.4-2.1,0.6-4.7,2.7-6.7c2.9-2.8,6.8-3.5,8.8-1.4c2,2,1.2,5.9-1.7,8.8
						c-1.1,1-2.3,1.8-3.4,2.2c-0.1,0-0.2,0.2-0.2,0.3s0.1,0.2,0.2,0.2C39.8,0.5,44.2-3.4,46.9-8c2.8-4.7,7.6-8.4,13.2-7.7
						c0.1,0,0.2-0.1,0.3-0.2c0-0.1,0-0.2-0.1-0.3c-2.8-1.7-5.9-2.4-9.9-1.1c5.8-4.9,14-7.7,21.8-5.2c0.1,0,0.2,0,0.3-0.1
						c0.1-0.1,0.1-0.2,0-0.3c-5.9-6.6-17.7-6.7-25.1-1.4c3-4.3,7.1-7.5,14.3-8.5c0.1,0,0.2-0.1,0.2-0.2c0-0.1-0.1-0.2-0.2-0.3
						c-8.3-3.1-16.6,0-23.4,8.2c3-6.4,7.9-11.5,14.8-14c0.1,0,0.2-0.2,0.2-0.3s-0.1-0.2-0.2-0.2c-3.9-0.1-7.5,0.9-12.3,3.6
						c3.5-5.7,2.7-15.6-2.4-22.3c-0.1-0.1-0.2-0.1-0.3-0.1s-0.2,0.2-0.1,0.3c1.2,7.2-1.3,15.3-5.6,19.6c2.2-7.6,0-14.6-5.9-19.6
						c-0.1-0.1-0.2-0.1-0.3,0c-0.1,0-0.1,0.1-0.2,0.2c-1.2,9.4-11.8,19-20.6,19.8c-0.1,0-0.2,0.1-0.2,0.2s0.1,0.2,0.2,0.3
						c4.3,1,8.7,0.5,12.4-1c-2.7,2.9-5.9,5.1-9.6,6.2C8.1-32.3,8-32.2,8-32.1c0,0.1,0.1,0.2,0.2,0.2c4.5,0.3,8.9-1,12.7-3.5
						c-4.4,6.6-11,11.5-19.4,13.5c-0.1,0-0.2,0.1-0.2,0.3c0,0.1,0.1,0.2,0.2,0.2c11.9,1.3,21.7-3.3,28.2-11.9
						c-1.6,4.9-6.4,9.8-12.9,12.6C11-18.1,5-17.7,0.4-19.2c-0.1,0-0.2,0-0.3,0.1C0.1-19,0.1-18.8,0.2-18.8z M53.1-94.3
						c-4.8,10.5-4.5,18.7-0.6,29.1c0,0.1,0.2,0.2,0.3,0.2s0.2-0.1,0.2-0.3C52.4-77.9,55.8-87,63.3-93.1c-8.3,9.9-4.4,29.6,8.8,29.6
						c9.6,0,17.5-8,19.5-17.5c0-0.1,0-0.2-0.2-0.3c-0.1,0-0.2,0-0.3,0.1c-2.8,4.8-7.4,7.9-12.5,7.9c-8.1,0-10.5-6.5-10.5-11
						c0-6.2,4.9-11.3,8.7-11.3c3.4,0,5,2.8,5,4.9c0,3.9-3,7.2-6.4,8.2c-0.1,0-0.2,0.2-0.2,0.3s0.1,0.2,0.3,0.2
						c4.1,0,7.6-1.9,9.6-5.6c0.3,2.9,0.3,4.7-0.6,7.7c0,0.1,0,0.2,0.1,0.3s0.2,0,0.3-0.1c7.4-9.4,3.8-25.6-2-32.4
						c5.5,4,10.4,12.6,10.3,24.4c0,0.1,0.1,0.2,0.2,0.3c0.1,0,0.2,0,0.3-0.2c4.1-10.3,1.9-29.2-9.3-39.9c2.9-0.4,5.9-0.3,9.1,0.7
						c0.1,0,0.2,0,0.3-0.1c0.1-0.1,0-0.2-0.1-0.3c-4.1-3.5-9.8-4.5-15.3-4.5c4.7,5.5,3.1,16.6-4.4,16.6c-5.3,0-7.8-8.3-3.6-12.8
						c0.1-0.1,0.1-0.2,0-0.3c-0.1-0.1-0.2-0.1-0.3-0.1c-4.8,1.7-9.9,5.8-9.9,11c0,5,4.8,9.4,11.8,9.1c-8.8,2.5-18.1-0.3-22.9-6.3
						c-0.1-0.1-0.2-0.1-0.3-0.1c-0.1,0.1-0.2,0.2-0.1,0.3c2.8,10.7,12,15.2,23.4,13.7c-9.3,3.8-23.3,0.5-29.4-7.3
						c-0.1-0.1-0.2-0.1-0.3-0.1s-0.2,0.2-0.1,0.3C43.8-101.2,47.3-96.3,53.1-94.3z"/>
				</g>
				<g id="XMLID_19_">
					<path id="XMLID_22_" fill="#00427E" d="M135-184.7c0-0.1,0.1-0.2,0.2-0.2c12.9-0.1,24.8-3.3,34-11.5c-8,5.6-22.9,7.5-31.5,3.6
						c-0.1,0-0.2-0.2-0.1-0.3c0-0.1,0.1-0.2,0.3-0.2c10.7,0.3,19.3-3,26-9c-6.9-0.4-12.6-4.7-12.6-9.8c0-0.1,0.1-0.2,0.2-0.2
						c0.1,0,0.2,0,0.3,0.1c1.1,2.5,4.7,3.8,8.6,2.9c4.2-1,7-4.2,6.3-7.2c-0.5-2-2.4-3.4-5-3.8c-0.1,0-0.2-0.1-0.2-0.3
						c0-0.1,0.1-0.2,0.2-0.2c1.1-0.1,2.2-0.1,3.3,0c6.5,0.6,11.5,4.6,11.9,9.2c4.7-0.5,8.9-3.2,10.4-6.8c0-0.1,0.2-0.2,0.3-0.2
						s0.2,0.1,0.2,0.2c0.4,4.8-1.3,7.8-5,10.9c5.4-2.1,11.4-2.2,17.3,0.5c0.1,0,0.2,0.2,0.1,0.3c0,0.1-0.1,0.2-0.2,0.2
						c-4.9,0.2-8.4,1.8-11.7,5.1c18.3-5.1,33.1,6.2,28,23.1c0,0.1-0.1,0.2-0.3,0.2c-0.1,0-0.2-0.1-0.2-0.2
						c-0.9-9.7-7.7-16.1-17.9-17.1c5.4,2.1,11,7,11.6,15.5c0,0.1-0.1,0.2-0.2,0.3c-0.1,0-0.2,0-0.3-0.1c-2.8-6.2-8.3-9.3-14.2-9.8
						c6.3,2.6,10.4,8.6,11.6,16.4c0,0.1-0.1,0.2-0.2,0.3c-0.1,0-0.2,0-0.3-0.1c-3.9-7.6-12.2-12.8-22.4-8.8
						c-10.6,4.1-15.3,16.4-16.3,25c0,0.1-0.1,0.2-0.2,0.2c-0.1,0-0.2-0.1-0.3-0.2c-3.7-15.7,3.6-31.9,16.6-38.8
						c-7.1,2-13.4,6.3-17,13.4c-8.3,1-14,3.9-16.9,9.2c-0.1,0.1-0.2,0.2-0.3,0.1c-0.1,0-0.2-0.1-0.2-0.3c0.2-2.1,0.9-6.3,4.1-8.3
						c-7,0-12.5-0.9-17.8-3C135.1-184.4,135-184.6,135-184.7z M164.5-131.2c-0.1-0.1-0.2-0.1-0.3,0c-0.1,0.1-0.1,0.2,0,0.3
						c1.6,2.8,0.1,6.8-3.1,6.8c-5.7,0-8.5-10.8-7.6-20.6c2.2,5.8,4,8.1,7.3,10.8c0.1,0.1,0.2,0.1,0.3,0c0.1-0.1,0.1-0.2,0.1-0.3
						c-4.9-9.1-5.9-16.1-5.9-24.1c1.5,6,3.2,9.3,8.1,14.4c0.1,0.1,0.2,0.1,0.3,0c0.1-0.1,0.1-0.2,0.1-0.3
						c-5.3-11.6-4.9-24.4-0.9-34.3c0-0.1,0-0.2-0.1-0.3c-0.1-0.1-0.2-0.1-0.3,0c-5.2,2.6-8.3,4.2-12.8,10.4c1.4,7.4,0.2,11-3.2,17.2
						c3.9-9.9,1.8-23.9-8.2-29.6c-0.1-0.1-0.2,0-0.3,0.1c-0.1,0.1-0.1,0.2,0,0.3c3.8,4,6.5,10.6,4.2,17.9
						c1.5-10.4-7.6-19.1-17.8-19.1c-9.6,0-16.2,7.5-15.6,14.9c0.5,7.4,5.4,11,9.7,12.5c0.1,0,0.2,0,0.3-0.1c0.1-0.1,0-0.2,0-0.3
						c-5.6-5.7-6.4-16.5,3.6-19.8c-5.9,5.1-3.7,16.8,5.7,17.7c0.1,0,0.2-0.1,0.3-0.2c0.1-0.1,0-0.2-0.1-0.3c-2-1.3-3.7-3.8-3.7-6.6
						c0-4.7,3.4-6.5,5.7-6.5c3.4,0,6.3,3.3,6.3,8.2c0,5.8-5.3,10.7-12,11.4c-6.6,0.7-12.8-2.2-15.7-6.5c-0.1-0.1-0.2-0.1-0.3-0.1
						c-0.1,0.1-0.2,0.2-0.1,0.3c3,11.7,16.8,16.9,26.9,9.5c-6.6,7.5-17,7.6-25.7-0.1c-0.1-0.1-0.2-0.1-0.3,0
						c-0.1,0.1-0.1,0.2-0.1,0.3c2.7,5.4,9.3,11.8,18.6,10.9c8.6-0.9,13.5-9,14.5-15.7c0.6,8.5-1.4,14.5-8.8,20.1
						c-0.1,0.1-0.1,0.2-0.1,0.3c0.1,0.1,0.2,0.2,0.3,0.1c6.8-2,12.2-5.4,15-12.5c0,6.2-2.1,12.4-7.5,16.5c-0.1,0.1-0.1,0.2-0.1,0.3
						c0.1,0.1,0.2,0.2,0.3,0.1c3.5-1,6.2-2.5,8.1-5.2c1.3,11.1,6.5,17.7,12.5,17.7c4.1,0,7.2-3,7.2-7.9
						C169.3-125,167.8-129,164.5-131.2z M263.7-222.8c-3.2-3.9-9.5-5.4-16.4-4c0.5-4.3-0.3-8.8-1.6-11.5c-0.1-0.1-0.2-0.2-0.3-0.1
						c-0.1,0-0.2,0.1-0.2,0.3c0.4,8.8-4.6,15.8-13.4,18.9c6.9-4.8,8.9-14.2,5.6-19.1c-0.1-0.1-0.2-0.1-0.3-0.1s-0.2,0.2-0.2,0.3
						c0.4,2.1-0.6,4.7-2.7,6.7c-2.9,2.8-6.8,3.5-8.8,1.4c-2-2-1.2-5.9,1.7-8.8c1.1-1,2.3-1.8,3.4-2.2c0.1,0,0.2-0.2,0.2-0.3
						c0-0.1-0.1-0.2-0.2-0.2c-6.4-0.6-10.8,3.3-13.5,7.9c-2.8,4.7-7.6,8.4-13.2,7.7c-0.1,0-0.2,0.1-0.3,0.2c0,0.1,0,0.2,0.1,0.3
						c2.8,1.7,5.9,2.4,9.9,1.1c-5.8,4.9-14,7.7-21.8,5.2c-0.1,0-0.2,0-0.3,0.1c-0.1,0.1-0.1,0.2,0,0.3c5.9,6.6,17.7,6.7,25.1,1.4
						c-3,4.3-7.1,7.5-14.3,8.5c-0.1,0-0.2,0.1-0.2,0.2c0,0.1,0.1,0.2,0.2,0.3c8.3,3.1,16.6,0,23.4-8.2c-3,6.4-7.9,11.5-14.8,14
						c-0.1,0-0.2,0.2-0.2,0.3c0,0.1,0.1,0.2,0.2,0.2c3.9,0.1,7.5-0.9,12.3-3.6c-3.5,5.7-2.7,15.6,2.4,22.3c0.1,0.1,0.2,0.1,0.3,0.1
						s0.2-0.2,0.1-0.3c-1.2-7.2,1.3-15.3,5.6-19.6c-2.2,7.6,0,14.6,5.9,19.6c0.1,0.1,0.2,0.1,0.3,0c0.1,0,0.1-0.1,0.2-0.2
						c1.2-9.4,11.8-19,20.6-19.8c0.1,0,0.2-0.1,0.2-0.2s-0.1-0.2-0.2-0.3c-4.3-1-8.7-0.5-12.4,1c2.7-2.9,5.9-5.1,9.6-6.2
						c0.1,0,0.2-0.2,0.2-0.3c0-0.1-0.1-0.2-0.2-0.2c-4.5-0.3-8.9,1-12.7,3.5c4.4-6.6,11-11.5,19.4-13.5c0.1,0,0.2-0.1,0.2-0.3
						c0-0.1-0.1-0.2-0.2-0.2c-11.9-1.3-21.7,3.3-28.2,11.9c1.6-4.9,6.4-9.8,12.9-12.6c5.8-2.5,11.8-2.9,16.4-1.5
						c0.1,0,0.2,0,0.3-0.1C263.8-222.6,263.8-222.7,263.7-222.8z M210.8-147.3c4.8-10.5,4.5-18.7,0.6-29.1c0-0.1-0.2-0.2-0.3-0.2
						s-0.2,0.1-0.2,0.3c0.6,12.6-2.8,21.7-10.3,27.8c8.3-9.9,4.4-29.6-8.8-29.6c-9.6,0-17.5,8-19.5,17.5c0,0.1,0,0.2,0.2,0.3
						c0.1,0,0.2,0,0.3-0.1c2.8-4.8,7.4-7.9,12.5-7.9c8.1,0,10.5,6.5,10.5,11c0,6.2-4.9,11.3-8.7,11.3c-3.4,0-5-2.8-5-4.9
						c0-3.9,3-7.2,6.4-8.2c0.1,0,0.2-0.2,0.2-0.3s-0.1-0.2-0.3-0.2c-4.1,0-7.6,1.9-9.6,5.6c-0.3-2.9-0.3-4.7,0.6-7.7
						c0-0.1,0-0.2-0.1-0.3s-0.2,0-0.3,0.1c-7.4,9.4-3.8,25.6,2,32.4c-5.5-4-10.4-12.6-10.3-24.4c0-0.1-0.1-0.2-0.2-0.3
						c-0.1,0-0.2,0-0.3,0.2c-4.1,10.3-1.9,29.2,9.3,39.9c-2.9,0.4-5.9,0.3-9.1-0.7c-0.1,0-0.2,0-0.3,0.1s0,0.2,0.1,0.3
						c4.1,3.5,9.8,4.5,15.3,4.5c-4.7-5.5-3.1-16.6,4.4-16.6c5.3,0,7.8,8.3,3.6,12.8c-0.1,0.1-0.1,0.2,0,0.3c0.1,0.1,0.2,0.1,0.3,0.1
						c4.8-1.7,9.9-5.8,9.9-11c0-5-4.8-9.4-11.8-9.1c8.8-2.5,18.1,0.3,22.9,6.3c0.1,0.1,0.2,0.1,0.3,0.1c0.1-0.1,0.2-0.2,0.1-0.3
						c-2.8-10.7-12-15.2-23.4-13.7c9.3-3.8,23.3-0.5,29.4,7.3c0.1,0.1,0.2,0.1,0.3,0.1c0.1-0.1,0.2-0.2,0.1-0.3
						C220.1-140.4,216.6-145.3,210.8-147.3z"/>
					<path id="XMLID_20_" opacity="0.4" fill="#9DDCF9" enable-background="new    " d="M237.2-166.6c0,0.1-0.1,0.2-0.2,0.2
						c-12.9,0.1-24.8,3.3-34,11.5c8-5.6,22.9-7.5,31.5-3.6c0.1,0.1,0.2,0.2,0.1,0.3c0,0.1-0.1,0.2-0.3,0.2c-10.7-0.3-19.3,3-26,9
						c6.9,0.4,12.6,4.7,12.6,9.8c0,0.1-0.1,0.2-0.2,0.2c-0.1,0-0.2,0-0.3-0.1c-1.1-2.5-4.7-3.8-8.6-2.9c-4.2,1-7,4.2-6.3,7.2
						c0.5,2,2.4,3.4,5,3.8c0.1,0,0.2,0.1,0.2,0.3c0,0.1-0.1,0.2-0.2,0.2c-1.1,0.1-2.2,0.1-3.3,0c-6.5-0.6-11.5-4.6-11.9-9.2
						c-4.7,0.5-8.9,3.2-10.4,6.8c0,0.1-0.2,0.2-0.3,0.2s-0.2-0.1-0.2-0.2c-0.4-4.8,1.3-7.8,5-10.9c-5.4,2.1-11.4,2.2-17.3-0.5
						c-0.1-0.1-0.2-0.2-0.1-0.3c0-0.1,0.1-0.2,0.2-0.2c4.9-0.2,8.4-1.8,11.7-5.1c-18.3,5.1-33.1-6.2-28-23.1c0-0.1,0.1-0.2,0.3-0.2
						c0.1,0,0.2,0.1,0.2,0.2c0.9,9.7,7.7,16.1,17.9,17.1c-5.4-2.1-11-7-11.6-15.5c0-0.1,0.1-0.2,0.2-0.3c0.1,0,0.2,0,0.3,0.1
						c2.8,6.2,8.3,9.3,14.2,9.8c-6.3-2.6-10.4-8.6-11.6-16.4c0-0.1,0.1-0.2,0.2-0.3c0.1,0,0.2,0,0.3,0.1c3.9,7.6,12.2,12.8,22.4,8.8
						c10.6-4.1,15.3-16.4,16.3-25c0-0.1,0.1-0.2,0.2-0.2c0.1,0,0.2,0.1,0.3,0.2c3.7,15.7-3.6,31.9-16.6,38.8c7.1-2,13.4-6.3,17-13.4
						c8.3-1,14-3.9,16.9-9.2c0.1-0.1,0.2-0.2,0.3-0.1c0.1,0,0.2,0.1,0.2,0.3c-0.2,2.1-0.9,6.3-4.1,8.3c7,0,12.5,0.9,17.8,3
						C237.2-166.8,237.2-166.7,237.2-166.6z M207.7-220c0.1,0.1,0.2,0.1,0.3,0c0.1-0.1,0.1-0.2,0-0.3c-1.6-2.8-0.1-6.8,3.1-6.8
						c5.7,0,8.5,10.8,7.6,20.6c-2.2-5.8-4-8.1-7.3-10.8c-0.1-0.1-0.2-0.1-0.3,0c-0.1,0.1-0.1,0.2-0.1,0.3c4.9,9.1,5.9,16.1,5.9,24.1
						c-1.5-6-3.2-9.3-8.1-14.4c-0.1-0.1-0.2-0.1-0.3,0c-0.1,0.1-0.1,0.2-0.1,0.3c5.3,11.6,4.9,24.4,0.9,34.3c0,0.1,0,0.2,0.1,0.3
						s0.2,0.1,0.3,0c5.2-2.6,8.3-4.2,12.8-10.4c-1.4-7.4-0.2-11,3.2-17.2c-3.9,9.9-1.8,23.9,8.2,29.6c0.1,0.1,0.2,0,0.3-0.1
						c0.1-0.1,0.1-0.2,0-0.3c-3.8-4-6.5-10.6-4.2-17.9c-1.5,10.4,7.6,19.1,17.8,19.1c9.6,0,16.2-7.5,15.6-14.9
						c-0.5-7.4-5.4-11-9.7-12.5c-0.1,0-0.2,0-0.3,0.1c-0.1,0.1-0.1,0.2,0,0.3c5.6,5.7,6.4,16.5-3.6,19.8c5.9-5.1,3.7-16.8-5.7-17.7
						c-0.1,0-0.2,0.1-0.3,0.2c0,0.1,0,0.2,0.1,0.3c2,1.3,3.7,3.8,3.7,6.6c0,4.7-3.4,6.5-5.7,6.5c-3.4,0-6.3-3.3-6.3-8.2
						c0-5.8,5.3-10.7,12-11.4c6.6-0.7,12.8,2.2,15.8,6.5c0.1,0.1,0.2,0.1,0.3,0.1c0.1-0.1,0.2-0.2,0.1-0.3
						c-3-11.7-16.8-16.9-26.9-9.5c6.6-7.5,17-7.6,25.7,0.1c0.1,0.1,0.2,0.1,0.3,0c0.1-0.1,0.1-0.2,0.1-0.3
						c-2.7-5.4-9.3-11.8-18.6-10.9c-8.6,0.9-13.5,9-14.5,15.7c-0.6-8.5,1.4-14.5,8.8-20.1c0.1-0.1,0.1-0.2,0.1-0.3
						c-0.1-0.1-0.2-0.2-0.3-0.1c-6.8,2-12.2,5.4-15,12.5c0-6.2,2.1-12.4,7.5-16.5c0.1-0.1,0.1-0.2,0.1-0.3c-0.1-0.1-0.2-0.2-0.3-0.1
						c-3.5,1-6.2,2.5-8.1,5.2c-1.3-11.1-6.5-17.7-12.5-17.7c-4.1,0-7.2,3-7.2,7.9C202.9-226.2,204.4-222.2,207.7-220z M108.5-128.4
						c3.2,3.9,9.5,5.4,16.4,4c-0.5,4.3,0.3,8.8,1.6,11.5c0.1,0.1,0.2,0.2,0.3,0.1c0.1,0,0.2-0.1,0.2-0.3
						c-0.4-8.8,4.6-15.8,13.4-18.9c-6.9,4.8-8.9,14.2-5.6,19.1c0.1,0.1,0.2,0.1,0.3,0.1s0.2-0.2,0.2-0.3c-0.4-2.1,0.6-4.7,2.7-6.7
						c2.9-2.8,6.8-3.5,8.8-1.4c2,2,1.2,5.9-1.7,8.8c-1.1,1-2.3,1.8-3.4,2.2c-0.1,0-0.2,0.2-0.2,0.3s0.1,0.2,0.2,0.2
						c6.4,0.6,10.8-3.3,13.5-7.9c2.8-4.7,7.6-8.4,13.2-7.7c0.1,0,0.2-0.1,0.3-0.2c0-0.1,0-0.2-0.1-0.3c-2.8-1.7-5.9-2.4-9.9-1.1
						c5.8-4.9,14-7.7,21.8-5.2c0.1,0,0.2,0,0.3-0.1c0.1-0.1,0.1-0.2,0-0.3c-5.9-6.6-17.7-6.7-25.1-1.4c3-4.3,7.1-7.5,14.3-8.5
						c0.1,0,0.2-0.1,0.2-0.2c0-0.1-0.1-0.2-0.2-0.3c-8.3-3.1-16.6,0-23.4,8.2c3-6.4,7.9-11.5,14.8-14c0.1,0,0.2-0.2,0.2-0.3
						s-0.1-0.2-0.2-0.2c-3.9-0.1-7.5,0.9-12.3,3.6c3.5-5.7,2.7-15.6-2.4-22.3c-0.1-0.1-0.2-0.1-0.3-0.1s-0.2,0.2-0.1,0.3
						c1.2,7.2-1.3,15.3-5.6,19.6c2.2-7.6,0-14.6-5.9-19.6c-0.1-0.1-0.2-0.1-0.3,0c-0.1,0-0.1,0.1-0.2,0.2
						c-1.2,9.4-11.8,19-20.6,19.8c-0.1,0-0.2,0.1-0.2,0.2c0,0.1,0.1,0.2,0.2,0.3c4.3,1,8.7,0.5,12.4-1c-2.7,2.9-5.9,5.1-9.6,6.2
						c-0.1,0-0.2,0.2-0.2,0.3s0.1,0.2,0.2,0.2c4.5,0.3,8.9-1,12.7-3.5c-4.4,6.6-11,11.5-19.4,13.5c-0.1,0-0.2,0.1-0.2,0.3
						c0,0.1,0.1,0.2,0.2,0.2c11.9,1.3,21.7-3.3,28.2-11.9c-1.6,4.9-6.4,9.8-12.9,12.6c-5.8,2.5-11.8,2.9-16.4,1.5
						c-0.1,0-0.2,0-0.3,0.1C108.4-128.6,108.4-128.5,108.5-128.4z M161.4-204c-4.8,10.5-4.5,18.7-0.6,29.1c0,0.1,0.2,0.2,0.3,0.2
						s0.2-0.1,0.2-0.3c-0.6-12.6,2.8-21.7,10.3-27.8c-8.3,9.9-4.4,29.6,8.8,29.6c9.6,0,17.5-8,19.5-17.5c0-0.1,0-0.2-0.2-0.3
						c-0.1,0-0.2,0-0.3,0.1c-2.8,4.8-7.4,7.9-12.5,7.9c-8.1,0-10.5-6.5-10.5-11c0-6.2,4.9-11.3,8.7-11.3c3.4,0,5,2.8,5,4.9
						c0,3.9-3,7.2-6.4,8.2c-0.1,0-0.2,0.2-0.2,0.3c0,0.1,0.1,0.2,0.3,0.2c4.1,0,7.6-1.9,9.6-5.6c0.3,2.9,0.3,4.7-0.6,7.7
						c0,0.1,0,0.2,0.1,0.3c0.1,0.1,0.2,0,0.3-0.1c7.4-9.4,3.8-25.6-2-32.4c5.5,4,10.4,12.6,10.3,24.4c0,0.1,0.1,0.2,0.2,0.3
						c0.1,0,0.2,0,0.3-0.2c4.1-10.3,1.9-29.2-9.3-39.9c2.9-0.4,5.9-0.3,9.1,0.7c0.1,0,0.2,0,0.3-0.1c0.1-0.1,0-0.2-0.1-0.3
						c-4.1-3.5-9.8-4.5-15.3-4.5c4.7,5.5,3.1,16.6-4.4,16.6c-5.3,0-7.8-8.3-3.6-12.8c0.1-0.1,0.1-0.2,0-0.3
						c-0.1-0.1-0.2-0.1-0.3-0.1c-4.8,1.7-9.9,5.8-9.9,11c0,5,4.8,9.4,11.8,9.1c-8.8,2.5-18.1-0.3-22.9-6.3c-0.1-0.1-0.2-0.1-0.3-0.1
						c-0.1,0.1-0.2,0.2-0.1,0.3c2.8,10.7,12,15.2,23.4,13.7c-9.3,3.8-23.3,0.5-29.4-7.3c-0.1-0.1-0.2-0.1-0.3-0.1s-0.2,0.2-0.1,0.3
						C152.2-210.9,155.7-205.9,161.4-204z"/>
				</g>
				<g id="XMLID_16_">
					<path id="XMLID_18_" fill="#00427E" d="M26.7-184.7c0-0.1,0.1-0.2,0.2-0.2c12.9-0.1,24.8-3.3,34-11.5c-8,5.6-22.9,7.5-31.5,3.6
						c-0.1,0-0.2-0.2-0.1-0.3c0-0.1,0.1-0.2,0.3-0.2c10.7,0.3,19.3-3,26-9c-6.9-0.4-12.6-4.7-12.6-9.8c0-0.1,0.1-0.2,0.2-0.2
						c0.1,0,0.2,0,0.3,0.1c1.1,2.5,4.7,3.8,8.6,2.9c4.2-1,7-4.2,6.3-7.2c-0.5-2-2.4-3.4-5-3.8c-0.1,0-0.2-0.1-0.2-0.3
						c0-0.1,0.1-0.2,0.2-0.2c1.1-0.1,2.2-0.1,3.3,0c6.5,0.6,11.5,4.6,11.9,9.2c4.7-0.5,8.9-3.2,10.4-6.8c0-0.1,0.2-0.2,0.3-0.2
						c0.1,0,0.2,0.1,0.2,0.2c0.4,4.8-1.3,7.8-5,10.9c5.4-2.1,11.4-2.2,17.3,0.5c0.1,0,0.2,0.2,0.1,0.3c0,0.1-0.1,0.2-0.2,0.2
						c-4.9,0.2-8.4,1.8-11.7,5.1c18.3-5.1,33.1,6.2,28,23.1c0,0.1-0.1,0.2-0.3,0.2c-0.1,0-0.2-0.1-0.2-0.2
						c-0.9-9.7-7.7-16.1-17.9-17.1c5.4,2.1,11,7,11.6,15.5c0,0.1-0.1,0.2-0.2,0.3c-0.1,0-0.2,0-0.3-0.1c-2.8-6.2-8.3-9.3-14.2-9.8
						c6.3,2.6,10.4,8.6,11.6,16.4c0,0.1-0.1,0.2-0.2,0.3c-0.1,0-0.2,0-0.3-0.1c-3.9-7.6-12.2-12.8-22.4-8.8
						c-10.6,4.1-15.3,16.4-16.3,25c0,0.1-0.1,0.2-0.2,0.2c-0.1,0-0.2-0.1-0.3-0.2c-3.7-15.7,3.6-31.9,16.6-38.8
						c-7.1,2-13.4,6.3-17,13.4c-8.3,1-14,3.9-16.9,9.2c-0.1,0.1-0.2,0.2-0.3,0.1c-0.1,0-0.2-0.1-0.2-0.3c0.2-2.1,0.9-6.3,4.1-8.3
						c-7,0-12.5-0.9-17.8-3C26.7-184.4,26.7-184.6,26.7-184.7z M56.2-131.2c-0.1-0.1-0.2-0.1-0.3,0c-0.1,0.1-0.1,0.2,0,0.3
						c1.6,2.8,0.1,6.8-3.1,6.8c-5.7,0-8.5-10.8-7.6-20.6c2.2,5.8,4,8.1,7.3,10.8c0.1,0.1,0.2,0.1,0.3,0c0.1-0.1,0.1-0.2,0.1-0.3
						c-4.9-9.1-5.9-16.1-5.9-24.1c1.5,6,3.2,9.3,8.1,14.4c0.1,0.1,0.2,0.1,0.3,0c0.1-0.1,0.1-0.2,0.1-0.3
						c-5.3-11.6-4.9-24.4-0.9-34.3c0-0.1,0-0.2-0.1-0.3c-0.1-0.1-0.2-0.1-0.3,0c-5.2,2.6-8.3,4.2-12.8,10.4c1.4,7.4,0.2,11-3.2,17.2
						c3.9-9.9,1.8-23.9-8.2-29.6c-0.1-0.1-0.2,0-0.3,0.1c-0.1,0.1-0.1,0.2,0,0.3c3.8,4,6.5,10.6,4.2,17.9
						c1.5-10.4-7.6-19.1-17.8-19.1c-9.6,0-16.2,7.5-15.6,14.9c0.5,7.4,5.4,11,9.7,12.5c0.1,0,0.2,0,0.3-0.1c0.1-0.1,0-0.2,0-0.3
						c-5.6-5.7-6.4-16.5,3.6-19.8c-5.9,5.1-3.7,16.8,5.7,17.7c0.1,0,0.2-0.1,0.3-0.2c0.1-0.1,0-0.2-0.1-0.3c-2-1.3-3.7-3.8-3.7-6.6
						c0-4.7,3.4-6.5,5.7-6.5c3.4,0,6.3,3.3,6.3,8.2c0,5.8-5.3,10.7-12,11.4c-6.6,0.7-12.8-2.2-15.7-6.5c-0.1-0.1-0.2-0.1-0.3-0.1
						C0-157,0-156.9,0-156.8c3,11.7,16.8,16.9,26.9,9.5c-6.6,7.5-17,7.6-25.7-0.1c-0.1-0.1-0.2-0.1-0.3,0c-0.1,0.1-0.1,0.2-0.1,0.3
						c2.7,5.4,9.3,11.8,18.6,10.9c8.6-0.9,13.5-9,14.5-15.7c0.6,8.5-1.4,14.5-8.8,20.1c-0.1,0.1-0.1,0.2-0.1,0.3
						c0.1,0.1,0.2,0.2,0.3,0.1c6.8-2,12.2-5.4,15-12.5c0,6.2-2.1,12.4-7.5,16.5c-0.1,0.1-0.1,0.2-0.1,0.3c0.1,0.1,0.2,0.2,0.3,0.1
						c3.5-1,6.2-2.5,8.1-5.2c1.3,11.1,6.5,17.7,12.5,17.7c4.1,0,7.2-3,7.2-7.9C61-125,59.5-129,56.2-131.2z M155.4-222.8
						c-3.2-3.9-9.5-5.4-16.4-4c0.5-4.3-0.3-8.8-1.6-11.5c-0.1-0.1-0.2-0.2-0.3-0.1c-0.1,0-0.2,0.1-0.2,0.3
						c0.4,8.8-4.6,15.8-13.4,18.9c6.9-4.8,8.9-14.2,5.6-19.1c-0.1-0.1-0.2-0.1-0.3-0.1s-0.2,0.2-0.2,0.3c0.4,2.1-0.6,4.7-2.7,6.7
						c-2.9,2.8-6.8,3.5-8.8,1.4c-2-2-1.2-5.9,1.7-8.8c1.1-1,2.3-1.8,3.4-2.2c0.1,0,0.2-0.2,0.2-0.3c0-0.1-0.1-0.2-0.2-0.2
						c-6.4-0.6-10.8,3.3-13.5,7.9c-2.8,4.7-7.6,8.4-13.2,7.7c-0.1,0-0.2,0.1-0.3,0.2c0,0.1,0,0.2,0.1,0.3c2.8,1.7,5.9,2.4,9.9,1.1
						c-5.8,4.9-14,7.7-21.8,5.2c-0.1,0-0.2,0-0.3,0.1c-0.1,0.1-0.1,0.2,0,0.3c5.9,6.6,17.7,6.7,25.1,1.4c-3,4.3-7.1,7.5-14.3,8.5
						c-0.1,0-0.2,0.1-0.2,0.2c0,0.1,0.1,0.2,0.2,0.3c8.3,3.1,16.6,0,23.4-8.2c-3,6.4-7.9,11.5-14.8,14c-0.1,0-0.2,0.2-0.2,0.3
						c0,0.1,0.1,0.2,0.2,0.2c3.9,0.1,7.5-0.9,12.3-3.6c-3.5,5.7-2.7,15.6,2.4,22.3c0.1,0.1,0.2,0.1,0.3,0.1c0.1,0,0.2-0.2,0.1-0.3
						c-1.2-7.2,1.3-15.3,5.6-19.6c-2.2,7.6,0,14.6,5.9,19.6c0.1,0.1,0.2,0.1,0.3,0c0.1,0,0.1-0.1,0.2-0.2c1.2-9.4,11.8-19,20.6-19.8
						c0.1,0,0.2-0.1,0.2-0.2c0-0.1-0.1-0.2-0.2-0.3c-4.3-1-8.7-0.5-12.4,1c2.7-2.9,5.9-5.1,9.6-6.2c0.1,0,0.2-0.2,0.2-0.3
						c0-0.1-0.1-0.2-0.2-0.2c-4.5-0.3-8.9,1-12.7,3.5c4.4-6.6,11-11.5,19.4-13.5c0.1,0,0.2-0.1,0.2-0.3c0-0.1-0.1-0.2-0.2-0.2
						c-11.9-1.3-21.7,3.3-28.2,11.9c1.6-4.9,6.4-9.8,12.9-12.6c5.8-2.5,11.8-2.9,16.4-1.5c0.1,0,0.2,0,0.3-0.1
						C155.5-222.6,155.5-222.7,155.4-222.8z M102.5-147.3c4.8-10.5,4.5-18.7,0.6-29.1c0-0.1-0.2-0.2-0.3-0.2c-0.1,0-0.2,0.1-0.2,0.3
						c0.6,12.6-2.8,21.7-10.3,27.8c8.3-9.9,4.4-29.6-8.8-29.6c-9.6,0-17.5,8-19.5,17.5c0,0.1,0,0.2,0.2,0.3c0.1,0,0.2,0,0.3-0.1
						c2.8-4.8,7.4-7.9,12.5-7.9c8.1,0,10.5,6.5,10.5,11c0,6.2-4.9,11.3-8.7,11.3c-3.4,0-5-2.8-5-4.9c0-3.9,3-7.2,6.4-8.2
						c0.1,0,0.2-0.2,0.2-0.3s-0.1-0.2-0.3-0.2c-4.1,0-7.6,1.9-9.6,5.6c-0.3-2.9-0.3-4.7,0.6-7.7c0-0.1,0-0.2-0.1-0.3s-0.2,0-0.3,0.1
						c-7.4,9.4-3.8,25.6,2,32.4c-5.5-4-10.4-12.6-10.3-24.4c0-0.1-0.1-0.2-0.2-0.3c-0.1,0-0.2,0-0.3,0.2
						c-4.1,10.3-1.9,29.2,9.3,39.9c-2.9,0.4-5.9,0.3-9.1-0.7c-0.1,0-0.2,0-0.3,0.1s0,0.2,0.1,0.3c4.1,3.5,9.8,4.5,15.3,4.5
						c-4.7-5.5-3.1-16.6,4.4-16.6c5.3,0,7.8,8.3,3.6,12.8c-0.1,0.1-0.1,0.2,0,0.3c0.1,0.1,0.2,0.1,0.3,0.1c4.8-1.7,9.9-5.8,9.9-11
						c0-5-4.8-9.4-11.8-9.1c8.8-2.5,18.1,0.3,22.9,6.3c0.1,0.1,0.2,0.1,0.3,0.1c0.1-0.1,0.2-0.2,0.1-0.3
						c-2.8-10.7-12-15.2-23.4-13.7c9.3-3.8,23.2-0.5,29.4,7.3c0.1,0.1,0.2,0.1,0.3,0.1c0.1-0.1,0.2-0.2,0.1-0.3
						C111.8-140.4,108.3-145.3,102.5-147.3z"/>
					<path id="XMLID_17_" opacity="0.4" fill="#9DDCF9" enable-background="new    " d="M128.9-166.6c0,0.1-0.1,0.2-0.2,0.2
						c-12.9,0.1-24.8,3.3-34,11.5c8-5.6,22.9-7.5,31.5-3.6c0.1,0.1,0.2,0.2,0.1,0.3c0,0.1-0.1,0.2-0.3,0.2c-10.7-0.3-19.3,3-26,9
						c6.9,0.4,12.6,4.7,12.6,9.8c0,0.1-0.1,0.2-0.2,0.2s-0.2,0-0.3-0.1c-1.1-2.5-4.7-3.8-8.6-2.9c-4.2,1-7,4.2-6.3,7.2
						c0.5,2,2.4,3.4,5,3.8c0.1,0,0.2,0.1,0.2,0.3c0,0.1-0.1,0.2-0.2,0.2c-1.1,0.1-2.2,0.1-3.3,0c-6.5-0.6-11.5-4.6-11.9-9.2
						c-4.7,0.5-8.9,3.2-10.4,6.8c0,0.1-0.2,0.2-0.3,0.2c-0.1,0-0.2-0.1-0.2-0.2c-0.4-4.8,1.3-7.8,5-10.9c-5.4,2.1-11.4,2.2-17.3-0.5
						c-0.1-0.1-0.2-0.2-0.1-0.3c0-0.1,0.1-0.2,0.2-0.2c4.9-0.2,8.4-1.8,11.7-5.1c-18.3,5.1-33.1-6.2-28-23.1c0-0.1,0.1-0.2,0.3-0.2
						c0.1,0,0.2,0.1,0.2,0.2c0.9,9.7,7.7,16.1,17.9,17.1c-5.4-2.1-11-7-11.6-15.5c0-0.1,0.1-0.2,0.2-0.3c0.1,0,0.2,0,0.3,0.1
						c2.8,6.2,8.3,9.3,14.2,9.8c-6.3-2.6-10.4-8.6-11.6-16.4c0-0.1,0.1-0.2,0.2-0.3c0.1,0,0.2,0,0.3,0.1c3.9,7.6,12.2,12.8,22.4,8.8
						c10.6-4.1,15.3-16.4,16.3-25c0-0.1,0.1-0.2,0.2-0.2s0.2,0.1,0.3,0.2c3.7,15.7-3.6,31.9-16.6,38.8c7.1-2,13.4-6.3,17-13.4
						c8.3-1,14-3.9,16.9-9.2c0.1-0.1,0.2-0.2,0.3-0.1c0.1,0,0.2,0.1,0.2,0.3c-0.2,2.1-0.9,6.3-4.1,8.3c7,0,12.5,0.9,17.8,3
						C128.8-166.8,128.9-166.7,128.9-166.6z M99.4-220c0.1,0.1,0.2,0.1,0.3,0c0.1-0.1,0.1-0.2,0-0.3c-1.6-2.8-0.1-6.8,3.1-6.8
						c5.7,0,8.5,10.8,7.6,20.6c-2.2-5.8-4-8.1-7.3-10.8c-0.1-0.1-0.2-0.1-0.3,0c-0.1,0.1-0.1,0.2-0.1,0.3c4.9,9.1,5.9,16.1,5.9,24.1
						c-1.5-6-3.2-9.3-8.1-14.4c-0.1-0.1-0.2-0.1-0.3,0c-0.1,0.1-0.1,0.2-0.1,0.3c5.3,11.6,4.9,24.4,0.9,34.3c0,0.1,0,0.2,0.1,0.3
						s0.2,0.1,0.3,0c5.2-2.6,8.3-4.2,12.8-10.4c-1.4-7.4-0.2-11,3.2-17.2c-3.9,9.9-1.8,23.9,8.2,29.6c0.1,0.1,0.2,0,0.3-0.1
						c0.1-0.1,0.1-0.2,0-0.3c-3.8-4-6.5-10.6-4.2-17.9c-1.5,10.4,7.6,19.1,17.8,19.1c9.6,0,16.2-7.5,15.6-14.9
						c-0.5-7.4-5.4-11-9.7-12.5c-0.1,0-0.2,0-0.3,0.1c-0.1,0.1-0.1,0.2,0,0.3c5.6,5.7,6.4,16.5-3.6,19.8c5.9-5.1,3.7-16.8-5.7-17.7
						c-0.1,0-0.2,0.1-0.3,0.2c0,0.1,0,0.2,0.1,0.3c2,1.3,3.7,3.8,3.7,6.6c0,4.7-3.4,6.5-5.7,6.5c-3.4,0-6.3-3.3-6.3-8.2
						c0-5.8,5.3-10.7,12-11.4c6.6-0.7,12.8,2.2,15.8,6.5c0.1,0.1,0.2,0.1,0.3,0.1c0.1-0.1,0.2-0.2,0.1-0.3
						c-3-11.7-16.8-16.9-26.9-9.5c6.6-7.5,17-7.6,25.7,0.1c0.1,0.1,0.2,0.1,0.3,0c0.1-0.1,0.1-0.2,0.1-0.3
						c-2.7-5.4-9.3-11.8-18.6-10.9c-8.6,0.9-13.5,9-14.5,15.7c-0.6-8.5,1.4-14.5,8.8-20.1c0.1-0.1,0.1-0.2,0.1-0.3
						c-0.1-0.1-0.2-0.2-0.3-0.1c-6.8,2-12.2,5.4-15,12.5c0-6.2,2.1-12.4,7.5-16.5c0.1-0.1,0.1-0.2,0.1-0.3c-0.1-0.1-0.2-0.2-0.3-0.1
						c-3.5,1-6.2,2.5-8.1,5.2c-1.3-11.1-6.5-17.7-12.5-17.7c-4.1,0-7.2,3-7.2,7.9C94.6-226.2,96.1-222.2,99.4-220z M0.2-128.4
						c3.2,3.9,9.5,5.4,16.4,4c-0.5,4.3,0.3,8.8,1.6,11.5c0.1,0.1,0.2,0.2,0.3,0.1c0.1,0,0.2-0.1,0.2-0.3
						c-0.4-8.8,4.6-15.8,13.4-18.9c-6.9,4.8-8.9,14.2-5.6,19.1c0.1,0.1,0.2,0.1,0.3,0.1c0.1,0,0.2-0.2,0.2-0.3
						c-0.4-2.1,0.6-4.7,2.7-6.7c2.9-2.8,6.8-3.5,8.8-1.4c2,2,1.2,5.9-1.7,8.8c-1.1,1-2.3,1.8-3.4,2.2c-0.1,0-0.2,0.2-0.2,0.3
						s0.1,0.2,0.2,0.2c6.4,0.6,10.8-3.3,13.5-7.9c2.8-4.7,7.6-8.4,13.2-7.7c0.1,0,0.2-0.1,0.3-0.2c0-0.1,0-0.2-0.1-0.3
						c-2.8-1.7-5.9-2.4-9.9-1.1c5.8-4.9,14-7.7,21.8-5.2c0.1,0,0.2,0,0.3-0.1c0.1-0.1,0.1-0.2,0-0.3c-5.9-6.6-17.7-6.7-25.1-1.4
						c3-4.3,7.1-7.5,14.3-8.5c0.1,0,0.2-0.1,0.2-0.2c0-0.1-0.1-0.2-0.2-0.3c-8.3-3.1-16.6,0-23.4,8.2c3-6.4,7.9-11.5,14.8-14
						c0.1,0,0.2-0.2,0.2-0.3s-0.1-0.2-0.2-0.2c-3.9-0.1-7.5,0.9-12.3,3.6c3.5-5.7,2.7-15.6-2.4-22.3c-0.1-0.1-0.2-0.1-0.3-0.1
						s-0.2,0.2-0.1,0.3c1.2,7.2-1.3,15.3-5.6,19.6c2.2-7.6,0-14.6-5.9-19.6c-0.1-0.1-0.2-0.1-0.3,0c-0.1,0-0.1,0.1-0.2,0.2
						c-1.2,9.4-11.8,19-20.6,19.8c-0.1,0-0.2,0.1-0.2,0.2c0,0.1,0.1,0.2,0.2,0.3c4.3,1,8.7,0.5,12.4-1c-2.7,2.9-5.9,5.1-9.6,6.2
						c-0.1,0-0.2,0.2-0.2,0.3s0.1,0.2,0.2,0.2c4.5,0.3,8.9-1,12.7-3.5c-4.4,6.6-11,11.5-19.4,13.5c-0.1,0-0.2,0.1-0.2,0.3
						c0,0.1,0.1,0.2,0.2,0.2c11.9,1.3,21.7-3.3,28.2-11.9c-1.6,4.9-6.4,9.8-12.9,12.6c-5.8,2.5-11.8,2.9-16.4,1.5
						c-0.1,0-0.2,0-0.3,0.1C0.1-128.6,0.1-128.5,0.2-128.4z M53.1-204c-4.8,10.5-4.5,18.7-0.6,29.1c0,0.1,0.2,0.2,0.3,0.2
						s0.2-0.1,0.2-0.3c-0.6-12.6,2.8-21.7,10.3-27.8c-8.3,9.9-4.4,29.6,8.8,29.6c9.6,0,17.5-8,19.5-17.5c0-0.1,0-0.2-0.2-0.3
						c-0.1,0-0.2,0-0.3,0.1c-2.8,4.8-7.4,7.9-12.5,7.9c-8.1,0-10.5-6.5-10.5-11c0-6.2,4.9-11.3,8.7-11.3c3.4,0,5,2.8,5,4.9
						c0,3.9-3,7.2-6.4,8.2c-0.1,0-0.2,0.2-0.2,0.3c0,0.1,0.1,0.2,0.3,0.2c4.1,0,7.6-1.9,9.6-5.6c0.3,2.9,0.3,4.7-0.6,7.7
						c0,0.1,0,0.2,0.1,0.3c0.1,0.1,0.2,0,0.3-0.1c7.4-9.4,3.8-25.6-2-32.4c5.5,4,10.4,12.6,10.3,24.4c0,0.1,0.1,0.2,0.2,0.3
						c0.1,0,0.2,0,0.3-0.2c4.1-10.3,1.9-29.2-9.3-39.9c2.9-0.4,5.9-0.3,9.1,0.7c0.1,0,0.2,0,0.3-0.1c0.1-0.1,0-0.2-0.1-0.3
						c-4.1-3.5-9.8-4.5-15.3-4.5c4.7,5.5,3.1,16.6-4.4,16.6c-5.3,0-7.8-8.3-3.6-12.8c0.1-0.1,0.1-0.2,0-0.3s-0.2-0.1-0.3-0.1
						c-4.8,1.7-9.9,5.8-9.9,11c0,5,4.8,9.4,11.8,9.1c-8.8,2.5-18.1-0.3-22.9-6.3c-0.1-0.1-0.2-0.1-0.3-0.1c-0.1,0.1-0.2,0.2-0.1,0.3
						c2.8,10.7,12,15.2,23.4,13.7c-9.3,3.8-23.3,0.5-29.4-7.3c-0.1-0.1-0.2-0.1-0.3-0.1s-0.2,0.2-0.1,0.3
						C43.8-210.9,47.3-205.9,53.1-204z"/>
				</g>
			</g>
		</g>
	</g>
</pattern>
<g>
	<path id="XMLID_97_" fill="#161E2B" stroke="#000000" stroke-width="2" stroke-linejoin="round" stroke-miterlimit="10" d="
		M1127.5-0.1h-5l-5,0.4l-0.9,9.6h-17.8l-1.3-10h-6.4h-3.6c-16.5,0-29.7,13.6-29.7,30.1v85c0,5.5,4.2,9.9,9.7,9.9h80
		c5.5,0,10.3-4.4,10.3-9.9V30C1157.8,13.5,1144-0.1,1127.5-0.1z"/>
	
		<polygon id="XMLID_96_" fill="#FFFFFF" stroke="#000000" stroke-width="2" stroke-linejoin="round" stroke-miterlimit="10" points="
		1117.8,4.9 1117.8,0 1117.8,-12.1 1097.8,-12.1 1097.8,0 1097.8,4.9 	"/>
	<polygon id="XMLID_88_" fill="#DAE8F7" stroke="#000000" stroke-miterlimit="10" points="1107.8,98.1 1098.5,10.5 1107.8,4.3 
		1117.3,10.4 	"/>
	<path id="XMLID_93_" fill="#A52121" stroke="#000000" stroke-miterlimit="10" d="M1113.5,65.7c0.6-28.3-4.3-51.4-4.3-51.4l6-4.5
		l-7.4-4.2l-7.3,4.2l6,4.3c0,0-4.9,23.1-4.3,51.4l5.6,5.3L1113.5,65.7z"/>
	<polygon id="XMLID_91_" fill="#161E2B" stroke="#000000" stroke-miterlimit="10" points="1097.5,-0.2 1077.6,12 1085.5,19.7 
		1077.8,27.4 1107.2,99.8 	"/>
	<polygon id="XMLID_92_" fill="#161E2B" stroke="#000000" stroke-miterlimit="10" points="1118.3,0.1 1138.4,12 1130.5,19.7 
		1138.2,27.4 1108.6,99.8 	"/>
	<polygon id="XMLID_89_" fill="#DAE8F7" stroke="#000000" stroke-miterlimit="10" points="1097.8,0 1107.8,4.3 1118.3,0.1 
		1118.8,11.4 1107.8,5.7 1097.3,11.4 	"/>
	<path id="XMLID_28_" fill="#FFFFFF" stroke="#000000" stroke-width="2" stroke-linejoin="round" stroke-miterlimit="10" d="
		M1107.7-6L1107.7-6c-13.8,0-25-11.2-25-25v-20c0-13.7,11.3-25,25-25l0,0c13.8,0,25,11.2,25,25v20C1132.7-17.2,1121.5-6,1107.7-6z"
		/>
	<path id="XMLID_29_" fill="none" stroke="#000000" stroke-width="2" stroke-linejoin="round" stroke-miterlimit="10" d="M1110-40
		c0,0,0,8.4,0,10c0,3.3-4.6,3.4-4.6,3.4"/>
	<path id="XMLID_21_" fill="#4D4D4D" stroke="#000000" stroke-width="2" stroke-linejoin="round" stroke-miterlimit="10" d="
		M1117.5-75.7c-0.1,0-0.1,0-0.2,0c-3.6-1.8-7.5-2.8-12-2.8c-12.8,0-21.7,8.3-22.3,18.5c-0.3,5-0.3,18.5-0.3,18.5s4.9-21.9,11.9-21.9
		c2.5,0,5.5,2.8,13.8,2.8s14.1-2.8,16-2.8c3.3,0,8.3,21.9,8.3,21.9s0.3-11.2,0.3-17.3C1133-68.4,1126.4-75.7,1117.5-75.7z"/>
</g>
<g>
	<path id="XMLID_137_" fill="#E5D791" stroke="#000000" stroke-width="2" stroke-linejoin="round" stroke-miterlimit="10" d="
		M915.5,255.1h10c16.5,0,30,13.5,30,30v85c0,5.5-4.5,10-10,10h-80c-5.5,0-10-4.5-10-10v-85c0-16.5,13.5-30,30-30h10"/>
	
		<polygon id="XMLID_142_" fill="#FFFFFF" stroke="#000000" stroke-width="2" stroke-linejoin="round" stroke-miterlimit="10" points="
		915.8,260 915.8,255.2 915.8,243.1 895.8,243.1 895.8,255.2 895.8,260 906.2,299 	"/>
	<path id="XMLID_136_" fill="none" stroke="#000000" stroke-width="2" stroke-linejoin="round" stroke-miterlimit="10" d="
		M905.8,297"/>
	<path id="XMLID_141_" fill="#D4DCF4" stroke="#000000" stroke-width="2" stroke-linejoin="round" stroke-miterlimit="10" d="
		M895.8,255c6.7,5.7,13.3,5.7,20,0l10,0.2l-5.3,36h-32.4l-2.6-36L895.8,255z"/>
	
		<polygon id="XMLID_139_" fill="#FFFFFF" stroke="#000000" stroke-width="2" stroke-linejoin="round" stroke-miterlimit="10" points="
		885.4,255.1 905.9,275.9 925.8,255.1 925.8,380.1 884.8,380.1 	"/>
	<pattern  id="XMLID_66_" xlink:href="#XMLID_64_" patternTransform="matrix(1 0 0 1 -111.3761 16264.1113)">
	</pattern>
	
		<polygon id="XMLID_140_" fill="url(#XMLID_66_)" stroke="#000000" stroke-width="2" stroke-linejoin="round" stroke-miterlimit="10" points="
		885.4,255.1 905.9,275.9 925.8,255.1 925.8,380.1 884.8,380.1 	"/>
	<path id="XMLID_144_" fill="#E5D791" stroke="#000000" stroke-width="2" stroke-linejoin="round" stroke-miterlimit="10" d="
		M885.4,255.1c0,0-5.3,1.9-8.8,6.9c-2.5,3.5,8.2,92.7,8.2,92.7L885.4,255.1z"/>
	<path id="XMLID_145_" fill="#E5D791" stroke="#000000" stroke-width="2" stroke-linejoin="round" stroke-miterlimit="10" d="
		M926.2,255.1c0,0,5.3,1.9,8.8,6.9c2.5,3.5-9.3,92.7-9.3,92.7L926.2,255.1z"/>
	<path id="XMLID_32_" fill="#FFFFFF" stroke="#000000" stroke-width="2" stroke-linejoin="round" stroke-miterlimit="10" d="
		M905.7,249L905.7,249c-13.8,0-25-11.3-25-25v-20c0-13.7,11.2-25,25-25l0,0c13.8,0,25,11.3,25,25v20
		C930.7,237.8,919.5,249,905.7,249z"/>
	<path id="XMLID_33_" fill="none" stroke="#000000" stroke-width="2" stroke-linejoin="round" stroke-miterlimit="10" d="M908,215
		c0,0,0,8.4,0,10c0,3.3-4.6,3.4-4.6,3.4"/>
	<path id="XMLID_34_" fill="#4D4D4D" stroke="#000000" stroke-width="2" stroke-linejoin="round" stroke-miterlimit="10" d="
		M932.9,201.8c1.3-0.9,2.2-2.5,2.2-4.2c0-2.3-1.4-4.2-3.5-4.9c0.3-0.6,0.5-1.4,0.5-2.1c0-2.8-2.3-5.1-5.1-5.2c0-0.3,0.1-0.5,0.1-0.8
		c0-2.9-2.3-5.2-5.2-5.2c-0.1,0-0.2,0-0.3,0c-0.8-1.8-2.6-3-4.7-3c-0.6,0-1.1,0.1-1.7,0.3c-0.9-1.4-2.5-2.3-4.3-2.3
		c-0.6,0-1.1,0.1-1.6,0.3l0,0c-0.2-0.2-0.5-0.4-0.7-0.5l0,0c-0.2-0.1-0.5-0.3-0.8-0.4c-0.1,0-0.2-0.1-0.3-0.1
		c-0.2-0.1-0.4-0.1-0.6-0.2c-0.3-0.1-0.6-0.1-1-0.1l0,0c-0.3,0-0.7,0-1,0.1c-0.2,0-0.4,0.1-0.6,0.2c-0.1,0-0.2,0.1-0.3,0.1
		c-0.3,0.1-0.5,0.2-0.8,0.4l0,0c-0.3,0.2-0.5,0.3-0.7,0.5l0,0c-0.5-0.2-1-0.3-1.6-0.3c-1.8,0-3.4,0.9-4.3,2.3
		c-0.5-0.2-1.1-0.3-1.7-0.3c-2.1,0-3.9,1.2-4.7,3c-0.1,0-0.2,0-0.3,0c-2.9,0-5.2,2.3-5.2,5.2c0,0.3,0,0.5,0.1,0.8
		c-2.8,0.1-5.1,2.4-5.1,5.2c0,0.8,0.2,1.5,0.5,2.1c-2,0.7-3.5,2.6-3.5,4.9c0,1.7,0.9,3.3,2.2,4.2c-1.9,0.8-3.2,2.6-3.2,4.8
		c0,2.9,2.3,5.2,5.2,5.2h0.1v4.3l5-7.4l0,0c2-0.5,4.1-2.5,4.1-5.1c0-0.8-0.2-1.5-0.5-2.1c2-0.7,3.4-2.6,3.4-4.9
		c0-0.4-0.1-0.9-0.2-1.3c0.9,0.7,1.9,1.1,3.1,1.1c2.8,0,5-2.2,5-5c0-0.8-0.2-1.6-0.6-2.3c0.2-0.1,0.3-0.2,0.5-0.3
		c0.1,0,0.1,0.1,0.2,0.1c0,0.2,0,0.3,0,0.5c0,2.8,2.2,5,5,5s5-2.2,5-5c0-0.2,0-0.4-0.1-0.5c0.2,0.1,0.4,0.2,0.6,0.3
		c-0.3,0.7-0.5,1.4-0.5,2.2c0,2.8,2.2,5,5,5c1,0,2-0.3,2.8-0.8c-0.1,0.3-0.1,0.7-0.1,1c0,2.3,1.4,4.2,3.5,4.9
		c-0.3,0.6-0.4,1.4-0.4,2.1c0,2.5,1.2,4.6,4.2,5.1l0,0l5,7.4v-4.3l0,0c2.9,0,5.1-2.3,5.1-5.2C936.2,204.4,934.8,202.5,932.9,201.8z"
		/>
</g>
<g>
	<path id="XMLID_61_" fill="#192333" stroke="#000000" stroke-width="2" stroke-linejoin="round" stroke-miterlimit="10" d="
		M1124.9,536.9h-5l-5,0.4l-0.9,9.6h-17.8l-1.3-10h-6.4h-3.6c-16.5,0-29.7,13.6-29.7,30.1v85c0,5.5,4.2,9.9,9.7,9.9h80
		c5.5,0,10.3-4.4,10.3-9.9v-85C1155.2,550.5,1141.4,536.9,1124.9,536.9z"/>
	
		<polygon id="XMLID_60_" fill="#FFFFFF" stroke="#000000" stroke-width="2" stroke-linejoin="round" stroke-miterlimit="10" points="
		1115.2,541.8 1115.2,537 1115.2,524.9 1095.2,524.9 1095.2,537 1095.2,541.8 1105.6,580.8 	"/>
	<polygon id="XMLID_58_" fill="#A457AA" stroke="#000000" stroke-miterlimit="10" points="1105.3,635.1 1096,547.4 1105.6,577 
		1114.7,547.4 	"/>
	<polygon id="XMLID_56_" fill="#192333" stroke="#000000" stroke-miterlimit="10" points="1094.9,536.8 1075,549 1082.9,556.7 
		1075.2,564.4 1104.6,636.8 	"/>
	<polygon id="XMLID_53_" fill="#192333" stroke="#000000" stroke-miterlimit="10" points="1115.7,537.1 1135.8,549 1127.9,556.7 
		1135.6,564.4 1106,636.8 	"/>
	<polygon id="XMLID_52_" fill="#A457AA" stroke="#000000" stroke-miterlimit="10" points="1095.2,537 1099.6,539.3 1105.6,577 
		1095.2,548.2 1085.6,549.7 	"/>
	<path id="XMLID_50_" fill="#A457AA" stroke="#000000" stroke-miterlimit="10" d="M1115.5,537l-4.3,2.3c0,0,0,0-0.1,0.1l-5.6,37.6
		l10-28.8h0.1l9.3,1.5c0.1,0,0.2-0.1,0.1-0.2L1115.5,537C1115.6,537,1115.6,537,1115.5,537z"/>
	<path id="XMLID_35_" fill="#FFFFFF" stroke="#000000" stroke-width="2" stroke-linejoin="round" stroke-miterlimit="10" d="
		M1105.7,531L1105.7,531c-13.8,0-25-11.3-25-25v-20c0-13.8,11.3-25,25-25l0,0c13.8,0,25,11.3,25,25v20
		C1130.7,519.8,1119.5,531,1105.7,531z"/>
	<path id="XMLID_36_" fill="none" stroke="#000000" stroke-width="2" stroke-linejoin="round" stroke-miterlimit="10" d="M1108,497
		c0,0,0,8.4,0,10c0,3.3-4.6,3.4-4.6,3.4"/>
	<path id="XMLID_37_" fill="#4D4D4D" stroke="#000000" stroke-width="2" stroke-linejoin="round" stroke-miterlimit="10" d="
		M1136.4,483c0-11-9.4-22-21.3-22h-9h-8.7c-11.9,0-21.3,11-21.3,22s-4.6,33.6-4.6,33.6c0,10,14.9,9,14.9,5c-4.3-6-5.6-15.7-5.6-26.9
		c0-7.3,13-26.9,18.1-26.9c2.5,0,6.2,0.5,7.2,1.9c1-1.4,4.9-1.9,7.4-1.9c5.2,0,17.3,19.5,17.3,26.9c0,11.2-0.3,20.9-4.6,26.9
		c0,4,14.9,5,14.9-5C1141,516.6,1136.4,494,1136.4,483z"/>
</g>
<g>
	<path id="XMLID_105_" fill="#192333" stroke="#000000" stroke-width="2" stroke-linejoin="round" stroke-miterlimit="10" d="
		M1774.9,15.8h-5l-5,0.4l-0.9,9.6h-17.8l-1.3-10h-6.4h-3.6c-16.5,0-29.7,13.6-29.7,30.1v85c0,5.5,4.2,9.9,9.7,9.9h80
		c5.5,0,10.3-4.4,10.3-9.9v-85C1805.2,29.4,1791.4,15.8,1774.9,15.8z"/>
	
		<polygon id="XMLID_104_" fill="#FFFFFF" stroke="#000000" stroke-width="2" stroke-linejoin="round" stroke-miterlimit="10" points="
		1765.2,20.7 1765.2,15.9 1765.2,3.8 1745.2,3.8 1745.2,15.9 1745.2,20.7 1755.6,59.7 	"/>
	<polygon id="XMLID_103_" fill="#CC8246" stroke="#000000" stroke-miterlimit="10" points="1755.3,114 1746,26.3 1755.6,55.9 
		1764.7,26.3 	"/>
	<polygon id="XMLID_101_" fill="#192333" stroke="#000000" stroke-miterlimit="10" points="1744.9,15.7 1725,27.9 1732.9,35.6 
		1725.2,43.3 1754.6,115.7 	"/>
	<polygon id="XMLID_100_" fill="#192333" stroke="#000000" stroke-miterlimit="10" points="1765.7,16 1785.8,27.9 1777.9,35.6 
		1785.6,43.3 1756,115.7 	"/>
	<polygon id="XMLID_99_" fill="#CC8246" stroke="#000000" stroke-miterlimit="10" points="1745.2,15.9 1749.6,18.2 1755.6,55.9 
		1745.2,27.1 1735.6,28.6 	"/>
	<path id="XMLID_83_" fill="#CC8246" stroke="#000000" stroke-miterlimit="10" d="M1765.5,15.9l-4.3,2.3c0,0,0,0-0.1,0.1l-5.6,37.6
		l10-28.8h0.1l9.3,1.5c0.1,0,0.2-0.1,0.1-0.2L1765.5,15.9C1765.6,15.9,1765.6,15.9,1765.5,15.9z"/>
	<path id="XMLID_59_" fill="#4D4D4D" stroke="#000000" stroke-width="2" stroke-linejoin="round" stroke-miterlimit="10" d="
		M1786-3.9c0-0.3,0-33.8,0-33.8c0-13.8-11.5-25.3-25.3-25.3h-10c-13.8,0-24.7,11.5-24.7,25.3c0,0,0,33.4,0,33.7
		c0,5.5-4.7,10.9-10.2,10.9c-0.3,0-0.5,0-0.8,0v0.2h10.7h60h10.1C1790.3,7,1786,1.5,1786-3.9z"/>
	<path id="XMLID_38_" fill="#FFFFFF" stroke="#000000" stroke-width="2" stroke-linejoin="round" stroke-miterlimit="10" d="
		M1755.7,11L1755.7,11c-13.8,0-25-11.3-25-25v-20c0-13.7,11.3-25,25-25l0,0c13.8,0,25,11.2,25,25v20C1780.7-0.2,1769.5,11,1755.7,11
		z"/>
	<path id="XMLID_39_" fill="#FFFFFF" stroke="#000000" stroke-width="2" stroke-linejoin="round" stroke-miterlimit="10" d="
		M1758-23c0,0,0,8.4,0,10c0,3.3-4.6,3.4-4.6,3.4"/>
	<path id="XMLID_86_" fill="#4D4D4D" stroke="#000000" stroke-width="2" stroke-linejoin="round" stroke-miterlimit="10" d="
		M1786-37.7c0-13.8-11.5-25.3-25.3-25.3h-4.7c-0.1,0.5-0.2,0.9-0.3,1.4c-0.1-0.5-0.2-0.9-0.3-1.4h-4.8c-13.8,0-24.7,11.5-24.7,25.3
		v1c2.3,0.8,4.7,1.2,7.3,1.2c11.4,0,20.9-8.4,22.5-19.4c1.6,11,11.1,19.4,22.5,19.4c2.7,0,5.3-0.5,7.8-1.4V-37.7z"/>
</g>
<g>
	<path id="XMLID_40_" fill="#4F7699" stroke="#000000" stroke-width="2" stroke-linejoin="round" stroke-miterlimit="10" d="
		M1945.4,256.7h10c16.5,0,30,13.5,30,30v85c0,5.5-4.5,10-10,10h-80c-5.5,0-10-4.5-10-10v-85c0-16.5,13.5-30,30-30h10"/>
	
		<polygon id="XMLID_135_" fill="#FFFFFF" stroke="#000000" stroke-width="2" stroke-linejoin="round" stroke-miterlimit="10" points="
		1945.7,261.6 1945.7,256.8 1945.7,244.7 1925.7,244.7 1925.7,256.8 1925.7,261.6 1936.1,300.6 	"/>
	
		<polygon id="XMLID_131_" fill="#B6DCFF" stroke="#000000" stroke-width="2" stroke-linejoin="round" stroke-miterlimit="10" points="
		1921.1,256.7 1925.4,253.9 1935.7,267.2 1935.7,298.3 1924.6,279.8 	"/>
	<path id="XMLID_41_" fill="#4F7699" stroke="#000000" stroke-width="2" stroke-linejoin="round" stroke-miterlimit="10" d="
		M1935.5,298.3c-11.7-7.8-22.4-10.4-39.9-12.5c2.7-13.6,9.1-24.2,19.8-29.1l5.9-0.1L1935.5,298.3z"/>
	
		<polygon id="XMLID_134_" fill="#B6DCFF" stroke="#000000" stroke-width="2" stroke-linejoin="round" stroke-miterlimit="10" points="
		1950.2,256.7 1945.9,253.9 1935.7,267.2 1935.7,298.3 1946.8,279.8 	"/>
	<path id="XMLID_133_" fill="#4F7699" stroke="#000000" stroke-width="2" stroke-linejoin="round" stroke-miterlimit="10" d="
		M1935.8,298.3c11.7-7.8,22.4-10.4,39.9-12.5c-2.7-13.6-9.1-24.2-19.8-29.1l-5.9-0.1L1935.8,298.3z"/>
	
		<line id="XMLID_132_" fill="none" stroke="#000000" stroke-width="2" stroke-linejoin="round" stroke-miterlimit="10" x1="1935.7" y1="298.7" x2="1935.7" y2="381.7"/>
	<path id="XMLID_42_" fill="#FFFFFF" stroke="#000000" stroke-width="2" stroke-linejoin="round" stroke-miterlimit="10" d="
		M1935.7,250L1935.7,250c-13.8,0-25-11.3-25-25v-20c0-13.7,11.3-25,25-25l0,0c13.8,0,25,11.3,25,25v20
		C1960.7,238.8,1949.5,250,1935.7,250z"/>
	<path id="XMLID_43_" fill="none" stroke="#000000" stroke-width="2" stroke-linejoin="round" stroke-miterlimit="10" d="M1938,216
		c0,0,0,8.4,0,10c0,3.3-4.6,3.4-4.6,3.4"/>
	<path id="XMLID_87_" fill="#4D4D4D" stroke="#000000" stroke-width="2" stroke-linejoin="round" stroke-miterlimit="10" d="
		M1959.6,232.3c0,0,0.4-4.9,0.4-7.8v-14.4c-7-18.5-28.3-7.4-39.4-19.3c-3.6,4.6-8.7,11.4-10.4,20.5l-0.3,13.2c0,2.9,1.6,7.8,1.6,7.8
		c-4-4.3-4.4-21-4.4-21V207c0-13.6,10.3-26,23.9-28h8.7c13.7,2,24.3,14.4,24.3,28v4.3C1964,211.3,1963.8,228,1959.6,232.3z"/>
	<path id="XMLID_44_" fill="#4D4D4D" stroke="#000000" stroke-width="2" stroke-linejoin="round" stroke-miterlimit="10" d="
		M1919.9,244.3l-2.1,1.7l-1.9-2.5l-2.6,1.6l-1.6-3.4l-2.5,1l2.7-10C1913.7,237.7,1916.4,241.6,1919.9,244.3z"/>
	<path id="XMLID_90_" fill="#4D4D4D" stroke="#000000" stroke-width="2" stroke-linejoin="round" stroke-miterlimit="10" d="
		M1951.9,244.3l2.1,1.7l1.9-2.5l2.6,1.6l1.6-3.4l2.5,1l-2.7-10C1958,237.7,1955.4,241.6,1951.9,244.3z"/>
</g>
<g>
	<path id="XMLID_45_" fill="#161E2B" stroke="#000000" stroke-width="2" stroke-linejoin="round" stroke-miterlimit="10" d="
		M1773.1,536.9h-5l-5,0.4l-0.9,9.6h-17.8l-1.3-10h-6.4h-3.6c-16.5,0-29.7,13.6-29.7,30.1v85c0,5.5,4.2,9.9,9.7,9.9h80
		c5.5,0,10.3-4.4,10.3-9.9v-85C1803.4,550.5,1789.6,536.9,1773.1,536.9z"/>
	
		<polygon id="XMLID_46_" fill="#FFFFFF" stroke="#000000" stroke-width="2" stroke-linejoin="round" stroke-miterlimit="10" points="
		1763.4,541.9 1763.4,537 1763.4,524.9 1743.4,524.9 1743.4,537 1743.4,541.9 	"/>
	<polygon id="XMLID_47_" fill="#DAE8F7" stroke="#000000" stroke-miterlimit="10" points="1753.4,635.1 1744.1,547.5 1753.4,541.3 
		1762.9,547.4 	"/>
	<path id="XMLID_48_" fill="#32931D" stroke="#000000" stroke-miterlimit="10" d="M1759.1,602.7c0.6-28.3-4.3-51.4-4.3-51.4l6-4.5
		l-7.4-4.2l-7.3,4.2l6,4.3c0,0-4.9,23.1-4.3,51.4l5.6,5.3L1759.1,602.7z"/>
	<polygon id="XMLID_49_" fill="#161E2B" stroke="#000000" stroke-miterlimit="10" points="1743.1,536.8 1723.2,549 1731.1,556.7 
		1723.4,564.4 1752.8,636.8 	"/>
	<polygon id="XMLID_51_" fill="#161E2B" stroke="#000000" stroke-miterlimit="10" points="1763.9,537.1 1784,549 1776.1,556.7 
		1783.8,564.4 1754.2,636.8 	"/>
	<polygon id="XMLID_54_" fill="#DAE8F7" stroke="#000000" stroke-miterlimit="10" points="1743.4,537 1753.4,541.3 1763.9,537.1 
		1764.4,548.4 1753.4,542.7 1742.9,548.4 	"/>
	<path id="XMLID_55_" fill="#FFFFFF" stroke="#000000" stroke-width="2" stroke-linejoin="round" stroke-miterlimit="10" d="
		M1753.7,531L1753.7,531c-13.8,0-25-11.3-25-25v-20c0-13.8,11.3-25,25-25l0,0c13.8,0,25,11.3,25,25v20
		C1778.7,519.8,1767.5,531,1753.7,531z"/>
	<path id="XMLID_57_" fill="none" stroke="#000000" stroke-width="2" stroke-linejoin="round" stroke-miterlimit="10" d="M1756,497
		c0,0,0,8.4,0,10c0,3.3-4.6,3.4-4.6,3.4"/>
	<path id="XMLID_62_" fill="#4D4D4D" stroke="#000000" stroke-width="2" stroke-linejoin="round" stroke-miterlimit="10" d="
		M1756.8,457h-16c-6.6,0-12,5.4-12,12v16h28c2.8,0,5-2.3,5-5v-18C1761.8,459.3,1759.5,457,1756.8,457z"/>
	<path id="XMLID_63_" fill="#4D4D4D" stroke="#000000" stroke-width="2" stroke-linejoin="round" stroke-miterlimit="10" d="
		M1761.8,461.9h7c5.5,0,10,4.5,10,10V485h-12c-2.8,0-5-2.3-5-5V461.9z"/>
</g>
<g>
	
		<line fill="none" stroke="#000000" stroke-width="4" stroke-linejoin="round" stroke-miterlimit="10" x1="1271.9" y1="150.9" x2="1271.9" y2="230.9"/>
	
		<line fill="none" stroke="#000000" stroke-width="4" stroke-linejoin="round" stroke-miterlimit="10" x1="1271.9" y1="310.9" x2="1271.9" y2="390.9"/>
	<path fill="none" stroke="#000000" stroke-width="4" stroke-linejoin="round" stroke-miterlimit="10" d="M1431.9,95.3V70.9h-80
		v23.8c0,1-0.9,8.1-2.2,10.4c-2.2,3.6-4.6-0.1-4.8-0.4c-1.8-2.8-3.6-5.9-9.4-5.9c-7.3,0-10.9,5.9-10.9,13.2s3.6,13.2,10.9,13.2
		c5.7,0,7.6-3.1,9.4-6c0.1-0.1,2.7-4,4.9-0.4c1.3,2.2,2.1,7.4,2.1,8.4v23.7h25.8c1,0,4.2-1,6.4-2.4c3.6-2.2-0.3-4.8-0.4-4.9
		c-2.8-1.8-5.9-3.7-5.9-9.4c0-7.3,5.9-10.9,13.2-10.9s13.2,3.6,13.2,10.9c0,5.8-3.1,7.6-5.9,9.4c-0.3,0.1-4,2.5-0.4,4.8
		c2.2,1.3,9,2.5,10.1,2.5h24.1v-24.3c0-1,1.2-7.6,2.5-9.9c2.2-3.6,4.6,0.1,4.8,0.4c1.8,2.8,3.6,6,9.4,6c7.3,0,10.9-6,10.9-13.2
		s-3.6-13.2-10.9-13.2c-5.7,0-7.6,3.1-9.4,6c-0.1,0.1-2.7,4-4.9,0.4C1433,100.9,1431.9,96.4,1431.9,95.3z"/>
	<path fill="none" stroke="#000000" stroke-width="4" stroke-linejoin="round" stroke-miterlimit="10" d="M1351.9,150.9h-23.6
		c-1,0-6.2,1-8.4,2.4c-3.6,2.2,0.3,4.8,0.4,4.9c2.8,1.8,6,3.7,6,9.4c0,7.3-6,10.9-13.2,10.9c-7.3,0-13.2-3.6-13.2-10.9
		c0-5.8,3.1-7.6,6-9.4c0.3-0.1,4-2.5,0.4-4.8c-2.2-1.3-9.5-2.5-10.5-2.5h-23.7V78.6c0-4.3,3.5-7.7,7.7-7.7h72.3"/>
	<path fill="none" stroke="#000000" stroke-width="4" stroke-linejoin="round" stroke-miterlimit="10" d="M1352.2,336.7
		c0,1-1.2,6.1-2.5,8.3c-2.2,3.6-4.6-0.1-4.8-0.4c-1.8-2.8-3.6-6-9.4-6c-7.3,0-10.9,6-10.9,13.2c0,7.3,3.6,13.2,10.9,13.2
		c5.7,0,7.6-3.1,9.4-6c0.1-0.1,2.7-4,4.9-0.4c1.3,2.2,2.4,5.4,2.4,6.4v25.8h65.5c1,0,6.1,1.2,8.3,2.5c3.6,2.2-0.1,4.6-0.4,4.8
		c-2.8,1.8-6,3.6-6,9.4c0,7.3,6,10.9,13.2,10.9c7.3,0,13.2-3.6,13.2-10.9c0-5.7-3.1-7.6-6-9.4c-0.1-0.1-4-2.7-0.4-4.9
		c2.2-1.3,5.4-2.4,6.4-2.4h66.1V365h-0.1c0-1-1-4.2-2.4-6.4c-2.2-3.6-4.8,0.3-4.9,0.4c-1.8,2.8-3.7,6-9.4,6c-7.3,0-10.9-6-10.9-13.2
		c0-7.3,3.6-13.2,10.9-13.2c5.8,0,7.6,3.1,9.4,6c0.1,0.3,2.5,4,4.8,0.4c1.3-2.2,2.5-7.3,2.5-8.3h0.1v-50.5c0-1,1-7.1,2.4-9.4
		c2.2-3.6,4.6,0.1,4.8,0.4c1.8,2.8,3.6,6,9.4,6c7.3,0,10.9-6,10.9-13.2c0-7.3-3.6-13.2-10.9-13.2c-5.7,0-7.6,3.1-9.4,6
		c-0.1,0.1-2.7,4-4.9,0.4c-1.3-2.2-2.4-5.4-2.4-6.4h0.1V231h-25.8c-1,0-4.2,1-6.4,2.4c-3.6,2.2,0.3,4.8,0.4,4.9c2.8,1.8,6,3.7,6,9.4
		c0,7.3-6,10.9-13.2,10.9c-7.3,0-13.2-3.6-13.2-10.9c0-5.8,3.1-7.6,6-9.4c0.3-0.1,4-2.5,0.4-4.8c-2.2-1.3-7.3-2.5-8.3-2.5h-48.7
		c-1,0-7.6-0.8-9.8-2.1c-3.6-2.2,0.1-4.6,0.4-4.8c2.8-1.8,6-3.6,6-9.4c0-7.3-6-10.9-13.2-10.9c-7.3,0-13.2,3.6-13.2,10.9
		c0,5.7,3.1,7.6,6,9.4c0.1,0.1,4,2.7,0.4,4.9c-2.2,1.3-7,2-8,2h-25.6v24.8c0,1,0.7,5.2,2.1,7.4c2.2,3.6,4.8-0.3,4.9-0.4
		c1.8-2.8,3.7-6,9.4-6c7.3,0,10.9,6,10.9,13.2c0,7.3-3.6,13.2-10.9,13.2c-5.8,0-7.6-3.1-9.4-6c-0.1-0.3-2.5-4-4.8-0.4
		c-1.3,2.2-2.2,8.8-2.2,9.9C1352.2,286.7,1352.2,336.7,1352.2,336.7z"/>
	<path fill="none" stroke="#000000" stroke-width="4" stroke-linejoin="round" stroke-miterlimit="10" d="M1512.2,310.9h25.6
		c1,0,6.1,1.2,8.3,2.5c3.6,2.2-0.1,4.6-0.4,4.8c-2.8,1.8-5.9,3.6-5.9,9.4c0,7.3,5.9,10.9,13.2,10.9s13.2-3.6,13.2-10.9
		c0-5.7-3.1-7.6-5.9-9.4c-0.1-0.1-4-2.7-0.4-4.9c2.2-1.3,5.4-2.4,6.4-2.4h25.9c0-3.4,3.8-20,8.2-27.4c7.3-11.7,15.1,0.5,15.6,1.5
		c5.9,9.3,11.7,19.5,30.8,19.5c23.9,0,35.7-19.5,35.7-43.5c0-23.9-11.7-43.5-35.7-43.5c-18.6,0-24.9,10.3-30.8,19.5
		c-0.5,0.5-8.8,13.2-16.1,1.5c-4.4-7.3-7.8-17.6-7.8-21h0.1v-66.7H1568c-1,0-7.8-1.2-10-2.5c-3.6-2.2,0.1-4.6,0.4-4.8
		c2.8-1.8,5.9-3.6,5.9-9.4c0-7.3-5.9-10.9-13.2-10.9s-13.2,3.6-13.2,10.9c0,5.7,3.1,7.6,5.9,9.4c0.1,0.1,4,2.7,0.4,4.9
		c-2.2,1.3-5.4,2.4-6.4,2.4h-25.6v25.8h-0.1c0,1,1,4.2,2.4,6.4c2.2,3.6,4.8-0.3,4.9-0.4c1.8-2.8,3.7-6,9.4-6c7.3,0,10.9,6,10.9,13.2
		s-3.6,13.2-10.9,13.2c-5.8,0-7.6-3.1-9.4-6c-0.1-0.3-2.5-4-4.8-0.4c-1.3,2.2-2.5,7.3-2.5,8.3h0.1v25.8"/>
	<path fill="none" stroke="#000000" stroke-width="4" stroke-linejoin="round" stroke-miterlimit="10" d="M1512.2,150.9h-25.8
		c-1,0-6.1-1.2-8.3-2.5c-3.6-2.2,0.1-4.6,0.4-4.8c2.8-1.8,6-3.6,6-9.4c0-7.3-6-10.9-13.2-10.9c-7.3,0-13.2,3.6-13.2,10.9
		c0,5.7,3.1,7.6,6,9.4c0.1,0.1,4,2.7,0.4,4.9c-2.2,1.3-5.4,2.4-6.4,2.4h-25.8v25.8c0,1,1,4.2,2.4,6.4c2.2,3.6,4.8-0.3,4.9-0.4
		c1.8-2.8,3.7-6,9.4-6c7.3,0,10.9,6,10.9,13.2s-3.6,13.2-10.9,13.2c-5.8,0-7.6-3.1-9.4-6c-0.1-0.3-2.5-4-4.8-0.4
		c-1.3,2.2-2.5,7.3-2.5,8.3v25.8"/>
	<path fill="none" stroke="#000000" stroke-width="4" stroke-linejoin="round" stroke-miterlimit="10" d="M1432.2,70.9h152.3
		c4.3,0,7.7,3.5,7.7,7.7v72.3"/>
	<path fill="none" stroke="#000000" stroke-width="4" stroke-linejoin="round" stroke-miterlimit="10" d="M1351.9,230.9h-25.6
		c-1,0-4.2,1-6.4,2.4c-3.6,2.2,0.3,4.8,0.4,4.9c2.8,1.8,6,3.7,6,9.4c0,7.3-6,10.9-13.2,10.9c-7.3,0-13.2-3.6-13.2-10.9
		c0-5.8,3.1-7.6,6-9.4c0.3-0.1,4-2.5,0.4-4.8c-2.2-1.3-7.3-2.5-8.3-2.5h-25.9v80h25.9c1,0,6.1,1.2,8.3,2.5c3.6,2.2-0.1,4.6-0.4,4.8
		c-2.8,1.8-6,3.6-6,9.4c0,7.3,6,10.9,13.2,10.9c7.3,0,13.2-3.6,13.2-10.9c0-5.7-3.1-7.6-6-9.4c-0.1-0.1-4-2.7-0.4-4.9
		c2.2-1.3,5.4-2.4,6.4-2.4h25.6"/>
	<path fill="none" stroke="#000000" stroke-width="4" stroke-linejoin="round" stroke-miterlimit="10" d="M1352.1,418.4v-27.5h-25.8
		c-1,0-6.1-1.2-8.3-2.5c-3.6-2.2,0.1-4.6,0.4-4.8c2.8-1.8,6-3.6,6-9.4c0-7.3-6-10.9-13.2-10.9c-7.3,0-13.2,3.6-13.2,10.9
		c0,5.7,3.1,7.6,6,9.4c0.1,0.1,4,2.7,0.4,4.9c-2.2,1.3-5.4,2.4-6.4,2.4h-25.8v72.3c0,4.3,3.5,7.8,7.7,7.8h72.3v-24.1h-0.1
		c0-1,1.2-6.1,2.5-8.3c2.2-3.6,4.6,0.1,4.8,0.4c1.8,2.8,3.6,6,9.4,6c7.3,0,10.9-6,10.9-13.2c0-7.3-3.6-13.2-10.9-13.2
		c-5.7,0-7.6,3.1-9.4,6c-0.1,0.1-2.7,4-4.9,0.4c-1.3-2.2-2.4-5.4-2.4-6.4V418.4z"/>
	<path fill="none" stroke="#000000" stroke-width="4" stroke-linejoin="round" stroke-miterlimit="10" d="M1352.1,470.9h33.2
		c3.4,0,20,3.9,27.4,8.3c11.7,7.3-0.5,15.1-1.5,15.6c-9.3,5.9-19.5,11.7-19.5,30.8c0,23.9,19.5,35.7,43.5,35.7s43.5-11.7,43.5-35.7
		c0-18.6-10.3-24.9-19.5-30.8c-0.5-0.5-13.2-8.8-1.5-16.1c7.3-4.4,17.6-7.8,21-7.8h33.6v-25.8h-0.1c0-1-1-4.2-2.4-6.4
		c-2.2-3.6-4.8,0.3-4.9,0.4c-1.8,2.8-3.7,6-9.4,6c-7.3,0-10.9-6-10.9-13.2c0-7.3,3.6-13.2,10.9-13.2c5.8,0,7.6,3.1,9.4,6
		c0.1,0.3,2.5,4,4.8,0.4c1.3-2.2,2.5-7.3,2.5-8.3h0.1V391"/>
	<path fill="none" stroke="#000000" stroke-width="4" stroke-linejoin="round" stroke-miterlimit="10" d="M1512.1,390.9h25.9
		c1,0,6.1,1.2,8.3,2.5c3.6,2.2-0.1,4.6-0.4,4.8c-2.8,1.8-5.9,3.6-5.9,9.4c0,7.3,5.9,10.9,13.2,10.9s13.2-3.6,13.2-10.9
		c0-5.7-3.1-7.6-5.9-9.4c-0.1-0.1-4-2.7-0.4-4.9c2.2-1.3,5.4-2.4,6.4-2.4h25.6v72.3c0,4.3-3.5,7.8-7.7,7.8h-72.3"/>
	
		<line fill="none" stroke="#000000" stroke-width="4" stroke-linejoin="round" stroke-miterlimit="10" x1="1592.1" y1="390.9" x2="1592.1" y2="311.5"/>
</g>
</svg>
