<?xml version="1.0" encoding="utf-8"?>
<!-- Generator: Adobe Illustrator 19.0.0, SVG Export Plug-In . SVG Version: 6.00 Build 0)  -->
<svg version="1.1" id="Layer_1" xmlns="http://www.w3.org/2000/svg" xmlns:xlink="http://www.w3.org/1999/xlink" x="0px" y="0px"
	 width="1920px" height="1080px" viewBox="0 0 1920 1080" enable-background="new 0 0 1920 1080" xml:space="preserve">
<path id="XMLID_107_" fill="none" stroke="#A5A5A5" stroke-width="4" stroke-linejoin="round" stroke-miterlimit="10" d="M754,730
	h27h0.8c1.3,0,5,1.5,7.6,3.2c4.3,2.7-0.3,5.6-0.5,5.7c-3.4,2.2-7.1,4.3-7.1,11.1c0,8.7,7.1,12.9,15.8,12.9s15.8-4.2,15.8-13
	c0-6.8-3.7-9-7.1-11.2c-0.2-0.1-4.8-3.1-0.5-5.8c2.7-1.7,5.9-3,7.1-3h29"/>
<path id="XMLID_118_" fill="none" stroke="#A5A5A5" stroke-width="4" stroke-linejoin="round" stroke-miterlimit="10" d="M937,825
	v-47c0-1.2-1.1-4.6-2.8-7.2c-2.7-4.3-5.7,0.3-5.8,0.5c-2.2,3.4-4.4,7.1-11.2,7.1c-8.7,0-13-7.1-13-15.8s4.2-15.8,12.9-15.8
	c6.8,0,9,3.7,11.1,7.1c0.1,0.2,3,4.8,5.7,0.5c1.7-2.7,3-6,3-7.4v-35"/>
<path id="XMLID_127_" fill="none" stroke="#A5A5A5" stroke-width="4" stroke-linejoin="round" stroke-miterlimit="10" d="M1140,610
	h-36c-1.2,0-5.5,1.3-8.1,3c-4.3,2.7,0.3,5.7,0.5,5.8c3.4,2.2,7.1,4.4,7.1,11.2c0,8.7-7.1,13-15.8,13s-15.8-4.2-15.8-12.9
	c0-6.8,3.7-9,7.1-11.1c0.2-0.1,4.8-3,0.5-5.7c-2.7-1.7-6.2-3.2-7.5-3.2h-39"/>
<path id="XMLID_140_" fill="none" stroke="#A5A5A5" stroke-width="4" stroke-linejoin="round" stroke-miterlimit="10" d="M1140,540
	v19c0,1.2,1.4,4.7,3.1,7.4c2.7,4.3,5.7-0.3,5.8-0.5c2.2-3.4,4.4-7.1,11.2-7.1c8.7,0,13,7.1,13,15.8s-4.2,15.8-12.9,15.8
	c-6.8,0-9-3.7-11.1-7.1c-0.1-0.2-3-4.8-5.7-0.5c-1.7,2.7-3.3,6.3-3.3,7.6V590v65"/>
<path id="XMLID_16_" fill="none" stroke="#A5A5A5" stroke-width="4" stroke-linejoin="round" stroke-miterlimit="10" d="M1180,453
	h16c1.3,0,4.8,1.6,7.5,3.2c4.3,2.7-0.3,5.6-0.5,5.7c-3.4,2.2-7.1,4.3-7.1,11.1c0,8.7,7.1,12.9,15.8,12.9s15.8-4.2,15.8-13
	c0-6.8-3.7-9-7.1-11.2c-0.2-0.1-4.8-3.1-0.5-5.8c2.7-1.7,6.5-2.9,7.7-2.9l0.4-0.1h70h0.8c1.3,0,5,1.6,7.6,3.2
	c4.3,2.7-0.3,5.6-0.5,5.7c-3.4,2.2-7.1,4.3-7.1,11.1c0,8.7,7.1,12.9,15.8,12.9s15.8-4.2,15.8-13c0-6.8-3.7-9-7.1-11.2
	c-0.2-0.1-4.8-3.1-0.5-5.8c2.7-1.7,6.5-2.9,7.7-2.9l0.4-0.1h18"/>
<path id="XMLID_182_" fill="none" stroke="#A5A5A5" stroke-width="4" stroke-linejoin="round" stroke-miterlimit="10" d="M1277,372
	v-27c0-1.3,1.7-4.6,3.3-7.2c2.7-4.3,5.6,0.3,5.7,0.5c2.2,3.4,4.3,7.1,11.1,7.1c8.7,0,12.9-7.1,12.9-15.8c0-8.7-4.2-15.8-13-15.8
	c-6.8,0-9,3.7-11.2,7.1c-0.1,0.2-3.1,4.8-5.8,0.5c-1.7-2.7-3.1-6.1-3.1-7.4v-40l0.1,0.5c0-1.2-1.2-5.1-2.9-7.7
	c-2.7-4.3-5.7,0.3-5.8,0.5c-2.2,3.4-4.4,7.1-11.2,7.1c-8.7,0-13-7.1-13-15.8c0-8.7,4.2-15.8,12.9-15.8c6.8,0,9,3.7,11.1,7.1
	c0.1,0.2,3,4.8,5.7,0.5c1.7-2.7,3-7,3-8.4v-14"/>
<path id="XMLID_120_" fill="none" stroke="#A5A5A5" stroke-width="4" stroke-linejoin="round" stroke-miterlimit="10" d="M1033,825
	h-41c-1.3,0-4.5-1.4-7.1-3.1c-4.3-2.7,0.3-5.6,0.5-5.7c3.4-2.2,7.1-4.3,7.1-11.1c0-8.7-7.1-12.9-15.8-12.9s-15.8,4.2-15.8,13
	c0,6.8,3.7,9,7.1,11.2c0.2,0.1,4.8,3.1,0.5,5.8c-2.7,1.7-6.2,2.9-7.5,2.9h-49"/>
<path id="XMLID_135_" fill="none" stroke="#A5A5A5" stroke-width="4" stroke-linejoin="round" stroke-miterlimit="10" d="M1084,846
	h22c1.2,0,4.8-1.2,7.5-2.9c4.3-2.7-0.3-5.7-0.5-5.8c-3.4-2.2-7.1-4.4-7.1-11.2c0-8.7,7.1-13,15.8-13s15.8,4.2,15.8,12.9
	c0,6.8-3.7,9-7.1,11.1c-0.2,0.1-4.8,3-0.5,5.7c2.7,1.7,5.8,3.1,7.1,3.1h23"/>
<path id="XMLID_3_" fill="none" stroke="#A5A5A5" stroke-width="4" stroke-linejoin="round" stroke-miterlimit="10" d="M761,580v13
	c0,1.3-1.3,5.7-3,8.4c-2.7,4.3-5.6-0.3-5.7-0.5c-2.2-3.4-4.3-7.1-11.1-7.1c-8.7,0-12.9,7.1-12.9,15.8s4.2,15.8,13,15.8
	c6.8,0,9-3.7,11.2-7.1c0.1-0.2,3.1-4.8,5.8-0.5c1.7,2.7,2.9,6.5,2.9,7.7L761,628v25c0,1.2,1.4,5.7,3.1,8.4c2.7,4.3,5.7-0.3,5.8-0.5
	c2.2-3.4,4.4-7.1,11.2-7.1c8.7,0,13,7.1,13,15.8s-4.2,15.8-12.9,15.8c-6.8,0-9-3.7-11.1-7.1c-0.1-0.2-3-4.8-5.7-0.5
	c-1.7,2.7-3.3,6.9-3.3,8.2v19"/>
<path id="XMLID_78_" fill="none" stroke="#A5A5A5" stroke-width="4" stroke-linejoin="round" stroke-miterlimit="10" d="M761,639h32
	h0.4c0.7,0,2.2-0.7,3.7-1.6c2.4-1.5-0.1-3.2-0.3-3.3c-1.9-1.2-4-2.5-4-6.3c0-4.9,4-7.3,8.9-7.3s8.9,2.4,8.9,7.3c0,3.8-2.1,5-4,6.3
	c-0.1,0.1-2.7,1.7-0.3,3.2c1.5,0.9,2.9,1.5,3.7,1.5l2,0.2h30"/>
<path id="XMLID_108_" fill="none" stroke="#A5A5A5" stroke-width="4" stroke-linejoin="round" stroke-miterlimit="10" d="M626,749
	v27c0,0.7,1.2,4.6,2.1,6.1c1.5,2.4,3.2-0.1,3.3-0.3c1.2-1.9,2.5-4,6.3-4c4.9,0,7.3,4,7.3,8.9s-2.4,8.9-7.3,8.9c-3.8,0-5-2.1-6.3-4
	c-0.1-0.1-1.7-2.7-3.2-0.3c-0.9,1.5-2.2,4.9-2.2,5.6v25"/>
<path id="XMLID_110_" fill="none" stroke="#A5A5A5" stroke-width="4" stroke-linejoin="round" stroke-miterlimit="10" d="M667,826
	v27c0,0.7-0.8,4.6-1.7,6.1c-1.5,2.4-3.1-0.1-3.2-0.3c-1.2-1.9-2.4-4-6.3-4c-4.9,0-7.3,4-7.3,8.9s2.4,8.9,7.3,8.9
	c3.8,0,5.1-2.1,6.3-4c0.1-0.1,1.8-2.7,3.3-0.3c0.9,1.5,1.6,3.9,1.6,4.6v10"/>
<path id="XMLID_112_" fill="none" stroke="#A5A5A5" stroke-width="4" stroke-linejoin="round" stroke-miterlimit="10" d="M842,615
	h46c0.7,0,3.6,1.3,5.1,2.2c2.4,1.5-0.1,3.1-0.3,3.2c-1.9,1.2-4,2.4-4,6.3c0,4.9,4,7.3,8.9,7.3s8.9-2.4,8.9-7.3c0-3.8-2.1-5.1-4-6.3
	c-0.1-0.1-2.7-1.8-0.3-3.3c1.5-0.9,5-2.1,5.6-2.1h40"/>
<path id="XMLID_121_" fill="none" stroke="#A5A5A5" stroke-width="4" stroke-linejoin="round" stroke-miterlimit="10" d="M842,712
	h17c0.7,0,3.6,1.3,5.1,2.2c2.4,1.5-0.1,3.1-0.3,3.2c-1.9,1.2-4,2.4-4,6.3c0,4.9,4,7.3,8.9,7.3s8.9-2.4,8.9-7.3c0-3.8-2.1-5.1-4-6.3
	c-0.1-0.1-2.7-1.8-0.3-3.3c1.5-0.9,5-2.1,5.6-2.1h73c0.7,0,2.6,0.3,4.1,1.2c2.4,1.5-0.1,3.1-0.3,3.2c-1.9,1.2-4,2.4-4,6.3
	c0,4.9,4,7.3,8.9,7.3s8.9-2.4,8.9-7.3c0-3.8-2.1-5.1-4-6.3c-0.1-0.1-2.7-1.8-0.3-3.3c1.5-0.9,3-1.1,3.6-1.1h24
	c1.3,0,4.8,1.5,7.5,3.2c4.3,2.7-0.3,5.6-0.5,5.7c-3.4,2.2-7.1,4.3-7.1,11.1c0,8.7,7.1,12.9,15.8,12.9s15.8-4.2,15.8-13
	c0-6.8-3.7-9-7.1-11.2c-0.2-0.1-4.8-3.1-0.5-5.8c2.7-1.7,5.9-3,7.1-3h9"/>
<path id="XMLID_122_" fill="none" stroke="#A5A5A5" stroke-width="4" stroke-linejoin="round" stroke-miterlimit="10" d="M986,665
	h-10c-0.7,0-3.1,0.2-4.6,1.1c-2.4,1.5,0.1,3.2,0.3,3.3c1.9,1.2,4,2.5,4,6.3c0,4.9-4,7.3-8.9,7.3s-8.9-2.4-8.9-7.3c0-3.8,2.1-5,4-6.3
	c0.1-0.1,2.7-1.7,0.3-3.2c-1.5-0.9-4.4-1.2-5.1-1.2h-71c-0.7,0-4.1,1.2-5.6,2.1c-2.4,1.5,0.1,3.2,0.3,3.3c1.9,1.2,4,2.5,4,6.3
	c0,4.9-4,7.3-8.9,7.3s-8.9-2.4-8.9-7.3c0-3.8,2.1-5,4-6.3c0.1-0.1,2.7-1.7,0.3-3.2c-1.5-0.9-4.4-2.2-5.1-2.2h-24"/>
<path id="XMLID_8_" fill="none" stroke="#A5A5A5" stroke-width="4" stroke-linejoin="round" stroke-miterlimit="10" d="M948,565v26
	c0,0.7,0.2,3.6,1.1,5.1c1.5,2.4,3.2-0.1,3.3-0.3c1.2-1.9,2.5-4,6.3-4c4.9,0,7.3,4,7.3,8.9s-2.4,8.9-7.3,8.9c-3.8,0-5-2.1-6.3-4
	c-0.1-0.1-1.7-2.7-3.2-0.3c-0.9,1.5-1.2,3.9-1.2,4.6v20c0,0.7,1.2,2.6,2.1,4.1c1.5,2.4,3.2-0.1,3.3-0.3c1.2-1.9,2.5-4,6.3-4
	c4.9,0,7.3,4,7.3,8.9s-2.4,8.9-7.3,8.9c-3.8,0-5-2.1-6.3-4c-0.1-0.1-1.7-2.7-3.2-0.3c-0.9,1.5-2.2,3.9-2.2,4.6v17"/>
<path id="XMLID_125_" fill="none" stroke="#A5A5A5" stroke-width="4" stroke-linejoin="round" stroke-miterlimit="10" d="M986,565
	v60c0,0.7,1.2,2.6,2.1,4.1c1.5,2.4,3.2-0.1,3.3-0.3c1.2-1.9,2.5-4,6.3-4c4.9,0,7.3,4,7.3,8.9s-2.4,8.9-7.3,8.9c-3.8,0-5-2.1-6.3-4
	c-0.1-0.1-1.7-2.7-3.2-0.3c-0.9,1.5-2.2,3.9-2.2,4.6v69"/>
<path id="XMLID_128_" fill="none" stroke="#A5A5A5" stroke-width="4" stroke-linejoin="round" stroke-miterlimit="10" d="
	M1033.5,846.5c0,0.7,0.7,2.2,1.6,3.7c1.5,2.4,3.2-0.1,3.3-0.3c1.2-1.9,2.5-4,6.3-4c4.9,0,7.3,4,7.3,8.9s-2.4,8.9-7.3,8.9
	c-3.8,0-5-2.1-6.3-4c-0.1-0.1-1.7-2.7-3.2-0.3c-0.9,1.5-1.5,2.9-1.5,3.7"/>
<path id="XMLID_139_" fill="none" stroke="#A5A5A5" stroke-width="4" stroke-linejoin="round" stroke-miterlimit="10" d="M1084,923
	h15h0.8c0.7,0,2.9-0.7,4.4-1.6c2.4-1.5-0.1-3.2-0.3-3.3c-1.9-1.2-4-2.5-4-6.3c0-4.9,4-7.3,8.9-7.3s8.9,2.4,8.9,7.3
	c0,3.8-2.1,5-4,6.3c-0.1,0.1-2.7,1.7-0.3,3.2c1.5,0.9,4.9,1.7,5.6,1.7h14"/>
<path id="XMLID_130_" fill="none" stroke="#A5A5A5" stroke-width="4" stroke-linejoin="round" stroke-miterlimit="10" d="M1084,908
	v-21c0-0.7-0.7-4.1-1.6-5.6c-1.5-2.4-3.2,0.1-3.3,0.3c-1.2,1.9-2.5,4-6.3,4c-4.9,0-7.3-4-7.3-8.9s2.4-8.9,7.3-8.9c3.8,0,5,2.1,6.3,4
	c0.1,0.1,1.7,2.7,3.2,0.3c0.9-1.5,1.7-5.4,1.7-6.1v-38v0.5c0-0.7-0.7-4.6-1.6-6.1c-1.5-2.4-3.2,0.1-3.3,0.3c-1.2,1.9-2.5,4-6.3,4
	c-4.9,0-7.3-4-7.3-8.9s2.4-8.9,7.3-8.9c3.8,0,5,2.1,6.3,4c0.1,0.1,1.7,2.7,3.2,0.3c0.9-1.5,1.7-3.4,1.7-4.1v-59
	c0-0.7-0.7-4.1-1.6-5.6c-1.5-2.4-3.2,0.1-3.3,0.3c-1.2,1.9-2.5,4-6.3,4c-4.9,0-7.3-4-7.3-8.9s2.4-8.9,7.3-8.9c3.8,0,5,2.1,6.3,4
	c0.1,0.1,1.7,2.7,3.2,0.3c0.9-1.5,1.7-4.4,1.7-5.1v-34"/>
<path id="XMLID_132_" fill="none" stroke="#A5A5A5" stroke-width="4" stroke-linejoin="round" stroke-miterlimit="10" d="M1110,696
	h-4c-0.7,0-2.1,1.2-3.6,2.1c-2.4,1.5,0.1,3.2,0.3,3.3c1.9,1.2,4,2.5,4,6.3c0,4.9-4,7.3-8.9,7.3s-8.9-2.4-8.9-7.3c0-3.8,2.1-5,4-6.3
	c0.1-0.1,2.7-1.7,0.3-3.2c-1.5-0.9-3.4-2.2-4.1-2.2h-20c-0.7,0-4.1,1.2-5.6,2.1c-2.4,1.5,0.1,3.2,0.3,3.3c1.9,1.2,4,2.5,4,6.3
	c0,4.9-4,7.3-8.9,7.3s-8.9-2.4-8.9-7.3c0-3.8,2.1-5,4-6.3c0.1-0.1,2.7-1.7,0.3-3.2c-1.5-0.9-4.4-2.2-5.1-2.2h-16"/>
<path id="XMLID_11_" fill="none" stroke="#A5A5A5" stroke-width="4" stroke-linejoin="round" stroke-miterlimit="10" d="M1033,777
	h16c0.7,0,3.6,1.3,5.1,2.2c2.4,1.5-0.1,3.1-0.3,3.2c-1.9,1.2-4,2.4-4,6.3c0,4.9,4,7.3,8.9,7.3s8.9-2.4,8.9-7.3c0-3.8-2.1-5.1-4-6.3
	c-0.1-0.1-2.7-1.8-0.3-3.3c1.5-0.9,5-2.1,5.6-2.1h31h-0.3c1.2,0,5.1-1.2,7.7-2.9c4.3-2.7-0.3-5.7-0.5-5.8c-3.4-2.2-7.1-4.4-7.1-11.2
	c0-8.7,7.1-13,15.8-13s15.8,4.2,15.8,12.9c0,6.8-3.7,9-7.1,11.1c-0.2,0.1-4.8,3-0.5,5.7c2.7,1.7,6.3,3.1,7.6,3.1h-0.5h34"/>
<path id="XMLID_116_" fill="none" stroke="#A5A5A5" stroke-width="4" stroke-linejoin="round" stroke-miterlimit="10" d="M895,712
	v-11c0-0.7,1.3-4.1,2.2-5.6c1.5-2.4,3.1,0.1,3.2,0.3c1.2,1.9,2.4,4,6.3,4c4.9,0,7.3-4,7.3-8.9s-2.4-8.9-7.3-8.9
	c-3.8,0-5.1,2.1-6.3,4c-0.1,0.1-1.8,2.7-3.3,0.3c-0.9-1.5-2.1-4.4-2.1-5.1v-16"/>
<path id="XMLID_94_" fill="none" stroke="#A5A5A5" stroke-width="4" stroke-linejoin="round" stroke-miterlimit="10" d="M923,334v13
	l-0.3,1.5c0,0.7-0.6,2.2-1.5,3.7c-1.5,2.4-3.1-0.1-3.2-0.3c-1.2-1.9-2.4-4-6.3-4c-4.9,0-7.3,4-7.3,8.9s2.4,8.9,7.3,8.9
	c3.8,0,5.1-2.1,6.3-4c0.1-0.1,1.8-2.7,3.3-0.3c0.9,1.5,1.6,3,1.6,3.7v2v16"/>
<path id="XMLID_95_" fill="none" stroke="#A5A5A5" stroke-width="4" stroke-linejoin="round" stroke-miterlimit="10" d="M882,323v8
	c0,0.7,1.2,3.6,2.1,5.1c1.5,2.4,3.2-0.1,3.3-0.3c1.2-1.9,2.5-4,6.3-4c4.9,0,7.3,4,7.3,8.9s-2.4,8.9-7.3,8.9c-3.8,0-5-2.1-6.3-4
	c-0.1-0.1-1.7-2.7-3.2-0.3c-0.9,1.5-2.2,4.9-2.2,5.6v30"/>
<path id="XMLID_100_" fill="none" stroke="#A5A5A5" stroke-width="4" stroke-linejoin="round" stroke-miterlimit="10" d="M842,381
	h15c0.7,0,3.6,1.3,5.1,2.2c2.4,1.5-0.1,3.1-0.3,3.2c-1.9,1.2-4,2.4-4,6.3c0,4.9,4,7.3,8.9,7.3s8.9-2.4,8.9-7.3c0-3.8-2.1-5.1-4-6.3
	c-0.1-0.1-2.7-1.8-0.3-3.3c1.5-0.9,4-2.1,4.6-2.1h23"/>
<path id="XMLID_6_" fill="none" stroke="#A5A5A5" stroke-width="4" stroke-linejoin="round" stroke-miterlimit="10" d="M805,408h7
	c0.7,0,3.6,1.3,5.1,2.2c2.4,1.5-0.1,3.1-0.3,3.2c-1.9,1.2-4,2.4-4,6.3c0,4.9,4,7.3,8.9,7.3s8.9-2.4,8.9-7.3c0-3.8-2.1-5.1-4-6.3
	c-0.1-0.1-2.7-1.8-0.3-3.3c1.5-0.9,4-2.1,4.6-2.1h44c0.7,0,3.6,1.3,5.1,2.2c2.4,1.5-0.1,3.1-0.3,3.2c-1.9,1.2-4,2.4-4,6.3
	c0,4.9,4,7.3,8.9,7.3s8.9-2.4,8.9-7.3c0-3.8-2.1-5.1-4-6.3c-0.1-0.1-2.7-1.8-0.3-3.3c1.5-0.9,4-2.1,4.6-2.1h8"/>
<path id="XMLID_104_" fill="none" stroke="#A5A5A5" stroke-width="4" stroke-linejoin="round" stroke-miterlimit="10" d="M793,453
	h11c0.7,0,2.6-0.7,4.1-1.6c2.4-1.5-0.1-3.2-0.3-3.3c-1.9-1.2-4-2.5-4-6.3c0-4.9,4-7.3,8.9-7.3s8.9,2.4,8.9,7.3c0,3.8-2.1,5-4,6.3
	c-0.1,0.1-2.7,1.7-0.3,3.2c1.5,0.9,3.9,1.7,4.6,1.7h53h1.4c0.7,0,2.2-0.7,3.7-1.6c2.4-1.5-0.1-3.2-0.3-3.3c-1.9-1.2-4-2.5-4-6.3
	c0-4.9,4-7.3,8.9-7.3s8.9,2.4,8.9,7.3c0,3.8-2.1,5-4,6.3c-0.1,0.1-2.7,1.7-0.3,3.2c1.5,0.9,3.9,1.7,4.6,1.7h17"/>
<path id="XMLID_105_" fill="none" stroke="#A5A5A5" stroke-width="4" stroke-linejoin="round" stroke-miterlimit="10" d="M911,516
	h-23c-0.7,0-4.1-0.8-5.6-1.7c-2.4-1.5,0.1-3.1,0.3-3.2c1.9-1.2,4-2.4,4-6.3c0-4.9-4-7.3-8.9-7.3s-8.9,2.4-8.9,7.3
	c0,3.8,2.1,5.1,4,6.3c0.1,0.1,2.7,1.8,0.3,3.3c-1.5,0.9-3,1.6-3.7,1.6H868h-68c-0.7,0-4.1,1.2-5.6,2.1c-2.4,1.5,0.1,3.2,0.3,3.3
	c1.9,1.2,4,2.5,4,6.3c0,4.9-4,7.3-8.9,7.3s-8.9-2.4-8.9-7.3c0-3.8,2.1-5,4-6.3c0.1-0.1,2.7-1.7,0.3-3.2c-1.5-0.9-4.4-2.2-5.1-2.2
	h-15"/>
<path id="XMLID_7_" fill="none" stroke="#A5A5A5" stroke-width="4" stroke-linejoin="round" stroke-miterlimit="10" d="M842,323v18
	c0,0.7,1.2,4.6,2.1,6.1c1.5,2.4,3.2-0.1,3.3-0.3c1.2-1.9,2.5-4,6.3-4c4.9,0,7.3,4,7.3,8.9s-2.4,8.9-7.3,8.9c-3.8,0-5-2.1-6.3-4
	c-0.1-0.1-1.7-2.7-3.2-0.3c-0.9,1.5-2.2,4.9-2.2,5.6v22c0,0.7-0.8,3.6-1.7,5.1c-1.5,2.4-3.1-0.1-3.2-0.3c-1.2-1.9-2.4-4-6.3-4
	c-4.9,0-7.3,4-7.3,8.9s2.4,8.9,7.3,8.9c3.8,0,5.1-2.1,6.3-4c0.1-0.1,1.8-2.7,3.3-0.3c0.9,1.5,1.6,3.9,1.6,4.6v5"/>
<path id="XMLID_97_" fill="none" stroke="#A5A5A5" stroke-width="4" stroke-linejoin="round" stroke-miterlimit="10" d="M869,285v6
	c0,0.7,1.2,3.6,2.1,5.1c1.5,2.4,3.2-0.1,3.3-0.3c1.2-1.9,2.5-4,6.3-4c4.9,0,7.3,4,7.3,8.9s-2.4,8.9-7.3,8.9c-3.8,0-5-2.1-6.3-4
	c-0.1-0.1-1.7-2.7-3.2-0.3c-0.9,1.5-2.2,3.9-2.2,4.6v13"/>
<path id="XMLID_12_" fill="none" stroke="#A5A5A5" stroke-width="4" stroke-linejoin="round" stroke-miterlimit="10" d="M818,323h28
	h0.4c0.7,0,2.2-0.7,3.7-1.6c2.4-1.5-0.1-3.2-0.3-3.3c-1.9-1.2-4-2.5-4-6.3c0-4.9,4-7.3,8.9-7.3s8.9,2.4,8.9,7.3c0,3.8-2.1,5-4,6.3
	c-0.1,0.1-2.7,1.7-0.3,3.2c1.5,0.9,2.9,1.5,3.7,1.5l1,0.2h27h1.4c0.7,0,2.2-0.7,3.7-1.6c2.4-1.5-0.1-3.2-0.3-3.3
	c-1.9-1.2-4-2.5-4-6.3c0-4.9,4-7.3,8.9-7.3s8.9,2.4,8.9,7.3c0,3.8-2.1,5-4,6.3c-0.1,0.1-2.7,1.7-0.3,3.2c1.5,0.9,2.9,1.5,3.7,1.5
	l1,0.2h5"/>
<path id="XMLID_1_" fill="none" stroke="#A5A5A5" stroke-width="4" stroke-linejoin="round" stroke-miterlimit="10" d="M842,408v13
	c0,0.7,1.2,3.6,2.1,5.1c1.5,2.4,3.2-0.1,3.3-0.3c1.2-1.9,2.5-4,6.3-4c4.9,0,7.3,4,7.3,8.9s-2.4,8.9-7.3,8.9c-3.8,0-5-2.1-6.3-4
	c-0.1-0.1-1.7-2.7-3.2-0.3c-0.9,1.5-2.2,4.9-2.2,5.6v26c0,1.3-1.3,4.7-3,7.4c-2.7,4.3-5.6-0.3-5.7-0.5c-2.2-3.4-4.3-7.1-11.1-7.1
	c-8.7,0-12.9,7.1-12.9,15.8s4.2,15.8,13,15.8c6.8,0,9-3.7,11.2-7.1c0.1-0.2,3.1-4.8,5.8-0.5c1.7,2.7,2.8,7,2.8,8.2v25
	c0,0.7,1.2,3.6,2.1,5.1c1.5,2.4,3.2-0.1,3.3-0.3c1.2-1.9,2.5-4,6.3-4c4.9,0,7.3,4,7.3,8.9s-2.4,8.9-7.3,8.9c-3.8,0-5-2.1-6.3-4
	c-0.1-0.1-1.7-2.7-3.2-0.3c-0.9,1.5-2.2,4.9-2.2,5.6V580"/>
<path id="XMLID_87_" fill="none" stroke="#A5A5A5" stroke-width="4" stroke-linejoin="round" stroke-miterlimit="10" d="M975,426v19
	c0,0.7-0.8,3.6-1.7,5.1c-1.5,2.4-3.1-0.1-3.2-0.3c-1.2-1.9-2.4-4-6.3-4c-4.9,0-7.3,4-7.3,8.9s2.4,8.9,7.3,8.9c3.8,0,5.1-2.1,6.3-4
	c0.1-0.1,1.8-2.7,3.3-0.3c0.9,1.5,1.6,3.7,1.6,4.4v1.3v75"/>
<path id="XMLID_147_" fill="none" stroke="#A5A5A5" stroke-width="4" stroke-linejoin="round" stroke-miterlimit="10" d="M1118,540
	v-21c0-0.7,1.3-4.1,2.2-5.6c1.5-2.4,3.1,0.1,3.2,0.3c1.2,1.9,2.4,4,6.3,4c4.9,0,7.3-4,7.3-8.9s-2.4-8.9-7.3-8.9
	c-3.8,0-5.1,2.1-6.3,4c-0.1,0.1-1.8,2.7-3.3,0.3c-0.9-1.5-2.1-4.4-2.1-5.1v-25"/>
<path id="XMLID_184_" fill="none" stroke="#A5A5A5" stroke-width="4" stroke-linejoin="round" stroke-miterlimit="10" d="M1211,540
	v10c0,0.7,1.2,3.6,2.1,5.1c1.5,2.4,3.2-0.1,3.3-0.3c1.2-1.9,2.5-4,6.3-4c4.9,0,7.3,4,7.3,8.9s-2.4,8.9-7.3,8.9c-3.8,0-5-2.1-6.3-4
	c-0.1-0.1-1.7-2.7-3.2-0.3c-0.9,1.5-2.2,4.9-2.2,5.6v31c0,1.2,1.4,5.7,3.1,8.4c2.7,4.3,5.7-0.3,5.8-0.5c2.2-3.4,4.4-7.1,11.2-7.1
	c8.7,0,13,7.1,13,15.8s-4.2,15.8-12.9,15.8c-6.8,0-9-3.7-11.1-7.1c-0.1-0.2-3-4.8-5.7-0.5c-1.7,2.7-3.3,6.9-3.3,8.2v27"/>
<path id="XMLID_185_" fill="none" stroke="#A5A5A5" stroke-width="4" stroke-linejoin="round" stroke-miterlimit="10" d="M1269,580
	h-11c-0.7,0-4.1-0.8-5.6-1.7c-2.4-1.5,0.1-3.1,0.3-3.2c1.9-1.2,4-2.4,4-6.3c0-4.9-4-7.3-8.9-7.3s-8.9,2.4-8.9,7.3
	c0,3.8,2.1,5.1,4,6.3c0.1,0.1,2.7,1.8,0.3,3.3c-1.5,0.9-4.4,1.6-5.1,1.6h-27"/>
<path id="XMLID_186_" fill="none" stroke="#A5A5A5" stroke-width="4" stroke-linejoin="round" stroke-miterlimit="10" d="M1243,493
	h15c0.7,0,4.6-0.7,6.1-1.6c2.4-1.5-0.1-3.2-0.3-3.3c-1.9-1.2-4-2.5-4-6.3c0-4.9,4-7.3,8.9-7.3s8.9,2.4,8.9,7.3c0,3.8-2.1,5-4,6.3
	c-0.1,0.1-2.7,1.7-0.3,3.2c1.5,0.9,4.9,1.7,5.6,1.7h68"/>
<path id="XMLID_192_" fill="none" stroke="#A5A5A5" stroke-width="4" stroke-linejoin="round" stroke-miterlimit="10" d="M1277,399
	h-10c-0.7,0-3.1-0.8-4.6-1.7c-2.4-1.5,0.1-3.1,0.3-3.2c1.9-1.2,4-2.4,4-6.3c0-4.9-4-7.3-8.9-7.3s-8.9,2.4-8.9,7.3
	c0,3.8,2.1,5.1,4,6.3c0.1,0.1,2.7,1.8,0.3,3.3c-1.5,0.9-5.1,1.6-5.8,1.6h0.7h-68"/>
<path id="XMLID_206_" fill="none" stroke="#A5A5A5" stroke-width="4" stroke-linejoin="round" stroke-miterlimit="10" d="M1312,125
	v12c0,0.7-0.8,3.6-1.7,5.1c-1.5,2.4-3.1-0.1-3.2-0.3c-1.2-1.9-2.4-4-6.3-4c-4.9,0-7.3,4-7.3,8.9s2.4,8.9,7.3,8.9
	c3.8,0,5.1-2.1,6.3-4c0.1-0.1,1.8-2.7,3.3-0.3c0.9,1.5,1.6,4.9,1.6,5.6v30c0,0.7,1.2,3.6,2.1,5.1c1.5,2.4,3.2-0.1,3.3-0.3
	c1.2-1.9,2.5-4,6.3-4c4.9,0,7.3,4,7.3,8.9s-2.4,8.9-7.3,8.9c-3.8,0-5-2.1-6.3-4c-0.1-0.1-1.7-2.7-3.2-0.3c-0.9,1.5-2.2,3.9-2.2,4.6
	v22"/>
<path id="XMLID_204_" fill="none" stroke="#A5A5A5" stroke-width="4" stroke-linejoin="round" stroke-miterlimit="10" d="M1180,165
	h24c0.7,0,3.6-0.7,5.1-1.6c2.4-1.5-0.1-3.2-0.3-3.3c-1.9-1.2-4-2.5-4-6.3c0-4.9,4-7.3,8.9-7.3s8.9,2.4,8.9,7.3c0,3.8-2.1,5-4,6.3
	c-0.1,0.1-2.7,1.7-0.3,3.2c1.5,0.9,3.9,1.7,4.6,1.7h35c1.3,0,4.8,1.6,7.5,3.2c4.3,2.7-0.3,5.6-0.5,5.7c-3.4,2.2-7.1,4.3-7.1,11.1
	c0,8.7,7.1,12.9,15.8,12.9s15.8-4.2,15.8-13c0-6.8-3.7-9-7.1-11.2c-0.2-0.1-4.8-3.1-0.5-5.8c2.7-1.7,6.9-3,8.1-3h47
	c0.7,0,3.6,1.3,5.1,2.2c2.4,1.5-0.1,3.1-0.3,3.2c-1.9,1.2-4,2.4-4,6.3c0,4.9,4,7.3,8.9,7.3s8.9-2.4,8.9-7.3c0-3.8-2.1-5.1-4-6.3
	c-0.1-0.1-2.7-1.8-0.3-3.3c1.5-0.9,5-2.1,5.6-2.1h18"/>
<path id="XMLID_191_" fill="none" stroke="#A5A5A5" stroke-width="4" stroke-linejoin="round" stroke-miterlimit="10" d="M1243,540
	v-13c0-0.7-0.7-4.1-1.6-5.6c-1.5-2.4-3.2,0.1-3.3,0.3c-1.2,1.9-2.5,4-6.3,4c-4.9,0-7.3-4-7.3-8.9c0-4.9,2.4-8.9,7.3-8.9
	c3.8,0,5,2.1,6.3,4c0.1,0.1,1.7,2.7,3.2,0.3c0.9-1.5,1.7-5.4,1.7-6.1v-69v1.2c0-0.7-0.7-5.3-1.6-6.8c-1.5-2.4-3.2,0.1-3.3,0.3
	c-1.2,1.9-2.5,4-6.3,4c-4.9,0-7.3-4-7.3-8.9s2.4-8.9,7.3-8.9c3.8,0,5,2.1,6.3,4c0.1,0.1,1.7,2.7,3.2,0.3c0.9-1.5,1.7-4.4,1.7-5.1
	v-18"/>
<path id="XMLID_189_" fill="none" stroke="#A5A5A5" stroke-width="4" stroke-linejoin="round" stroke-miterlimit="10" d="M1295,540
	v-12c0-0.7,1.3-4.1,2.2-5.6c1.5-2.4,3.1,0.1,3.2,0.3c1.2,1.9,2.4,4,6.3,4c4.9,0,7.3-4,7.3-8.9s-2.4-8.9-7.3-8.9
	c-3.8,0-5.1,2.1-6.3,4c-0.1,0.1-1.8,2.7-3.3,0.3c-0.9-1.5-2.1-5.4-2.1-6.1v-14"/>
<path id="XMLID_19_" fill="none" stroke="#A5A5A5" stroke-width="4" stroke-linejoin="round" stroke-miterlimit="10" d="M1033.3,540
	h-12c-1.3,0-5.5-1.4-8.1-3.1c-4.3-2.7,0.3-5.6,0.5-5.7c3.4-2.2,7.1-4.3,7.1-11.1c0-8.7-7.1-12.9-15.8-12.9s-15.8,4.2-15.8,13
	c0,6.8,3.7,9,7.1,11.2c0.2,0.1,4.8,3.1,0.5,5.8c-2.7,1.7-6.2,2.9-7.5,2.9h-30c-1.3,0-5.5-1.4-8.1-3.1c-4.3-2.7,0.3-5.6,0.5-5.7
	c3.4-2.2,7.1-4.3,7.1-11.1c0-8.7-7.1-12.9-15.8-12.9s-15.8,4.2-15.8,13c0,6.8,3.7,9,7.1,11.2c0.2,0.1,4.8,3.1,0.5,5.8
	c-2.7,1.7-6.2,2.9-7.5,2.9h-16"/>
<path id="XMLID_13_" fill="none" stroke="#A5A5A5" stroke-width="4" stroke-linejoin="round" stroke-miterlimit="10" d="M1033,416
	h19c1.2,0,4.8-1.2,7.5-2.9c4.3-2.7-0.3-5.7-0.5-5.8c-3.4-2.2-7.1-4.4-7.1-11.2c0-8.7,7.1-13,15.8-13s15.8,4.2,15.8,12.9
	c0,6.8-3.7,9-7.1,11.1c-0.2,0.1-4.8,3-0.5,5.7c2.7,1.7,5.8,3.1,7.1,3.1h28c0.7,0,3.6,1.3,5.1,2.2c2.4,1.5-0.1,3.1-0.3,3.2
	c-1.9,1.2-4,2.4-4,6.3c0,4.9,4,7.3,8.9,7.3s8.9-2.4,8.9-7.3c0-3.8-2.1-5.1-4-6.3c-0.1-0.1-2.7-1.8-0.3-3.3c1.5-0.9,5-2.1,5.6-2.1h18
	c0.7,0,2.6-0.7,4.1-1.6c2.4-1.5-0.1-3.2-0.3-3.3c-1.9-1.2-4-2.5-4-6.3c0-4.9,4-7.3,8.9-7.3s8.9,2.4,8.9,7.3c0,3.8-2.1,5-4,6.3
	c-0.1,0.1-2.7,1.7-0.3,3.2c1.5,0.9,3.9,1.7,4.6,1.7h13"/>
<path id="XMLID_156_" fill="none" stroke="#A5A5A5" stroke-width="4" stroke-linejoin="round" stroke-miterlimit="10" d="M1140,341
	v27c0,0.7-0.8,4.6-1.7,6.1c-1.5,2.4-3.1-0.1-3.2-0.3c-1.2-1.9-2.4-4-6.3-4c-4.9,0-7.3,4-7.3,8.9s2.4,8.9,7.3,8.9
	c3.8,0,5.1-2.1,6.3-4c0.1-0.1,1.8-2.7,3.3-0.3c0.9,1.5,1.6,4.9,1.6,5.6v27"/>
<path id="XMLID_193_" fill="none" stroke="#A5A5A5" stroke-width="4" stroke-linejoin="round" stroke-miterlimit="10" d="M1228,399
	v-42c0-0.7,1.3-3.1,2.2-4.6c1.5-2.4,3.1,0.1,3.2,0.3c1.2,1.9,2.4,4,6.3,4c4.9,0,7.3-4,7.3-8.9s-2.4-8.9-7.3-8.9
	c-3.8,0-5.1,2.1-6.3,4c-0.1,0.1-1.8,2.7-3.3,0.3c-0.9-1.5-2.1-4.4-2.1-5.1v-49"/>
<g id="XMLID_15_">
</g>
<path id="XMLID_166_" fill="none" stroke="#A5A5A5" stroke-width="4" stroke-linejoin="round" stroke-miterlimit="10" d="M1111,259
	v-22c0-0.7,1.3-3.1,2.2-4.6c1.5-2.4,3.1,0.1,3.2,0.3c1.2,1.9,2.4,4,6.3,4c4.9,0,7.3-4,7.3-8.9s-2.4-8.9-7.3-8.9
	c-3.8,0-5.1,2.1-6.3,4c-0.1,0.1-1.8,2.7-3.3,0.3c-0.9-1.5-2.1-4.4-2.1-5.1v-22"/>
<path id="XMLID_167_" fill="none" stroke="#A5A5A5" stroke-width="4" stroke-linejoin="round" stroke-miterlimit="10" d="M975,196
	h39c0.7,0,4.6-1.7,6.1-2.6c2.4-1.5-0.1-3.2-0.3-3.3c-1.9-1.2-4-2.5-4-6.3c0-4.9,4-7.3,8.9-7.3c4.9,0,8.9,2.4,8.9,7.3
	c0,3.8-2.1,5-4,6.3c-0.1,0.1-2.7,1.7-0.3,3.2c1.5,0.9,4.2,2.7,5,2.7h0.7h145"/>
<path id="XMLID_170_" fill="none" stroke="#A5A5A5" stroke-width="4" stroke-linejoin="round" stroke-miterlimit="10" d="M1066,304
	v-12c0-0.7,1.3-4.1,2.2-5.6c1.5-2.4,3.1,0.1,3.2,0.3c1.2,1.9,2.4,4,6.3,4c4.9,0,7.3-4,7.3-8.9s-2.4-8.9-7.3-8.9
	c-3.8,0-5.1,2.1-6.3,4c-0.1,0.1-1.8,2.7-3.3,0.3c-0.9-1.5-2.1-4.4-2.1-5.1v-35c0-0.7,1.3-3.1,2.2-4.6c1.5-2.4,3.1,0.1,3.2,0.3
	c1.2,1.9,2.4,4,6.3,4c4.9,0,7.3-4,7.3-8.9s-2.4-8.9-7.3-8.9c-3.8,0-5.1,2.1-6.3,4c-0.1,0.1-1.8,2.7-3.3,0.3
	c-0.9-1.5-2.1-4.4-2.1-5.1v-38c0-0.7,1.3-3.1,2.2-4.6c1.5-2.4,3.1,0.1,3.2,0.3c1.2,1.9,2.4,4,6.3,4c4.9,0,7.3-4,7.3-8.9
	s-2.4-8.9-7.3-8.9c-3.8,0-5.1,2.1-6.3,4c-0.1,0.1-1.8,2.7-3.3,0.3c-0.9-1.5-2.1-6.4-2.1-7.1v-10c0-0.7-0.7-4.1-1.6-5.6
	c-1.5-2.4-3.2,0.1-3.3,0.3c-1.2,1.9-2.5,4-6.3,4c-4.9,0-7.3-4-7.3-8.9s2.4-8.9,7.3-8.9c3.8,0,5,2.1,6.3,4c0.1,0.1,1.7,2.7,3.2,0.3
	c0.9-1.5,1.7-5.4,1.7-6.1v-11"/>
<path id="XMLID_173_" fill="none" stroke="#A5A5A5" stroke-width="4" stroke-linejoin="round" stroke-miterlimit="10" d="M1066,147
	h28h1.8c0.7,0,2.9-0.7,4.4-1.6c2.4-1.5-0.1-3.2-0.3-3.3c-1.9-1.2-4-2.5-4-6.3c0-4.9,4-7.3,8.9-7.3s8.9,2.4,8.9,7.3
	c0,3.8-2.1,5-4,6.3c-0.1,0.1-2.7,1.7-0.3,3.2c1.5,0.9,4.9,1.7,5.6,1.7h35c0.7,0,3.6-0.7,5.1-1.6c2.4-1.5-0.1-3.2-0.3-3.3
	c-1.9-1.2-4-2.5-4-6.3c0-4.9,4-7.3,8.9-7.3s8.9,2.4,8.9,7.3c0,3.8-2.1,5-4,6.3c-0.1,0.1-2.7,1.7-0.3,3.2c1.5,0.9,3.9,1.7,4.6,1.7h11
	"/>
<path id="XMLID_17_" fill="none" stroke="#A5A5A5" stroke-width="4" stroke-linejoin="round" stroke-miterlimit="10" d="M981,259h28
	c1.2,0,4.8-1.2,7.5-2.9c4.3-2.7-0.3-5.7-0.5-5.8c-3.4-2.2-7.1-4.4-7.1-11.2c0-8.7,7.1-13,15.8-13s15.8,4.2,15.8,12.9
	c0,6.8-3.7,9-7.1,11.1c-0.2,0.1-4.8,3-0.5,5.7c2.7,1.7,7.2,3.1,8.5,3.1h-1.3h97c0.7,0,2.6-0.7,4.1-1.6c2.4-1.5-0.1-3.2-0.3-3.3
	c-1.9-1.2-4-2.5-4-6.3c0-4.9,4-7.3,8.9-7.3s8.9,2.4,8.9,7.3c0,3.8-2.1,5-4,6.3c-0.1,0.1-2.7,1.7-0.3,3.2c1.5,0.9,3.9,1.7,4.6,1.7h25
	"/>
<path id="XMLID_202_" fill="none" stroke="#A5A5A5" stroke-width="4" stroke-linejoin="round" stroke-miterlimit="10" d="M1180,228
	h28c0.7,0,3.6-0.7,5.1-1.6c2.4-1.5-0.1-3.2-0.3-3.3c-1.9-1.2-4-2.5-4-6.3c0-4.9,4-7.3,8.9-7.3s8.9,2.4,8.9,7.3c0,3.8-2.1,5-4,6.3
	c-0.1,0.1-2.7,1.7-0.3,3.2c1.5,0.9,3.9,1.7,4.6,1.7h58c0.7,0,2.6,1.3,4.1,2.2c2.4,1.5-0.1,3.1-0.3,3.2c-1.9,1.2-4,2.4-4,6.3
	c0,4.9,4,7.3,8.9,7.3s8.9-2.4,8.9-7.3c0-3.8-2.1-5.1-4-6.3c-0.1-0.1-2.7-1.8-0.3-3.3c1.5-0.9,5-2.1,5.6-2.1h31
	c0.7,0,3.6-0.7,5.1-1.6c2.4-1.5-0.1-3.2-0.3-3.3c-1.9-1.2-4-2.5-4-6.3c0-4.9,4-7.3,8.9-7.3s8.9,2.4,8.9,7.3c0,3.8-2.1,5-4,6.3
	c-0.1,0.1-2.7,1.7-0.3,3.2c1.5,0.9,4.9,1.7,5.6,1.7h22"/>
<path id="XMLID_196_" fill="none" stroke="#A5A5A5" stroke-width="4" stroke-linejoin="round" stroke-miterlimit="10" d="M1358,289
	h-20c-0.7,0-4.1,1.2-5.6,2.1c-2.4,1.5,0.1,3.2,0.3,3.3c1.9,1.2,4,2.5,4,6.3c0,4.9-4,7.3-8.9,7.3s-8.9-2.4-8.9-7.3c0-3.8,2.1-5,4-6.3
	c0.1-0.1,2.7-1.7,0.3-3.2c-1.5-0.9-4.4-2.2-5.1-2.2h-54c-0.7,0-4.1,1.2-5.6,2.1c-2.4,1.5,0.1,3.2,0.3,3.3c1.9,1.2,4,2.5,4,6.3
	c0,4.9-4,7.3-8.9,7.3s-8.9-2.4-8.9-7.3c0-3.8,2.1-5,4-6.3c0.1-0.1,2.7-1.7,0.3-3.2c-1.5-0.9-5.4-2.2-6.1-2.2h-22
	c-1.1,0-3.1,1.2-4.6,2.1c-2.4,1.5,0.1,3.2,0.3,3.3c1.9,1.2,4,2.5,4,6.3c0,4.9-4,7.3-8.9,7.3s-8.9-2.4-8.9-7.3c0-3.8,2.1-5,4-6.3
	c0.1-0.1,2.7-1.7,0.3-3.2c-1.5-0.9-4.4-2.2-5.1-2.2h-22"/>
<path id="XMLID_203_" fill="none" stroke="#A5A5A5" stroke-width="4" stroke-linejoin="round" stroke-miterlimit="10" d="M1235,86
	v42c0,0.7,1.2,4.6,2.1,6.1c1.5,2.4,3.2-0.1,3.3-0.3c1.2-1.9,2.5-4,6.3-4c4.9,0,7.3,4,7.3,8.9s-2.4,8.9-7.3,8.9c-3.8,0-5-2.1-6.3-4
	c-0.1-0.1-1.7-2.7-3.2-0.3c-0.9,1.5-2.2,3.9-2.2,4.6v49c0,0.7,1.2,3.6,2.1,5.1c1.5,2.4,3.2-0.1,3.3-0.3c1.2-1.9,2.5-4,6.3-4
	c4.9,0,7.3,4,7.3,8.9s-2.4,8.9-7.3,8.9c-3.8,0-5-2.1-6.3-4c-0.1-0.1-1.7-2.7-3.2-0.3c-0.9,1.5-2.2,3.9-2.2,4.6v12"/>
<path id="XMLID_172_" fill="none" stroke="#A5A5A5" stroke-width="4" stroke-linejoin="round" stroke-miterlimit="10" d="M1140,98
	v15c0,0.7-0.8,3.6-1.7,5.1c-1.5,2.4-3.1-0.1-3.2-0.3c-1.2-1.9-2.4-4-6.3-4c-4.9,0-7.3,4-7.3,8.9s2.4,8.9,7.3,8.9
	c3.8,0,5.1-2.1,6.3-4c0.1-0.1,1.8-2.7,3.3-0.3c0.9,1.5,1.6,5.9,1.6,6.6v29c0,0.7,1.2,4.6,2.1,6.1c1.5,2.4,3.2-0.1,3.3-0.3
	c1.2-1.9,2.5-4,6.3-4c4.9,0,7.3,4,7.3,8.9s-2.4,8.9-7.3,8.9c-3.8,0-5-2.1-6.3-4c-0.1-0.1-1.7-2.7-3.2-0.3c-0.9,1.5-2.2,3.9-2.2,4.6
	v13"/>
<path id="XMLID_159_" fill="none" stroke="#A5A5A5" stroke-width="4" stroke-linejoin="round" stroke-miterlimit="10" d="M1101,416
	v-40c0-0.7-0.7-4.1-1.6-5.6c-1.5-2.4-3.2,0.1-3.3,0.3c-1.2,1.9-2.5,4-6.3,4c-4.9,0-7.3-4-7.3-8.9s2.4-8.9,7.3-8.9c3.8,0,5,2.1,6.3,4
	c0.1,0.1,1.7,2.7,3.2,0.3c0.9-1.5,1.7-4.4,1.7-5.1v-23c0-0.7-0.7-4.1-1.6-5.6c-1.5-2.4-3.2,0.1-3.3,0.3c-1.2,1.9-2.5,4-6.3,4
	c-4.9,0-7.3-4-7.3-8.9s2.4-8.9,7.3-8.9c3.8,0,5,2.1,6.3,4c0.1,0.1,1.7,2.7,3.2,0.3c0.9-1.5,1.7-4.4,1.7-5.1v-9"/>
<path id="XMLID_161_" fill="none" stroke="#A5A5A5" stroke-width="4" stroke-linejoin="round" stroke-miterlimit="10" d="M1101,341
	h11c0.7,0,2.6-0.7,4.1-1.6c2.4-1.5-0.1-3.2-0.3-3.3c-1.9-1.2-4-2.5-4-6.3c0-4.9,4-7.3,8.9-7.3s8.9,2.4,8.9,7.3c0,3.8-2.1,5-4,6.3
	c-0.1,0.1-2.7,1.7-0.3,3.2c1.5,0.9,4.9,1.7,5.6,1.7h20h0.4c0.7,0,2.2-0.7,3.7-1.6c2.4-1.5-0.1-3.2-0.3-3.3c-1.9-1.2-4-2.5-4-6.3
	c0-4.9,4-7.3,8.9-7.3s8.9,2.4,8.9,7.3c0,3.8-2.1,5-4,6.3c-0.1,0.1-2.7,1.7-0.3,3.2c1.5,0.9,3.9,1.7,4.6,1.7h11"/>
<path id="XMLID_162_" fill="none" stroke="#A5A5A5" stroke-width="4" stroke-linejoin="round" stroke-miterlimit="10" d="M1043,304
	h84c0.7,0,3.6-0.7,5.1-1.6c2.4-1.5-0.1-3.2-0.3-3.3c-1.9-1.2-4-2.5-4-6.3c0-4.9,4-7.3,8.9-7.3s8.9,2.4,8.9,7.3c0,3.8-2.1,5-4,6.3
	c-0.1,0.1-2.7,1.7-0.3,3.2c1.5,0.9,4.9,1.7,5.6,1.7h33"/>
<path id="XMLID_18_" fill="none" stroke="#A5A5A5" stroke-width="4" stroke-linejoin="round" stroke-miterlimit="10" d="M975,474h20
	c0.7,0,3.6-0.7,5.1-1.6c2.4-1.5-0.1-3.2-0.3-3.3c-1.9-1.2-4-2.5-4-6.3c0-4.9,4-7.3,8.9-7.3s8.9,2.4,8.9,7.3c0,3.8-2.1,5-4,6.3
	c-0.1,0.1-2.7,1.7-0.3,3.2c1.5,0.9,3.9,1.7,4.6,1.7h48c1.3,0,4.8,1.6,7.5,3.2c4.3,2.7-0.3,5.6-0.5,5.7c-3.4,2.2-7.1,4.3-7.1,11.1
	c0,8.7,7.1,12.9,15.8,12.9s15.8-4.2,15.8-13c0-6.8-3.7-9-7.1-11.2c-0.2-0.1-4.8-3.1-0.5-5.8c2.7-1.7,5.9-3,7.1-3h39
	c1.2,0,5.8-1.2,8.5-2.9c4.3-2.7-0.3-5.7-0.5-5.8c-3.4-2.2-7.1-4.4-7.1-11.2c0-8.7,7.1-13,15.8-13s15.8,4.2,15.8,12.9
	c0,6.8-3.7,9-7.1,11.1c-0.2,0.1-4.8,3-0.5,5.7c2.7,1.7,6.8,3.1,8.1,3.1h15"/>
<path id="XMLID_5_" fill="none" stroke="#000000" stroke-width="6" stroke-linecap="round" stroke-linejoin="round" stroke-miterlimit="10" d="
	M938,489c0.1-2.7-5.5-7.1-8.5-10.5c-7.8-8.9-6.7-17.2,3.1-23.4c0.6-0.4,1.7-0.8,2.4-1.2c14.3-7.7,27.7-16.8,40-27.5
	c7.9-6.9,15.4-14.3,23-21.4c8.8-8.2,25.7-16.9,30-19c4.3-2.1,5-4,5-4c0.1-1.8-0.9-3.2-2-4.5c-3-3.7-5-8-6.5-12.5
	c-3.2-9.6-5.2-19.2-0.5-29c1.1-2.2,2.1-4.6,2.5-7c0.9-5.5,3.5-9.8,7.6-13.5c3.6-3.2,6.7-6.8,8.9-11c1.2-2.3,2.5-5.2-0.4-7.4
	c-2.5-1.9-5.2-1.6-7.4,0.1c-2.6,1.9-5.6,3-8.6,3.8c-13.6,3.9-27.3,5.7-40.5-1.9c-5.2-3-14.7-9.1-15.4-9.6s-1.1-0.7-1.6-1.4
	c-1.1-1.5,2.7-4.6,4.6-6.4c3.9-3.8,7-8.3,7.3-13.6c0.6-8.8,0.6-17.7-1.3-26.5c-2-9.1-3.8-18.2-4.4-27.5c-0.8-12.7,1.6-24.8,6.8-36.5
	c4.3-9.8,9.8-18.2,19.5-23.6c3.1-1.7,5.5-4.7,7.6-7.9c4.8-7.2,11.5-11.6,20-13.6c7.3-1.7,14.7-3.1,21-7.5c8.6-5.9,18.3-9.3,27.5-14
	c19.2-9.7,39.5-13.9,61-13c3.7,0.2,7.4-0.6,11-0.8c10.5-0.5,21-1.6,31.5-2c9.6-0.4,19.2-1.5,28.4-3.4c17.1-3.6,34.3-7.2,50.5-13.9
	c11.5-4.7,22.2-2.7,33,1.7c1.8,0.7,3.4,1.3,4.1,3.9c2.1,7.7,3.7,15.5,3.9,23.5c0.2,8.1,7.8,20.6,18.9,18.9c3.3-0.5,6,0.8,8.4,2.2
	c3.8,2.3,7.6,3.9,12.1,3.9c3.3,0,4.5,2.2,4.5,5.4c0.2,7.5,2.4,10.4,9.5,12.5c2.2,0.7,4.3,1.4,6.5,2c15.4,3.7,18.4,21.9,13.8,32.5
	c-2.9,6.8-3.1,13-1,20.1c4.1,14.2,4.8,28.8,1.2,43.4c-3.6,14.6-9.4,28.3-17.5,41c-2.9,4.6-5.3,9.5-6.6,15c-2,7.9-2.6,16-2.8,24
	c-0.3,11.2,0,22.3-0.1,33.5c-0.1,10.3-3.7,13.9-14,12.3c-5.2-0.8-10.4-0.6-15.5-0.8c-1,0-2,0.2-3,0c-10.1-1.9-20.2-3.2-30.5-3
	c-7.8,0.2-9.4,1.6-10.5,9c-0.9,5.7-0.7,11.1,3,16c3.2,4.2,2.9,6.2-1,10c-1.4,1.3-2.8,2.7-4.5,3.5c-5.4,2.6-6.1,9.6-3.4,13.5
	c5,7.4,11.9,12.1,21,11.9c6.6-0.1,12.6,1.1,18.5,3.8c2,0.9,4,1.6,6.1,2.4c4.8,1.9,9,0.8,12.5-3c2.2-2.4,4.9-4,8-5
	c5.8,1.5,8.5,6.6,10.5,11.5c3.1,7.4,6.3,14.5,8.3,22.4c1.3,5.4-1.1,9.7-1.4,14.6c-0.2,2.6-1.5,5.1-2.7,7.5
	c-3.3,6.6-2.1,12.8,1.2,19.1c3.3,6.1,2.3,8-3.9,11.1c-1.7,0.8-3.3,1.4-5,1.9c-5.9,1.8-10.5,4.6-11.6,11.5c-0.4,2.6-2.1,4.9-4.4,6.5
	c-5.2,3.7-8.3,9-11,14.5c-3,6.2-7.5,9.5-14.5,8.5c-4.9-0.7-8.7,0.7-11,5.5c-2.9,5.9-8.6,8.1-14.4,10.1c-5.2,1.8-6.2,6.2-2.5,9.9
	c0.7,0.7,1.3,1.6,2.5,1.5c11.7-0.4,17.6,8.9,24.2,15.8c4.7,4.9,2.8,12.5-0.4,18.1c-3.6,6.3-8.9,11.7-14.9,15.9
	c-2.5,1.8-5.9,2.6-9.4,2.2c-9.4-1-18.2,0.8-26,6.4c-5.5,3.9-11.9,5-18.5,5.6c-4.4,0.4-8.7,1.4-12,4.9c-1.5,1.5-3.3,2.7-5,4
	c-3.4,2.6-8,2.8-11.5,0.5c-3.5-2.4-7-4.4-11.5-4.6c-2.6-0.1-5.4-1.3-7-3.9c-1.8-2.8-4.5-3.3-7.5-3c-3.3,0.3-5.9-1-8.5-2.9
	c-4.3-3.1-11.4-7.1-14.5-5.6c-0.4,0.8-1,3.4,1.3,9.5c1.2,3.7,0.6,6-2.3,8c-3.7-0.5-7.1-2.3-10.5-3.9c-4.3-2-8.8-1.9-11.9,2
	c-3.8,4.9-8.8,6.4-14.6,7c-3.7,0.4-5.3,3.9-4.6,8c0.6,3.7,3.2,6.3,4.8,9.4c2.1,4,2.4,6.8-1.1,10.2c-4.3,4.2-3.3,7.7,2.4,9.4
	c3,0.9,5.9,2.1,8.5,4c3.8,2.9,3,7.6,3.9,11.5c1,4.6,2.6,8.2,7.6,9.5c1.6,0.4,3,1.6,4.5,2.4c3,1.8,3.7,4.3,2.5,7.5
	c-2.9,7.5-0.2,13.7,5,19c6.8,7,12.8,14.5,17.5,23c4,7.3,5.1,15.2,3.7,23c-1.6,9-0.2,17.5,1.4,26c0.8,3.9,0.1,7-2.3,9.5
	c-6.5,6.9-11.3,14.6-14.6,23.5c-2.4,6.5-7.6,11.6-11.8,17.1c-3,3.8-5.1,8-5.6,13c-0.6,5.8,3.5,9.2,8.6,9c4.2-0.2,8.1,1.1,11.5,3.5
	c4.5,3.3,4.3,5.8-0.5,8.9c-2.7,1.8-6,2.3-9,3.5c-8.3,3.3-14.4,9.4-20,16c-4.4,5.3-8.7,10.7-13,16c-2,2.4-3.9,3-6.6,0.6
	c-1.2-1.1-2.6-2.1-3.9-3c-4.8-3.3-10.4-0.5-11,5.5c-1.1,10.5,8.2,21,18.5,21c2.7,0,5.3,0,8,0c5.7,0.1,8.9,2.9,9.5,8.5
	c0.1,1.2,0,2.3,0,3.5c0,7.9,0,7.9,7,10.5c5,1.9,8.6,9.6,6.9,16c-1.3,4.7-3.4,8.9-8.9,10.3c-5.5,1.5-8.9,4.6-8.2,11.2
	c-0.2,7.2-7.8,7.5-7.8,7.5c0.6,4.6,4.6,7.4,6.2,11.6c-3.1,5.8-8.7,5.1-13.7,4.7c-3.4-0.3-6.8-1.6-10-2.9c-4.2-1.7-8.2-2.3-12.5-0.5
	c-3.3,1.3-6.4,0.5-9-1.9c-4.6-4.3-9.4-5.9-15-1.6c-1.2,0.9-3,1-4.5,1.6c-3.5,1.3-6,0.1-6.4-3.5c-1.1-8-5.2-14.4-10-20.5
	c-1.6-2.1-3.3-4.5-3.9-7c-0.8-3.4-0.1-7,2.9-9.5c3.3-2.7,6.6-5.4,10-8c9.9-7.4,14.7-17.2,15.1-29.5c0.2-5.6-1.2-11-1.1-16.5
	c0.1-2.4,0.5-4.4,1.9-6.6c3.9-6,6.9-12.4,12.4-17.7c5.2-4.9,6.3-12.5,5.7-19.8c-0.3-3.6-3.2-5.6-7.4-4.9s-8,1.9-8,1.9
	c0.2-4.7-2.3-8.8-6-8.9c-3-0.1-6,0.1-9,0.6c-4.8,0.8-10.2,1.6-14-3.7c-3.1-4.3-7.9-6.5-12.9-8c-2.9-0.9-6.1-1.9-6.4-5.1
	c-0.7-7.3-4.6-13.1-8.2-18.9c-5-8-8.2-8.6-16.4-4.1c-4.3,2.4-8.4,5.8-13,6.8c-7.9,1.7-15.9,3.1-24,4.1c-9.2,1.3-11.3,0.1-12.9-6.4
	c-2.1-8.7-8.1-10.7-15.1-11.3c-3.4-0.3-5.1-1.7-6-4.7c-1.7-5.7-4.2-11.1-9.1-14.3c-4-2.6-4.5-5.7-4.4-9.7c0.1-4.8,0.9-9.4,2-14
	c1.2-5.2-2-11.8-6.5-14c-4-1.9-8.5-0.6-12.5,4c-2.1,2.5-3.7,5.3-5.6,8c-3.5,4.8-5.9,10.9-12,12.9c-7.7,2.6-15.7,2.5-23.5,0
	c-5.7-1.8-7.3-5.6-5-10.9c0.9-2.1,2-4,3-6c3-5.9,2.5-10.8-1.5-14.5c-3.8-3.5-9.2-3.9-14.5-1c-2,1.1-4.2,2.1-6,3.5
	c-6,5-13.6,8.9-12.2,19c0.3,2.6-2.1,4.8-5.8,4.6c-4.3-0.3-8.3-1.9-12.5-2.1c-5.6-0.3-7.3-1.9-7.5-7.5c-0.1-2.5,0.1-5,0-7.5
	c-0.4-5.7-4.8-8.2-10-5.5c-5.6,2.9-11.5,4.7-17.5,6.5c-8.9,2.7-9.2,3.5-9.6,12.5c-0.2,5.5,0.9,10.3,4.6,14.5
	c0.9,1.1,1.9,2.2,2.5,3.5c1.5,3.3,1.4,6.5-2,8.4c-3.2,1.8-6.5,3-10.5,1.2c-5-2.2-8.7-6.2-13.4-8.6c-5.3-2.8-10.8-2.2-13.4,2.6
	c-7.9,14.6-19.2,25.9-32.5,35.5c-9.9,7.2-20.4,13.1-32.1,16.9c-9.3,3.1-18.9,3.4-28.5,4.2c-4.2,0.4-6.5-0.6-8.7-4.1
	c-1.1-1.8-2.4-3.8-3.2-5.6c-2.7-6.2-7.8-9.2-13.6-11.4c-7-2.7-14.2-5-21-8.1c-6.5-3-12.9-3.9-20.1-2.5c-10.5,2.1-10.9,2-10.9,12.6
	c0,3-1,5.2-3.6,6.5c-5.4,2.6-13.2,1-17.5-3.5c-2.9-3.1-6-6.1-8.4-9.5c-3.5-5-6.1-10.4-3.7-17c1.5-4,1.7-8.2,0.2-12.5
	c-0.6-1.7-0.7-3.8,1.3-5.5c4.6-3.8,9.7-6.9,15.6-7.8c5.3-0.8,10.4-1.6,15.5-3.1c6.7-2,12.7-0.6,18,4c1.1,0.9,2.2,1.9,3.5,2.5
	c15.4,6.8,30.4,14.4,47,18c3.8,0.8,7.8,1.3,11.5-0.1c4.1-1.5,8.3-1.4,12.5-1.4c7.6,0,11.4-2.9,14.1-10c2.3-6.1,5.6-7.2,11.9-5.4
	c5.2,1.4,9.4,4.9,13.6,8.3c4.5,3.6,9.6,5.3,15.5,3.1c5.3-2,10.7-3.7,15.6-6.9c3-2,4.4-3.9,3.3-7.1c-1.1-3.5-4.6-4.9-7.3-3.8
	c-2.7,1.1-5.6,1.2-8.1,1.4c-7.2,0.8-14.8,1.5-20.5-5.1c-3.4-3.9-7-7.7-11-11c-7-5.9-16.7-7.9-22.5,2.4c-0.9,1.7-2,3.3-3,5
	c-4.8,8-10.7,11.9-23,9.1c-9.6-2.2-17-7.8-23.9-14.1c-4.1-3.7-8.9-5.9-14-4.8c-7.6,1.8-14.1,0.3-20-4.3c-9.1-7.1-16.9-16-27-22
	c-2.5-1.5-2.4-4.1,0-5.9c2.8-2.1,5.8-4.1,9-5.5c6.3-2.8,12.1-6.1,17.1-11c2.4-2.3,5.9-5.4,9.3-2.9c7.1,5.1,14,2.8,21.1,0.8
	c7.1-1.9,13.8-5.4,21.5-4.5c6.7,0.8,13.3,1.2,20,2.1c5.5,0.7,8.7,4.4,8.4,10c-0.4,7.4,1.3,7.9,7.6,10.5c12.5,5.1,23.7,11.6,30.6,24
	c3.4,6.1,8.6,10.3,16.4,10.8c2.4,0.2,5,0.4,7.5,0.8c9,1.6,16.8-0.4,23.2-7.2c-0.8-2.9-2.2-5.4-2-7.9c0.4-4.5-2.2-6.5-5.7-6.9
	c-10.1-1.1-19.1-5.4-28.4-8.8c-8-2.9-16.2-6-22-12.9c-1.9-2.2-3.9-4.5-2.6-8c2.1-5.3,8.9-9.2,14.5-8c8,1.7,14.8,0.3,19-7.5
	c1.6-3,4.5-5.1,7.5-4.8c9.3,1,18.5,2,28,1.1c10.8-1,18.9-6.3,25.8-13.4c4.1-4.3,5.4-8.9,1.7-13.3c-3.3-3.9-7.2-6.8-12.5-6.4
	c-6.4,0.5-11.3-2.1-16-6c-12.8-10.5-25.6-21-40.5-28.5c-10.5-5.3-17.9-12.9-20-25c-1.1-6.2-3-12.3-3.9-18.5
	c-1.2-8,1.5-12.2,9.4-12.8c8.4-0.5,13.8-5,18.4-10.8c11.2-14.1,23.3-27.3,37.1-38.9c2.9-2.4,4.8-5.4,6.1-9c1.7-4.6,4-8.8,7.3-12.6
	c4.8-5.6,8.6-11.9,12.2-18.4c6.1-11,11-22.7,16.3-34.1c4.4-9.4,10.1-18.2,12.6-28.4c2.3-9.3,4.3-18.8,7.1-28
	c4-13.3,7.4-26.8,9.2-40.5c1.8-13,2.3-26.3,2.2-39.5c-0.1-6.8,1.2-13.4,4.1-19.5c6.6-13.8,8.9-28.5,9.9-43.5
	c0.4-6.8,1.6-13.5,3.6-20c1.2-4,2.7-8.3,7.9-9c4.9-0.6,6.7,3.5,8.9,6.5c3.9,5.3,7.9,10.3,13.1,14.5c8.7,7,14.9,6.7,23-1
	c2.1-1.9,4.3-3.7,6.5-5.5c6.5-5.3,14.9-5.5,19.9,4c2.1,4,2.9,8.6,5.2,12.4c4.6,8,4.9,16.3,3,25.1c-0.7,3.2-0.7,6.8,0,9.9
	c1.4,6.1,3.6,9.8,10.4,9.1c3.5-0.4,7,0.3,10.5-0.1c8-1,13.4,3.1,17.4,9.1c3,4.4,4.5,11.7-1.3,17.1c-5.3,4.8-9.5,10.8-14.7,15.8
	c-6.6,6.4-11.3,9.7-21.9,5.1c-2.1-0.9-4.3-1.8-6.5-2.5c-6.8-1.9-12.7,2.8-13,10c-0.3,6.1,2.1,11.3,4.6,16.5
	c3.6,7.7,8.7,14.8,10.8,23c3.6,13.6,3.1,26.6-9.8,36c-2.3,1.7-4,4.1-6.5,5.5c-0.8,0.4-1.3,1.3-2,2c-6.6,5.9-3.1,9.1,3,10.5
	c9.5,2.2,19.2,4.2,28.4,7.2C929.5,490.8,937,492.4,938,489z"/>
<path id="XMLID_56_" fill="none" stroke="#000000" stroke-width="6" stroke-linecap="round" stroke-linejoin="round" stroke-miterlimit="10" d="
	M689,723.5c-2.4-3.7-5.6-6.2-10-7c-2.5-0.5-4.6-1.9-6.5-3.5c-12.6-10.6-27.8-15-43.6-16.1c-8.5-0.6-17.8-1.6-26,3.5
	c-3.7,2.3-7.1,4.5-9,8.6c-1.4,3.1-3.1,6.2-0.9,9.5c2.5,3.8,6.7,4.1,10.5,3.9c2.9-0.2,5.8-1.3,8.6-2.7c8.8-4.6,16.8-2.6,24,3.9
	c2.8,2.5,5.6,5,8.5,7.5c7.2,6.1,15.5,9.1,25,9c8.5-0.1,17.6-7.6,19.5-16"/>
<path id="XMLID_58_" fill="none" stroke="#000000" stroke-width="6" stroke-linecap="round" stroke-linejoin="round" stroke-miterlimit="10" d="
	M637.5,683c5.7-1,11.4-1.7,17-3.1c10.2-2.4,13.7-0.5,18.1,8c2.5,4.8,3.7,10.2,7.3,14.6c3,3.7,6.4,5.3,11.1,5.5
	c9.1,0.3,17.7,2,24.5,8.9c1.3,1.3,3.1,2.2,4.5,3.5c7.2,6.8,15.2,6.1,23.5,2.5c4.4-1.9,4.7-5.1,1.6-8.5c-3-3.3-6.9-5.3-10.6-7.3
	c-11-5.9-20.9-12.8-29.6-22c-10.5-11.2-24.5-16.3-39.3-19.2c-3.3-0.6-6.1-1.2-9.1,1c-3.3,2.5-7.4,1.2-10.9,0.9
	c-7.2-0.7-10.5,4.7-14.4,8.8c-2.3,2.5,1.2,6.2,5.9,6.4"/>
<path id="XMLID_45_" fill="none" stroke="#000000" stroke-width="6" stroke-linecap="round" stroke-linejoin="round" stroke-miterlimit="10" d="
	M858,182c-3.7,1-5.5,4.1-7.5,7c-4.9,6.8-11.3,12.5-14.5,20.5c-3.7,9-7.3,18-7,28c0.3,8.3,6.8,12.1,14,8c10-5.7,15.7-15.1,21.5-24.5
	c8-12.8,4.5-27.3-3.6-37.5c-0.6-0.7-1.1-1.8-2.5-1.5"/>
<path id="XMLID_46_" fill="none" stroke="#000000" stroke-width="6" stroke-linecap="round" stroke-linejoin="round" stroke-miterlimit="10" d="
	M905,134c-14.2,4-25.2,13.2-36.5,22c-3,2.3-4.9,5.4-6,9c-1.3,4,1.2,6.8,5.5,5.9c5.4-1.1,9.9-3.7,12.5-8.9c3.3-6.5,8.2-10.8,16-11.6
	c5.1-0.6,10-2.1,15-3.4c4.2-1.1,7.9-2.8,8.1-8.4c-3.7-4-8.7-4.8-14-4.5"/>
<path id="XMLID_52_" fill="none" stroke="#000000" stroke-width="6" stroke-linecap="round" stroke-linejoin="round" stroke-miterlimit="10" d="
	M1007,87c-0.9-2.2-5.8-2.4-11.5-2.2c-5.7,0.2-10.8,1.5-15.5,4.6c-9.4,6.2-19.9,9.6-31,11.6c-7.6,1.4-15.5,2.2-22.1,7.3
	c-2.1,1.6-4.6,2.8-4.8,5.6c-0.1,2.3-1.3,5.2,1.4,7c3,2,6.4,1.4,9.5,0.5c8.8-2.6,16.7-7.6,25.5-10.6c6.8-2.3,13.9-3.9,20.6-6.8
	c7.7-3.4,15.3-7,23-10.5C1005,92.2,1008.3,91.8,1007,87z"/>
<path id="XMLID_53_" fill="none" stroke="#000000" stroke-width="6" stroke-linecap="round" stroke-linejoin="round" stroke-miterlimit="10" d="
	M1095.5,74.5c-13.6-0.2-26.7,3.2-40,5.3c-8.7,1.4-17.6,1.8-26.5,1.1c-3.1-0.2-5.2,0.7-6.5,3.5c-1.2,2.7-0.5,5.3,1.1,7.4
	c1.6,2.2,3.4,3.7,7,2.3c2.9-1.1,6.6-0.3,9.9-0.2c4.3,0.2,8.2-1,12-3c5.1-2.7,10.5-4.4,16.5-4.1c6.3,0.3,12.6,0.7,18.5-2.4
	c2.9-1.6,6.7,0.9,9.6-1.9c1.3-1.3,4.3-1.3,3.9-4.1c-0.3-2.4-1.9-3.8-4.4-4"/>
<path id="XMLID_50_" fill="none" stroke="#000000" stroke-width="6" stroke-linecap="round" stroke-linejoin="round" stroke-miterlimit="10" d="
	M1133.5,79c0.3,0.7,1.4,1.2,2.1,1.4c1.9,0.6,4.1,1.5,5.4-0.4c4.6-7.3,12.3-5.9,19.1-6.9c3.3-0.5,6.7,0,10-1c3.9-1.2,6.7-3.4,9-6.5
	c1.1-1.4,1.2-2.5,0.5-4.1c-0.8-1.8-2.2-1.4-3.6-1.5c-5.1-0.1-9.8,1.6-14.5,3c-4.9,1.5-9.7-0.3-14.5-0.1
	C1139.2,63.3,1132.6,71,1133.5,79z"/>
<path id="XMLID_2_" fill="none" stroke="#000000" stroke-width="6" stroke-linecap="round" stroke-linejoin="round" stroke-miterlimit="10" d="
	M1220,46.5c0.3-3.3-6.7-5.5-11-6.5c-3.1-0.7-5.1,1.5-5.9,4c0,0-0.4,1.3-0.1,2.5s6.2,2.8,9.5,3.4c2.5,0.5,5.5,0.4,6.9-2
	C1219.4,47.9,1219.5,47.6,1220,46.5z"/>
<path id="XMLID_4_" fill="none" stroke="#000000" stroke-width="6" stroke-linecap="round" stroke-linejoin="round" stroke-miterlimit="10" d="
	M1250.5,53c2-2.6-0.4-6.8-3.6-8.4c-3.3-1.6-7.1-0.9-10.1,1.2c-2.3,1.5-1.7,5.6,0.7,7.1c2.2,1.5,4.6,2.4,7.5,1.6
	C1245,54.6,1247.9,53.7,1250.5,53z"/>
<path id="XMLID_81_" fill="none" stroke="#000000" stroke-width="6" stroke-linejoin="round" stroke-miterlimit="10" d="M911,485v58
	c0,0-0.8,2.6-1.7,4.1c-1.5,2.4-3.1-0.1-3.2-0.3c-1.2-1.9-2.4-4-6.3-4c-4.9,0-7.3,4-7.3,8.9s2.4,8.9,7.3,8.9c3.8,0,5.1-2.1,6.3-4
	c0.1-0.1,1.8-2.7,3.3-0.3c0.9,1.5,1.6,3.6,1.6,4.3v1.3v18h-92c-1.3,0-4.5-1.4-7.1-3.1c-4.3-2.7,0.3-5.6,0.5-5.7
	c3.4-2.2,7.1-4.3,7.1-11.1c0-8.7-7.1-12.9-15.8-12.9s-15.8,4.2-15.8,13c0,6.8,3.7,9,7.1,11.2c0.2,0.1,4.8,3.1,0.5,5.8
	c-2.7,1.7-5.3,2.9-6.5,2.9h-2h-70"/>
<path id="XMLID_14_" fill="none" stroke="#000000" stroke-width="6" stroke-linejoin="round" stroke-miterlimit="10" d="M842.1,580
	v6.8c0,0.7,1.2,4.6,2.1,6.1c1.5,2.4,3.2-0.1,3.3-0.3c1.2-1.9,2.5-4,6.3-4c4.9,0,7.3,4,7.3,8.9s-2.4,8.9-7.3,8.9c-3.8,0-5-2.1-6.3-4
	c-0.1-0.1-1.7-2.7-3.2-0.3c-0.9,1.5-2.2,4.9-2.2,5.6v33c0,0.7,1.2,3.6,2.1,5.1c1.5,2.4,3.2-0.1,3.3-0.3c1.2-1.9,2.5-4,6.3-4
	c4.9,0,7.3,4,7.3,8.9s-2.4,8.9-7.3,8.9c-3.8,0-5-2.1-6.3-4c-0.1-0.1-1.7-2.7-3.2-0.3c-0.9,1.5-2.2,4.9-2.2,5.6v20
	c0,0.7-0.8,3.6-1.7,5.1c-1.5,2.4-3.1-0.1-3.2-0.3c-1.2-1.9-2.4-4-6.3-4c-4.9,0-7.3,4-7.3,8.9s2.4,8.9,7.3,8.9c3.8,0,5.1-2.1,6.3-4
	c0.1-0.1,1.8-2.7,3.3-0.3c0.9,1.5,1.6,4.9,1.6,5.6v45c0,1.2,1.4,5.7,3.1,8.4c2.7,4.3,5.7-0.3,5.8-0.5c2.2-3.4,4.4-7.1,11.2-7.1
	c8.7,0,13,7.1,13,15.8s-4.2,15.8-12.9,15.8c-6.8,0-9-3.7-11.1-7.1c-0.1-0.2-3-4.8-5.7-0.5c-1.7,2.7-3.3,7.9-3.3,9.2v7"/>
<path id="XMLID_9_" fill="none" stroke="#000000" stroke-width="6" stroke-linejoin="round" stroke-miterlimit="10" d="M1323,540
	h-44c-0.7,0-4.1,1.2-5.6,2.1c-2.4,1.5,0.1,3.2,0.3,3.3c1.9,1.2,4,2.5,4,6.3c0,4.9-4,7.3-8.9,7.3s-8.9-2.4-8.9-7.3c0-3.8,2.1-5,4-6.3
	c0.1-0.1,2.7-1.7,0.3-3.2c-1.5-0.9-5.4-2.2-6.1-2.2h-85c-0.7,0-4.1-0.8-5.6-1.7c-2.4-1.5,0.1-3.1,0.3-3.2c1.9-1.2,4-2.4,4-6.3
	c0-4.9-4-7.3-8.9-7.3s-8.9,2.4-8.9,7.3c0,3.8,2.1,5.1,4,6.3c0.1,0.1,2.7,1.8,0.3,3.3c-1.5,0.9-4.4,1.6-5.1,1.6h-51
	c-0.7,0-3.1-0.8-4.6-1.7c-2.4-1.5,0.1-3.1,0.3-3.2c1.9-1.2,4-2.4,4-6.3c0-4.9-4-7.3-8.9-7.3s-8.9,2.4-8.9,7.3c0,3.8,2.1,5.1,4,6.3
	c0.1,0.1,2.7,1.8,0.3,3.3c-1.5,0.9-3.7,1.6-4.4,1.6h0.2h-51"/>
<path id="XMLID_154_" fill="none" stroke="#000000" stroke-width="6" stroke-linejoin="round" stroke-miterlimit="10" d="M1033,382
	v51c0,0.7,1.2,4.6,2.1,6.1c1.5,2.4,3.2-0.1,3.3-0.3c1.2-1.9,2.5-4,6.3-4c4.9,0,7.3,4,7.3,8.9s-2.4,8.9-7.3,8.9c-3.8,0-5-2.1-6.3-4
	c-0.1-0.1-1.7-2.7-3.2-0.3c-0.9,1.5-2.2,3.9-2.2,4.6v46l0,0.1c0,0.7,1.2,3.6,2.1,5.1c1.5,2.4,3.2-0.1,3.3-0.3c1.2-1.9,2.5-4,6.3-4
	c4.9,0,7.3,4,7.3,8.9c0,4.9-2.4,8.9-7.3,8.9c-3.8,0-5-2.1-6.3-4c-0.1-0.1-1.7-2.7-3.2-0.3c-0.9,1.5-2.2,4.9-2.2,5.6l0,0.1v26
	c0,0.7,1.2,3.6,2.1,5.1c1.5,2.4,3.2-0.1,3.3-0.3c1.2-1.9,2.5-4,6.3-4c4.9,0,7.3,4,7.3,8.9s-2.4,8.9-7.3,8.9c-3.8,0-5-2.1-6.3-4
	c-0.1-0.1-1.7-2.7-3.2-0.3c-0.9,1.5-2.2,3.8-2.2,4.5v0.1v96c0,0.7,1.2,3.6,2.1,5.1c1.5,2.4,3.2-0.1,3.3-0.3c1.2-1.9,2.5-4,6.3-4
	c4.9,0,7.3,4,7.3,8.9s-2.4,8.9-7.3,8.9c-3.8,0-5-2.1-6.3-4c-0.1-0.1-1.7-2.7-3.2-0.3c-0.9,1.5-2.2,3.9-2.2,4.6v66
	c0,0.7,1.2,2.6,2.1,4.1c1.5,2.4,3.2-0.1,3.3-0.3c1.2-1.9,2.5-4,6.3-4c4.9,0,7.3,4,7.3,8.9s-2.4,8.9-7.3,8.9c-3.8,0-5-2.1-6.3-4
	c-0.1-0.1-1.7-2.7-3.2-0.3c-0.9,1.5-2.2,3.9-2.2,4.6v23c0,0.7-0.8,3.6-1.7,5.1c-1.5,2.4-3.1-0.1-3.2-0.3c-1.2-1.9-2.4-4-6.3-4
	c-4.9,0-7.3,4-7.3,8.9s2.4,8.9,7.3,8.9c3.8,0,5.1-2.1,6.3-4c0.1-0.1,1.8-2.7,3.3-0.3c0.9,1.5,1.6,3.9,1.6,4.6v39.8v9.9v8.9V890"/>
<path id="XMLID_23_" fill="none" stroke="#000000" stroke-width="6" stroke-linejoin="round" stroke-miterlimit="10" d="M1180,540
	v-21c0-0.7,1.3-3.1,2.2-4.6c1.5-2.4,3.1,0.1,3.2,0.3c1.2,1.9,2.4,4,6.3,4c4.9,0,7.3-4,7.3-8.9s-2.4-8.9-7.3-8.9
	c-3.8,0-5.1,2.1-6.3,4c-0.1,0.1-1.8,2.7-3.3,0.3c-0.9-1.5-2.1-5.4-2.1-6.1v-56c0-0.7,1.3-3.1,2.2-4.6c1.5-2.4,3.1,0.1,3.2,0.3
	c1.2,1.9,2.4,4,6.3,4c4.9,0,7.3-4,7.3-8.9s-2.4-8.9-7.3-8.9c-3.8,0-5.1,2.1-6.3,4c-0.1,0.1-1.8,2.7-3.3,0.3
	c-0.9-1.5-2.1-4.4-2.1-5.1v-44c0-0.7,1.3-4.1,2.2-5.6c1.5-2.4,3.1,0.1,3.2,0.3c1.2,1.9,2.4,4,6.3,4c4.9,0,7.3-4,7.3-8.9
	s-2.4-8.9-7.3-8.9c-3.8,0-5.1,2.1-6.3,4c-0.1,0.1-1.8,2.7-3.3,0.3c-0.9-1.5-2.1-4.4-2.1-5.1v-27c0-0.7,1.3-4.1,2.2-5.6
	c1.5-2.4,3.1,0.1,3.2,0.3c1.2,1.9,2.4,4,6.3,4c4.9,0,7.3-4,7.3-8.9s-2.4-8.9-7.3-8.9c-3.8,0-5.1,2.1-6.3,4c-0.1,0.1-1.8,2.7-3.3,0.3
	c-0.9-1.5-2.1-5.4-2.1-6.1v-26c0-0.7-0.7-5.1-1.6-6.6c-1.5-2.4-3.2,0.1-3.3,0.3c-1.2,1.9-2.5,4-6.3,4c-4.9,0-7.3-4-7.3-8.9
	s2.4-8.9,7.3-8.9c3.8,0,5,2.1,6.3,4c0.1,0.1,1.7,2.7,3.2,0.3c0.9-1.5,1.7-5.4,1.7-6.1v-10c0-0.7,1.3-3.1,2.2-4.6
	c1.5-2.4,3.1,0.1,3.2,0.3c1.2,1.9,2.4,4,6.3,4c4.9,0,7.3-4,7.3-8.9s-2.4-8.9-7.3-8.9c-3.8,0-5.1,2.1-6.3,4c-0.1,0.1-1.8,2.7-3.3,0.3
	c-0.9-1.5-2.1-4.4-2.1-5.1v-12c0-0.7-0.7-4.1-1.6-5.6c-1.5-2.4-3.2,0.1-3.3,0.3c-1.2,1.9-2.5,4-6.3,4c-4.9,0-7.3-4-7.3-8.9
	s2.4-8.9,7.3-8.9c3.8,0,5,2.1,6.3,4c0.1,0.1,1.7,2.7,3.2,0.3c0.9-1.5,1.7-5.4,1.7-6.1v-12c0-0.7,1.3-3.1,2.2-4.6
	c1.5-2.4,3.1,0.1,3.2,0.3c1.2,1.9,2.4,4,6.3,4c4.9,0,7.3-4,7.3-8.9s-2.4-8.9-7.3-8.9c-3.8,0-5.1,2.1-6.3,4c-0.1,0.1-1.8,2.7-3.3,0.3
	c-0.9-1.5-2.1-4.4-2.1-5.1v-37c0-0.7,1.3-3.1,2.2-4.6c1.5-2.4,3.1,0.1,3.2,0.3c1.2,1.9,2.4,4,6.3,4c4.9,0,7.3-4,7.3-8.9
	s-2.4-8.9-7.3-8.9c-3.8,0-5.1,2.1-6.3,4c-0.1,0.1-2.1,2.9-3.3,0.3c-1.5-3.5-2.9-7.3-1.6-3.7l-0.5-1.5V95"/>
<path id="XMLID_84_" fill="none" stroke="#000000" stroke-width="6" stroke-miterlimit="10" d="M911,565h8c0.7,0,3.6,1.3,5.1,2.2
	c2.4,1.5-0.1,3.1-0.3,3.2c-1.9,1.2-4,2.4-4,6.3c0,4.9,4,7.3,8.9,7.3s8.9-2.4,8.9-7.3c0-3.8-2.1-5.1-4-6.3c-0.1-0.1-2.7-1.8-0.3-3.3
	c1.5-0.9,4.6-2.1,4.6-2.1h21c0.7,0,2.6,1.3,4.1,2.2c2.4,1.5-0.1,3.1-0.3,3.2c-1.9,1.2-4,2.4-4,6.3c0,4.9,4,7.3,8.9,7.3
	s8.9-2.4,8.9-7.3c0-3.8-2.1-5.1-4-6.3c-0.1-0.1-2.7-1.8-0.3-3.3c1.5-0.9,3.6-2.1,4.3-2.1H976h24c0.7,0,3.6,1.3,5.1,2.2
	c2.4,1.5-0.1,3.1-0.3,3.2c-1.9,1.2-4,2.4-4,6.3c0,4.9,4,7.3,8.9,7.3s8.9-2.4,8.9-7.3c0-3.8-2.1-5.1-4-6.3c-0.1-0.1-2.7-1.8-0.3-3.3
	c1.5-0.9,4-2.1,4.6-2.1h14"/>
</svg>
