<?xml version="1.0" encoding="utf-8"?>
<!-- Generator: Adobe Illustrator 19.0.0, SVG Export Plug-In . SVG Version: 6.00 Build 0)  -->
<svg version="1.0" id="Layer_2" xmlns="http://www.w3.org/2000/svg" xmlns:xlink="http://www.w3.org/1999/xlink" x="0px" y="0px"
	 width="1920px" height="1080px" viewBox="860 -440 1920 1080" enable-background="new 860 -440 1920 1080" xml:space="preserve">
<g>
	
		<path id="XMLID_5_" fill="none" stroke="#000000" stroke-width="6" stroke-linecap="round" stroke-linejoin="round" stroke-miterlimit="10" d="
		M1824,36.5c0.1-2.7-5.5-7.1-8.5-10.5c-7.8-8.9-6.7-17.2,3.1-23.4c0.6-0.4,1.7-0.8,2.4-1.2c14.3-7.7,27.7-16.8,40-27.5
		c7.9-6.9,15.4-14.3,23-21.4c8.8-8.2,25.7-16.9,30-19s5-4,5-4c0.1-1.8-0.9-3.2-2-4.5c-3-3.7-5-8-6.5-12.5c-3.2-9.6-5.2-19.2-0.5-29
		c1.1-2.2,2.1-4.6,2.5-7c0.9-5.5,3.5-9.8,7.6-13.5c3.6-3.2,6.7-6.8,8.9-11c1.2-2.3,2.5-5.2-0.4-7.4c-2.5-1.9-5.2-1.6-7.4,0.1
		c-2.6,1.9-5.6,3-8.6,3.8c-13.6,3.9-27.3,5.7-40.5-1.9c-5.2-3-14.7-9.1-15.4-9.6s-1.1-0.7-1.6-1.4c-1.1-1.5,2.7-4.6,4.6-6.4
		c3.9-3.8,7-8.3,7.3-13.6c0.6-8.8,0.6-17.7-1.3-26.5c-2-9.1-3.8-18.2-4.4-27.5c-0.8-12.7,1.6-24.8,6.8-36.5
		c4.3-9.8,9.8-18.2,19.5-23.6c3.1-1.7,5.5-4.7,7.6-7.9c4.8-7.2,11.5-11.6,20-13.6c7.3-1.7,14.7-3.1,21-7.5c8.6-5.9,18.3-9.3,27.5-14
		c19.2-9.7,39.5-13.9,61-13c3.7,0.2,7.4-0.6,11-0.8c10.5-0.5,21-1.6,31.5-2c9.6-0.4,19.2-1.5,28.4-3.4c17.1-3.6,34.3-7.2,50.5-13.9
		c11.5-4.7,22.2-2.7,33,1.7c1.8,0.7,3.4,1.3,4.1,3.9c2.1,7.7,3.7,15.5,3.9,23.5c0.2,8.1,7.8,20.6,18.9,18.9c3.3-0.5,6,0.8,8.4,2.2
		c3.8,2.3,7.6,3.9,12.1,3.9c3.3,0,4.5,2.2,4.5,5.4c0.2,7.5,2.4,10.4,9.5,12.5c2.2,0.7,4.3,1.4,6.5,2c15.4,3.7,18.4,21.9,13.8,32.5
		c-2.9,6.8-3.1,13-1,20.1c4.1,14.2,4.8,28.8,1.2,43.4c-3.6,14.6-9.4,28.3-17.5,41c-2.9,4.6-5.3,9.5-6.6,15c-2,7.9-2.6,16-2.8,24
		c-0.3,11.2,0,22.3-0.1,33.5c-0.1,10.3-3.7,13.9-14,12.3c-5.2-0.8-10.4-0.6-15.5-0.8c-1,0-2,0.2-3,0c-10.1-1.9-20.2-3.2-30.5-3
		c-7.8,0.2-9.4,1.6-10.5,9c-0.9,5.7-0.7,11.1,3,16c3.2,4.2,2.9,6.2-1,10c-1.4,1.3-2.8,2.7-4.5,3.5c-5.4,2.6-6.1,9.6-3.4,13.5
		c5,7.4,11.9,12.1,21,11.9c6.6-0.1,12.6,1.1,18.5,3.8c2,0.9,4,1.6,6.1,2.4c4.8,1.9,9,0.8,12.5-3c2.2-2.4,4.9-4,8-5
		c5.8,1.5,8.5,6.6,10.5,11.5c3.1,7.4,6.3,14.5,8.3,22.4c1.3,5.4-1.1,9.7-1.4,14.6c-0.2,2.6-1.5,5.1-2.7,7.5
		c-3.3,6.6-2.1,12.8,1.2,19.1c3.3,6.1,2.3,8-3.9,11.1c-1.7,0.8-3.3,1.4-5,1.9c-5.9,1.8-10.5,4.6-11.6,11.5c-0.4,2.6-2.1,4.9-4.4,6.5
		c-5.2,3.7-8.3,9-11,14.5c-3,6.2-7.5,9.5-14.5,8.5c-4.9-0.7-8.7,0.7-11,5.5c-2.9,5.9-8.6,8.1-14.4,10.1c-5.2,1.8-6.2,6.2-2.5,9.9
		c0.7,0.7,1.3,1.6,2.5,1.5c11.7-0.4,17.6,8.9,24.2,15.8c4.7,4.9,2.8,12.5-0.4,18.1c-3.6,6.3-8.9,11.7-14.9,15.9
		c-2.5,1.8-5.9,2.6-9.4,2.2c-9.4-1-18.2,0.8-26,6.4c-5.5,3.9-11.9,5-18.5,5.6c-4.4,0.4-8.7,1.4-12,4.9c-1.5,1.5-3.3,2.7-5,4
		c-3.4,2.6-8,2.8-11.5,0.5c-3.5-2.4-7-4.4-11.5-4.6c-2.6-0.1-5.4-1.3-7-3.9c-1.8-2.8-4.5-3.3-7.5-3c-3.3,0.3-5.9-1-8.5-2.9
		c-4.3-3.1-11.4-7.1-14.5-5.6c-0.4,0.8-1,3.4,1.3,9.5c1.2,3.7,0.6,6-2.3,8c-3.7-0.5-7.1-2.3-10.5-3.9c-4.3-2-8.8-1.9-11.9,2
		c-3.8,4.9-8.8,6.4-14.6,7c-3.7,0.4-5.3,3.9-4.6,8c0.6,3.7,3.2,6.3,4.8,9.4c2.1,4,2.4,6.8-1.1,10.2c-4.3,4.2-3.3,7.7,2.4,9.4
		c3,0.9,5.9,2.1,8.5,4c3.8,2.9,3,7.6,3.9,11.5c1,4.6,2.6,8.2,7.6,9.5c1.6,0.4,3,1.6,4.5,2.4c3,1.8,3.7,4.3,2.5,7.5
		c-2.9,7.5-0.2,13.7,5,19c6.8,7,12.8,14.5,17.5,23c4,7.3,5.1,15.2,3.7,23c-1.6,9-0.2,17.5,1.4,26c0.8,3.9,0.1,7-2.3,9.5
		c-6.5,6.9-11.3,14.6-14.6,23.5c-2.4,6.5-7.6,11.6-11.8,17.1c-3,3.8-5.1,8-5.6,13c-0.6,5.8,3.5,9.2,8.6,9c4.2-0.2,8.1,1.1,11.5,3.5
		c4.5,3.3,4.3,5.8-0.5,8.9c-2.7,1.8-6,2.3-9,3.5c-8.3,3.3-14.4,9.4-20,16c-4.4,5.3-8.7,10.7-13,16c-2,2.4-3.9,3-6.6,0.6
		c-1.2-1.1-2.6-2.1-3.9-3c-4.8-3.3-10.4-0.5-11,5.5c-1.1,10.5,8.2,21,18.5,21c2.7,0,5.3,0,8,0c5.7,0.1,8.9,2.9,9.5,8.5
		c0.1,1.2,0,2.3,0,3.5c0,7.9,0,7.9,7,10.5c5,1.9,8.6,9.6,6.9,16c-1.3,4.7-3.4,8.9-8.9,10.3c-5.5,1.5-8.9,4.6-8.2,11.2
		c-0.2,7.2-7.8,7.5-7.8,7.5c0.6,4.6,4.6,7.4,6.2,11.6c-3.1,5.8-8.7,5.1-13.7,4.7c-3.4-0.3-6.8-1.6-10-2.9c-4.2-1.7-8.2-2.3-12.5-0.5
		c-3.3,1.3-6.4,0.5-9-1.9c-4.6-4.3-9.4-5.9-15-1.6c-1.2,0.9-3,1-4.5,1.6c-3.5,1.3-6,0.1-6.4-3.5c-1.1-8-5.2-14.4-10-20.5
		c-1.6-2.1-3.3-4.5-3.9-7c-0.8-3.4-0.1-7,2.9-9.5c3.3-2.7,6.6-5.4,10-8c9.9-7.4,14.7-17.2,15.1-29.5c0.2-5.6-1.2-11-1.1-16.5
		c0.1-2.4,0.5-4.4,1.9-6.6c3.9-6,6.9-12.4,12.4-17.7c5.2-4.9,6.3-12.5,5.7-19.8c-0.3-3.6-3.2-5.6-7.4-4.9s-8,1.9-8,1.9
		c0.2-4.7-2.3-8.8-6-8.9c-3-0.1-6,0.1-9,0.6c-4.8,0.8-10.2,1.6-14-3.7c-3.1-4.3-7.9-6.5-12.9-8c-2.9-0.9-6.1-1.9-6.4-5.1
		c-0.7-7.3-4.6-13.1-8.2-18.9c-5-8-8.2-8.6-16.4-4.1c-4.3,2.4-8.4,5.8-13,6.8c-7.9,1.7-15.9,3.1-24,4.1c-9.2,1.3-11.3,0.1-12.9-6.4
		c-2.1-8.7-8.1-10.7-15.1-11.3c-3.4-0.3-5.1-1.7-6-4.7c-1.7-5.7-4.2-11.1-9.1-14.3c-4-2.6-4.5-5.7-4.4-9.7c0.1-4.8,0.9-9.4,2-14
		c1.2-5.2-2-11.8-6.5-14c-4-1.9-8.5-0.6-12.5,4c-2.1,2.5-3.7,5.3-5.6,8c-3.5,4.8-5.9,10.9-12,12.9c-7.7,2.6-15.7,2.5-23.5,0
		c-5.7-1.8-7.3-5.6-5-10.9c0.9-2.1,2-4,3-6c3-5.9,2.5-10.8-1.5-14.5c-3.8-3.5-9.2-3.9-14.5-1c-2,1.1-4.2,2.1-6,3.5
		c-6,5-13.6,8.9-12.2,19c0.3,2.6-2.1,4.8-5.8,4.6c-4.3-0.3-8.3-1.9-12.5-2.1c-5.6-0.3-7.3-1.9-7.5-7.5c-0.1-2.5,0.1-5,0-7.5
		c-0.4-5.7-4.8-8.2-10-5.5c-5.6,2.9-11.5,4.7-17.5,6.5c-8.9,2.7-9.2,3.5-9.6,12.5c-0.2,5.5,0.9,10.3,4.6,14.5
		c0.9,1.1,1.9,2.2,2.5,3.5c1.5,3.3,1.4,6.5-2,8.4c-3.2,1.8-6.5,3-10.5,1.2c-5-2.2-8.7-6.2-13.4-8.6c-5.3-2.8-10.8-2.2-13.4,2.6
		c-7.9,14.6-19.2,25.9-32.5,35.5c-9.9,7.2-20.4,13.1-32.1,16.9c-9.3,3.1-18.9,3.4-28.5,4.2c-4.2,0.4-6.5-0.6-8.7-4.1
		c-1.1-1.8-2.4-3.8-3.2-5.6c-2.7-6.2-7.8-9.2-13.6-11.4c-7-2.7-14.2-5-21-8.1c-6.5-3-12.9-3.9-20.1-2.5c-10.5,2.1-10.9,2-10.9,12.6
		c0,3-1,5.2-3.6,6.5c-5.4,2.6-13.2,1-17.5-3.5c-2.9-3.1-6-6.1-8.4-9.5c-3.5-5-6.1-10.4-3.7-17c1.5-4,1.7-8.2,0.2-12.5
		c-0.6-1.7-0.7-3.8,1.3-5.5c4.6-3.8,9.7-6.9,15.6-7.8c5.3-0.8,10.4-1.6,15.5-3.1c6.7-2,12.7-0.6,18,4c1.1,0.9,2.2,1.9,3.5,2.5
		c15.4,6.8,30.4,14.4,47,18c3.8,0.8,7.8,1.3,11.5-0.1c4.1-1.5,8.3-1.4,12.5-1.4c7.6,0,11.4-2.9,14.1-10c2.3-6.1,5.6-7.2,11.9-5.4
		c5.2,1.4,9.4,4.9,13.6,8.3c4.5,3.6,9.6,5.3,15.5,3.1c5.3-2,10.7-3.7,15.6-6.9c3-2,4.4-3.9,3.3-7.1c-1.1-3.5-4.6-4.9-7.3-3.8
		s-5.6,1.2-8.1,1.4c-7.2,0.8-14.8,1.5-20.5-5.1c-3.4-3.9-7-7.7-11-11c-7-5.9-16.7-7.9-22.5,2.4c-0.9,1.7-2,3.3-3,5
		c-4.8,8-10.7,11.9-23,9.1c-9.6-2.2-17-7.8-23.9-14.1c-4.1-3.7-8.9-5.9-14-4.8c-7.6,1.8-14.1,0.3-20-4.3c-9.1-7.1-16.9-16-27-22
		c-2.5-1.5-2.4-4.1,0-5.9c2.8-2.1,5.8-4.1,9-5.5c6.3-2.8,12.1-6.1,17.1-11c2.4-2.3,5.9-5.4,9.3-2.9c7.1,5.1,14,2.8,21.1,0.8
		c7.1-1.9,13.8-5.4,21.5-4.5c6.7,0.8,13.3,1.2,20,2.1c5.5,0.7,8.7,4.4,8.4,10c-0.4,7.4,1.3,7.9,7.6,10.5c12.5,5.1,23.7,11.6,30.6,24
		c3.4,6.1,8.6,10.3,16.4,10.8c2.4,0.2,5,0.4,7.5,0.8c9,1.6,16.8-0.4,23.2-7.2c-0.8-2.9-2.2-5.4-2-7.9c0.4-4.5-2.2-6.5-5.7-6.9
		c-10.1-1.1-19.1-5.4-28.4-8.8c-8-2.9-16.2-6-22-12.9c-1.9-2.2-3.9-4.5-2.6-8c2.1-5.3,8.9-9.2,14.5-8c8,1.7,14.8,0.3,19-7.5
		c1.6-3,4.5-5.1,7.5-4.8c9.3,1,18.5,2,28,1.1c10.8-1,18.9-6.3,25.8-13.4c4.1-4.3,5.4-8.9,1.7-13.3c-3.3-3.9-7.2-6.8-12.5-6.4
		c-6.4,0.5-11.3-2.1-16-6c-12.8-10.5-25.6-21-40.5-28.5c-10.5-5.3-17.9-12.9-20-25c-1.1-6.2-3-12.3-3.9-18.5
		c-1.2-8,1.5-12.2,9.4-12.8c8.4-0.5,13.8-5,18.4-10.8c11.2-14.1,23.3-27.3,37.1-38.9c2.9-2.4,4.8-5.4,6.1-9c1.7-4.6,4-8.8,7.3-12.6
		c4.8-5.6,8.6-11.9,12.2-18.4c6.1-11,11-22.7,16.3-34.1c4.4-9.4,10.1-18.2,12.6-28.4c2.3-9.3,4.3-18.8,7.1-28
		c4-13.3,7.4-26.8,9.2-40.5c1.8-13,2.3-26.3,2.2-39.5c-0.1-6.8,1.2-13.4,4.1-19.5c6.6-13.8,8.9-28.5,9.9-43.5
		c0.4-6.8,1.6-13.5,3.6-20c1.2-4,2.7-8.3,7.9-9c4.9-0.6,6.7,3.5,8.9,6.5c3.9,5.3,7.9,10.3,13.1,14.5c8.7,7,14.9,6.7,23-1
		c2.1-1.9,4.3-3.7,6.5-5.5c6.5-5.3,14.9-5.5,19.9,4c2.1,4,2.9,8.6,5.2,12.4c4.6,8,4.9,16.3,3,25.1c-0.7,3.2-0.7,6.8,0,9.9
		c1.4,6.1,3.6,9.8,10.4,9.1c3.5-0.4,7,0.3,10.5-0.1c8-1,13.4,3.1,17.4,9.1c3,4.4,4.5,11.7-1.3,17.1c-5.3,4.8-9.5,10.8-14.7,15.8
		c-6.6,6.4-11.3,9.7-21.9,5.1c-2.1-0.9-4.3-1.8-6.5-2.5c-6.8-1.9-12.7,2.8-13,10c-0.3,6.1,2.1,11.3,4.6,16.5
		c3.6,7.7,8.7,14.8,10.8,23c3.6,13.6,3.1,26.6-9.8,36c-2.3,1.7-4,4.1-6.5,5.5c-0.8,0.4-1.3,1.3-2,2c-6.6,5.9-3.1,9.1,3,10.5
		c9.5,2.2,19.2,4.2,28.4,7.2C1815.5,38.3,1823,39.9,1824,36.5z"/>
	
		<path id="XMLID_56_" fill="none" stroke="#000000" stroke-width="6" stroke-linecap="round" stroke-linejoin="round" stroke-miterlimit="10" d="
		M1575,271c-2.4-3.7-5.6-6.2-10-7c-2.5-0.5-4.6-1.9-6.5-3.5c-12.6-10.6-27.8-15-43.6-16.1c-8.5-0.6-17.8-1.6-26,3.5
		c-3.7,2.3-7.1,4.5-9,8.6c-1.4,3.1-3.1,6.2-0.9,9.5c2.5,3.8,6.7,4.1,10.5,3.9c2.9-0.2,5.8-1.3,8.6-2.7c8.8-4.6,16.8-2.6,24,3.9
		c2.8,2.5,5.6,5,8.5,7.5c7.2,6.1,15.5,9.1,25,9c8.5-0.1,17.6-7.6,19.5-16"/>
	
		<path id="XMLID_58_" fill="none" stroke="#000000" stroke-width="6" stroke-linecap="round" stroke-linejoin="round" stroke-miterlimit="10" d="
		M1523.5,230.5c5.7-1,11.4-1.7,17-3.1c10.2-2.4,13.7-0.5,18.1,8c2.5,4.8,3.7,10.2,7.3,14.6c3,3.7,6.4,5.3,11.1,5.5
		c9.1,0.3,17.7,2,24.5,8.9c1.3,1.3,3.1,2.2,4.5,3.5c7.2,6.8,15.2,6.1,23.5,2.5c4.4-1.9,4.7-5.1,1.6-8.5c-3-3.3-6.9-5.3-10.6-7.3
		c-11-5.9-20.9-12.8-29.6-22c-10.5-11.2-24.5-16.3-39.3-19.2c-3.3-0.6-6.1-1.2-9.1,1c-3.3,2.5-7.4,1.2-10.9,0.9
		c-7.2-0.7-10.5,4.7-14.4,8.8c-2.3,2.5,1.2,6.2,5.9,6.4"/>
	
		<path id="XMLID_45_" fill="none" stroke="#000000" stroke-width="6" stroke-linecap="round" stroke-linejoin="round" stroke-miterlimit="10" d="
		M1744-270.5c-3.7,1-5.5,4.1-7.5,7c-4.9,6.8-11.3,12.5-14.5,20.5c-3.7,9-7.3,18-7,28c0.3,8.3,6.8,12.1,14,8
		c10-5.7,15.7-15.1,21.5-24.5c8-12.8,4.5-27.3-3.6-37.5c-0.6-0.7-1.1-1.8-2.5-1.5"/>
	
		<path id="XMLID_46_" fill="none" stroke="#000000" stroke-width="6" stroke-linecap="round" stroke-linejoin="round" stroke-miterlimit="10" d="
		M1791-318.5c-14.2,4-25.2,13.2-36.5,22c-3,2.3-4.9,5.4-6,9c-1.3,4,1.2,6.8,5.5,5.9c5.4-1.1,9.9-3.7,12.5-8.9
		c3.3-6.5,8.2-10.8,16-11.6c5.1-0.6,10-2.1,15-3.4c4.2-1.1,7.9-2.8,8.1-8.4c-3.7-4-8.7-4.8-14-4.5"/>
	
		<path id="XMLID_52_" fill="none" stroke="#000000" stroke-width="6" stroke-linecap="round" stroke-linejoin="round" stroke-miterlimit="10" d="
		M1893-365.5c-0.9-2.2-5.8-2.4-11.5-2.2s-10.8,1.5-15.5,4.6c-9.4,6.2-19.9,9.6-31,11.6c-7.6,1.4-15.5,2.2-22.1,7.3
		c-2.1,1.6-4.6,2.8-4.8,5.6c-0.1,2.3-1.3,5.2,1.4,7c3,2,6.4,1.4,9.5,0.5c8.8-2.6,16.7-7.6,25.5-10.6c6.8-2.3,13.9-3.9,20.6-6.8
		c7.7-3.4,15.3-7,23-10.5C1891-360.3,1894.3-360.7,1893-365.5z"/>
	
		<path id="XMLID_53_" fill="none" stroke="#000000" stroke-width="6" stroke-linecap="round" stroke-linejoin="round" stroke-miterlimit="10" d="
		M1981.5-378c-13.6-0.2-26.7,3.2-40,5.3c-8.7,1.4-17.6,1.8-26.5,1.1c-3.1-0.2-5.2,0.7-6.5,3.5c-1.2,2.7-0.5,5.3,1.1,7.4
		c1.6,2.2,3.4,3.7,7,2.3c2.9-1.1,6.6-0.3,9.9-0.2c4.3,0.2,8.2-1,12-3c5.1-2.7,10.5-4.4,16.5-4.1c6.3,0.3,12.6,0.7,18.5-2.4
		c2.9-1.6,6.7,0.9,9.6-1.9c1.3-1.3,4.3-1.3,3.9-4.1c-0.3-2.4-1.9-3.8-4.4-4"/>
	
		<path id="XMLID_50_" fill="none" stroke="#000000" stroke-width="6" stroke-linecap="round" stroke-linejoin="round" stroke-miterlimit="10" d="
		M2019.5-373.5c0.3,0.7,1.4,1.2,2.1,1.4c1.9,0.6,4.1,1.5,5.4-0.4c4.6-7.3,12.3-5.9,19.1-6.9c3.3-0.5,6.7,0,10-1
		c3.9-1.2,6.7-3.4,9-6.5c1.1-1.4,1.2-2.5,0.5-4.1c-0.8-1.8-2.2-1.4-3.6-1.5c-5.1-0.1-9.8,1.6-14.5,3c-4.9,1.5-9.7-0.3-14.5-0.1
		C2025.2-389.2,2018.6-381.5,2019.5-373.5z"/>
	
		<path id="XMLID_2_" fill="none" stroke="#000000" stroke-width="6" stroke-linecap="round" stroke-linejoin="round" stroke-miterlimit="10" d="
		M2106-406c0.3-3.3-6.7-5.5-11-6.5c-3.1-0.7-5.1,1.5-5.9,4c0,0-0.4,1.3-0.1,2.5s6.2,2.8,9.5,3.4c2.5,0.5,5.5,0.4,6.9-2
		C2105.4-404.6,2105.5-404.9,2106-406z"/>
	
		<path id="XMLID_4_" fill="none" stroke="#000000" stroke-width="6" stroke-linecap="round" stroke-linejoin="round" stroke-miterlimit="10" d="
		M2136.5-399.5c2-2.6-0.4-6.8-3.6-8.4c-3.3-1.6-7.1-0.9-10.1,1.2c-2.3,1.5-1.7,5.6,0.7,7.1c2.2,1.5,4.6,2.4,7.5,1.6
		C2131-397.9,2133.9-398.8,2136.5-399.5z"/>
</g>
<g>
	<path id="XMLID_10_" fill="none" stroke="#000000" stroke-width="4" stroke-linejoin="round" stroke-miterlimit="10" d="
		M1653,262.5c0,0,49.6,0,52.3,0s8.7-2.7,14.7-6.4c9.8-6.1-0.6-12.8-1.1-13.1c-7.7-4.8-16-9.9-16-25.1c0-19.7,15.9-29.2,35.6-29.2
		s35.6,9.5,35.6,29.1c0,15.3-8.4,20.2-16,25c-0.5,0.3-10.9,6.8-1.1,12.9c6,3.7,11.8,5.9,14.7,5.9s114.8,0,117.7,0s8.7,2.2,14.7,5.9
		c9.8,6.1-0.6,12.6-1.1,12.9c-7.7,4.8-16,9.7-16,25c0,19.7,15.9,29.1,35.6,29.1s35.6-9.5,35.6-29.1c0-15.3-8.4-20.2-16-25
		c-0.5-0.3-10.9-6.8-1.1-12.9c6-3.7,11.4-5.9,14.7-5.9s57.4,0.5,57.4,0.5"/>
	<path id="XMLID_11_" fill="none" stroke="#000000" stroke-width="4" stroke-linejoin="round" stroke-miterlimit="10" d="M1822,38.5
		c0,0-0.1,51.9-0.1,54.4s2.2,8.7,5.9,14.7c6.1,9.8,12.6-0.6,12.9-1.1c4.8-7.7,9.7-16,25-16c19.7,0,29.1,15.9,29.1,35.6
		s-9.5,35.6-29.1,35.6c-15.3,0-20.2-8.4-25-16c-0.3-0.5-6.8-10.9-12.9-1.1c-3.7,6-5.9,11.4-5.9,14.7c0,3.3,0.1,102.3,0.1,102.3"/>
	<path id="XMLID_12_" fill="none" stroke="#000000" stroke-width="4" stroke-linejoin="round" stroke-miterlimit="10" d="M2160-69.5
		c0,0-69.9,0-71.4,0s-8.7-2.7-14.7-6.4c-9.8-6.1,0.6-12.8,1.1-13.1c7.7-4.8,16-9.9,16-25.1c0-19.7-15.9-29.2-35.6-29.2
		c-19.7,0-35.6,9.5-35.6,29.1c0,15.3,8.4,20.2,16,25c0.5,0.3,10.9,7.3,1.1,13.4c-6,3.7-12.7,6.4-14.7,6.4c-1.9,0-103.3,0-103.3,0"/>
</g>
<g>
	
		<circle id="XMLID_81_" fill="#B0EAA4" stroke="#81A878" stroke-width="2" stroke-miterlimit="10" cx="2069.8" cy="-232.4" r="62.5"/>
	<path id="XMLID_122_" fill="#181F66" stroke="#000000" stroke-width="2" stroke-linejoin="round" stroke-miterlimit="10" d="
		M2080-244.5h-2.6l-2.6,0.3l-0.5,4.7h-9.1l-0.6-5h-3.3h-1.8c-8.4,0-13.5,6-13.5,13.9v40.9c0,2.6,0.5,6.2,3.3,6.2h40.9
		c2.8,0,3.8-3.6,3.8-6.2v-40.9C2094-238.5,2088.4-244.5,2080-244.5z"/>
	
		<polygon id="XMLID_121_" fill="#FFFFFF" stroke="#000000" stroke-width="2" stroke-linejoin="round" stroke-miterlimit="10" points="
		2075,-243.5 2075,-245 2075,-249.5 2065,-249.5 2065,-245 2065,-243.5 	"/>
	<polygon id="XMLID_120_" fill="#EACCAC" stroke="#000000" stroke-miterlimit="10" points="2069.9,-197.8 2065.1,-240 2069.9,-243 
		2074.7,-240 	"/>
	<path id="XMLID_119_" fill="#E8701F" stroke="#000000" stroke-miterlimit="10" d="M2072.8-213.4c0.3-13.6-2.2-24.7-2.2-24.7
		l3.1-2.2l-3.8-2l-3.7,2l3.1,2.1c0,0-2.5,11.1-2.2,24.8l2.9,2.6L2072.8-213.4z"/>
	<polygon id="XMLID_118_" fill="#181F66" stroke="#000000" stroke-miterlimit="10" points="2064.6,-245.2 2054.5,-239.3 
		2058.5,-235.5 2054.6,-231.9 2069.6,-197 	"/>
	<polygon id="XMLID_117_" fill="#181F66" stroke="#000000" stroke-miterlimit="10" points="2075.2,-245 2085.5,-239.3 
		2081.5,-235.5 2085.4,-231.9 2070.3,-197 	"/>
	<polygon id="XMLID_116_" fill="#EACCAC" stroke="#000000" stroke-miterlimit="10" points="2064.8,-245 2069.9,-243 2075.2,-245 
		2075.5,-239.6 2069.9,-242.3 2064.5,-239.6 	"/>
	<path id="XMLID_61_" fill="#FFFFFF" stroke="#000000" stroke-width="2" stroke-linejoin="round" stroke-miterlimit="10" d="
		M2069.6-247.2L2069.6-247.2c-6.6,0-12-5.4-12-12v-9.6c0-6.6,5.4-12,12-12l0,0c6.6,0,12,5.4,12,12v9.6
		C2081.5-252.5,2076.1-247.2,2069.6-247.2z"/>
	<path id="XMLID_62_" fill="#FFFFFF" stroke="#000000" stroke-width="2" stroke-linejoin="round" stroke-miterlimit="10" d="
		M2070-263.5c0,0,0,4.1,0,4.9c0,1.6-2.2,1.6-2.2,1.6"/>
	<path id="XMLID_31_" fill="#56320B" stroke="#000000" stroke-width="2" stroke-linejoin="round" stroke-miterlimit="10" d="
		M2068.8-282.6L2068.8-282.6c-6.1,0-11.2,5-11.2,11.2v2.2h11.2c2.6,0,4.6-2.1,4.6-4.6v-4.1C2073.4-280.5,2071.3-282.6,2068.8-282.6z
		"/>
	<path id="XMLID_30_" fill="#56320B" stroke="#000000" stroke-width="2" stroke-linejoin="round" stroke-miterlimit="10" d="
		M2073.4-280.2L2073.4-280.2c4.5,0,8.1,3.7,8.1,8.1v2.9h-3.1c-2.8,0-5-2.3-5-5V-280.2L2073.4-280.2z"/>
</g>
<g>
	<circle id="XMLID_6_" fill="#B0EAA4" stroke="#81A878" stroke-width="2" stroke-miterlimit="10" cx="1728.8" cy="108.6" r="62.5"/>
	<path id="XMLID_110_" fill="#181F66" stroke="#000000" stroke-width="2" stroke-linejoin="round" stroke-miterlimit="10" d="
		M1739,96.5h-2.6l-2.6,0.3l-0.5,4.7h-9.1l-0.6-5h-3.3h-1.8c-8.4,0-13.5,6-13.5,13.9v40.9c0,2.6,0.5,6.2,3.3,6.2h40.9
		c2.8,0,3.8-3.6,3.8-6.2v-40.9C1753,102.5,1747.4,96.5,1739,96.5z"/>
	
		<polygon id="XMLID_109_" fill="#FFFFFF" stroke="#000000" stroke-width="2" stroke-linejoin="round" stroke-miterlimit="10" points="
		1734,97.5 1734,96 1734,91.5 1724,91.5 1724,96 1724,97.5 	"/>
	<polygon id="XMLID_108_" fill="#AAB2F2" stroke="#000000" stroke-miterlimit="10" points="1728.9,143.2 1724.1,101 1728.9,98 
		1733.7,101 	"/>
	<path id="XMLID_107_" fill="#3A50EF" stroke="#000000" stroke-miterlimit="10" d="M1731.8,127.6c0.3-13.6-2.2-24.7-2.2-24.7
		l3.1-2.2l-3.8-2l-3.7,2l3.1,2.1c0,0-2.5,11.1-2.2,24.8l2.9,2.6L1731.8,127.6z"/>
	<polygon id="XMLID_106_" fill="#181F66" stroke="#000000" stroke-miterlimit="10" points="1723.6,95.8 1713.5,101.7 1717.5,105.5 
		1713.6,109.1 1728.6,144 	"/>
	<polygon id="XMLID_102_" fill="#181F66" stroke="#000000" stroke-miterlimit="10" points="1734.2,96 1744.5,101.7 1740.5,105.5 
		1744.4,109.1 1729.3,144 	"/>
	<polygon id="XMLID_27_" fill="#AAB2F2" stroke="#000000" stroke-miterlimit="10" points="1723.8,96 1728.9,98 1734.2,96 
		1734.5,101.4 1728.9,98.7 1723.5,101.4 	"/>
	<path id="XMLID_69_" fill="#FFFFFF" stroke="#000000" stroke-width="2" stroke-linejoin="round" stroke-miterlimit="10" d="
		M1728.9,93.2L1728.9,93.2c-6.7,0-12.2-5.5-12.2-12.2v-9.8c0-6.7,5.5-12.2,12.2-12.2l0,0c6.7,0,12.2,5.5,12.2,12.2V81
		C1741,87.7,1735.6,93.2,1728.9,93.2z"/>
	<path id="XMLID_70_" fill="none" stroke="#000000" stroke-width="2" stroke-linejoin="round" stroke-miterlimit="10" d="M1730,76.5
		c0,0,0,4.2,0,5c0,1.6-2.2,1.6-2.2,1.6"/>
	<path id="XMLID_67_" stroke="#000000" stroke-width="2" stroke-linejoin="round" stroke-miterlimit="10" d="M1732.3,59.1h-6.8
		c-4.8,0-8.8,3.9-8.8,8.8v5.3h2.3v-7l20.2,3.2v3.8h1.9v-5.3C1741.1,63,1737.1,59.1,1732.3,59.1z"/>
</g>
<g>
	<circle id="XMLID_80_" fill="#B0EAA4" stroke="#81A878" stroke-width="2" stroke-miterlimit="10" cx="2024.8" cy="79.6" r="62.5"/>
	<path id="XMLID_130_" fill="#181F66" stroke="#000000" stroke-width="2" stroke-linejoin="round" stroke-miterlimit="10" d="
		M2034.3,64.5h-2.4l-2.4,0.8l-0.5,5.2h-8.5l-0.6-6h-3.1h-1.7c-7.9,0-14.2,7.1-14.2,15.1v41.2c0,2.7,2,4.7,4.6,4.7h38.2
		c2.6,0,5.1-2.1,5.1-4.7V79.6C2049,71.6,2042.2,64.5,2034.3,64.5z"/>
	
		<polygon id="XMLID_129_" fill="#FFFFFF" stroke="#000000" stroke-width="2" stroke-linejoin="round" stroke-miterlimit="10" points="
		2030,67.3 2030,65 2030,59.5 2020,59.5 2020,65 2020,67.3 2025.2,86.3 	"/>
	<polygon id="XMLID_128_" fill="#9BD3CD" stroke="#000000" stroke-miterlimit="10" points="2024.9,112.6 2020.5,70.1 2025.1,84.4 
		2029.4,70.1 	"/>
	<polygon id="XMLID_127_" fill="#181F66" stroke="#000000" stroke-miterlimit="10" points="2020,64.9 2010.5,70.8 2014.2,74.6 
		2010.6,78.3 2024.6,113.4 	"/>
	<polygon id="XMLID_126_" fill="#181F66" stroke="#000000" stroke-miterlimit="10" points="2029.9,65.1 2039.5,70.8 2035.7,74.6 
		2039.4,78.3 2025.2,113.4 	"/>
	<polygon id="XMLID_125_" fill="#9BD3CD" stroke="#000000" stroke-miterlimit="10" points="2020.1,65 2022.2,66.2 2025.1,84.4 
		2020.1,70.5 2015.5,71.2 	"/>
	<path id="XMLID_124_" fill="#9BD3CD" stroke="#000000" stroke-miterlimit="10" d="M2029.8,65l-2,1.1l0,0l-2.7,18.2l4.8-14l0,0
		l4.4,0.7c0,0,0.1,0,0-0.1L2029.8,65C2029.9,65,2029.8,65,2029.8,65z"/>
	<path id="XMLID_77_" fill="#FFFFFF" stroke="#000000" stroke-width="2" stroke-linejoin="round" stroke-miterlimit="10" d="
		M2024.7,60.9L2024.7,60.9c-6.7,0-12.2-5.5-12.2-12.2V39c0-6.7,5.5-12.2,12.2-12.2l0,0c6.7,0,12.2,5.5,12.2,12.2v9.7
		C2036.9,55.4,2031.4,60.9,2024.7,60.9z"/>
	<path id="XMLID_78_" fill="none" stroke="#000000" stroke-width="2" stroke-linejoin="round" stroke-miterlimit="10" d="M2026,44.5
		c0,0,0,3.9,0,4.7c0,1.6-2.2,1.8-2.2,1.8"/>
	<path id="XMLID_75_" fill="#FFCA61" stroke="#000000" stroke-width="2" stroke-linejoin="round" stroke-miterlimit="10" d="
		M2036.6,52.9L2036.6,52.9c2-2,2-10.6,2-10.6v-6.1c0-5.4-4.3-9.7-9.6-9.7h-8.2c-5.5,0-10,4.6-10,10.1v5.7c0,0,0.4,8.3,2.4,10.4l0,0
		c-1.4,1-2.3,2.7-2.1,4.6c0.2,2.2,1.9,4,4.1,4.3c1.8,0.3,3.4-0.5,4.5-1.7c-3-1.4-5.3-4-6.3-7.2l0,0c-0.4-1.2-0.6-2.6-0.6-4v-7
		c3.5-9,13.7-3.6,19.2-9.4c1.8,2.3,4.2,5.6,5.1,10l0.1,6.4c0,1.4-0.8,4-0.8,4c-1.1,3.2-3.5,5.8-6.5,7.2c1,1.2,2.6,1.9,4.4,1.7
		c2.1-0.3,3.9-2.1,4.2-4.3C2038.5,55.6,2037.8,54,2036.6,52.9z"/>
</g>
<g>
	
		<circle id="XMLID_82_" fill="#B0EAA4" stroke="#81A878" stroke-width="2" stroke-miterlimit="10" cx="1807.8" cy="354.6" r="62.5"/>
	<path id="XMLID_114_" fill="#181F66" stroke="#000000" stroke-width="2" stroke-linejoin="round" stroke-miterlimit="10" d="
		M1818,341.5h-2.6l-2.6,0.3l-0.5,4.7h-9.1l-0.6-5h-3.3h-1.8c-8.4,0-13.5,6-13.5,13.9v40.9c0,2.6,0.5,6.2,3.3,6.2h40.9
		c2.8,0,3.8-3.6,3.8-6.2v-40.9C1832,347.5,1826.4,341.5,1818,341.5z"/>
	
		<polygon id="XMLID_113_" fill="#FFFFFF" stroke="#000000" stroke-width="2" stroke-linejoin="round" stroke-miterlimit="10" points="
		1813,342.5 1813,341 1813,336.5 1803,336.5 1803,341 1803,342.5 	"/>
	<polygon id="XMLID_112_" fill="#F2F2F2" stroke="#000000" stroke-miterlimit="10" points="1807.9,388.2 1803.1,346 1807.9,343 
		1812.7,346 	"/>
	<path id="XMLID_111_" fill="#191919" stroke="#000000" stroke-miterlimit="10" d="M1810.8,372.6c0.3-13.6-2.2-24.7-2.2-24.7
		l3.1-2.2l-3.8-2l-3.7,2l3.1,2.1c0,0-2.5,11.1-2.2,24.8l2.9,2.6L1810.8,372.6z"/>
	<polygon id="XMLID_66_" fill="#181F66" stroke="#000000" stroke-miterlimit="10" points="1802.6,340.8 1792.5,346.7 1796.5,350.5 
		1792.6,354.1 1807.6,389 	"/>
	<polygon id="XMLID_65_" fill="#181F66" stroke="#000000" stroke-miterlimit="10" points="1813.2,341 1823.5,346.7 1819.5,350.5 
		1823.4,354.1 1808.3,389 	"/>
	<polygon id="XMLID_64_" fill="#F2F2F2" stroke="#000000" stroke-miterlimit="10" points="1802.8,341 1807.9,343 1813.2,341 
		1813.5,346.4 1807.9,343.7 1802.5,346.4 	"/>
	<path id="XMLID_73_" fill="#FFFFFF" stroke="#000000" stroke-width="2" stroke-linejoin="round" stroke-miterlimit="10" d="
		M1807.9,337.5L1807.9,337.5c-6.6,0-12.1-5.4-12.1-12.1v-9.7c0-6.6,5.4-12.1,12.1-12.1l0,0c6.6,0,12.1,5.4,12.1,12.1v9.7
		C1819.9,332.1,1814.5,337.5,1807.9,337.5z"/>
	<path id="XMLID_74_" fill="none" stroke="#000000" stroke-width="2" stroke-linejoin="round" stroke-miterlimit="10" d="
		M1809,321.5c0,0,0,3.7,0,4.4c0,1.6-2.2,1.8-2.2,1.8"/>
	<path id="XMLID_71_" fill="#8C8C8C" stroke="#000000" stroke-width="2" stroke-linejoin="round" stroke-miterlimit="10" d="
		M1812.6,303.9C1812.5,303.9,1812.5,303.9,1812.6,303.9c-1.8-0.9-3.7-1.4-5.9-1.4c-6.2,0-10.5,4-10.8,8.9c-0.1,2.4-0.1,8.9-0.1,8.9
		s2.4-10.6,5.7-10.6c1.2,0,2.7,1.3,6.7,1.3s6.8-1.3,7.7-1.3c1.6,0,4,10.6,4,10.6s0.1-5.4,0.1-8.3
		C1820.1,307.4,1816.9,303.9,1812.6,303.9z"/>
</g>
</svg>
