<?xml version="1.0" encoding="utf-8"?>
<!-- Generator: Adobe Illustrator 19.0.0, SVG Export Plug-In . SVG Version: 6.00 Build 0)  -->
<svg version="1.0" id="Layer_1" xmlns="http://www.w3.org/2000/svg" xmlns:xlink="http://www.w3.org/1999/xlink" x="0px" y="0px"
	 width="1920px" height="1080px" viewBox="480 -260 1920 1080" enable-background="new 480 -260 1920 1080" xml:space="preserve">
<path id="XMLID_1_" fill="#FFFFFF" stroke="#000000" stroke-width="4" stroke-linejoin="round" stroke-miterlimit="10" d="
	M1419.8,236c-0.8-0.1-2.9,0.3-4.9,1.1c-3.4,1.4-0.5,3.9-0.3,4.1c2.1,1.9,4.5,3.9,3.7,8.7c-1,6.2-6.5,8.2-12.6,7.2
	c-6.2-1-10.7-4.8-9.6-11c0.8-4.8,3.7-5.9,6.3-6.9c0.2-0.1,3.8-1.5,1-3.9c-1.7-1.5-3.2-2.4-4.3-2.6l-1.5-0.3l-19.4-3.3l1.9-11.2
	c0.1-0.8,0.3-4.6-0.5-6.6c-1.4-3.4-3.9-0.5-4.1-0.3c-1.9,2.1-3.9,4.5-8.7,3.7c-6.2-1-8.2-6.5-7.2-12.6c1-6.2,4.8-10.7,11-9.6
	c4.8,0.8,5.9,3.7,6.9,6.3c0.1,0.2,1.5,3.8,3.9,1c1.5-1.7,2.4-4.7,2.6-5.7l0.1-0.6l1.8-11.1l18.9,3.2l2,0.3c0.8,0.1,2.9-0.3,4.9-1.1
	c3.4-1.4,0.5-3.9,0.3-4.1c-2.1-1.9-4.5-3.9-3.7-8.7c1-6.2,6.5-8.2,12.6-7.2c6.2,1,10.7,4.8,9.6,11c-0.8,4.8-3.7,5.9-6.3,6.9
	c-0.2,0.1-3.8,1.5-1,3.9c1.7,1.5,3.2,2.4,4.3,2.6l1.8,0.3l19,3.2l-2.1,12.3l-0.1,0.8c-0.1,0.8,0.3,2.9,1.1,4.9
	c1.4,3.4,3.9,0.5,4.1,0.3c1.9-2.1,3.9-4.5,8.7-3.7c6.2,1,8.2,6.5,7.2,12.6s-4.8,10.7-11,9.6c-4.8-0.8-5.9-3.7-6.9-6.3
	c-0.1-0.2-1.5-3.8-3.9-1c-1.5,1.7-2.4,3.2-2.6,4.3l-0.3,1.7l-1.9,11.4l-20.1-3.4L1419.8,236z"/>
<path id="XMLID_16_" fill="#FFFFFF" stroke="#000000" stroke-width="4" stroke-linejoin="round" stroke-miterlimit="10" d="
	M1482.3,246.8c-0.8-0.1-2.8,0.2-4.9,1.1c-3.4,1.3-0.5,4-0.4,4.1c2.2,1.9,5.1,0.4,4.3,5.2c-1.1,6.2-6.5,8.2-12.7,7.2
	c-6.2-1.1-10.6-4.9-9.6-11c0.8-4.7,3.1-2.4,5.7-3.4c0.2,0,3.8-1.5,1.1-4c-1.7-1.5-3.2-2.5-4.2-2.7l-0.7-0.1l-20.1-3.4l1.9-11.4
	l0.3-1.7c0.2-1,1.2-2.6,2.6-4.3c2.5-2.7,3.9,0.9,4,1c1.1,2.6,2.1,5.5,7,6.3c6.1,1,9.9-3.4,11-9.6c1-6.1-1-11.6-7.2-12.7
	c-4.8-0.8-6.7,1.5-8.7,3.7c-0.2,0.2-2.7,3-4.1-0.4c-0.8-2.1-1.2-4.1-1-4.9l0.4-2.2l1.9-10.8l20.1,3.4l0.7,0.1
	c0.8,0.1,2.8-0.2,4.9-1.1c3.4-1.3,0.5-4,0.3-4.1c-2.1-1.9-5-0.8-4.2-5.5c1.1-6.2,6.5-8.2,12.7-7.2s10.6,4.9,9.6,11
	c-0.8,4.7-3.2,2.7-5.8,3.8c-0.2,0-3.7,1.5-1,4c1.7,1.5,3.2,2.5,4.2,2.7l0.7,0.1l20.1,3.4l-1.9,11.2l-0.3,1.8c-0.1,0.8,0.2,2.9,1,4.9
	c1.4,3.4,4,0.5,4.1,0.4c1.9-2.2,3.9-4.5,8.7-3.7c6.1,1,8.2,6.5,7.2,12.7c-1,6.1-4.9,10.6-11,9.6c-4.8-0.8-5.9-3.7-7-6.3
	c-0.1-0.2-1.5-3.8-4-1c-1.4,1.7-2.4,3.2-2.6,4.3l-0.1,0.7l-2.1,12.3l-20.1-3.4L1482.3,246.8L1482.3,246.8z"/>
<path id="XMLID_2_" fill="#FFFFFF" stroke="#000000" stroke-width="4" stroke-linejoin="round" stroke-miterlimit="10" d="
	M1344.6,174.9c0.8,0.1,2.8-0.2,4.9-1.1c3.4-1.3,0.5-4,0.4-4.1c-2.2-1.9-5-0.8-4.2-5.5c1.1-6.2,6.5-8.2,12.7-7.2
	c6.2,1.1,10.6,4.9,9.6,11c-0.8,4.7-3.2,2.7-5.8,3.8c-0.2,0-3.8,1.5-1.1,4c1.7,1.5,3.2,2.5,4.2,2.7l0.7,0.1l20.1,3.4l-1.9,11.4
	l-0.3,1.7c-0.2,1-1.2,2.6-2.6,4.3c-2.5,2.7-3.9-0.9-4-1c-1.1-2.6-2.1-5.5-7-6.3c-6.1-1-9.9,3.4-11,9.6c-1,6.1,1,11.6,7.2,12.7
	c4.8,0.8,6.7-1.5,8.7-3.7c0.2-0.2,2.7-3,4.1,0.4c0.8,2.1,1.2,4.1,1,4.9l-0.4,2.2L1378,229l-20.1-3.4l-0.7-0.1
	c-0.8-0.1-2.8,0.2-4.9,1.1c-3.4,1.3-0.5,4-0.3,4.1c2.1,1.9,5.1,0.4,4.3,5.2c-1.1,6.2-6.5,8.2-12.7,7.2c-6.1-1-10.6-4.9-9.6-11
	c0.8-4.7,3.1-2.4,5.7-3.4c0.2,0,3.7-1.5,1-4c-1.7-1.5-3.2-2.5-4.2-2.7l-0.7-0.1l-20.1-3.4l1.9-11.2l0.3-1.8c0.1-0.8-0.2-2.9-1-4.9
	c-1.4-3.4-4-0.5-4.1-0.4c-1.9,2.2-3.9,4.5-8.7,3.7c-6.1-1-8.2-6.5-7.2-12.7c1-6.1,4.9-10.6,11-9.6c4.8,0.8,5.9,3.7,7,6.3
	c0.1,0.2,1.5,3.8,4,1c1.4-1.7,2.4-3.2,2.6-4.3l0.1-0.7l2.1-12.3l20.1,3.4L1344.6,174.9L1344.6,174.9z"/>
<path id="XMLID_10_" fill="#FFFFFF" stroke="#000000" stroke-width="4" stroke-linejoin="round" stroke-miterlimit="10" d="
	M1438.4,252.4c-0.2,0.8,0.2,2.9,1.1,4.9c1.4,3.4,4,0.5,4.1,0.3c1.9-2.1,0.8-5,5.6-4.2c6.2,1.1,6.9,6.3,5.8,12.4
	c-1.1,6.2-3.5,10.9-9.6,9.8c-4.8-0.8-2.8-3.2-3.9-5.8c0-0.2-1.6-3.8-4-1.1c-1.5,1.7-2.4,3.2-2.6,4.3l-0.1,0.7l-2.1,12.3l-20.1-3.4
	l-0.7-0.1c-0.8-0.2-2.9,0.2-4.9,1.1c-3.4,1.4-0.5,4-0.3,4.1c2.1,1.9,4.5,3.9,3.7,8.7c-1.1,6.2-6.5,8.3-12.7,7.2s-10.6-4.9-9.6-11
	c0.8-4.8,3.7-5.9,6.3-6.9c0.2,0,3.8-1.6,1.1-4c-1.7-1.5-3.2-2.4-4.3-2.6l-1.8-0.3l-19-3.3l1.8-10.9l0.3-2.1c0.2-0.8-0.2-2.9-1.1-4.9
	c-1.4-3.4-4-0.5-4.1-0.3c-1.9,2.1,0.4,5.2-4.4,4.4c-6.2-1.1-7.4-7.1-6.3-13.3c1.1-6.2,4-10,10.1-8.9c4.8,0.8,1.6,3,2.7,5.6
	c0,0.2,1.6,3.8,4,1.1c1.5-1.7,2.4-3.2,2.6-4.3l0.1-0.7l2.1-12.3l19.2,3.3c1,0.2,4.2,1.7,5.9,3.2c2.8,2.4-0.9,3.9-1.1,4
	c-2.6,1.1-5.5,2.2-6.3,6.9c-1.1,6.1,3.4,9.9,9.6,11s11.6-1,12.7-7.2c0.8-4.8-1.5-6.7-3.7-8.7c-0.1-0.1-3-2.7,0.3-4.1
	c2.1-0.8,4.9-1.3,5.7-1.2l20.1,3.4l-1.9,11.4L1438.4,252.4z"/>
<path id="XMLID_3_" fill="#FFFFFF" stroke="#000000" stroke-width="4" stroke-linejoin="round" stroke-miterlimit="10" d="
	M1388.5,169.2c0.2-0.8-0.2-2.9-1.1-4.9c-1.4-3.4-4-0.5-4.1-0.3c-1.9,2.1-0.2,5.1-5,4.3c-6.2-1.1-6.6-6.2-5.6-12.4
	c1.1-6.2,3.2-10.9,9.3-9.8c4.8,0.8,2.2,3.1,3.3,5.7c0,0.2,1.6,3.8,4,1.1c1.5-1.7,2.4-3.2,2.6-4.3l0.1-0.7l2.1-12.3l20.1,3.4l0.7,0.1
	c0.8,0.2,2.9-0.2,4.9-1.1c3.4-1.4,0.5-4,0.3-4.1c-2.1-1.9-4.5-3.9-3.7-8.7c1.1-6.2,6.5-8.3,12.7-7.2s10.6,4.9,9.6,11
	c-0.8,4.8-3.7,5.9-6.3,6.9c-0.2,0-3.8,1.6-1.1,4c1.7,1.5,3.2,2.4,4.3,2.6l1.8,0.3l19,3.3l-1.8,10.9l-0.3,2.1
	c-0.2,0.8,0.2,2.9,1.1,4.9c1.4,3.4,4,0.5,4.1,0.3c1.9-2.1,0.8-5,5.7-4.2c6.2,1.1,6.9,6.3,5.8,12.4c-1.1,6.2-3.5,10.9-9.6,9.8
	c-4.8-0.8-2.9-3.2-3.9-5.8c0-0.2-1.6-3.8-4-1.1c-1.5,1.7-2.4,3.2-2.6,4.3l-0.1,0.7l-2.1,12.3l-19.2-3.3c-1-0.2-4.2-1.7-5.9-3.2
	c-2.8-2.4,0.9-3.9,1.1-4c2.6-1.1,5.5-2.2,6.3-6.9c1.1-6.1-3.4-9.9-9.6-11s-11.6,1-12.7,7.2c-0.8,4.8,1.5,6.7,3.7,8.7
	c0.1,0.1,3,2.7-0.3,4.1c-2.1,0.8-4.9,1.3-5.7,1.2l-20.1-3.4l1.9-11.4L1388.5,169.2z"/>
</svg>
