<?xml version="1.0" encoding="utf-8"?>
<!-- Generator: Adobe Illustrator 19.0.0, SVG Export Plug-In . SVG Version: 6.00 Build 0)  -->
<svg version="1.0" id="Layer_1" xmlns="http://www.w3.org/2000/svg" xmlns:xlink="http://www.w3.org/1999/xlink" x="0px" y="0px"
	 width="1920px" height="1080px" viewBox="480 -260 1920 1080" enable-background="new 480 -260 1920 1080" xml:space="preserve">
<path id="XMLID_1_" fill="#FFFFFF" stroke="#000000" stroke-width="4" stroke-linejoin="round" stroke-miterlimit="10" d="
	M1423.9,234.6c-0.8,0-2.8,0.8-4.6,1.9c-3.1,2,0.2,3.9,0.4,4.1c2.4,1.5,5.1,3.1,5.1,8c0.1,6.3-5,9.2-11.2,9.2
	c-6.3,0.1-11.4-2.9-11.3-9.2c0-4.9,2.7-6.4,5.1-7.9c0.2-0.1,3.5-2.1,0.3-4c-1.9-1.2-3.6-1.8-4.7-1.8l-1.5,0l-19.7,0l0-11.4
	c0-0.8-0.5-4.6-1.6-6.4c-2-3.1-3.9,0.2-4.1,0.4c-1.5,2.4-3.1,5.1-8,5.1c-6.3,0.1-9.2-5-9.2-11.2c-0.1-6.3,2.9-11.4,9.2-11.3
	c4.9,0,6.4,2.7,7.9,5.1c0.1,0.2,2.1,3.5,4,0.3c1.2-1.9,1.6-5,1.6-6.1l0-0.6l-0.1-11.2l19.2,0l2,0c0.8,0,2.8-0.8,4.6-1.9
	c3.1-2-0.2-3.9-0.4-4.1c-2.4-1.5-5.1-3.1-5.1-8c-0.1-6.3,5-9.2,11.2-9.2c6.3-0.1,11.4,2.9,11.3,9.2c0,4.9-2.7,6.4-5.1,7.9
	c-0.2,0.1-3.5,2.1-0.3,4c1.9,1.2,3.6,1.8,4.7,1.8l1.8,0l19.3,0l0,12.5l0,0.8c0,0.8,0.8,2.8,1.9,4.6c2,3.1,3.9-0.2,4.1-0.4
	c1.5-2.4,3.1-5.1,8-5.1c6.3-0.1,9.2,5,9.2,11.2c0,6.2-2.9,11.4-9.2,11.3c-4.9,0-6.4-2.7-7.9-5.1c-0.1-0.2-2.1-3.5-4-0.3
	c-1.2,1.9-1.8,3.6-1.8,4.7l0,1.7l0,11.6l-20.4,0L1423.9,234.6z"/>
</svg>
