<?xml version="1.0" encoding="utf-8"?>
<!-- Generator: Adobe Illustrator 19.0.0, SVG Export Plug-In . SVG Version: 6.00 Build 0)  -->
<svg version="1.0" id="Layer_2" xmlns="http://www.w3.org/2000/svg" xmlns:xlink="http://www.w3.org/1999/xlink" x="0px" y="0px"
	 width="1920px" height="1351.9px" viewBox="480 -260 1920 1351.9" enable-background="new 480 -260 1920 1351.9"
	 xml:space="preserve">
<g>
	<path d="M1282.4,888.3c-5.3-8-7.1-17.9-4.9-27.2c1.6-7.4,4.9-14.3,9.5-20.2c4.7-6.1,10.7-11,17.6-14.4c9.4-4.8,20.4-5.8,30.6-2.7
		c2.3-9.6,8.3-18,16.7-23.2c7.6-4.9,16.2-8.1,25.2-9.3c9-1.4,18.2-1,27,1.2c10.7,2.8,20.1,8.2,25.7,16.7c8.9-6.4,19.9-9.3,30.8-8.1
		c8.7,0.7,17.2,3.2,25,7.3c7.6,3.8,14.3,9.4,19.4,16.2c5.3,7,7.8,15.8,6.9,24.6c13.6,0.9,25.6,9,31.5,21.3
		c2.8,5.6,4.6,11.6,5.1,17.8c0.6,6.3-0.1,12.6-2,18.6c-4.3,13.7-15,25.2-33.4,28.6c0.3,7.1-1.3,14.1-4.8,20.3
		c-5,8.7-12.2,16-20.9,21c-9.2,5.4-19.7,8.3-30.4,8.4c-11.5,0-22.7-3.7-31.9-10.6c-9.3,8.1-25.2,12.1-40.9,11.7
		c-6.7-0.1-13.4-1-19.8-2.7c-6.1-1.5-11.8-4.2-16.9-7.8c-5-3.5-8.6-8.5-10.4-14.3c-17.7,3.9-32.2,1.1-43.1-5.3
		c-14.1-8.4-22.7-23.7-22.6-40.1C1271.5,905.8,1275.4,895.9,1282.4,888.3z"/>
	<path fill="#FFFFFF" d="M1288.4,863.3c-1.8,7.6,0.2,15.6,5.4,21.4l0.4,0.5c1.9,2.4,1.6,5.9-0.8,7.8c0,0,0,0,0,0
		c-6.9,5.7-10.8,14.1-10.8,23c-0.1,12.5,6.4,24.1,17.2,30.5c9.5,5.7,23.2,7.7,40.5,2.5c0.5-0.1,1.1-0.2,1.6-0.2
		c3.1,0.1,5.5,2.6,5.5,5.7c0,0,0,0.1,0,0.1c0.1,4.9,2.6,9.5,6.7,12.1c4,2.8,8.5,4.8,13.2,5.9c5.6,1.5,11.3,2.3,17.1,2.4
		c15,0.3,29.8-3.5,35.7-11.5l0.3-0.3c2-2.3,5.5-2.6,7.8-0.6c0,0,0,0,0,0c7.9,7.1,18.2,11,28.8,11c8.7-0.1,17.2-2.4,24.7-6.9
		c7-4,12.7-9.7,16.7-16.7c3.2-5.5,4.3-12,3-18.2c-0.1-0.4-0.2-0.7-0.2-1.1c-0.2-3.1,2.1-5.7,5.1-6c0,0,0,0,0,0
		c16.4-1.2,25.9-10.4,29.4-21.4c2.8-9.3,2-19.3-2.4-27.9c-5.1-10.6-16.4-16.7-28-15.1c-3.1,0.3-5.8-1.9-6.1-4.9
		c-0.1-0.8,0-1.6,0.3-2.4c2.5-7.5,1.1-15.8-3.7-22.1c-4.1-5.4-9.4-9.9-15.5-12.9c-6.4-3.3-13.4-5.4-20.6-6
		c-10.6-0.8-20.9,2-27.3,9.7c-0.6,0.8-1.5,1.4-2.4,1.7c-2.9,1-6.1-0.5-7.1-3.4c0,0,0,0,0-0.1c-3-8.7-11.4-14.3-21.6-16.9
		c-7.4-1.8-15.2-2.1-22.7-1c-7.3,0.9-14.4,3.5-20.6,7.5c-7.6,4.6-12.4,12.8-12.7,21.7c0.1,1-0.2,1.9-0.6,2.8
		c-1.4,2.7-4.7,3.8-7.5,2.4c0,0,0,0,0,0c-8.7-4.6-19.1-4.7-27.8-0.1c-5.4,2.7-10,6.6-13.7,11.3
		C1292.2,852.3,1289.6,857.6,1288.4,863.3L1288.4,863.3z"/>
</g>
<g>
	<path d="M1395.8,885c0.2,0.1,0.5,0.3,0.7,0.4l0.1,0.1c0.5,0.4,1,0.8,1.4,1.4c0.4,0.5,0.7,1.1,0.9,1.8l0,0c0.2,0.6,0.3,1.3,0.2,2
		c0,0.7-0.2,1.4-0.4,2l0,0c-0.1,0.3-0.3,0.7-0.4,1c-0.2,0.3-0.3,0.6-0.5,0.9c-0.8,1.1-1.9,2.1-3.1,2.7c-1.1,0.6-2.3,1.2-3.5,1.7
		c-9.5,3.9-18.9,8.6-28.4,12.4c-0.3,0.1-0.7,0.2-1,0.2l0,0c-0.4,0-0.9-0.1-1.3-0.3l-0.4-0.3c-0.1-0.1-0.3-0.3-0.3-0.5l-0.1-0.2
		l-0.1-0.3c0-0.1,0-0.3,0-0.4l0,0c0-0.5,0.2-0.9,0.5-1.3l0,0c0.2-0.3,0.4-0.5,0.7-0.7c8.4-7,17.2-13.6,25.7-20.4
		c0.6-0.5,1.2-0.9,1.8-1.3c0.6-0.4,1.3-0.7,1.9-1h0.1c0.7-0.3,1.4-0.4,2.1-0.4c0.7,0,1.5,0.1,2.2,0.3h0.1
		C1395.2,884.8,1395.5,884.9,1395.8,885L1395.8,885z"/>
	<path d="M1381.4,941.4h17.1l6.4-43.9c0.1-0.8,0.8-1.5,1.6-1.5h6c0.8,0,1.5,0.6,1.6,1.4l7.4,44h17.2c0.5,0,0.9,0.4,0.9,0.9v6.7
		c0,0.5-0.4,0.9-0.9,0.9h-57.2c-0.5,0-0.9-0.4-0.9-0.9v-6.7C1380.5,941.8,1380.9,941.4,1381.4,941.4z"/>
	<path d="M1413.4,875.3c1.1,0.4,2,1.1,2.9,1.9c1.6,1.6,2.5,3.8,2.6,6.1v0.2c0,2.3-0.9,4.6-2.6,6.2c-0.8,0.8-1.8,1.5-2.9,1.9
		c-4.5,1.9-9.6-0.2-11.5-4.7c0,0,0,0,0,0c-0.9-2.2-0.9-4.6,0-6.8c0.4-1.1,1.1-2,1.9-2.9l0,0c0.8-0.8,1.8-1.5,2.9-1.9
		C1408.8,874.4,1411.2,874.4,1413.4,875.3L1413.4,875.3z"/>
	<path d="M1413.4,870.7c-0.3,0.2-0.5,0.3-0.8,0.5c-0.6,0.3-1.3,0.5-1.9,0.5c-0.6,0.1-1.3,0-1.9-0.2h-0.1c-0.6-0.2-1.2-0.5-1.8-0.8
		c-0.5-0.3-1-0.8-1.4-1.2l-0.1-0.1c-0.2-0.3-0.4-0.5-0.6-0.8c-0.2-0.3-0.3-0.6-0.5-0.9l0,0c-1.2-2.5-0.8-5.2-0.4-7.8
		c1.8-10,2.3-20.8,4.1-30.8c0.1-0.3,0.2-0.6,0.3-0.9v-0.1c0.2-0.4,0.5-0.6,0.8-0.9h0.1c0.2-0.1,0.3-0.1,0.5-0.2c0.1,0,0.3,0,0.4,0
		c0.2,0,0.4-0.1,0.7,0l0.3,0.2c0.4,0.2,0.7,0.6,0.9,1l0.1,0.1c0.1,0.3,0.2,0.7,0.3,1.1c1.8,10.2,2.7,21.8,4,32.1c0,0.1,0,0.2,0,0.4
		l0,0c0.1,0.7,0.2,1.4,0.2,2.1c0,0.8,0,1.5-0.1,2.3v0.1c-0.1,0.7-0.4,1.4-0.7,2c-0.4,0.7-0.9,1.3-1.5,1.8
		C1413.9,870.4,1413.6,870.5,1413.4,870.7L1413.4,870.7z"/>
	<path d="M1420.4,891.7c0-0.3,0-0.6,0-0.9c0-0.7,0.2-1.4,0.5-2c0.2-0.6,0.6-1.1,1-1.5l0.1-0.1c0.5-0.5,1-0.9,1.6-1.1
		c0.6-0.3,1.2-0.5,1.8-0.6h0.1c0.3-0.1,0.7-0.1,1-0.1c0.3,0,0.7,0,1,0h0.1c1.4,0.1,2.7,0.6,3.9,1.3c1.1,0.7,2.2,1.4,3.2,2.3
		c8.1,6.3,16.3,12.5,24.5,18.8l0.1,0.1c0.2,0.2,0.4,0.5,0.6,0.8c0.2,0.4,0.3,0.7,0.3,1.1v0.3v0.2c0,0.2-0.1,0.4-0.2,0.6
		c-0.1,0.2-0.2,0.3-0.4,0.4l-0.1,0.1c-0.1,0.1-0.2,0.1-0.3,0.2c-0.4,0.2-0.9,0.3-1.4,0.2c-0.3,0-0.7-0.1-1-0.3l-30.1-12.6
		c-0.7-0.3-1.4-0.6-2.1-1c-0.7-0.3-1.3-0.7-1.9-1.2h-0.1c-1.2-1-2-2.3-2.2-3.8C1420.4,892.4,1420.4,892.1,1420.4,891.7L1420.4,891.7
		z"/>
</g>
<g>
	<g>
		<line fill="none" stroke="#F6C32E" stroke-width="5" stroke-miterlimit="10" x1="1412.8" y1="265.7" x2="1412.8" y2="92.3"/>
		<g>
			<polygon fill="#F6C32E" points="1412.8,57 1433.1,106.7 1412.8,94.9 1392.5,106.7 			"/>
		</g>
	</g>
</g>
<g>
	<g>
		<line fill="none" stroke="#4C4C4C" stroke-width="5" stroke-miterlimit="10" x1="1412" y1="790.4" x2="1412" y2="780.4"/>
		
			<line fill="none" stroke="#4C4C4C" stroke-width="5" stroke-miterlimit="10" stroke-dasharray="19.9808,19.9808" x1="1412" y1="760.4" x2="1412" y2="610.5"/>
		<line fill="none" stroke="#4C4C4C" stroke-width="5" stroke-miterlimit="10" x1="1412" y1="600.6" x2="1412" y2="590.6"/>
		<g>
			<polygon fill="#4C4C4C" points="1412,555.3 1432.4,605 1412,593.2 1391.7,605 			"/>
		</g>
	</g>
</g>
<polyline fill="none" stroke="#F6C32E" stroke-width="5" stroke-miterlimit="10" points="874,265.7 874.7,179 1412.8,179 "/>
<g>
	<g>
		<polyline fill="none" stroke="#F6C32E" stroke-width="5" stroke-miterlimit="10" points="1951.1,230.4 1950.6,179 1412.6,179 		
			"/>
		<g>
			<polygon fill="#F6C32E" points="1951.4,265.7 1971.3,215.8 1951,227.8 1930.6,216.1 			"/>
		</g>
	</g>
</g>
<ellipse fill="#FFFFFF" stroke="#000000" stroke-width="3" stroke-miterlimit="10" cx="874.7" cy="428.7" rx="244.8" ry="122.4"/>
<g id="_x3C_Group_x3E__2_">
	<path d="M844.4,265.7h59.2c1.7,0,3.2,1.4,3.2,3.2v56.8c0,1.7-1.4,3.2-3.2,3.2H899v2.7c0,0.9-0.7,1.6-1.6,1.6h-3.6v4.5
		c0,0.3-0.3,0.6-0.6,0.6h-4.6c-0.6,0-1.2-0.5-1.2-1.2v-4h-4.7v4.5c0,0.3-0.3,0.6-0.6,0.6h-4.6c-0.6,0-1.2-0.5-1.2-1.2v-4h-4.7v4.5
		c0,0.3-0.3,0.6-0.6,0.6h-4.6c-0.6,0-1.2-0.5-1.2-1.2v-4h-4.7v4.5c0,0.3-0.3,0.6-0.6,0.6h-4.6c-0.6,0-1.2-0.5-1.2-1.2v-4h-3.7
		c-0.9,0-1.6-0.7-1.6-1.6v-2.7h-4.6c-1.7,0-3.2-1.4-3.2-3.2v-56.8C841.2,267.1,842.6,265.7,844.4,265.7L844.4,265.7z"/>
	<path fill="#FFFFFF" d="M849.6,271.2h48.7c1.7,0,3.2,1.4,3.2,3.2v46.1c0,1.7-1.4,3.2-3.2,3.2h-48.7c-1.7,0-3.2-1.4-3.2-3.2v-46.1
		C846.5,272.6,847.9,271.2,849.6,271.2L849.6,271.2z"/>
	<path d="M853.1,280.4h41.8c0.5,0,0.9,0.2,1.2,0.5c0.3,0.3,0.5,0.7,0.5,1.2v7.6c0,0.5-0.2,0.9-0.5,1.2c-0.3,0.3-0.7,0.5-1.2,0.5
		h-41.8c-0.5,0-0.9-0.2-1.2-0.5c-0.3-0.3-0.5-0.7-0.5-1.2v-7.6c0-0.5,0.2-0.9,0.5-1.2C852.2,280.6,852.6,280.4,853.1,280.4z"/>
	<path fill="#FFFFFF" d="M887.8,281.8v8.3h7.1c0.1,0,0.2,0,0.3-0.1c0.1-0.1,0.1-0.2,0.1-0.3v-7.6c0-0.1,0-0.2-0.1-0.3
		c-0.1-0.1-0.2-0.1-0.3-0.1C894.9,281.8,887.8,281.8,887.8,281.8z"/>
	<rect x="879" y="281.8" fill="#FFFFFF" width="7.4" height="8.3"/>
	<rect x="870.3" y="281.8" fill="#FFFFFF" width="7.4" height="8.3"/>
	<rect x="861.5" y="281.8" fill="#FFFFFF" width="7.4" height="8.3"/>
	<path fill="#FFFFFF" d="M860.1,290.1v-8.3h-7c-0.1,0-0.2,0-0.3,0.1c-0.1,0.1-0.1,0.2-0.1,0.3v7.6c0,0.1,0,0.2,0.1,0.3
		c0.1,0.1,0.2,0.1,0.3,0.1H860.1z"/>
	<path d="M875.7,310.3h2.2c0.3,0,0.6,0.3,0.6,0.6c0,0.1,0,0.2-0.1,0.3l-5.3,9.1c-0.1,0.2-0.3,0.3-0.5,0.3c-0.3,0-0.6-0.3-0.6-0.6
		c0,0,0-0.1,0-0.1l0.8-5.6l-2.7,0c0,0,0,0,0,0c-0.3,0-0.6-0.3-0.6-0.6c0,0,0,0,0,0c0-0.1,0-0.2,0.1-0.3l5.3-9.1
		c0.1-0.2,0.3-0.3,0.5-0.3c0.3,0,0.6,0.3,0.6,0.6c0,0,0,0.1,0,0.1L875.7,310.3z"/>
	<ellipse cx="897.1" cy="275.6" rx="1.5" ry="1.6"/>
	<ellipse cx="850.9" cy="275.6" rx="1.5" ry="1.6"/>
	<ellipse cx="850.9" cy="319.3" rx="1.5" ry="1.6"/>
	<ellipse cx="897.1" cy="319.3" rx="1.5" ry="1.6"/>
	<path d="M891.6,288.5c-0.4,0-0.8-0.1-1-0.4c-0.3-0.3-0.4-0.6-0.4-1.1v-2.1c0-0.4,0.1-0.8,0.4-1.1c0.3-0.3,0.6-0.4,1-0.4
		c0.4,0,0.8,0.1,1,0.4s0.4,0.6,0.4,1.1v2.1c0,0.4-0.1,0.8-0.4,1.1C892.4,288.3,892,288.5,891.6,288.5z"/>
	<path fill="#FFFFFF" d="M891.6,287.5c0.1,0,0.2,0,0.2-0.1c0-0.1,0.1-0.2,0.1-0.3v-2.3c0-0.1,0-0.2-0.1-0.3c0-0.1-0.1-0.1-0.2-0.1
		c-0.1,0-0.2,0-0.2,0.1c0,0.1-0.1,0.2-0.1,0.3v2.3c0,0.1,0,0.2,0.1,0.3C891.4,287.4,891.5,287.5,891.6,287.5z"/>
	<path d="M882.9,288.5c-0.4,0-0.8-0.1-1-0.4c-0.3-0.3-0.4-0.6-0.4-1.1v-2.1c0-0.4,0.1-0.8,0.4-1.1c0.3-0.3,0.6-0.4,1-0.4
		c0.4,0,0.8,0.1,1,0.4s0.4,0.6,0.4,1.1v2.1c0,0.4-0.1,0.8-0.4,1.1C883.7,288.3,883.4,288.5,882.9,288.5z"/>
	<path fill="#FFFFFF" d="M882.9,287.5c0.1,0,0.2,0,0.2-0.1c0-0.1,0.1-0.2,0.1-0.3v-2.3c0-0.1,0-0.2-0.1-0.3c0-0.1-0.1-0.1-0.2-0.1
		c-0.1,0-0.2,0-0.2,0.1c0,0.1-0.1,0.2-0.1,0.3v2.3c0,0.1,0,0.2,0.1,0.3C882.8,287.4,882.8,287.5,882.9,287.5z"/>
	<path d="M873.9,288.5c-0.4,0-0.8-0.1-1-0.4c-0.3-0.3-0.4-0.6-0.4-1.1v-2.1c0-0.4,0.1-0.8,0.4-1.1c0.3-0.3,0.6-0.4,1-0.4
		c0.4,0,0.8,0.1,1,0.4c0.3,0.3,0.4,0.6,0.4,1.1v2.1c0,0.4-0.1,0.8-0.4,1.1C874.7,288.3,874.3,288.5,873.9,288.5z"/>
	<path fill="#FFFFFF" d="M873.9,287.5c0.1,0,0.2,0,0.2-0.1c0-0.1,0.1-0.2,0.1-0.3v-2.3c0-0.1,0-0.2-0.1-0.3c0-0.1-0.1-0.1-0.2-0.1
		c-0.1,0-0.2,0-0.2,0.1c0,0.1-0.1,0.2-0.1,0.3v2.3c0,0.1,0,0.2,0.1,0.3C873.7,287.4,873.8,287.5,873.9,287.5z"/>
	<path d="M865.2,288.5c-0.4,0-0.8-0.1-1-0.4c-0.3-0.3-0.4-0.6-0.4-1.1v-2.1c0-0.4,0.1-0.8,0.4-1.1c0.3-0.3,0.6-0.4,1-0.4
		c0.4,0,0.8,0.1,1,0.4s0.4,0.6,0.4,1.1v2.1c0,0.4-0.1,0.8-0.4,1.1C866,288.3,865.6,288.5,865.2,288.5z"/>
	<path fill="#FFFFFF" d="M865.2,287.5c0.1,0,0.2,0,0.2-0.1c0-0.1,0.1-0.2,0.1-0.3v-2.3c0-0.1,0-0.2-0.1-0.3c0-0.1-0.1-0.1-0.2-0.1
		c-0.1,0-0.2,0-0.2,0.1c0,0.1-0.1,0.2-0.1,0.3v2.3c0,0.1,0,0.2,0.1,0.3C865,287.4,865.1,287.5,865.2,287.5z"/>
	<path d="M856.5,288.5c-0.4,0-0.8-0.1-1-0.4c-0.3-0.3-0.4-0.6-0.4-1.1v-2.1c0-0.4,0.1-0.8,0.4-1.1c0.3-0.3,0.6-0.4,1-0.4
		c0.4,0,0.8,0.1,1,0.4c0.3,0.3,0.4,0.6,0.4,1.1v2.1c0,0.4-0.1,0.8-0.4,1.1C857.3,288.3,856.9,288.5,856.5,288.5z"/>
	<path fill="#FFFFFF" d="M856.5,287.5c0.1,0,0.2,0,0.2-0.1c0-0.1,0.1-0.2,0.1-0.3v-2.3c0-0.1,0-0.2-0.1-0.3c0-0.1-0.1-0.1-0.2-0.1
		s-0.2,0-0.2,0.1c0,0.1-0.1,0.2-0.1,0.3v2.3c0,0.1,0,0.2,0.1,0.3C856.3,287.4,856.4,287.5,856.5,287.5z"/>
	<path d="M864.8,302c-0.6,0-1.1-0.5-1.1-1.1s0.5-1.1,1.1-1.1h18.3c0.6,0,1.1,0.5,1.1,1.1s-0.5,1.1-1.1,1.1H864.8z"/>
	<path d="M857.7,296.5c-0.6,0-1.1-0.5-1.1-1.1s0.5-1.1,1.1-1.1h32.6c0.6,0,1.1,0.5,1.1,1.1s-0.5,1.1-1.1,1.1H857.7z"/>
</g>
<ellipse fill="#FFFFFF" stroke="#000000" stroke-width="3" stroke-miterlimit="10" cx="1412.8" cy="428.7" rx="244.8" ry="122.4"/>
<g id="_x3C_Group_x3E__1_">
	<path d="M1382.4,265.7h59.2c1.7,0,3.2,1.4,3.2,3.2v56.8c0,1.7-1.4,3.2-3.2,3.2h-4.6v2.7c0,0.9-0.7,1.6-1.6,1.6h-3.6v4.5
		c0,0.3-0.3,0.6-0.6,0.6h-4.6c-0.6,0-1.2-0.5-1.2-1.2v-4h-4.7v4.5c0,0.3-0.3,0.6-0.6,0.6h-4.6c-0.6,0-1.2-0.5-1.2-1.2v-4h-4.7v4.5
		c0,0.3-0.3,0.6-0.6,0.6h-4.6c-0.6,0-1.2-0.5-1.2-1.2v-4h-4.7v4.5c0,0.3-0.3,0.6-0.6,0.6h-4.6c-0.6,0-1.2-0.5-1.2-1.2v-4h-3.7
		c-0.9,0-1.6-0.7-1.6-1.6v-2.7h-4.6c-1.7,0-3.2-1.4-3.2-3.2v-56.8C1379.3,267.1,1380.7,265.7,1382.4,265.7L1382.4,265.7z"/>
	<path fill="#FFFFFF" d="M1387.7,271.2h48.7c1.7,0,3.2,1.4,3.2,3.2v46.1c0,1.7-1.4,3.2-3.2,3.2h-48.7c-1.7,0-3.2-1.4-3.2-3.2v-46.1
		C1384.5,272.6,1385.9,271.2,1387.7,271.2L1387.7,271.2z"/>
	<path d="M1391.2,280.4h41.8c0.5,0,0.9,0.2,1.2,0.5c0.3,0.3,0.5,0.7,0.5,1.2v7.6c0,0.5-0.2,0.9-0.5,1.2c-0.3,0.3-0.7,0.5-1.2,0.5
		h-41.8c-0.5,0-0.9-0.2-1.2-0.5c-0.3-0.3-0.5-0.7-0.5-1.2v-7.6c0-0.5,0.2-0.9,0.5-1.2C1390.2,280.6,1390.7,280.4,1391.2,280.4z"/>
	<path fill="#FFFFFF" d="M1425.9,281.8v8.3h7.1c0.1,0,0.2,0,0.3-0.1c0.1-0.1,0.1-0.2,0.1-0.3v-7.6c0-0.1,0-0.2-0.1-0.3
		c-0.1-0.1-0.2-0.1-0.3-0.1C1432.9,281.8,1425.9,281.8,1425.9,281.8z"/>
	<rect x="1417.1" y="281.8" fill="#FFFFFF" width="7.4" height="8.3"/>
	<rect x="1408.3" y="281.8" fill="#FFFFFF" width="7.4" height="8.3"/>
	<rect x="1399.6" y="281.8" fill="#FFFFFF" width="7.4" height="8.3"/>
	<path fill="#FFFFFF" d="M1398.2,290.1v-8.3h-7c-0.1,0-0.2,0-0.3,0.1c-0.1,0.1-0.1,0.2-0.1,0.3v7.6c0,0.1,0,0.2,0.1,0.3
		c0.1,0.1,0.2,0.1,0.3,0.1H1398.2z"/>
	<path d="M1413.7,310.3h2.2c0.3,0,0.6,0.3,0.6,0.6c0,0.1,0,0.2-0.1,0.3l-5.3,9.1c-0.1,0.2-0.3,0.3-0.5,0.3c-0.3,0-0.6-0.3-0.6-0.6
		c0,0,0-0.1,0-0.1l0.8-5.6l-2.7,0c0,0,0,0,0,0c-0.3,0-0.6-0.3-0.6-0.6c0,0,0,0,0,0c0-0.1,0-0.2,0.1-0.3l5.3-9.1
		c0.1-0.2,0.3-0.3,0.5-0.3c0.3,0,0.6,0.3,0.6,0.6c0,0,0,0.1,0,0.1L1413.7,310.3z"/>
	<ellipse cx="1435.2" cy="275.6" rx="1.5" ry="1.6"/>
	<ellipse cx="1388.9" cy="275.6" rx="1.5" ry="1.6"/>
	<ellipse cx="1388.9" cy="319.3" rx="1.5" ry="1.6"/>
	<ellipse cx="1435.2" cy="319.3" rx="1.5" ry="1.6"/>
	<path d="M1429.7,288.5c-0.4,0-0.8-0.1-1-0.4c-0.3-0.3-0.4-0.6-0.4-1.1v-2.1c0-0.4,0.1-0.8,0.4-1.1c0.3-0.3,0.6-0.4,1-0.4
		c0.4,0,0.8,0.1,1,0.4s0.4,0.6,0.4,1.1v2.1c0,0.4-0.1,0.8-0.4,1.1C1430.4,288.3,1430.1,288.5,1429.7,288.5z"/>
	<path fill="#FFFFFF" d="M1429.7,287.5c0.1,0,0.2,0,0.2-0.1c0-0.1,0.1-0.2,0.1-0.3v-2.3c0-0.1,0-0.2-0.1-0.3c0-0.1-0.1-0.1-0.2-0.1
		c-0.1,0-0.2,0-0.2,0.1c0,0.1-0.1,0.2-0.1,0.3v2.3c0,0.1,0,0.2,0.1,0.3C1429.5,287.4,1429.6,287.5,1429.7,287.5z"/>
	<path d="M1421,288.5c-0.4,0-0.8-0.1-1-0.4c-0.3-0.3-0.4-0.6-0.4-1.1v-2.1c0-0.4,0.1-0.8,0.4-1.1s0.6-0.4,1-0.4c0.4,0,0.8,0.1,1,0.4
		c0.3,0.3,0.4,0.6,0.4,1.1v2.1c0,0.4-0.1,0.8-0.4,1.1C1421.8,288.3,1421.4,288.5,1421,288.5z"/>
	<path fill="#FFFFFF" d="M1421,287.5c0.1,0,0.2,0,0.2-0.1c0-0.1,0.1-0.2,0.1-0.3v-2.3c0-0.1,0-0.2-0.1-0.3c0-0.1-0.1-0.1-0.2-0.1
		c-0.1,0-0.2,0-0.2,0.1c0,0.1-0.1,0.2-0.1,0.3v2.3c0,0.1,0,0.2,0.1,0.3C1420.8,287.4,1420.9,287.5,1421,287.5z"/>
	<path d="M1411.9,288.5c-0.4,0-0.8-0.1-1-0.4c-0.3-0.3-0.4-0.6-0.4-1.1v-2.1c0-0.4,0.1-0.8,0.4-1.1s0.6-0.4,1-0.4
		c0.4,0,0.8,0.1,1,0.4c0.3,0.3,0.4,0.6,0.4,1.1v2.1c0,0.4-0.1,0.8-0.4,1.1C1412.7,288.3,1412.4,288.5,1411.9,288.5z"/>
	<path fill="#FFFFFF" d="M1411.9,287.5c0.1,0,0.2,0,0.2-0.1c0-0.1,0.1-0.2,0.1-0.3v-2.3c0-0.1,0-0.2-0.1-0.3c0-0.1-0.1-0.1-0.2-0.1
		c-0.1,0-0.2,0-0.2,0.1c0,0.1-0.1,0.2-0.1,0.3v2.3c0,0.1,0,0.2,0.1,0.3C1411.8,287.4,1411.8,287.5,1411.9,287.5z"/>
	<path d="M1403.2,288.5c-0.4,0-0.8-0.1-1-0.4c-0.3-0.3-0.4-0.6-0.4-1.1v-2.1c0-0.4,0.1-0.8,0.4-1.1s0.6-0.4,1-0.4
		c0.4,0,0.8,0.1,1,0.4c0.3,0.3,0.4,0.6,0.4,1.1v2.1c0,0.4-0.1,0.8-0.4,1.1C1404,288.3,1403.7,288.5,1403.2,288.5z"/>
	<path fill="#FFFFFF" d="M1403.2,287.5c0.1,0,0.2,0,0.2-0.1c0-0.1,0.1-0.2,0.1-0.3v-2.3c0-0.1,0-0.2-0.1-0.3c0-0.1-0.1-0.1-0.2-0.1
		c-0.1,0-0.2,0-0.2,0.1c0,0.1-0.1,0.2-0.1,0.3v2.3c0,0.1,0,0.2,0.1,0.3C1403.1,287.4,1403.1,287.5,1403.2,287.5z"/>
	<path d="M1394.6,288.5c-0.4,0-0.8-0.1-1-0.4c-0.3-0.3-0.4-0.6-0.4-1.1v-2.1c0-0.4,0.1-0.8,0.4-1.1s0.6-0.4,1-0.4
		c0.4,0,0.8,0.1,1,0.4s0.4,0.6,0.4,1.1v2.1c0,0.4-0.1,0.8-0.4,1.1C1395.3,288.3,1395,288.5,1394.6,288.5z"/>
	<path fill="#FFFFFF" d="M1394.6,287.5c0.1,0,0.2,0,0.2-0.1c0-0.1,0.1-0.2,0.1-0.3v-2.3c0-0.1,0-0.2-0.1-0.3c0-0.1-0.1-0.1-0.2-0.1
		s-0.2,0-0.2,0.1c0,0.1-0.1,0.2-0.1,0.3v2.3c0,0.1,0,0.2,0.1,0.3C1394.4,287.4,1394.5,287.5,1394.6,287.5z"/>
	<path d="M1402.9,302c-0.6,0-1.1-0.5-1.1-1.1s0.5-1.1,1.1-1.1h18.3c0.6,0,1.1,0.5,1.1,1.1s-0.5,1.1-1.1,1.1H1402.9z"/>
	<path d="M1395.7,296.5c-0.6,0-1.1-0.5-1.1-1.1s0.5-1.1,1.1-1.1h32.6c0.6,0,1.1,0.5,1.1,1.1s-0.5,1.1-1.1,1.1H1395.7z"/>
</g>
<ellipse fill="#FFFFFF" stroke="#000000" stroke-width="3" stroke-miterlimit="10" cx="1951.1" cy="428.7" rx="244.8" ry="122.4"/>
<g id="_x3C_Group_x3E__3_">
	<path d="M1920.8,265.7h59.2c1.7,0,3.2,1.4,3.2,3.2v56.8c0,1.7-1.4,3.2-3.2,3.2h-4.6v2.7c0,0.9-0.7,1.6-1.6,1.6h-3.6v4.5
		c0,0.3-0.3,0.6-0.6,0.6h-4.6c-0.6,0-1.2-0.5-1.2-1.2v-4h-4.7v4.5c0,0.3-0.3,0.6-0.6,0.6h-4.6c-0.6,0-1.2-0.5-1.2-1.2v-4h-4.7v4.5
		c0,0.3-0.3,0.6-0.6,0.6h-4.6c-0.6,0-1.2-0.5-1.2-1.2v-4h-4.7v4.5c0,0.3-0.3,0.6-0.6,0.6h-4.6c-0.6,0-1.2-0.5-1.2-1.2v-4h-3.7
		c-0.9,0-1.6-0.7-1.6-1.6v-2.7h-4.6c-1.7,0-3.2-1.4-3.2-3.2v-56.8C1917.6,267.1,1919,265.7,1920.8,265.7L1920.8,265.7z"/>
	<path fill="#FFFFFF" d="M1926,271.2h48.7c1.7,0,3.2,1.4,3.2,3.2v46.1c0,1.7-1.4,3.2-3.2,3.2H1926c-1.7,0-3.2-1.4-3.2-3.2v-46.1
		C1922.9,272.6,1924.3,271.2,1926,271.2L1926,271.2z"/>
	<path d="M1929.5,280.4h41.8c0.5,0,0.9,0.2,1.2,0.5c0.3,0.3,0.5,0.7,0.5,1.2v7.6c0,0.5-0.2,0.9-0.5,1.2c-0.3,0.3-0.7,0.5-1.2,0.5
		h-41.8c-0.5,0-0.9-0.2-1.2-0.5c-0.3-0.3-0.5-0.7-0.5-1.2v-7.6c0-0.5,0.2-0.9,0.5-1.2C1928.6,280.6,1929,280.4,1929.5,280.4z"/>
	<path fill="#FFFFFF" d="M1964.2,281.8v8.3h7.1c0.1,0,0.2,0,0.3-0.1c0.1-0.1,0.1-0.2,0.1-0.3v-7.6c0-0.1,0-0.2-0.1-0.3
		c-0.1-0.1-0.2-0.1-0.3-0.1C1971.3,281.8,1964.2,281.8,1964.2,281.8z"/>
	<rect x="1955.4" y="281.8" fill="#FFFFFF" width="7.4" height="8.3"/>
	<rect x="1946.7" y="281.8" fill="#FFFFFF" width="7.4" height="8.3"/>
	<rect x="1937.9" y="281.8" fill="#FFFFFF" width="7.4" height="8.3"/>
	<path fill="#FFFFFF" d="M1936.5,290.1v-8.3h-7c-0.1,0-0.2,0-0.3,0.1c-0.1,0.1-0.1,0.2-0.1,0.3v7.6c0,0.1,0,0.2,0.1,0.3
		c0.1,0.1,0.2,0.1,0.3,0.1H1936.5z"/>
	<path d="M1952,310.3h2.2c0.3,0,0.6,0.3,0.6,0.6c0,0.1,0,0.2-0.1,0.3l-5.3,9.1c-0.1,0.2-0.3,0.3-0.5,0.3c-0.3,0-0.6-0.3-0.6-0.6
		c0,0,0-0.1,0-0.1l0.8-5.6l-2.7,0c0,0,0,0,0,0c-0.3,0-0.6-0.3-0.6-0.6c0,0,0,0,0,0c0-0.1,0-0.2,0.1-0.3l5.3-9.1
		c0.1-0.2,0.3-0.3,0.5-0.3c0.3,0,0.6,0.3,0.6,0.6c0,0,0,0.1,0,0.1L1952,310.3z"/>
	<ellipse cx="1973.5" cy="275.6" rx="1.5" ry="1.6"/>
	<ellipse cx="1927.2" cy="275.6" rx="1.5" ry="1.6"/>
	<ellipse cx="1927.2" cy="319.3" rx="1.5" ry="1.6"/>
	<ellipse cx="1973.5" cy="319.3" rx="1.5" ry="1.6"/>
	<path d="M1968,288.5c-0.4,0-0.8-0.1-1-0.4c-0.3-0.3-0.4-0.6-0.4-1.1v-2.1c0-0.4,0.1-0.8,0.4-1.1c0.3-0.3,0.6-0.4,1-0.4
		c0.4,0,0.8,0.1,1,0.4s0.4,0.6,0.4,1.1v2.1c0,0.4-0.1,0.8-0.4,1.1C1968.8,288.3,1968.4,288.5,1968,288.5z"/>
	<path fill="#FFFFFF" d="M1968,287.5c0.1,0,0.2,0,0.2-0.1c0-0.1,0.1-0.2,0.1-0.3v-2.3c0-0.1,0-0.2-0.1-0.3c0-0.1-0.1-0.1-0.2-0.1
		c-0.1,0-0.2,0-0.2,0.1c0,0.1-0.1,0.2-0.1,0.3v2.3c0,0.1,0,0.2,0.1,0.3C1967.8,287.4,1967.9,287.5,1968,287.5z"/>
	<path d="M1959.3,288.5c-0.4,0-0.8-0.1-1-0.4c-0.3-0.3-0.4-0.6-0.4-1.1v-2.1c0-0.4,0.1-0.8,0.4-1.1s0.6-0.4,1-0.4
		c0.4,0,0.8,0.1,1,0.4c0.3,0.3,0.4,0.6,0.4,1.1v2.1c0,0.4-0.1,0.8-0.4,1.1C1960.1,288.3,1959.8,288.5,1959.3,288.5z"/>
	<path fill="#FFFFFF" d="M1959.3,287.5c0.1,0,0.2,0,0.2-0.1c0-0.1,0.1-0.2,0.1-0.3v-2.3c0-0.1,0-0.2-0.1-0.3c0-0.1-0.1-0.1-0.2-0.1
		c-0.1,0-0.2,0-0.2,0.1c0,0.1-0.1,0.2-0.1,0.3v2.3c0,0.1,0,0.2,0.1,0.3C1959.2,287.4,1959.2,287.5,1959.3,287.5z"/>
	<path d="M1950.3,288.5c-0.4,0-0.8-0.1-1-0.4c-0.3-0.3-0.4-0.6-0.4-1.1v-2.1c0-0.4,0.1-0.8,0.4-1.1s0.6-0.4,1-0.4
		c0.4,0,0.8,0.1,1,0.4c0.3,0.3,0.4,0.6,0.4,1.1v2.1c0,0.4-0.1,0.8-0.4,1.1C1951.1,288.3,1950.7,288.5,1950.3,288.5z"/>
	<path fill="#FFFFFF" d="M1950.3,287.5c0.1,0,0.2,0,0.2-0.1c0-0.1,0.1-0.2,0.1-0.3v-2.3c0-0.1,0-0.2-0.1-0.3c0-0.1-0.1-0.1-0.2-0.1
		c-0.1,0-0.2,0-0.2,0.1c0,0.1-0.1,0.2-0.1,0.3v2.3c0,0.1,0,0.2,0.1,0.3C1950.1,287.4,1950.2,287.5,1950.3,287.5z"/>
	<path d="M1941.6,288.5c-0.4,0-0.8-0.1-1-0.4c-0.3-0.3-0.4-0.6-0.4-1.1v-2.1c0-0.4,0.1-0.8,0.4-1.1s0.6-0.4,1-0.4
		c0.4,0,0.8,0.1,1,0.4c0.3,0.3,0.4,0.6,0.4,1.1v2.1c0,0.4-0.1,0.8-0.4,1.1C1942.4,288.3,1942,288.5,1941.6,288.5z"/>
	<path fill="#FFFFFF" d="M1941.6,287.5c0.1,0,0.2,0,0.2-0.1c0-0.1,0.1-0.2,0.1-0.3v-2.3c0-0.1,0-0.2-0.1-0.3c0-0.1-0.1-0.1-0.2-0.1
		c-0.1,0-0.2,0-0.2,0.1c0,0.1-0.1,0.2-0.1,0.3v2.3c0,0.1,0,0.2,0.1,0.3C1941.4,287.4,1941.5,287.5,1941.6,287.5z"/>
	<path d="M1932.9,288.5c-0.4,0-0.8-0.1-1-0.4c-0.3-0.3-0.4-0.6-0.4-1.1v-2.1c0-0.4,0.1-0.8,0.4-1.1s0.6-0.4,1-0.4
		c0.4,0,0.8,0.1,1,0.4s0.4,0.6,0.4,1.1v2.1c0,0.4-0.1,0.8-0.4,1.1C1933.7,288.3,1933.3,288.5,1932.9,288.5z"/>
	<path fill="#FFFFFF" d="M1932.9,287.5c0.1,0,0.2,0,0.2-0.1c0-0.1,0.1-0.2,0.1-0.3v-2.3c0-0.1,0-0.2-0.1-0.3c0-0.1-0.1-0.1-0.2-0.1
		s-0.2,0-0.2,0.1c0,0.1-0.1,0.2-0.1,0.3v2.3c0,0.1,0,0.2,0.1,0.3C1932.7,287.4,1932.8,287.5,1932.9,287.5z"/>
	<path d="M1941.2,302c-0.6,0-1.1-0.5-1.1-1.1s0.5-1.1,1.1-1.1h18.3c0.6,0,1.1,0.5,1.1,1.1s-0.5,1.1-1.1,1.1H1941.2z"/>
	<path d="M1934.1,296.5c-0.6,0-1.1-0.5-1.1-1.1s0.5-1.1,1.1-1.1h32.6c0.6,0,1.1,0.5,1.1,1.1s-0.5,1.1-1.1,1.1H1934.1z"/>
</g>
<g id="_x3C_Group_x3E_">
	<path d="M1355.7-92.3h114.1c3.4,0,6.1,2.8,6.1,6.1V23.4c0,3.4-2.8,6.1-6.1,6.1h-8.8v5.2c0,1.7-1.4,3.1-3.1,3.1h-6.9v8.8
		c0,0.6-0.5,1.1-1.1,1.1h-8.8c-1.2,0-2.3-1-2.3-2.3v-7.6h-9.1v8.8c0,0.6-0.5,1.1-1.1,1.1h-8.8c-1.2,0-2.3-1-2.3-2.3v-7.6h-9.1v8.8
		c0,0.6-0.5,1.1-1.1,1.1h-8.8c-1.2,0-2.3-1-2.3-2.3v-7.6h-9.1v8.8c0,0.6-0.5,1.1-1.1,1.1h-8.8c-1.2,0-2.3-1-2.3-2.3v-7.6h-7
		c-1.7,0-3.1-1.4-3.1-3.1v-5.2h-8.8c-3.4,0-6.1-2.8-6.1-6.1V-86.2C1349.6-89.6,1352.4-92.3,1355.7-92.3L1355.7-92.3z"/>
	<path fill="#FFFFFF" d="M1365.8-81.7h93.9c3.4,0,6.1,2.8,6.1,6.1v88.8c0,3.4-2.8,6.1-6.1,6.1h-93.9c-3.4,0-6.1-2.8-6.1-6.1v-88.8
		C1359.7-78.9,1362.5-81.7,1365.8-81.7L1365.8-81.7z"/>
	<path d="M1372.5-64h80.6c0.9,0,1.7,0.4,2.3,1c0.6,0.6,1,1.4,1,2.3V-46c0,0.9-0.4,1.7-1,2.3c-0.6,0.6-1.4,1-2.3,1h-80.6
		c-0.9,0-1.7-0.4-2.3-1c-0.6-0.6-1-1.4-1-2.3v-14.7c0-0.9,0.4-1.7,1-2.3C1370.8-63.6,1371.6-64,1372.5-64z"/>
	<path fill="#FFFFFF" d="M1439.5-61.4v16.1h13.6c0.2,0,0.4-0.1,0.5-0.2c0.1-0.1,0.2-0.3,0.2-0.5v-14.7c0-0.2-0.1-0.4-0.2-0.5
		c-0.1-0.1-0.3-0.2-0.5-0.2C1453.1-61.4,1439.5-61.4,1439.5-61.4z"/>
	<rect x="1422.5" y="-61.4" fill="#FFFFFF" width="14.3" height="16.1"/>
	<rect x="1405.7" y="-61.4" fill="#FFFFFF" width="14.3" height="16.1"/>
	<rect x="1388.7" y="-61.4" fill="#FFFFFF" width="14.3" height="16.1"/>
	<path fill="#FFFFFF" d="M1386.1-45.3v-16.1h-13.6c-0.2,0-0.4,0.1-0.5,0.2c-0.1,0.1-0.2,0.3-0.2,0.5V-46c0,0.2,0.1,0.4,0.2,0.5
		c0.1,0.1,0.3,0.2,0.5,0.2H1386.1z"/>
	<path d="M1416-6.3h4.3c0.6,0,1.1,0.5,1.1,1.1c0,0.2-0.1,0.4-0.2,0.6L1411,13.1c-0.2,0.3-0.6,0.5-1,0.5c-0.6,0-1.1-0.5-1.1-1.1
		c0-0.1,0-0.2,0-0.2l1.5-10.8l-5.1,0.1c0,0,0,0,0,0c-0.6,0-1.1-0.5-1.1-1.1c0,0,0,0,0,0c0-0.2,0.1-0.4,0.2-0.6l10.1-17.6
		c0.2-0.3,0.6-0.5,1-0.5c0.6,0,1.1,0.5,1.1,1.1c0,0,0,0.1,0,0.1L1416-6.3z"/>
	<ellipse cx="1457.4" cy="-73.3" rx="2.9" ry="3"/>
	<ellipse cx="1368.2" cy="-73.3" rx="2.9" ry="3"/>
	<ellipse cx="1368.2" cy="11" rx="2.9" ry="3"/>
	<ellipse cx="1457.4" cy="11" rx="2.9" ry="3"/>
	<path d="M1446.7-48.4c-0.8,0-1.5-0.3-2-0.8c-0.5-0.5-0.8-1.2-0.8-2.1v-4.1c0-0.9,0.3-1.6,0.8-2.1c0.5-0.5,1.2-0.8,2-0.8
		c0.8,0,1.5,0.3,2,0.8c0.5,0.5,0.8,1.2,0.8,2.1v4.1c0,0.9-0.3,1.6-0.8,2.1C1448.3-48.7,1447.6-48.4,1446.7-48.4z"/>
	<path fill="#FFFFFF" d="M1446.7-50.4c0.2,0,0.3-0.1,0.4-0.2c0.1-0.1,0.1-0.3,0.1-0.6v-4.4c0-0.2,0-0.4-0.1-0.6
		c-0.1-0.1-0.2-0.2-0.4-0.2c-0.2,0-0.3,0.1-0.4,0.2c-0.1,0.1-0.1,0.3-0.1,0.6v4.4c0,0.2,0,0.4,0.1,0.6
		C1446.5-50.4,1446.6-50.4,1446.7-50.4z"/>
	<path d="M1430-48.4c-0.8,0-1.5-0.3-2-0.8c-0.5-0.5-0.8-1.2-0.8-2.1v-4.1c0-0.9,0.3-1.6,0.8-2.1c0.5-0.5,1.2-0.8,2-0.8
		c0.8,0,1.5,0.3,2,0.8c0.5,0.5,0.8,1.2,0.8,2.1v4.1c0,0.9-0.3,1.6-0.8,2.1C1431.5-48.7,1430.9-48.4,1430-48.4z"/>
	<path fill="#FFFFFF" d="M1430-50.4c0.2,0,0.3-0.1,0.4-0.2s0.1-0.3,0.1-0.6v-4.4c0-0.2,0-0.4-0.1-0.6c-0.1-0.1-0.2-0.2-0.4-0.2
		c-0.2,0-0.3,0.1-0.4,0.2c-0.1,0.1-0.1,0.3-0.1,0.6v4.4c0,0.2,0,0.4,0.1,0.6C1429.7-50.4,1429.9-50.4,1430-50.4z"/>
	<path d="M1412.6-48.4c-0.8,0-1.5-0.3-2-0.8c-0.5-0.5-0.8-1.2-0.8-2.1v-4.1c0-0.9,0.3-1.6,0.8-2.1c0.5-0.5,1.2-0.8,2-0.8
		c0.8,0,1.5,0.3,2,0.8c0.5,0.5,0.8,1.2,0.8,2.1v4.1c0,0.9-0.3,1.6-0.8,2.1C1414.1-48.7,1413.4-48.4,1412.6-48.4z"/>
	<path fill="#FFFFFF" d="M1412.6-50.4c0.2,0,0.3-0.1,0.4-0.2s0.1-0.3,0.1-0.6v-4.4c0-0.2,0-0.4-0.1-0.6c-0.1-0.1-0.2-0.2-0.4-0.2
		c-0.2,0-0.3,0.1-0.4,0.2c-0.1,0.1-0.1,0.3-0.1,0.6v4.4c0,0.2,0,0.4,0.1,0.6C1412.3-50.4,1412.4-50.4,1412.6-50.4z"/>
	<path d="M1395.8-48.4c-0.8,0-1.5-0.3-2-0.8c-0.5-0.5-0.8-1.2-0.8-2.1v-4.1c0-0.9,0.3-1.6,0.8-2.1c0.5-0.5,1.2-0.8,2-0.8
		c0.8,0,1.5,0.3,2,0.8c0.5,0.5,0.8,1.2,0.8,2.1v4.1c0,0.9-0.3,1.6-0.8,2.1C1397.3-48.7,1396.6-48.4,1395.8-48.4z"/>
	<path fill="#FFFFFF" d="M1395.8-50.4c0.2,0,0.3-0.1,0.4-0.2s0.1-0.3,0.1-0.6v-4.4c0-0.2,0-0.4-0.1-0.6c-0.1-0.1-0.2-0.2-0.4-0.2
		c-0.2,0-0.3,0.1-0.4,0.2c-0.1,0.1-0.1,0.3-0.1,0.6v4.4c0,0.2,0,0.4,0.1,0.6S1395.6-50.4,1395.8-50.4z"/>
	<path d="M1379.1-48.4c-0.8,0-1.5-0.3-2-0.8c-0.5-0.5-0.8-1.2-0.8-2.1v-4.1c0-0.9,0.3-1.6,0.8-2.1c0.5-0.5,1.2-0.8,2-0.8
		c0.8,0,1.5,0.3,2,0.8c0.5,0.5,0.8,1.2,0.8,2.1v4.1c0,0.9-0.3,1.6-0.8,2.1C1380.6-48.7,1379.9-48.4,1379.1-48.4z"/>
	<path fill="#FFFFFF" d="M1379.1-50.4c0.2,0,0.3-0.1,0.4-0.2c0.1-0.1,0.1-0.3,0.1-0.6v-4.4c0-0.2,0-0.4-0.1-0.6
		c-0.1-0.1-0.2-0.2-0.4-0.2s-0.3,0.1-0.4,0.2c-0.1,0.1-0.1,0.3-0.1,0.6v4.4c0,0.2,0,0.4,0.1,0.6
		C1378.8-50.4,1378.9-50.4,1379.1-50.4z"/>
	<path d="M1395.2-22.4c-1.2,0-2.1-0.9-2.1-2.1c0-1.2,0.9-2.1,2.1-2.1h35.2c1.2,0,2.1,0.9,2.1,2.1c0,1.2-0.9,2.1-2.1,2.1H1395.2z"/>
	<path d="M1381.3-33c-1.2,0-2.1-0.9-2.1-2.1c0-1.2,0.9-2.1,2.1-2.1h62.9c1.2,0,2.1,0.9,2.1,2.1s-0.9,2.1-2.1,2.1H1381.3z"/>
</g>
<polyline fill="none" stroke="#8C0000" stroke-width="5" stroke-miterlimit="10" points="823,260.5 814.5,235.5 792.8,257.2 
	792.8,214 759.7,247.2 759.7,179 728.3,210.3 "/>
<polyline fill="none" stroke="#8C0000" stroke-width="5" stroke-miterlimit="10" points="924.2,263.1 932.7,238.1 954.3,259.8 
	954.3,216.6 987.5,249.8 987.5,181.6 1016.9,211.1 "/>
<polyline fill="none" stroke="#8C0000" stroke-width="5" stroke-miterlimit="10" points="1332.2,-92.3 1323.7,-117.3 1302,-95.6 
	1302,-138.8 1268.9,-105.6 1268.9,-173.8 1237.5,-142.4 "/>
<polyline fill="none" stroke="#8C0000" stroke-width="5" stroke-miterlimit="10" points="1493.1,-92.3 1501.6,-117.3 1523.3,-95.6 
	1523.3,-138.8 1556.5,-105.6 1556.5,-173.8 1585.9,-144.3 "/>
<polyline fill="none" stroke="#8C0000" stroke-width="5" stroke-miterlimit="10" points="1412,-109.3 1429.5,-124 1395.3,-139.3 
	1436.8,-158.7 1381.9,-182.7 1432.5,-212 1409.8,-243.3 "/>
<line fill="none" stroke="#F6C32E" stroke-width="5" stroke-miterlimit="10" x1="1189" y1="-27.5" x2="1349.6" y2="-27.5"/>
<path d="M1155.6-86.9L1155.6-86.9l16.4-20.9c0.6-0.8,1.8-0.9,2.6-0.3c0.1,0.1,0.3,0.3,0.4,0.4l15.9,20.8l0.1,0.1l30.1,13.8
	c1,0.3,1.6,1.3,1.3,2.3c-0.2,0.9-1,1.4-1.9,1.4h-3.2v4.3c0,1.3-1,2.3-2.3,2.3c-1.3,0-2.3-1-2.3-2.3c0,0,0,0,0,0v-4.3h-2.3v4.3
	c0,1.3-1,2.3-2.3,2.3c-1.3,0-2.3-1-2.3-2.3v-4.3h-14.6v8.7l29.8,13.4c1,0.3,1.6,1.3,1.3,2.3c-0.2,0.9-1,1.4-1.9,1.4h-3.2v4.6
	c0,1.3-1,2.3-2.3,2.3s-2.3-1-2.3-2.3c0,0,0,0,0,0v-4.6h-2.3v4.6c0,1.3-1,2.3-2.3,2.3c-1.3,0-2.3-1-2.3-2.3c0,0,0,0,0,0v-4.6h-14.6
	v18.8l11.9,26.3c0.3,0.3,0.4,0.6,0.5,1l0,0l12.9,28.5h8v11.3h-25.6V31h12.5l-34.7-26.4h-7.2l-34.5,26.5h12.3v11.3h-25.5V31.1h8.1
	l25.3-55.9v-18.8h-15.8v4.6c0,1.3-1,2.3-2.3,2.3c-1.3,0-2.3-1-2.3-2.3c0,0,0,0,0,0v-4.6h-2.5v4.6c-0.1,1.3-1.2,2.2-2.5,2.1
	c-1.1-0.1-2.1-1-2.1-2.1v-4.6h-1.7c-1,0-1.9-0.9-1.9-1.9c0-0.7,0.4-1.4,1.1-1.7l30-13.6v-8.5h-15.8v4.3c0,1.3-1,2.3-2.3,2.3
	s-2.3-1-2.3-2.3c0,0,0,0,0,0v-4.3h-2.5v4.3c-0.1,1.3-1.2,2.2-2.5,2.1c-1.1-0.1-2.1-1-2.1-2.1v-4.3h-1.7c-1-0.1-1.8-0.9-1.8-2
	c0-0.7,0.4-1.3,1-1.6L1155.6-86.9L1155.6-86.9z M1159-30l12.2-14l-11.9-13.7h-0.3V-30z M1173.3-46.3l9.8-11.3h-19.7L1173.3-46.3
	L1173.3-46.3z M1187.3-57.6L1175.4-44l12.2,14v-27.7H1187.3z M1173.3-41.6L1160-26.3h26.6L1173.3-41.6z M1159-63.5l11.4-9.6
	l-11.4-9.6V-63.5z M1173.3-75.4l9.5-7.9h-18.9L1173.3-75.4z M1187.5-82.6l-11.4,9.5l11.4,9.6V-82.6z M1173.3-70.6l-11.1,9.3h22.1
	L1173.3-70.6z M1209.8,25l-9.2-20.4H1183L1209.8,25z M1163.4,4.6H1146l-9.3,20.5L1163.4,4.6z M1194.8,0.9l-21.6-13.3l-21.6,13.2
	L1194.8,0.9z M1169.7-14.5l-11.8-7.2l-9,20L1169.7-14.5z M1173.3-16.7l9.5-5.8h-19L1173.3-16.7L1173.3-16.7z M1188.5-21.7l-11.7,7.2
	l20.8,12.7L1188.5-21.7L1188.5-21.7z M1191.3-73.1h20.6l-20.6-9.4L1191.3-73.1L1191.3-73.1z M1155.2-82.6l-20.7,9.5h20.7V-82.6z
	 M1191.3-56.5v9.2h20.4L1191.3-56.5z M1155.2-47.4v-9.3l-20.5,9.3H1155.2z M1185.8-87.4l-12.4-16.2l-12.7,16.2H1185.8z"/>
<g>
	<g>
		<line fill="none" stroke="#EC6F59" stroke-width="5" stroke-miterlimit="10" x1="719.7" y1="590.7" x2="719.7" y2="511.2"/>
		<g>
			<polygon fill="#EC6F59" points="719.7,475.9 740,525.6 719.7,513.8 699.4,525.6 			"/>
		</g>
	</g>
</g>
<g>
	<g>
		<line fill="none" stroke="#EC6F59" stroke-width="5" stroke-miterlimit="10" x1="873.3" y1="706.5" x2="873.3" y2="511.2"/>
		<g>
			<polygon fill="#EC6F59" points="873.3,475.9 893.6,525.6 873.3,513.8 853,525.6 			"/>
		</g>
	</g>
</g>
<g>
	<g>
		<line fill="none" stroke="#5DDDF0" stroke-width="5" stroke-miterlimit="10" x1="873.3" y1="978.3" x2="873.3" y2="783"/>
		<g>
			<polygon fill="#5DDDF0" points="873.3,747.7 893.6,797.4 873.3,785.6 853,797.4 			"/>
		</g>
	</g>
</g>
<g>
	<g>
		<line fill="none" stroke="#EC6F59" stroke-width="5" stroke-miterlimit="10" x1="1025.3" y1="590.7" x2="1025.3" y2="511.2"/>
		<g>
			<polygon fill="#EC6F59" points="1025.3,475.9 1045.6,525.6 1025.3,513.8 1005,525.6 			"/>
		</g>
	</g>
</g>
<line fill="none" stroke="#EC6F59" stroke-width="5" stroke-miterlimit="10" x1="719.7" y1="590.7" x2="1025.3" y2="590.7"/>
<g>
	<path fill="#5DDDF0" d="M864.7,915.8c-2.9-1.2-5.5-2.8-7.7-5c-2.5-2.7-4-5.9-4.3-9.5c-0.3-3.4,0.2-6.7,1.4-9.9
		c0.9-2.5,2.1-4.8,3.4-7.1c1.6-2.8,3.3-5.7,5-8.5c2.2-3.9,4-8,5.2-12.3c0.3-1,0.5-2,0.8-3.1c0-0.1,0-0.2,0.1-0.3
		c0.1,0,0.1,0.1,0.2,0.1c3.9,3.7,7.8,7.4,11.3,11.4c2.7,3,5.2,6.2,7.3,9.7c1.9,3.2,3.4,6.5,4.3,10.2c0.7,3,1,6,0.8,9
		c-0.4,6.6-4.3,12.4-10,15c-1.2,0.6-4.4,1.4-9.9,1.4C867.7,916.7,865.1,916,864.7,915.8z"/>
	<path fill="#FFFFFF" d="M883.7,909.9c1.6-3.3,2.3-6.7,2.1-10.4c-0.2-3.4-1.1-6.5-2.7-9.5c-1.7-3.3-3.9-6.1-6.6-8.6
		c-0.5-0.5-1-1-1.6-1.5c-0.1-0.1-0.1-0.1-0.2-0.2c0.9,7.2-0.8,13.7-4.4,19.8c-0.2-1.7-0.6-3.3-1.4-4.8c-0.8-1.5-1.8-2.8-3.1-4
		c-0.1,0.3-0.1,0.5-0.2,0.7c-0.6,2.2-1.5,4.3-2.5,6.3c-0.7,1.4-1.4,2.8-1.9,4.3c-0.6,1.7-0.8,3.5-0.7,5.3c0.1,1.5,0.6,2.8,1.3,4.1
		c1,1.8,4.2,4.8,10.7,4.8C878.6,916.3,882.5,912.3,883.7,909.9z"/>
</g>
<g>
	<path d="M1834.6,441.4c-5,0-7.5,4.3-9.1,9l-3.8,12l-1.9-3.5c-8.4-0.5-9.4,4.2-1,8.5l0,0c-9.3,6-8,16.6-7.1,28.3c0,0.1,0,0.3,0,0.4
		v6.5c0,1.5,1.2,2.8,2.8,2.8h12c1.5,0,2.8-1.3,2.8-2.8v-2.3h57v2.3c0,1.6,1.3,2.8,2.8,2.8h12c1.6,0,2.8-1.3,2.8-2.8v-5
		c0.9-15.2,1.5-21.4-4.5-27.6l-1.5-2.3c9.1-4.3,8.4-9.3-0.3-8.8l-1.6,3.2l-2.9-11.7c-1.2-4.8-4.1-9-9-9h-23.2c0-0.3-0.1-0.6-0.1-0.9
		c5.3-0.8,7.2-3.6,7.2-9.1v-3.3h1.1c0.7,0,1.3-0.6,1.3-1.3v-1.5c0-0.7-0.6-1.3-1.3-1.3h-4.1V417c0-1.2-0.9-2.1-2.1-2.1l0,0
		c-1.2,0-2.1,1-2.1,2.1v6.8h-6.2V417c0-1.2-1-2.1-2.1-2.1c0,0,0,0,0,0l0,0c-1.2,0-2.1,1-2.1,2.1v6.8h-4c-0.7,0-1.3,0.6-1.3,1.3v1.6
		c0,0.7,0.6,1.3,1.3,1.3h0.8v3c0,5.5,2.1,8.9,7.9,9.5l0,0c0,0.3,0.1,0.6,0.1,0.9H1834.6z"/>
	<path fill="#FFFFFF" d="M1860.7,479h3.8c0.5,0,1,0.5,1,1c0,0.2-0.1,0.4-0.2,0.5l-9,15.3c-0.3,0.5-0.9,0.6-1.3,0.3c0,0,0,0,0,0
		c-0.4-0.2-0.5-0.6-0.5-1.1l1.3-9.4l-4.5,0.1c-0.5,0-1-0.4-1-1c0,0,0,0,0,0c0-0.2,0-0.4,0.1-0.5l8.8-15.3c0.3-0.5,0.9-0.6,1.4-0.3
		c0.3,0.2,0.5,0.6,0.5,1L1860.7,479z"/>
	<path fill="#FFFFFF" d="M1831,449.5c0.3-0.7,0.8-1.3,1.4-1.7c1-1,2.5-1.6,3.9-1.6h45.8c3.8,0,6.1,3.2,6.9,6.9l3,12.2h-66.1l0,0
		l3.6-12.1C1829.7,451.8,1830.2,450.6,1831,449.5L1831,449.5z"/>
	<path fill="#FFFFFF" d="M1834.3,481.3l-10.7-1.3c-2.5-0.3-3.2,0.8-2.3,3l1.2,2.8c0.3,0.7,0.8,1.2,1.4,1.6c0.7,0.4,1.6,0.7,2.4,0.7
		l9.5,0.1c2.3,0,3.3-0.9,2.6-3C1837.8,483.1,1836.2,481.7,1834.3,481.3L1834.3,481.3z"/>
	<path fill="#FFFFFF" d="M1881.5,481.3l10.7-1.3c2.5-0.3,3.2,0.8,2.3,3l-1.2,2.8c-0.3,0.7-0.8,1.2-1.4,1.6c-0.7,0.4-1.6,0.7-2.4,0.7
		l-9.5,0.1c-2.3,0-3.3-0.9-2.6-3C1878,483.1,1879.6,481.7,1881.5,481.3z"/>
	<rect x="1851.9" y="429.3" fill="#FFFFFF" width="11.3" height="1.7"/>
</g>
<g>
	<path d="M1926.7,382.2c-5,0-7.5,4.3-9.1,9l-3.8,12l-1.9-3.5c-8.4-0.5-9.4,4.2-1,8.5l0,0c-9.3,6-8,16.6-7.1,28.3c0,0.1,0,0.3,0,0.4
		v6.5c0,1.5,1.2,2.8,2.8,2.8h12c1.5,0,2.8-1.3,2.8-2.8v-2.3h57v2.3c0,1.6,1.3,2.8,2.8,2.8h12c1.6,0,2.8-1.3,2.8-2.8v-5
		c0.9-15.2,1.5-21.4-4.5-27.6l-1.5-2.3c9.1-4.3,8.4-9.3-0.3-8.8l-1.6,3.2l-2.9-11.7c-1.2-4.8-4.1-9-9-9h-23.2c0-0.3-0.1-0.6-0.1-0.9
		c5.3-0.8,7.2-3.6,7.2-9.1v-3.3h1.1c0.7,0,1.3-0.6,1.3-1.3V366c0-0.7-0.6-1.3-1.3-1.3h-4.1v-6.8c0-1.2-0.9-2.1-2.1-2.1l0,0
		c-1.2,0-2.1,1-2.1,2.1v6.8h-6.2v-6.8c0-1.2-1-2.1-2.1-2.1c0,0,0,0,0,0l0,0c-1.2,0-2.1,1-2.1,2.1v6.8h-4c-0.7,0-1.3,0.6-1.3,1.3v1.6
		c0,0.7,0.6,1.3,1.3,1.3h0.8v3c0,5.5,2.1,8.9,7.9,9.5l0,0c0,0.3,0.1,0.6,0.1,0.9H1926.7z"/>
	<path fill="#FFFFFF" d="M1952.8,419.8h3.8c0.5,0,1,0.5,1,1c0,0.2-0.1,0.4-0.2,0.5l-9,15.3c-0.3,0.5-0.9,0.6-1.3,0.3c0,0,0,0,0,0
		c-0.4-0.2-0.5-0.6-0.5-1.1l1.3-9.4l-4.5,0.1c-0.5,0-1-0.4-1-1c0,0,0,0,0,0c0-0.2,0-0.4,0.1-0.5l8.8-15.3c0.3-0.5,0.9-0.6,1.4-0.3
		c0.3,0.2,0.5,0.6,0.5,1L1952.8,419.8z"/>
	<path fill="#FFFFFF" d="M1923.1,390.3c0.3-0.7,0.8-1.3,1.4-1.7c1-1,2.5-1.6,3.9-1.6h45.8c3.8,0,6.1,3.2,6.9,6.9l3,12.2h-66.1l0,0
		l3.6-12.1C1921.9,392.6,1922.4,391.4,1923.1,390.3L1923.1,390.3z"/>
	<path fill="#FFFFFF" d="M1926.4,422.1l-10.7-1.3c-2.5-0.3-3.2,0.8-2.3,3l1.2,2.8c0.3,0.7,0.8,1.2,1.4,1.6c0.7,0.4,1.6,0.7,2.4,0.7
		l9.5,0.1c2.3,0,3.3-0.9,2.6-3C1929.9,423.9,1928.3,422.5,1926.4,422.1L1926.4,422.1z"/>
	<path fill="#FFFFFF" d="M1973.7,422.1l10.7-1.3c2.5-0.3,3.2,0.8,2.3,3l-1.2,2.8c-0.3,0.7-0.8,1.2-1.4,1.6c-0.7,0.4-1.6,0.7-2.4,0.7
		l-9.5,0.1c-2.3,0-3.3-0.9-2.6-3C1970.1,423.9,1971.7,422.5,1973.7,422.1z"/>
	<rect x="1944" y="370.1" fill="#FFFFFF" width="11.3" height="1.7"/>
</g>
<g>
	<path d="M2017.8,445.9c-5,0-7.5,4.3-9.1,9l-3.8,12l-1.9-3.5c-8.4-0.5-9.4,4.2-1,8.5l0,0c-9.3,6-8,16.6-7.1,28.3c0,0.1,0,0.3,0,0.4
		v6.5c0,1.5,1.2,2.8,2.8,2.8h12c1.5,0,2.8-1.3,2.8-2.8v-2.3h57v2.3c0,1.6,1.3,2.8,2.8,2.8h12c1.6,0,2.8-1.3,2.8-2.8v-5
		c0.9-15.2,1.5-21.4-4.5-27.6l-1.5-2.3c9.1-4.3,8.4-9.3-0.3-8.8l-1.6,3.2l-2.9-11.7c-1.2-4.8-4.1-9-9-9h-23.2c0-0.3-0.1-0.6-0.1-0.9
		c5.3-0.8,7.2-3.6,7.2-9.1v-3.3h1.1c0.7,0,1.3-0.6,1.3-1.3v-1.5c0-0.7-0.6-1.3-1.3-1.3h-4.1v-6.8c0-1.2-0.9-2.1-2.1-2.1l0,0
		c-1.2,0-2.1,1-2.1,2.1v6.8h-6.2v-6.8c0-1.2-1-2.1-2.1-2.1c0,0,0,0,0,0l0,0c-1.2,0-2.1,1-2.1,2.1v6.8h-4c-0.7,0-1.3,0.6-1.3,1.3v1.6
		c0,0.7,0.6,1.3,1.3,1.3h0.8v3c0,5.5,2.1,8.9,7.9,9.5l0,0c0,0.3,0.1,0.6,0.1,0.9L2017.8,445.9z"/>
	<path fill="#FFFFFF" d="M2043.8,483.5h3.8c0.5,0,1,0.5,1,1c0,0.2-0.1,0.4-0.2,0.5l-9,15.3c-0.3,0.5-0.9,0.6-1.3,0.3c0,0,0,0,0,0
		c-0.4-0.2-0.5-0.6-0.5-1.1l1.3-9.4l-4.5,0.1c-0.5,0-1-0.4-1-1c0,0,0,0,0,0c0-0.2,0-0.4,0.1-0.5l8.8-15.3c0.3-0.5,0.9-0.6,1.4-0.3
		c0.3,0.2,0.5,0.6,0.5,1L2043.8,483.5z"/>
	<path fill="#FFFFFF" d="M2014.1,454c0.3-0.7,0.8-1.3,1.4-1.7c1-1,2.5-1.6,3.9-1.6h45.8c3.8,0,6.1,3.2,6.9,6.9l3,12.2h-66.1l0,0
		l3.6-12.1C2012.9,456.3,2013.4,455.1,2014.1,454L2014.1,454z"/>
	<path fill="#FFFFFF" d="M2017.4,485.9l-10.7-1.3c-2.5-0.3-3.2,0.8-2.3,3l1.2,2.8c0.3,0.7,0.8,1.2,1.4,1.6c0.7,0.4,1.6,0.7,2.4,0.7
		l9.5,0.1c2.3,0,3.3-0.9,2.6-3C2020.9,487.7,2019.3,486.2,2017.4,485.9L2017.4,485.9z"/>
	<path fill="#FFFFFF" d="M2064.7,485.9l10.7-1.3c2.5-0.3,3.2,0.8,2.3,3l-1.2,2.8c-0.3,0.7-0.8,1.2-1.4,1.6c-0.7,0.4-1.6,0.7-2.4,0.7
		l-9.5,0.1c-2.3,0-3.3-0.9-2.6-3C2061.1,487.7,2062.7,486.2,2064.7,485.9z"/>
	<rect x="2035" y="433.9" fill="#FFFFFF" width="11.3" height="1.7"/>
</g>
<g>
	<path d="M1255.1,411.5c0.2,0.1,0.5,0.3,0.7,0.4l0.1,0.1c0.5,0.4,1,0.8,1.4,1.4c0.4,0.5,0.7,1.1,0.9,1.8l0,0c0.2,0.6,0.3,1.3,0.2,2
		c0,0.7-0.2,1.4-0.4,2l0,0c-0.1,0.3-0.3,0.7-0.4,1c-0.2,0.3-0.3,0.6-0.5,0.9c-0.8,1.1-1.9,2.1-3.1,2.7c-1.1,0.6-2.3,1.2-3.4,1.7
		c-9.5,3.9-18.9,8.6-28.4,12.4c-0.3,0.1-0.7,0.2-1,0.2l0,0c-0.4,0-0.9-0.1-1.3-0.3l-0.4-0.3c-0.1-0.1-0.3-0.3-0.3-0.5l-0.1-0.2
		l-0.1-0.3c0-0.1,0-0.3,0-0.4l0,0c0-0.5,0.2-0.9,0.5-1.3l0,0c0.2-0.3,0.4-0.5,0.7-0.7c8.4-7,17.2-13.6,25.7-20.3
		c0.6-0.5,1.2-0.9,1.8-1.3c0.6-0.4,1.3-0.7,1.9-1h0.1c0.7-0.3,1.4-0.4,2.1-0.4c0.7,0,1.5,0.1,2.2,0.3h0.1
		C1254.5,411.3,1254.8,411.4,1255.1,411.5L1255.1,411.5z"/>
	<path d="M1240.7,467.8h17.1l6.4-43.9c0.1-0.8,0.8-1.5,1.6-1.5h6c0.8,0,1.5,0.6,1.6,1.4l7.4,44h17.2c0.5,0,0.9,0.4,0.9,0.9v6.7
		c0,0.5-0.4,0.9-0.9,0.9h-57.2c-0.5,0-0.9-0.4-0.9-0.9v-6.7C1239.8,468.2,1240.2,467.8,1240.7,467.8z"/>
	<path d="M1272.7,401.8c1.1,0.4,2,1.1,2.9,1.9c1.6,1.6,2.5,3.8,2.6,6.1v0.1c0,2.3-0.9,4.6-2.6,6.2c-0.8,0.8-1.8,1.5-2.9,1.9
		c-4.5,1.9-9.6-0.2-11.5-4.7c0,0,0,0,0,0c-0.9-2.2-0.9-4.6,0-6.8c0.4-1.1,1.1-2,1.9-2.9l0,0c0.8-0.8,1.8-1.5,2.9-1.9
		C1268.1,400.9,1270.5,400.9,1272.7,401.8L1272.7,401.8z"/>
	<path d="M1272.7,397.2c-0.3,0.2-0.5,0.3-0.8,0.4c-0.6,0.3-1.3,0.5-1.9,0.5c-0.6,0.1-1.3,0-1.9-0.1h-0.1c-0.6-0.2-1.2-0.5-1.8-0.8
		c-0.5-0.3-1-0.8-1.4-1.2l-0.1-0.1c-0.2-0.3-0.4-0.5-0.6-0.8c-0.2-0.3-0.3-0.6-0.5-0.9l0,0c-1.2-2.5-0.8-5.2-0.4-7.9
		c1.8-10,2.3-20.8,4.1-30.8c0.1-0.3,0.2-0.6,0.3-0.9v-0.1c0.2-0.4,0.5-0.6,0.8-0.9h0.1c0.2-0.1,0.3-0.1,0.5-0.2c0.1,0,0.3,0,0.4,0
		c0.2,0,0.4-0.1,0.7,0l0.3,0.2c0.4,0.2,0.7,0.6,0.9,1l0.1,0.1c0.1,0.3,0.2,0.7,0.3,1.1c1.8,10.2,2.7,21.8,4,32.1c0,0.1,0,0.2,0,0.4
		l0,0c0.1,0.7,0.1,1.4,0.2,2.1c0,0.8,0,1.5-0.1,2.3v0.1c-0.1,0.7-0.4,1.4-0.7,2c-0.4,0.7-0.9,1.3-1.5,1.8
		C1273.1,396.8,1272.9,397,1272.7,397.2L1272.7,397.2z"/>
	<path d="M1279.7,418.2c0-0.3,0-0.6,0-0.9c0-0.7,0.2-1.4,0.5-2c0.2-0.6,0.6-1.1,1-1.5l0.1-0.1c0.5-0.5,1-0.9,1.6-1.1
		c0.6-0.3,1.2-0.5,1.8-0.6h0.1c0.3-0.1,0.7-0.1,1-0.1c0.3,0,0.7,0,1,0h0.1c1.4,0.1,2.7,0.6,3.9,1.3c1.1,0.7,2.2,1.4,3.2,2.3
		c8.1,6.3,16.3,12.5,24.5,18.8l0.1,0.1c0.2,0.2,0.4,0.5,0.6,0.8c0.2,0.4,0.3,0.7,0.3,1.1v0.3v0.2c0,0.2-0.1,0.4-0.2,0.6
		c-0.1,0.2-0.2,0.3-0.4,0.4l-0.1,0.1c-0.1,0.1-0.2,0.1-0.3,0.2c-0.4,0.2-0.9,0.3-1.4,0.2c-0.3,0-0.7-0.1-1-0.3l-30.1-12.6
		c-0.7-0.3-1.4-0.6-2.1-1c-0.7-0.3-1.3-0.7-1.9-1.2h-0.1c-1.2-1-2-2.3-2.2-3.8C1279.7,418.9,1279.7,418.5,1279.7,418.2L1279.7,418.2
		z"/>
</g>
<polygon fill="#F6C32E" points="1288.1,-52.3 1272,-52.1 1256.5,-22.7 1267,-22.6 1250.6,9.1 1287.7,-31.5 1273.8,-31.5 "/>
<polygon fill="#F6C32E" points="1433.6,150.9 1413.8,151.1 1394.7,187.3 1407.7,187.5 1387.4,226.5 1433.2,176.5 1416.1,176.5 "/>
<g>
	<path fill="#EC6F59" d="M858.8,582.4c-1.5-13,6.2-22.2,20.4-27.4c-8.7,11.3,7.5,23.6,8.3,35.4c2.1-3.6,3.3-8.3,3.5-14.7
		c10.7,16.8,1.8,44.2-21.7,40.3c-2.2-0.4-4.2-1-6.1-2.1c-8.6-4.6-13.7-14.6-13.7-24.1c0-6.1,2.6-11.5,6-15.8
		C855.9,578.2,856.9,581.3,858.8,582.4L858.8,582.4z"/>
	<path fill="#FAD15C" d="M866.4,601.2c-2.4-6.3-2.1-16.4,4.7-19.9c0,11.6,11.5,13.1,9.4,25.5c2-2.2,2.9-5.8,3.1-8.6
		c3.1,7.1,0.7,12.8-3.8,15.7c-13.5,8.8-25.1-9-17.4-18.8C862.7,597.3,865.4,600.7,866.4,601.2L866.4,601.2z"/>
</g>
<g>
	<path d="M1469,447.6h-52.9v19.7h16.3v9h-41.6v-9h16.3v-19.7h-52.9c-0.3,0-0.6,0-1-0.1c-0.7-0.2-1.3-0.5-1.7-1
		c-0.6-0.6-0.9-1.4-0.9-2.2c0-0.3,0-0.5,0.1-0.8l0,0l13.6-49.5c0.2-0.8,0.6-1.5,1.1-2c0.6-0.6,1.4-1,2.4-1h87.5
		c0.9,0,1.6,0.3,2.2,0.8c0.1,0,0.1,0.1,0.2,0.1c0.5,0.5,0.9,1.3,1.1,2l13.6,49.5c0.1,0.3,0.1,0.6,0.1,0.8c0,0.9-0.4,1.6-0.9,2.2
		c-0.4,0.5-1.1,0.8-1.7,1C1469.7,447.6,1469.3,447.6,1469,447.6L1469,447.6z"/>
	<polygon fill="#FFFFFF" points="1422.7,395.2 1423.5,404.1 1440,404.1 1438.4,395.2 1422.7,395.2 	"/>
	<polygon fill="#FFFFFF" points="1442.7,395.2 1444.3,404.1 1457.3,404.1 1454.8,395.2 1442.7,395.2 	"/>
	<polygon fill="#FFFFFF" points="1458.4,408.3 1445.1,408.3 1446.4,415.2 1460.3,415.2 1458.4,408.3 	"/>
	<polygon fill="#FFFFFF" points="1461.5,419.4 1447.2,419.4 1448.4,426.3 1463.4,426.3 1461.5,419.4 	"/>
	<polygon fill="#FFFFFF" points="1464.6,430.6 1449.2,430.6 1451.5,443.3 1468.1,443.3 1464.6,430.6 	"/>
	<polygon fill="#FFFFFF" points="1447.2,443.3 1444.9,430.6 1426.2,430.6 1427.4,443.3 1447.2,443.3 	"/>
	<polygon fill="#FFFFFF" points="1423.1,443.3 1421.9,430.6 1398.7,430.6 1397,443.3 1423.1,443.3 	"/>
	<polygon fill="#FFFFFF" points="1392.7,443.3 1394.5,430.6 1376.8,430.6 1373.8,443.3 1392.7,443.3 	"/>
	<polygon fill="#FFFFFF" points="1369.4,443.3 1372.4,430.6 1358.7,430.6 1355.2,443.3 1369.4,443.3 	"/>
	<polygon fill="#FFFFFF" points="1359.9,426.3 1373.4,426.3 1375,419.4 1361.8,419.4 1359.9,426.3 	"/>
	<polygon fill="#FFFFFF" points="1363,415.2 1376,415.2 1377.6,408.3 1364.9,408.3 1363,415.2 	"/>
	<polygon fill="#FFFFFF" points="1366,404.1 1378.6,404.1 1380.6,395.2 1368.5,395.2 1366,404.1 	"/>
	<polygon fill="#FFFFFF" points="1385,395.2 1382.9,404.1 1398.1,404.1 1399.3,395.2 1385,395.2 	"/>
	<path fill="#FFFFFF" d="M1403.5,395.2c0,0.1,0,0.2,0,0.2l-1.2,8.6h16.9l-0.9-8.9H1403.5L1403.5,395.2z"/>
	<polygon fill="#FFFFFF" points="1423.9,408.3 1424.6,415.2 1442.1,415.2 1440.8,408.3 1423.9,408.3 	"/>
	<polygon fill="#FFFFFF" points="1381.9,408.3 1380.3,415.2 1396.5,415.2 1397.5,408.3 1381.9,408.3 	"/>
	<polygon fill="#FFFFFF" points="1401.8,408.3 1400.8,415.2 1420.4,415.2 1419.7,408.3 1401.8,408.3 	"/>
	<polygon fill="#FFFFFF" points="1425.1,419.4 1425.7,426.3 1444.1,426.3 1442.9,419.4 1425.1,419.4 	"/>
	<polygon fill="#FFFFFF" points="1379.4,419.4 1377.8,426.3 1395,426.3 1396,419.4 1379.4,419.4 	"/>
	<polygon fill="#FFFFFF" points="1400.2,419.4 1399.3,426.3 1421.5,426.3 1420.8,419.4 1400.2,419.4 	"/>
</g>
<g>
	<path d="M1616.9,447.6H1564v19.7h16.3v9h-41.6v-9h16.3v-19.7h-52.9c-0.3,0-0.6,0-1-0.1c-0.7-0.2-1.3-0.5-1.7-1
		c-0.6-0.6-0.9-1.4-0.9-2.2c0-0.3,0-0.5,0.1-0.8l0,0l13.6-49.5c0.2-0.8,0.6-1.5,1.1-2c0.6-0.6,1.4-1,2.4-1h87.5
		c0.9,0,1.6,0.3,2.2,0.8c0.1,0,0.1,0.1,0.2,0.1c0.6,0.5,0.9,1.3,1.1,2l13.6,49.5c0.1,0.3,0.1,0.6,0.1,0.8c0,0.9-0.4,1.6-0.9,2.2
		c-0.4,0.5-1.1,0.8-1.7,1C1617.5,447.6,1617.2,447.6,1616.9,447.6L1616.9,447.6z"/>
	<polygon fill="#FFFFFF" points="1570.5,395.2 1571.4,404.1 1587.9,404.1 1586.3,395.2 1570.5,395.2 	"/>
	<polygon fill="#FFFFFF" points="1590.6,395.2 1592.2,404.1 1605.1,404.1 1602.7,395.2 1590.6,395.2 	"/>
	<polygon fill="#FFFFFF" points="1606.3,408.3 1593,408.3 1594.2,415.2 1608.2,415.2 1606.3,408.3 	"/>
	<polygon fill="#FFFFFF" points="1609.4,419.4 1595,419.4 1596.3,426.3 1611.2,426.3 1609.4,419.4 	"/>
	<polygon fill="#FFFFFF" points="1612.4,430.6 1597.1,430.6 1599.4,443.3 1615.9,443.3 1612.4,430.6 	"/>
	<polygon fill="#FFFFFF" points="1595.1,443.3 1592.7,430.6 1574,430.6 1575.3,443.3 1595.1,443.3 	"/>
	<polygon fill="#FFFFFF" points="1571,443.3 1569.7,430.6 1546.6,430.6 1544.8,443.3 1571,443.3 	"/>
	<polygon fill="#FFFFFF" points="1540.6,443.3 1542.3,430.6 1524.6,430.6 1521.7,443.3 1540.6,443.3 	"/>
	<polygon fill="#FFFFFF" points="1517.3,443.3 1520.3,430.6 1506.6,430.6 1503.1,443.3 1517.3,443.3 	"/>
	<polygon fill="#FFFFFF" points="1507.8,426.3 1521.3,426.3 1522.8,419.4 1509.7,419.4 1507.8,426.3 	"/>
	<polygon fill="#FFFFFF" points="1510.8,415.2 1523.8,415.2 1525.4,408.3 1512.7,408.3 1510.8,415.2 	"/>
	<polygon fill="#FFFFFF" points="1513.9,404.1 1526.4,404.1 1528.5,395.2 1516.3,395.2 1513.9,404.1 	"/>
	<polygon fill="#FFFFFF" points="1532.8,395.2 1530.8,404.1 1545.9,404.1 1547.1,395.2 1532.8,395.2 	"/>
	<path fill="#FFFFFF" d="M1551.4,395.2c0,0.1,0,0.2,0,0.2l-1.2,8.6h16.9l-0.9-8.9H1551.4L1551.4,395.2z"/>
	<polygon fill="#FFFFFF" points="1571.8,408.3 1572.5,415.2 1589.9,415.2 1588.7,408.3 1571.8,408.3 	"/>
	<polygon fill="#FFFFFF" points="1529.8,408.3 1528.2,415.2 1544.4,415.2 1545.3,408.3 1529.8,408.3 	"/>
	<polygon fill="#FFFFFF" points="1549.6,408.3 1548.7,415.2 1568.2,415.2 1567.5,408.3 1549.6,408.3 	"/>
	<polygon fill="#FFFFFF" points="1572.9,419.4 1573.6,426.3 1592,426.3 1590.7,419.4 1572.9,419.4 	"/>
	<polygon fill="#FFFFFF" points="1527.2,419.4 1525.6,426.3 1542.9,426.3 1543.8,419.4 1527.2,419.4 	"/>
	<polygon fill="#FFFFFF" points="1548.1,419.4 1547.2,426.3 1569.3,426.3 1568.6,419.4 1548.1,419.4 	"/>
</g>
<g>
	<polygon points="820.1,660.6 818.6,674.9 834.5,674.9 833,660.6 	"/>
	<polygon points="937.1,711 937.1,740.6 809.5,740.6 809.5,696.1 816.3,696.9 817.3,687.3 835.8,687.3 837.1,699.3 	"/>
	<path d="M834.2,656.9c0.3,0.8,0,1.7-0.8,2.1s-1.7,0-2.1-0.8l0,0c-0.4-0.9-0.6-1.9-0.5-2.9c0.1-0.9,0.4-1.8,0.8-2.5
		c0.4-0.8,1.4-1.1,2.1-0.6c0,0,0,0,0,0c0.1,0.1,0.3,0.2,0.4,0.3c1,0.9,2.2,1.6,3.5,2c0.6,0.2,1.3,0.1,1.9-0.1
		c0.5-0.2,0.9-0.7,1.1-1.2c0.4-1,0.5-2.2,0.4-3.3c-0.1-0.9,0.6-1.6,1.4-1.7c0.7-0.1,1.3,0.3,1.6,0.9c1,1.8,2.9,3.1,5.1,3.3
		c1,0.1,2,0.1,3-0.2c0.8-0.2,1.6-0.7,2.2-1.3c1.1-1.3,1.5-3.2,1-4.8c-0.2-0.9,0.4-1.7,1.2-1.9c0.2,0,0.3,0,0.5,0
		c2.4,0.3,4.7-0.9,5.9-3c0.4-0.8,0.6-1.6,0.6-2.4c0-0.8-0.2-1.5-0.6-2.2c-0.8-1.3-2.5-2.2-5.2-1.9c-0.7,0.1-1.5-0.4-1.7-1.1
		c-0.4-1.7-1.5-3.1-3-3.9c-0.7-0.3-1.4-0.5-2.2-0.4c-0.8,0.1-1.5,0.4-2.1,0.9c-1.3,1-2.1,2.5-2.1,4.2c-0.1,0.9-0.8,1.5-1.7,1.5
		c-0.7-0.1-1.2-0.5-1.4-1.2c-0.3-1.4-1.1-2.6-2.2-3.5c-0.8-0.6-1.7-0.9-2.7-0.9c-1,0-2,0.4-2.9,0.9c-1.2,0.7-2.2,1.8-2.7,3.1
		c-0.3,0.8-1.2,1.2-2,0.9c-0.2-0.1-0.4-0.2-0.5-0.3c-1.1-1.2-2.7-2-4.3-2.1c-0.7,0-1.4,0.2-2.1,0.6c-0.6,0.4-1.1,1-1.4,1.6
		c-0.6,1.7-0.5,3.5,0.1,5.2c0.3,0.8-0.2,1.7-1,2c0,0,0,0,0,0h-0.1c-1.7,0.4-3,1.6-3.5,3.3c-0.1,0.6-0.1,1.3,0,2
		c0.1,0.6,0.4,1.2,0.8,1.8c0.9,1.2,2.7,2,5.2,1.6c0.9-0.1,1.7,0.4,1.8,1.3c0.1,0.4,0,0.9-0.3,1.2c-0.5,0.7-0.9,1.5-1.2,2.3
		c-0.3,0.8-0.4,1.5-0.4,2.3c0.2,0.8-0.4,1.7-1.2,1.9c-0.8,0.2-1.7-0.4-1.9-1.2c0-0.2,0-0.4,0-0.7c0-1.1,0.2-2.2,0.6-3.3l0.2-0.6
		c-2.1-0.2-4-1.2-5.4-2.9c-0.7-0.9-1.2-2-1.4-3.1c-0.2-1.1-0.2-2.3,0.1-3.4c0.5-2.3,2.1-4.1,4.2-5.1c-0.5-1.9-0.4-4,0.4-5.9
		c1-2.6,3.6-4.2,6.3-4.1c1.7,0.1,3.4,0.7,4.9,1.7c0.8-1.1,1.8-2.1,3-2.8c1.3-0.8,2.9-1.3,4.5-1.4l0,0c1.7,0,3.4,0.5,4.7,1.6
		c0.5,0.4,1,0.9,1.4,1.5c0.6-0.9,1.3-1.7,2.1-2.3c1.1-0.8,2.3-1.4,3.6-1.6c1.3-0.2,2.7,0,3.9,0.6c1.9,1,3.4,2.7,4.2,4.7
		c2.8-0.2,5.5,1.1,7,3.5c0.7,1.2,1,2.5,1,3.8c0,1.4-0.3,2.7-1,3.9c-1.4,2.7-4,4.4-7,4.7c0.1,2.1-0.6,4.2-2,5.7c-1,1-2.3,1.8-3.7,2.2
		c-3.1,0.8-6.4,0.2-9.1-1.7c-0.1,0.3-0.2,0.6-0.3,0.9c-0.5,1.2-1.5,2.2-2.7,2.7c-1.2,0.5-2.5,0.6-3.7,0.3c-1.1-0.2-2.2-0.7-3.2-1.3
		C834,656.4,834.1,656.6,834.2,656.9z"/>
	<polygon points="818.3,677.6 817.6,684.6 835.5,684.6 834.8,677.6 	"/>
	<rect x="806" y="743.1" width="133.1" height="4.9"/>
	<path fill="#FFFFFF" d="M825.6,717.3h10.6c0.8,0,1.5,0.6,1.5,1.5v13.4c0,0.8-0.7,1.5-1.5,1.5l0,0h-10.6c-0.8,0-1.5-0.7-1.5-1.5l0,0
		v-13.4C824.2,718,824.8,717.3,825.6,717.3L825.6,717.3z"/>
	<path fill="#FFFFFF" d="M856.3,717.3h10.6c0.8,0,1.5,0.6,1.5,1.5v13.4c0,0.8-0.7,1.5-1.5,1.5l0,0h-10.6c-0.8,0-1.5-0.7-1.5-1.5
		c0,0,0,0,0,0v-13.4C854.9,718,855.5,717.3,856.3,717.3L856.3,717.3z"/>
</g>
<g>
	<path d="M772.4,473.9c0,1.1-0.9,2-2,2h-99c-1.1,0-2-0.9-2-2v-48.8c-10.3,4-14.2-8.7-8.4-13.3l58.6-42.9c0.7-0.7,1.8-0.7,2.6-0.1
		l58.8,42.8c0,0,0.2,0.2,0.2,0.2c7,7.5-0.4,17.4-8.8,13.4V473.9L772.4,473.9z"/>
	<path fill="#FFFFFF" d="M706.5,443h29.3v27.8h31.5v-48c0-0.1,0-0.3,0-0.4l-46-33.7l-47,33.7c0,0.2,0.1,0.3,0.1,0.5v47.8h32.1V443z"
		/>
	<rect x="712" y="411.4" width="7.7" height="7.8"/>
	<rect x="722.5" y="421.8" width="7.7" height="7.8"/>
	<polygon points="712,421.8 719.7,421.8 719.7,429.7 712,429.7 712,421.8 	"/>
	<rect x="722.5" y="411.4" width="7.7" height="7.8"/>
</g>
<g>
	<path d="M757.7,406.2h-70.5c-0.2,0-0.4,0-0.6-0.1c-0.4-0.1-0.8-0.3-1.1-0.6c-0.4-0.4-0.6-0.8-0.6-1.3c0-0.1,0-0.3,0.1-0.5l0,0
		l8.4-29.5c0.1-0.4,0.3-0.9,0.7-1.2c0.4-0.4,0.9-0.6,1.5-0.6h53.8c0.6,0,1,0.2,1.4,0.5c0,0,0.1,0.1,0.1,0.1c0.3,0.3,0.6,0.8,0.7,1.2
		l8.4,29.5c0,0.2,0.1,0.3,0.1,0.5c0,0.5-0.2,1-0.6,1.3c-0.3,0.3-0.7,0.5-1.1,0.6C758.1,406.2,757.9,406.2,757.7,406.2L757.7,406.2z"
		/>
	<polygon fill="#FFFFFF" points="753.5,403 751.5,393.1 735.1,393.1 736.2,403 753.5,403 	"/>
	<polygon fill="#FFFFFF" points="732.5,403 731.4,393.1 711.2,393.1 709.7,403 732.5,403 	"/>
	<polygon fill="#FFFFFF" points="706,403 707.5,393.1 692.1,393.1 689.5,403 706,403 	"/>
	<polygon fill="#FFFFFF" points="733.2,376 733.8,381.3 749,381.3 747.9,376 733.2,376 	"/>
	<polygon fill="#FFFFFF" points="696.6,376 695.2,381.3 709.3,381.3 710.1,376 696.6,376 	"/>
	<polygon fill="#FFFFFF" points="713.9,376 713.1,381.3 730.1,381.3 729.5,376 713.9,376 	"/>
	<polygon fill="#FFFFFF" points="734.2,384.6 734.8,389.8 750.8,389.8 749.7,384.6 734.2,384.6 	"/>
	<polygon fill="#FFFFFF" points="694.3,384.6 693,389.8 708,389.8 708.8,384.6 694.3,384.6 	"/>
	<polygon fill="#FFFFFF" points="712.5,384.6 711.7,389.8 731,389.8 730.5,384.6 712.5,384.6 	"/>
</g>
<g>
	<path d="M924.8,473.9c0,1.1-0.9,2-2,2h-99c-1.1,0-2-0.9-2-2v-48.8c-10.3,4-14.2-8.7-8.4-13.3l58.6-42.9c0.7-0.7,1.8-0.7,2.6-0.1
		l58.8,42.8c0,0,0.2,0.2,0.2,0.2c7,7.5-0.4,17.4-8.8,13.4V473.9L924.8,473.9z"/>
	<path fill="#FFFFFF" d="M859,443h29.3v27.8h31.5v-48c0-0.1,0-0.3,0-0.4l-46-33.7l-47,33.7c0,0.2,0.1,0.3,0.1,0.5v47.8H859V443z"/>
	<rect x="864.5" y="411.4" width="7.7" height="7.8"/>
	<rect x="875" y="421.8" width="7.7" height="7.8"/>
	<polygon points="864.5,421.8 872.2,421.8 872.2,429.7 864.5,429.7 864.5,421.8 	"/>
	<rect x="875" y="411.4" width="7.7" height="7.8"/>
</g>
<g>
	<path d="M1804.7,452.5c0,0.7-0.5,1.2-1.2,1.2h-59.9c-0.7,0-1.2-0.5-1.2-1.2V423c-6.3,2.4-8.6-5.3-5.1-8l35.5-25.9
		c0.4-0.4,1.1-0.4,1.6-0.1l35.6,25.9c0,0,0.1,0.1,0.1,0.1c4.2,4.5-0.2,10.5-5.3,8.1V452.5L1804.7,452.5z"/>
	<path fill="#FFFFFF" d="M1764.8,433.9h17.7v16.8h19.1v-29c0-0.1,0-0.2,0-0.2l-27.8-20.4l-28.4,20.4c0,0.1,0,0.2,0,0.3v29h19.4
		V433.9z"/>
	<rect x="1768.2" y="414.7" width="4.6" height="4.7"/>
	<rect x="1774.5" y="421" width="4.6" height="4.7"/>
	<polygon points="1768.2,421 1772.9,421 1772.9,425.8 1768.2,425.8 1768.2,421 	"/>
	<rect x="1774.5" y="414.7" width="4.6" height="4.7"/>
</g>
<g>
	<path d="M2168.2,452.5c0,0.7-0.5,1.2-1.2,1.2h-59.9c-0.7,0-1.2-0.5-1.2-1.2V423c-6.3,2.4-8.6-5.3-5.1-8l35.5-25.9
		c0.4-0.4,1.1-0.4,1.6-0.1l35.6,25.9c0,0,0.1,0.1,0.1,0.1c4.2,4.5-0.2,10.5-5.3,8.1V452.5L2168.2,452.5z"/>
	<path fill="#FFFFFF" d="M2128.3,433.9h17.7v16.8h19.1v-29c0-0.1,0-0.2,0-0.2l-27.8-20.4l-28.4,20.4c0,0.1,0,0.2,0,0.3v29h19.4
		V433.9z"/>
	<rect x="2131.7" y="414.7" width="4.6" height="4.7"/>
	<rect x="2138" y="421" width="4.6" height="4.7"/>
	<polygon points="2131.7,421 2136.4,421 2136.4,425.8 2131.7,425.8 2131.7,421 	"/>
	<rect x="2138" y="414.7" width="4.6" height="4.7"/>
</g>
<g>
	<path d="M2072.9,391.2c0,0.7-0.5,1.2-1.2,1.2h-59.9c-0.7,0-1.2-0.5-1.2-1.2v-29.5c-6.3,2.4-8.6-5.3-5.1-8l35.5-25.9
		c0.4-0.4,1.1-0.4,1.6-0.1l35.6,25.9c0,0,0.1,0.1,0.1,0.1c4.2,4.5-0.2,10.5-5.3,8.1V391.2L2072.9,391.2z"/>
	<path fill="#FFFFFF" d="M2033,372.5h17.7v16.8h19.1v-29c0-0.1,0-0.2,0-0.2l-27.8-20.4l-28.4,20.4c0,0.1,0,0.2,0,0.3v29h19.4V372.5z
		"/>
	<rect x="2036.4" y="353.4" width="4.6" height="4.7"/>
	<rect x="2042.7" y="359.7" width="4.6" height="4.7"/>
	<polygon points="2036.4,359.7 2041,359.7 2041,364.5 2036.4,364.5 2036.4,359.7 	"/>
	<rect x="2042.7" y="353.4" width="4.6" height="4.7"/>
</g>
<g>
	<path d="M1888.9,391.2c0,0.7-0.5,1.2-1.2,1.2h-59.9c-0.7,0-1.2-0.5-1.2-1.2v-29.5c-6.3,2.4-8.6-5.3-5.1-8l35.5-25.9
		c0.4-0.4,1.1-0.4,1.6-0.1l35.6,25.9c0,0,0.1,0.1,0.1,0.1c4.2,4.5-0.2,10.5-5.3,8.1V391.2L1888.9,391.2z"/>
	<path fill="#FFFFFF" d="M1849,372.5h17.7v16.8h19.1v-29c0-0.1,0-0.2,0-0.2l-27.8-20.4l-28.4,20.4c0,0.1,0,0.2,0,0.3v29h19.4V372.5z
		"/>
	<rect x="1852.4" y="353.4" width="4.6" height="4.7"/>
	<rect x="1858.7" y="359.7" width="4.6" height="4.7"/>
	<polygon points="1852.4,359.7 1857,359.7 1857,364.5 1852.4,364.5 1852.4,359.7 	"/>
	<rect x="1858.7" y="353.4" width="4.6" height="4.7"/>
</g>
<g>
	<path d="M910.2,406.2h-70.5c-0.2,0-0.4,0-0.6-0.1c-0.4-0.1-0.8-0.3-1.1-0.6c-0.4-0.4-0.6-0.8-0.6-1.3c0-0.1,0-0.3,0.1-0.5l0,0
		l8.4-29.5c0.1-0.4,0.3-0.9,0.7-1.2c0.4-0.4,0.9-0.6,1.5-0.6h53.8c0.6,0,1,0.2,1.4,0.5c0,0,0.1,0.1,0.1,0.1c0.3,0.3,0.6,0.8,0.7,1.2
		l8.4,29.5c0,0.2,0.1,0.3,0.1,0.5c0,0.5-0.2,1-0.6,1.3c-0.3,0.3-0.7,0.5-1.1,0.6C910.6,406.2,910.4,406.2,910.2,406.2L910.2,406.2z"
		/>
	<polygon fill="#FFFFFF" points="906,403 904,393.1 887.6,393.1 888.7,403 906,403 	"/>
	<polygon fill="#FFFFFF" points="885,403 883.9,393.1 863.7,393.1 862.2,403 885,403 	"/>
	<polygon fill="#FFFFFF" points="858.5,403 860,393.1 844.6,393.1 842,403 858.5,403 	"/>
	<polygon fill="#FFFFFF" points="885.7,376 886.3,381.3 901.5,381.3 900.4,376 885.7,376 	"/>
	<polygon fill="#FFFFFF" points="849.1,376 847.7,381.3 861.8,381.3 862.6,376 849.1,376 	"/>
	<polygon fill="#FFFFFF" points="866.4,376 865.6,381.3 882.6,381.3 882,376 866.4,376 	"/>
	<polygon fill="#FFFFFF" points="886.7,384.6 887.3,389.8 903.3,389.8 902.2,384.6 886.7,384.6 	"/>
	<polygon fill="#FFFFFF" points="846.8,384.6 845.4,389.8 860.5,389.8 861.3,384.6 846.8,384.6 	"/>
	<polygon fill="#FFFFFF" points="865,384.6 864.2,389.8 883.5,389.8 883,384.6 865,384.6 	"/>
</g>
<g>
	<path d="M1076.8,473.9c0,1.1-0.9,2-2,2h-99c-1.1,0-2-0.9-2-2v-48.8c-10.3,4-14.2-8.7-8.4-13.3l58.6-42.9c0.7-0.7,1.8-0.7,2.6-0.1
		l58.8,42.8c0,0,0.2,0.2,0.2,0.2c7,7.5-0.4,17.4-8.8,13.4V473.9L1076.8,473.9z"/>
	<path fill="#FFFFFF" d="M1011,443h29.3v27.8h31.5v-48c0-0.1,0-0.3,0-0.4l-46-33.7l-47,33.7c0,0.2,0.1,0.3,0.1,0.5v47.8h32.1V443z"
		/>
	<rect x="1016.5" y="411.4" width="7.7" height="7.8"/>
	<rect x="1027" y="421.8" width="7.7" height="7.8"/>
	<polygon points="1016.5,421.8 1024.2,421.8 1024.2,429.7 1016.5,429.7 1016.5,421.8 	"/>
	<rect x="1027" y="411.4" width="7.7" height="7.8"/>
</g>
<g>
	<path d="M1062.2,406.2h-70.5c-0.2,0-0.4,0-0.6-0.1c-0.4-0.1-0.8-0.3-1.1-0.6c-0.4-0.4-0.6-0.8-0.6-1.3c0-0.1,0-0.3,0.1-0.5l0,0
		l8.4-29.5c0.1-0.4,0.3-0.9,0.7-1.2c0.4-0.4,0.9-0.6,1.5-0.6h53.8c0.6,0,1,0.2,1.4,0.5c0,0,0.1,0.1,0.1,0.1c0.3,0.3,0.6,0.8,0.7,1.2
		l8.4,29.5c0,0.2,0.1,0.3,0.1,0.5c0,0.5-0.2,1-0.6,1.3c-0.3,0.3-0.7,0.5-1.1,0.6C1062.6,406.2,1062.4,406.2,1062.2,406.2
		L1062.2,406.2z"/>
	<polygon fill="#FFFFFF" points="1058,403 1056,393.1 1039.6,393.1 1040.7,403 1058,403 	"/>
	<polygon fill="#FFFFFF" points="1037,403 1035.9,393.1 1015.7,393.1 1014.2,403 1037,403 	"/>
	<polygon fill="#FFFFFF" points="1010.5,403 1012,393.1 996.6,393.1 994,403 1010.5,403 	"/>
	<polygon fill="#FFFFFF" points="1037.7,376 1038.3,381.3 1053.5,381.3 1052.4,376 1037.7,376 	"/>
	<polygon fill="#FFFFFF" points="1001.1,376 999.7,381.3 1013.8,381.3 1014.6,376 1001.1,376 	"/>
	<polygon fill="#FFFFFF" points="1018.4,376 1017.6,381.3 1034.6,381.3 1034,376 1018.4,376 	"/>
	<polygon fill="#FFFFFF" points="1038.7,384.6 1039.3,389.8 1055.3,389.8 1054.2,384.6 1038.7,384.6 	"/>
	<polygon fill="#FFFFFF" points="998.8,384.6 997.4,389.8 1012.5,389.8 1013.3,384.6 998.8,384.6 	"/>
	<polygon fill="#FFFFFF" points="1017,384.6 1016.2,389.8 1035.5,389.8 1035,384.6 1017,384.6 	"/>
</g>
<polygon fill="#FF0000" stroke="#000000" stroke-width="5" stroke-miterlimit="10" points="1368.6,667.8 1411.9,642.8 1455.2,667.8 
	1455.2,717.8 1411.9,742.8 1368.6,717.8 "/>
<text transform="matrix(1 0 0 1 1370.8163 704.793)" fill="#FFFFFF" font-family="'ArialMT'" font-size="30px">STOP</text>
</svg>
