<?xml version="1.0" encoding="utf-8"?>
<!-- Generator: Adobe Illustrator 19.0.0, SVG Export Plug-In . SVG Version: 6.00 Build 0)  -->
<svg version="1.1" id="Layer_2" xmlns="http://www.w3.org/2000/svg" xmlns:xlink="http://www.w3.org/1999/xlink" x="0px" y="0px"
	 width="1920px" height="1351.9px" viewBox="480 -395.9 1920 1351.9" style="enable-background:new 480 -395.9 1920 1351.9;"
	 xml:space="preserve">
<style type="text/css">
	.st0{fill:none;stroke:#F6C32E;stroke-width:5;stroke-miterlimit:10;}
	.st1{fill:#F6C32E;}
	.st2{fill:#FFFFFF;stroke:#000000;stroke-width:3;stroke-miterlimit:10;}
	.st3{fill:#FFFFFF;}
	.st4{fill:none;stroke:#4C4C4C;stroke-width:5;stroke-miterlimit:10;}
	.st5{fill:none;stroke:#4C4C4C;stroke-width:5;stroke-miterlimit:10;stroke-dasharray:19.9808,19.9808;}
	.st6{fill:#4C4C4C;}
	.st7{fill:none;stroke:#FF0000;stroke-width:8;stroke-linecap:round;stroke-miterlimit:10;}
	.st8{fill:none;stroke:#8C0000;stroke-width:5;stroke-miterlimit:10;}
	.st9{fill:#23549F;}
	.st10{fill:#F2F2F2;}
	.st11{fill:#BFBFBF;}
</style>
<line class="st0" x1="952.8" y1="177" x2="952.8" y2="-50.9"/>
<g>
	<polygon class="st1" points="952.8,108.8 973.1,158.5 952.8,146.7 932.5,158.5 	"/>
</g>
<ellipse class="st2" cx="952.8" cy="340.1" rx="244.8" ry="122.4"/>
<g id="_x3C_Group_x3E__1_">
	<path d="M922.4,177h59.2c1.7,0,3.2,1.4,3.2,3.2V237c0,1.7-1.4,3.2-3.2,3.2H977v2.7c0,0.9-0.7,1.6-1.6,1.6h-3.6v4.5
		c0,0.3-0.3,0.6-0.6,0.6h-4.6c-0.6,0-1.2-0.5-1.2-1.2v-4h-4.7v4.5c0,0.3-0.3,0.6-0.6,0.6h-4.6c-0.6,0-1.2-0.5-1.2-1.2v-4h-4.7v4.5
		c0,0.3-0.3,0.6-0.6,0.6h-4.6c-0.6,0-1.2-0.5-1.2-1.2v-4h-4.7v4.5c0,0.3-0.3,0.6-0.6,0.6h-4.6c-0.6,0-1.2-0.5-1.2-1.2v-4h-3.7
		c-0.9,0-1.6-0.7-1.6-1.6v-2.7h-4.6c-1.7,0-3.2-1.4-3.2-3.2v-56.8C919.3,178.4,920.7,177,922.4,177L922.4,177z"/>
	<path class="st3" d="M927.7,182.5h48.7c1.7,0,3.2,1.4,3.2,3.2v46.1c0,1.7-1.4,3.2-3.2,3.2h-48.7c-1.7,0-3.2-1.4-3.2-3.2v-46.1
		C924.5,183.9,925.9,182.5,927.7,182.5L927.7,182.5z"/>
	<path d="M931.2,191.7H973c0.5,0,0.9,0.2,1.2,0.5c0.3,0.3,0.5,0.7,0.5,1.2v7.6c0,0.5-0.2,0.9-0.5,1.2c-0.3,0.3-0.7,0.5-1.2,0.5
		h-41.8c-0.5,0-0.9-0.2-1.2-0.5c-0.3-0.3-0.5-0.7-0.5-1.2v-7.6c0-0.5,0.2-0.9,0.5-1.2C930.2,191.9,930.7,191.7,931.2,191.7z"/>
	<path class="st3" d="M965.9,193.1v8.3h7.1c0.1,0,0.2,0,0.3-0.1c0.1-0.1,0.1-0.2,0.1-0.3v-7.6c0-0.1,0-0.2-0.1-0.3s-0.2-0.1-0.3-0.1
		C972.9,193.1,965.9,193.1,965.9,193.1z"/>
	<rect x="957.1" y="193.1" class="st3" width="7.4" height="8.3"/>
	<rect x="948.3" y="193.1" class="st3" width="7.4" height="8.3"/>
	<rect x="939.6" y="193.1" class="st3" width="7.4" height="8.3"/>
	<path class="st3" d="M938.2,201.4v-8.3h-7c-0.1,0-0.2,0-0.3,0.1c-0.1,0.1-0.1,0.2-0.1,0.3v7.6c0,0.1,0,0.2,0.1,0.3s0.2,0.1,0.3,0.1
		L938.2,201.4L938.2,201.4z"/>
	<path d="M953.7,221.6h2.2c0.3,0,0.6,0.3,0.6,0.6c0,0.1,0,0.2-0.1,0.3l-5.3,9.1c-0.1,0.2-0.3,0.3-0.5,0.3c-0.3,0-0.6-0.3-0.6-0.6
		v-0.1l0.8-5.6h-2.7l0,0c-0.3,0-0.6-0.3-0.6-0.6l0,0c0-0.1,0-0.2,0.1-0.3l5.3-9.1c0.1-0.2,0.3-0.3,0.5-0.3c0.3,0,0.6,0.3,0.6,0.6
		v0.1L953.7,221.6z"/>
	<ellipse cx="975.2" cy="186.9" rx="1.5" ry="1.6"/>
	<ellipse cx="928.9" cy="186.9" rx="1.5" ry="1.6"/>
	<ellipse cx="928.9" cy="230.6" rx="1.5" ry="1.6"/>
	<ellipse cx="975.2" cy="230.6" rx="1.5" ry="1.6"/>
	<path d="M969.7,199.8c-0.4,0-0.8-0.1-1-0.4c-0.3-0.3-0.4-0.6-0.4-1.1v-2.1c0-0.4,0.1-0.8,0.4-1.1c0.3-0.3,0.6-0.4,1-0.4
		s0.8,0.1,1,0.4c0.2,0.3,0.4,0.6,0.4,1.1v2.1c0,0.4-0.1,0.8-0.4,1.1C970.4,199.6,970.1,199.8,969.7,199.8z"/>
	<path class="st3" d="M969.7,198.8c0.1,0,0.2,0,0.2-0.1s0.1-0.2,0.1-0.3v-2.3c0-0.1,0-0.2-0.1-0.3c0-0.1-0.1-0.1-0.2-0.1
		s-0.2,0-0.2,0.1s-0.1,0.2-0.1,0.3v2.3c0,0.1,0,0.2,0.1,0.3C969.5,198.7,969.6,198.8,969.7,198.8z"/>
	<path d="M961,199.8c-0.4,0-0.8-0.1-1-0.4c-0.3-0.3-0.4-0.6-0.4-1.1v-2.1c0-0.4,0.1-0.8,0.4-1.1c0.3-0.3,0.6-0.4,1-0.4
		s0.8,0.1,1,0.4c0.3,0.3,0.4,0.6,0.4,1.1v2.1c0,0.4-0.1,0.8-0.4,1.1C961.8,199.6,961.4,199.8,961,199.8z"/>
	<path class="st3" d="M961,198.8c0.1,0,0.2,0,0.2-0.1s0.1-0.2,0.1-0.3v-2.3c0-0.1,0-0.2-0.1-0.3c0-0.1-0.1-0.1-0.2-0.1
		s-0.2,0-0.2,0.1s-0.1,0.2-0.1,0.3v2.3c0,0.1,0,0.2,0.1,0.3C960.8,198.7,960.9,198.8,961,198.8z"/>
	<path d="M951.9,199.8c-0.4,0-0.8-0.1-1-0.4c-0.3-0.3-0.4-0.6-0.4-1.1v-2.1c0-0.4,0.1-0.8,0.4-1.1c0.3-0.3,0.6-0.4,1-0.4
		s0.8,0.1,1,0.4c0.3,0.3,0.4,0.6,0.4,1.1v2.1c0,0.4-0.1,0.8-0.4,1.1C952.7,199.6,952.4,199.8,951.9,199.8z"/>
	<path class="st3" d="M951.9,198.8c0.1,0,0.2,0,0.2-0.1s0.1-0.2,0.1-0.3v-2.3c0-0.1,0-0.2-0.1-0.3c0-0.1-0.1-0.1-0.2-0.1
		s-0.2,0-0.2,0.1s-0.1,0.2-0.1,0.3v2.3c0,0.1,0,0.2,0.1,0.3C951.8,198.7,951.8,198.8,951.9,198.8z"/>
	<path d="M943.2,199.8c-0.4,0-0.8-0.1-1-0.4c-0.3-0.3-0.4-0.6-0.4-1.1v-2.1c0-0.4,0.1-0.8,0.4-1.1c0.3-0.3,0.6-0.4,1-0.4
		s0.8,0.1,1,0.4c0.3,0.3,0.4,0.6,0.4,1.1v2.1c0,0.4-0.1,0.8-0.4,1.1C944,199.6,943.7,199.8,943.2,199.8z"/>
	<path class="st3" d="M943.2,198.8c0.1,0,0.2,0,0.2-0.1s0.1-0.2,0.1-0.3v-2.3c0-0.1,0-0.2-0.1-0.3c0-0.1-0.1-0.1-0.2-0.1
		s-0.2,0-0.2,0.1s-0.1,0.2-0.1,0.3v2.3c0,0.1,0,0.2,0.1,0.3C943.1,198.7,943.1,198.8,943.2,198.8z"/>
	<path d="M934.6,199.8c-0.4,0-0.8-0.1-1-0.4c-0.3-0.3-0.4-0.6-0.4-1.1v-2.1c0-0.4,0.1-0.8,0.4-1.1c0.3-0.3,0.6-0.4,1-0.4
		s0.8,0.1,1,0.4c0.2,0.3,0.4,0.6,0.4,1.1v2.1c0,0.4-0.1,0.8-0.4,1.1C935.3,199.6,935,199.8,934.6,199.8z"/>
	<path class="st3" d="M934.6,198.8c0.1,0,0.2,0,0.2-0.1s0.1-0.2,0.1-0.3v-2.3c0-0.1,0-0.2-0.1-0.3c0-0.1-0.1-0.1-0.2-0.1
		s-0.2,0-0.2,0.1s-0.1,0.2-0.1,0.3v2.3c0,0.1,0,0.2,0.1,0.3C934.4,198.7,934.5,198.8,934.6,198.8z"/>
	<path d="M942.9,213.3c-0.6,0-1.1-0.5-1.1-1.1s0.5-1.1,1.1-1.1h18.3c0.6,0,1.1,0.5,1.1,1.1s-0.5,1.1-1.1,1.1H942.9z"/>
	<path d="M935.7,207.8c-0.6,0-1.1-0.5-1.1-1.1s0.5-1.1,1.1-1.1h32.6c0.6,0,1.1,0.5,1.1,1.1s-0.5,1.1-1.1,1.1H935.7z"/>
</g>
<g id="_x3C_Group_x3E_">
	<path d="M895.7-181h114.1c3.4,0,6.1,2.8,6.1,6.1v109.6c0,3.4-2.8,6.1-6.1,6.1h-8.8v5.2c0,1.7-1.4,3.1-3.1,3.1h-6.9v8.8
		c0,0.6-0.5,1.1-1.1,1.1H981c-1.2,0-2.3-1-2.3-2.3v-7.6h-9.1v8.8c0,0.6-0.5,1.1-1.1,1.1h-8.8c-1.2,0-2.3-1-2.3-2.3v-7.6h-9.1v8.8
		c0,0.6-0.5,1.1-1.1,1.1h-8.8c-1.2,0-2.3-1-2.3-2.3v-7.6H927v8.8c0,0.6-0.5,1.1-1.1,1.1h-8.8c-1.2,0-2.3-1-2.3-2.3v-7.6h-7
		c-1.7,0-3.1-1.4-3.1-3.1v-5.2h-8.8c-3.4,0-6.1-2.8-6.1-6.1v-109.6C889.6-178.3,892.4-181,895.7-181L895.7-181z"/>
	<path class="st3" d="M905.8-170.4h93.9c3.4,0,6.1,2.8,6.1,6.1v88.8c0,3.4-2.8,6.1-6.1,6.1h-93.9c-3.4,0-6.1-2.8-6.1-6.1v-88.8
		C899.7-167.6,902.5-170.4,905.8-170.4L905.8-170.4z"/>
	<path d="M912.5-152.7h80.6c0.9,0,1.7,0.4,2.3,1s1,1.4,1,2.3v14.7c0,0.9-0.4,1.7-1,2.3s-1.4,1-2.3,1h-80.6c-0.9,0-1.7-0.4-2.3-1
		s-1-1.4-1-2.3v-14.7c0-0.9,0.4-1.7,1-2.3S911.6-152.7,912.5-152.7z"/>
	<path class="st3" d="M979.5-150.1v16.1h13.6c0.2,0,0.4-0.1,0.5-0.2c0.1-0.1,0.2-0.3,0.2-0.5v-14.7c0-0.2-0.1-0.4-0.2-0.5
		s-0.3-0.2-0.5-0.2H979.5z"/>
	<rect x="962.5" y="-150.1" class="st3" width="14.3" height="16.1"/>
	<rect x="945.7" y="-150.1" class="st3" width="14.3" height="16.1"/>
	<rect x="928.7" y="-150.1" class="st3" width="14.3" height="16.1"/>
	<path class="st3" d="M926.1-134v-16.1h-13.6c-0.2,0-0.4,0.1-0.5,0.2s-0.2,0.3-0.2,0.5v14.7c0,0.2,0.1,0.4,0.2,0.5s0.3,0.2,0.5,0.2
		H926.1L926.1-134z"/>
	<path d="M956-95h4.3c0.6,0,1.1,0.5,1.1,1.1c0,0.2-0.1,0.4-0.2,0.6L951-75.6c-0.2,0.3-0.6,0.5-1,0.5c-0.6,0-1.1-0.5-1.1-1.1
		c0-0.1,0-0.2,0-0.2l1.5-10.8l-5.1,0.1l0,0c-0.6,0-1.1-0.5-1.1-1.1l0,0c0-0.2,0.1-0.4,0.2-0.6l10.1-17.6c0.2-0.3,0.6-0.5,1-0.5
		c0.6,0,1.1,0.5,1.1,1.1v0.1L956-95z"/>
	<ellipse cx="997.4" cy="-162" rx="2.9" ry="3"/>
	<ellipse cx="908.2" cy="-162" rx="2.9" ry="3"/>
	<ellipse cx="908.2" cy="-77.7" rx="2.9" ry="3"/>
	<ellipse cx="997.4" cy="-77.7" rx="2.9" ry="3"/>
	<path d="M986.7-137.1c-0.8,0-1.5-0.3-2-0.8s-0.8-1.2-0.8-2.1v-4.1c0-0.9,0.3-1.6,0.8-2.1s1.2-0.8,2-0.8s1.5,0.3,2,0.8
		s0.8,1.2,0.8,2.1v4.1c0,0.9-0.3,1.6-0.8,2.1C988.3-137.4,987.6-137.1,986.7-137.1z"/>
	<path class="st3" d="M986.7-139.1c0.2,0,0.3-0.1,0.4-0.2s0.1-0.3,0.1-0.6v-4.4c0-0.2,0-0.4-0.1-0.6c-0.1-0.1-0.2-0.2-0.4-0.2
		c-0.2,0-0.3,0.1-0.4,0.2s-0.1,0.3-0.1,0.6v4.4c0,0.2,0,0.4,0.1,0.6C986.5-139.1,986.6-139.1,986.7-139.1z"/>
	<path d="M970-137.1c-0.8,0-1.5-0.3-2-0.8s-0.8-1.2-0.8-2.1v-4.1c0-0.9,0.3-1.6,0.8-2.1s1.2-0.8,2-0.8s1.5,0.3,2,0.8
		s0.8,1.2,0.8,2.1v4.1c0,0.9-0.3,1.6-0.8,2.1S970.9-137.1,970-137.1z"/>
	<path class="st3" d="M970-139.1c0.2,0,0.3-0.1,0.4-0.2s0.1-0.3,0.1-0.6v-4.4c0-0.2,0-0.4-0.1-0.6c-0.1-0.1-0.2-0.2-0.4-0.2
		c-0.2,0-0.3,0.1-0.4,0.2s-0.1,0.3-0.1,0.6v4.4c0,0.2,0,0.4,0.1,0.6S969.9-139.1,970-139.1z"/>
	<path d="M952.6-137.1c-0.8,0-1.5-0.3-2-0.8s-0.8-1.2-0.8-2.1v-4.1c0-0.9,0.3-1.6,0.8-2.1s1.2-0.8,2-0.8s1.5,0.3,2,0.8
		s0.8,1.2,0.8,2.1v4.1c0,0.9-0.3,1.6-0.8,2.1S953.4-137.1,952.6-137.1z"/>
	<path class="st3" d="M952.6-139.1c0.2,0,0.3-0.1,0.4-0.2s0.1-0.3,0.1-0.6v-4.4c0-0.2,0-0.4-0.1-0.6c-0.1-0.1-0.2-0.2-0.4-0.2
		c-0.2,0-0.3,0.1-0.4,0.2s-0.1,0.3-0.1,0.6v4.4c0,0.2,0,0.4,0.1,0.6S952.4-139.1,952.6-139.1z"/>
	<path d="M935.8-137.1c-0.8,0-1.5-0.3-2-0.8s-0.8-1.2-0.8-2.1v-4.1c0-0.9,0.3-1.6,0.8-2.1s1.2-0.8,2-0.8s1.5,0.3,2,0.8
		s0.8,1.2,0.8,2.1v4.1c0,0.9-0.3,1.6-0.8,2.1S936.6-137.1,935.8-137.1z"/>
	<path class="st3" d="M935.8-139.1c0.2,0,0.3-0.1,0.4-0.2s0.1-0.3,0.1-0.6v-4.4c0-0.2,0-0.4-0.1-0.6c-0.1-0.1-0.2-0.2-0.4-0.2
		c-0.2,0-0.3,0.1-0.4,0.2s-0.1,0.3-0.1,0.6v4.4c0,0.2,0,0.4,0.1,0.6C935.5-139.1,935.6-139.1,935.8-139.1z"/>
	<path d="M919.1-137.1c-0.8,0-1.5-0.3-2-0.8s-0.8-1.2-0.8-2.1v-4.1c0-0.9,0.3-1.6,0.8-2.1s1.2-0.8,2-0.8s1.5,0.3,2,0.8
		s0.8,1.2,0.8,2.1v4.1c0,0.9-0.3,1.6-0.8,2.1S919.9-137.1,919.1-137.1z"/>
	<path class="st3" d="M919.1-139.1c0.2,0,0.3-0.1,0.4-0.2s0.1-0.3,0.1-0.6v-4.4c0-0.2,0-0.4-0.1-0.6c-0.1-0.1-0.2-0.2-0.4-0.2
		c-0.2,0-0.3,0.1-0.4,0.2s-0.1,0.3-0.1,0.6v4.4c0,0.2,0,0.4,0.1,0.6S918.9-139.1,919.1-139.1z"/>
	<path d="M935.2-111.1c-1.2,0-2.1-0.9-2.1-2.1s0.9-2.1,2.1-2.1h35.2c1.2,0,2.1,0.9,2.1,2.1s-0.9,2.1-2.1,2.1H935.2z"/>
	<path d="M921.3-121.7c-1.2,0-2.1-0.9-2.1-2.1c0-1.2,0.9-2.1,2.1-2.1h62.9c1.2,0,2.1,0.9,2.1,2.1c0,1.2-0.9,2.1-2.1,2.1H921.3z"/>
</g>
<line class="st0" x1="729" y1="-116.2" x2="889.6" y2="-116.2"/>
<path d="M695.6-175.6L695.6-175.6l16.4-20.9c0.6-0.8,1.8-0.9,2.6-0.3c0.1,0.1,0.3,0.3,0.4,0.4l15.9,20.8l0.1,0.1l30.1,13.8
	c1,0.3,1.6,1.3,1.3,2.3c-0.2,0.9-1,1.4-1.9,1.4h-3.2v4.3c0,1.3-1,2.3-2.3,2.3s-2.3-1-2.3-2.3l0,0v-4.3h-2.3v4.3c0,1.3-1,2.3-2.3,2.3
	s-2.3-1-2.3-2.3v-4.3h-14.6v8.7l29.8,13.4c1,0.3,1.6,1.3,1.3,2.3c-0.2,0.9-1,1.4-1.9,1.4h-3.2v4.6c0,1.3-1,2.3-2.3,2.3
	s-2.3-1-2.3-2.3l0,0v-4.6h-2.3v4.6c0,1.3-1,2.3-2.3,2.3s-2.3-1-2.3-2.3l0,0v-4.6H731v18.8l11.9,26.3c0.3,0.3,0.4,0.6,0.5,1l0,0
	l12.9,28.5h8v11.3h-25.6v-11.4h12.5l-34.7-26.4h-7.2l-34.5,26.5h12.3v11.3h-25.5v-11.3h8.1l25.3-55.9v-18.8h-15.8v4.6
	c0,1.3-1,2.3-2.3,2.3s-2.3-1-2.3-2.3l0,0v-4.6h-2.5v4.6c-0.1,1.3-1.2,2.2-2.5,2.1c-1.1-0.1-2.1-1-2.1-2.1v-4.6h-1.7
	c-1,0-1.9-0.9-1.9-1.9c0-0.7,0.4-1.4,1.1-1.7l30-13.6v-8.5h-15.8v4.3c0,1.3-1,2.3-2.3,2.3s-2.3-1-2.3-2.3l0,0v-4.3h-2.5v4.3
	c-0.1,1.3-1.2,2.2-2.5,2.1c-1.1-0.1-2.1-1-2.1-2.1v-4.3h-1.7c-1-0.1-1.8-0.9-1.8-2c0-0.7,0.4-1.3,1-1.6L695.6-175.6L695.6-175.6z
	 M699-118.7l12.2-14l-11.9-13.7h-0.3L699-118.7L699-118.7z M713.3-135l9.8-11.3h-19.7L713.3-135L713.3-135z M727.3-146.3l-11.9,13.6
	l12.2,14v-27.7L727.3-146.3L727.3-146.3z M713.3-130.3L699.9-115h26.6L713.3-130.3z M699-152.2l11.4-9.6l-11.4-9.6V-152.2z
	 M713.3-164.1l9.5-7.9h-18.9L713.3-164.1z M727.5-171.3l-11.4,9.5l11.4,9.6V-171.3z M713.3-159.3l-11.1,9.3h22.1L713.3-159.3z
	 M749.8-63.7l-9.2-20.4H723L749.8-63.7z M703.4-84.1H686l-9.3,20.5L703.4-84.1z M734.8-87.8l-21.6-13.3l-21.6,13.2L734.8-87.8z
	 M709.7-103.2l-11.8-7.2l-9,20L709.7-103.2z M713.3-105.4l9.5-5.8h-19L713.3-105.4L713.3-105.4z M728.5-110.4l-11.7,7.2l20.8,12.7
	L728.5-110.4L728.5-110.4z M731.3-161.8h20.6l-20.6-9.4V-161.8L731.3-161.8z M695.2-171.3l-20.7,9.5h20.7V-171.3z M731.3-145.2v9.2
	h20.4L731.3-145.2z M695.2-136.1v-9.3l-20.5,9.3L695.2-136.1L695.2-136.1z M725.8-176.1l-12.4-16.2l-12.7,16.2H725.8z"/>
<g>
	<path d="M795.1,322.8c0.2,0.1,0.5,0.3,0.7,0.4l0.1,0.1c0.5,0.4,1,0.8,1.4,1.4c0.4,0.5,0.7,1.1,0.9,1.8l0,0c0.2,0.6,0.3,1.3,0.2,2
		c0,0.7-0.2,1.4-0.4,2l0,0c-0.1,0.3-0.3,0.7-0.4,1c-0.2,0.3-0.3,0.6-0.5,0.9c-0.8,1.1-1.9,2.1-3.1,2.7c-1.1,0.6-2.3,1.2-3.4,1.7
		c-9.5,3.9-18.9,8.6-28.4,12.4c-0.3,0.1-0.7,0.2-1,0.2l0,0c-0.4,0-0.9-0.1-1.3-0.3l-0.4-0.3c-0.1-0.1-0.3-0.3-0.3-0.5l-0.1-0.2
		l-0.1-0.3c0-0.1,0-0.3,0-0.4l0,0c0-0.5,0.2-0.9,0.5-1.3l0,0c0.2-0.3,0.4-0.5,0.7-0.7c8.4-7,17.2-13.6,25.7-20.3
		c0.6-0.5,1.2-0.9,1.8-1.3c0.6-0.4,1.3-0.7,1.9-1h0.1c0.7-0.3,1.4-0.4,2.1-0.4s1.5,0.1,2.2,0.3h0.1
		C794.5,322.6,794.8,322.7,795.1,322.8L795.1,322.8z"/>
	<path d="M780.7,379.1h17.1l6.4-43.9c0.1-0.8,0.8-1.5,1.6-1.5h6c0.8,0,1.5,0.6,1.6,1.4l7.4,44h17.2c0.5,0,0.9,0.4,0.9,0.9v6.7
		c0,0.5-0.4,0.9-0.9,0.9h-57.2c-0.5,0-0.9-0.4-0.9-0.9V380C779.8,379.5,780.2,379.1,780.7,379.1z"/>
	<path d="M812.7,313.1c1.1,0.4,2,1.1,2.9,1.9c1.6,1.6,2.5,3.8,2.6,6.1v0.1c0,2.3-0.9,4.6-2.6,6.2c-0.8,0.8-1.8,1.5-2.9,1.9
		c-4.5,1.9-9.6-0.2-11.5-4.7l0,0c-0.9-2.2-0.9-4.6,0-6.8c0.4-1.1,1.1-2,1.9-2.9l0,0c0.8-0.8,1.8-1.5,2.9-1.9
		C808.1,312.2,810.5,312.2,812.7,313.1L812.7,313.1z"/>
	<path d="M812.7,308.5c-0.3,0.2-0.5,0.3-0.8,0.4c-0.6,0.3-1.3,0.5-1.9,0.5c-0.6,0.1-1.3,0-1.9-0.1h-0.1c-0.6-0.2-1.2-0.5-1.8-0.8
		c-0.5-0.3-1-0.8-1.4-1.2l-0.1-0.1c-0.2-0.3-0.4-0.5-0.6-0.8s-0.3-0.6-0.5-0.9l0,0c-1.2-2.5-0.8-5.2-0.4-7.9
		c1.8-10,2.3-20.8,4.1-30.8c0.1-0.3,0.2-0.6,0.3-0.9v-0.1c0.2-0.4,0.5-0.6,0.8-0.9h0.1c0.2-0.1,0.3-0.1,0.5-0.2c0.1,0,0.3,0,0.4,0
		c0.2,0,0.4-0.1,0.7,0l0.3,0.2c0.4,0.2,0.7,0.6,0.9,1l0.1,0.1c0.1,0.3,0.2,0.7,0.3,1.1c1.8,10.2,2.7,21.8,4,32.1c0,0.1,0,0.2,0,0.4
		l0,0c0.1,0.7,0.1,1.4,0.2,2.1c0,0.8,0,1.5-0.1,2.3v0.1c-0.1,0.7-0.4,1.4-0.7,2c-0.4,0.7-0.9,1.3-1.5,1.8
		C813.1,308.1,812.9,308.3,812.7,308.5L812.7,308.5z"/>
	<path d="M819.7,329.5c0-0.3,0-0.6,0-0.9c0-0.7,0.2-1.4,0.5-2c0.2-0.6,0.6-1.1,1-1.5l0.1-0.1c0.5-0.5,1-0.9,1.6-1.1
		c0.6-0.3,1.2-0.5,1.8-0.6h0.1c0.3-0.1,0.7-0.1,1-0.1s0.7,0,1,0h0.1c1.4,0.1,2.7,0.6,3.9,1.3c1.1,0.7,2.2,1.4,3.2,2.3
		c8.1,6.3,16.3,12.5,24.5,18.8l0.1,0.1c0.2,0.2,0.4,0.5,0.6,0.8c0.2,0.4,0.3,0.7,0.3,1.1v0.3v0.2c0,0.2-0.1,0.4-0.2,0.6
		s-0.2,0.3-0.4,0.4l-0.1,0.1c-0.1,0.1-0.2,0.1-0.3,0.2c-0.4,0.2-0.9,0.3-1.4,0.2c-0.3,0-0.7-0.1-1-0.3l-30.1-12.6
		c-0.7-0.3-1.4-0.6-2.1-1c-0.7-0.3-1.3-0.7-1.9-1.2h-0.1c-1.2-1-2-2.3-2.2-3.8C819.7,330.2,819.7,329.8,819.7,329.5L819.7,329.5z"/>
</g>
<g>
	<path d="M938.1,322.8c0.2,0.1,0.5,0.3,0.7,0.4l0.1,0.1c0.5,0.4,1,0.8,1.4,1.4c0.4,0.5,0.7,1.1,0.9,1.8l0,0c0.2,0.6,0.3,1.3,0.2,2
		c0,0.7-0.2,1.4-0.4,2l0,0c-0.1,0.3-0.3,0.7-0.4,1c-0.2,0.3-0.3,0.6-0.5,0.9c-0.8,1.1-1.9,2.1-3.1,2.7c-1.1,0.6-2.3,1.2-3.4,1.7
		c-9.5,3.9-18.9,8.6-28.4,12.4c-0.3,0.1-0.7,0.2-1,0.2l0,0c-0.4,0-0.9-0.1-1.3-0.3l-0.4-0.3c-0.1-0.1-0.3-0.3-0.3-0.5l-0.1-0.2
		l-0.1-0.3c0-0.1,0-0.3,0-0.4l0,0c0-0.5,0.2-0.9,0.5-1.3l0,0c0.2-0.3,0.4-0.5,0.7-0.7c8.4-7,17.2-13.6,25.7-20.3
		c0.6-0.5,1.2-0.9,1.8-1.3c0.6-0.4,1.3-0.7,1.9-1h0.1c0.7-0.3,1.4-0.4,2.1-0.4s1.5,0.1,2.2,0.3h0.1
		C937.5,322.6,937.8,322.7,938.1,322.8L938.1,322.8z"/>
	<path d="M923.7,379.1h17.1l6.4-43.9c0.1-0.8,0.8-1.5,1.6-1.5h6c0.8,0,1.5,0.6,1.6,1.4l7.4,44h17.2c0.5,0,0.9,0.4,0.9,0.9v6.7
		c0,0.5-0.4,0.9-0.9,0.9h-57.2c-0.5,0-0.9-0.4-0.9-0.9V380C922.8,379.5,923.2,379.1,923.7,379.1z"/>
	<path d="M955.7,313.1c1.1,0.4,2,1.1,2.9,1.9c1.6,1.6,2.5,3.8,2.6,6.1v0.1c0,2.3-0.9,4.6-2.6,6.2c-0.8,0.8-1.8,1.5-2.9,1.9
		c-4.5,1.9-9.6-0.2-11.5-4.7l0,0c-0.9-2.2-0.9-4.6,0-6.8c0.4-1.1,1.1-2,1.9-2.9l0,0c0.8-0.8,1.8-1.5,2.9-1.9
		C951.1,312.2,953.5,312.2,955.7,313.1L955.7,313.1z"/>
	<path d="M955.7,308.5c-0.3,0.2-0.5,0.3-0.8,0.4c-0.6,0.3-1.3,0.5-1.9,0.5c-0.6,0.1-1.3,0-1.9-0.1h-0.1c-0.6-0.2-1.2-0.5-1.8-0.8
		c-0.5-0.3-1-0.8-1.4-1.2l-0.1-0.1c-0.2-0.3-0.4-0.5-0.6-0.8s-0.3-0.6-0.5-0.9l0,0c-1.2-2.5-0.8-5.2-0.4-7.9
		c1.8-10,2.3-20.8,4.1-30.8c0.1-0.3,0.2-0.6,0.3-0.9v-0.1c0.2-0.4,0.5-0.6,0.8-0.9h0.1c0.2-0.1,0.3-0.1,0.5-0.2c0.1,0,0.3,0,0.4,0
		c0.2,0,0.4-0.1,0.7,0l0.3,0.2c0.4,0.2,0.7,0.6,0.9,1l0.1,0.1c0.1,0.3,0.2,0.7,0.3,1.1c1.8,10.2,2.7,21.8,4,32.1c0,0.1,0,0.2,0,0.4
		l0,0c0.1,0.7,0.1,1.4,0.2,2.1c0,0.8,0,1.5-0.1,2.3v0.1c-0.1,0.7-0.4,1.4-0.7,2c-0.4,0.7-0.9,1.3-1.5,1.8
		C956.1,308.1,955.9,308.3,955.7,308.5L955.7,308.5z"/>
	<path d="M962.7,329.5c0-0.3,0-0.6,0-0.9c0-0.7,0.2-1.4,0.5-2c0.2-0.6,0.6-1.1,1-1.5l0.1-0.1c0.5-0.5,1-0.9,1.6-1.1
		c0.6-0.3,1.2-0.5,1.8-0.6h0.1c0.3-0.1,0.7-0.1,1-0.1s0.7,0,1,0h0.1c1.4,0.1,2.7,0.6,3.9,1.3c1.1,0.7,2.2,1.4,3.2,2.3
		c8.1,6.3,16.3,12.5,24.5,18.8l0.1,0.1c0.2,0.2,0.4,0.5,0.6,0.8c0.2,0.4,0.3,0.7,0.3,1.1v0.3v0.2c0,0.2-0.1,0.4-0.2,0.6
		s-0.2,0.3-0.4,0.4l-0.1,0.1c-0.1,0.1-0.2,0.1-0.3,0.2c-0.4,0.2-0.9,0.3-1.4,0.2c-0.3,0-0.7-0.1-1-0.3l-30.1-12.6
		c-0.7-0.3-1.4-0.6-2.1-1c-0.7-0.3-1.3-0.7-1.9-1.2h-0.1c-1.2-1-2-2.3-2.2-3.8C962.7,330.2,962.7,329.8,962.7,329.5L962.7,329.5z"/>
</g>
<g>
	<path d="M1081.1,322.8c0.2,0.1,0.5,0.3,0.7,0.4l0.1,0.1c0.5,0.4,1,0.8,1.4,1.4c0.4,0.5,0.7,1.1,0.9,1.8l0,0c0.2,0.6,0.3,1.3,0.2,2
		c0,0.7-0.2,1.4-0.4,2l0,0c-0.1,0.3-0.3,0.7-0.4,1c-0.2,0.3-0.3,0.6-0.5,0.9c-0.8,1.1-1.9,2.1-3.1,2.7c-1.1,0.6-2.3,1.2-3.4,1.7
		c-9.5,3.9-18.9,8.6-28.4,12.4c-0.3,0.1-0.7,0.2-1,0.2l0,0c-0.4,0-0.9-0.1-1.3-0.3l-0.4-0.3c-0.1-0.1-0.3-0.3-0.3-0.5l-0.1-0.2
		l-0.1-0.3c0-0.1,0-0.3,0-0.4l0,0c0-0.5,0.2-0.9,0.5-1.3l0,0c0.2-0.3,0.4-0.5,0.7-0.7c8.4-7,17.2-13.6,25.7-20.3
		c0.6-0.5,1.2-0.9,1.8-1.3c0.6-0.4,1.3-0.7,1.9-1h0.1c0.7-0.3,1.4-0.4,2.1-0.4s1.5,0.1,2.2,0.3h0.1
		C1080.5,322.6,1080.8,322.7,1081.1,322.8L1081.1,322.8z"/>
	<path d="M1066.7,379.1h17.1l6.4-43.9c0.1-0.8,0.8-1.5,1.6-1.5h6c0.8,0,1.5,0.6,1.6,1.4l7.4,44h17.2c0.5,0,0.9,0.4,0.9,0.9v6.7
		c0,0.5-0.4,0.9-0.9,0.9h-57.2c-0.5,0-0.9-0.4-0.9-0.9V380C1065.8,379.5,1066.2,379.1,1066.7,379.1z"/>
	<path d="M1098.7,313.1c1.1,0.4,2,1.1,2.9,1.9c1.6,1.6,2.5,3.8,2.6,6.1v0.1c0,2.3-0.9,4.6-2.6,6.2c-0.8,0.8-1.8,1.5-2.9,1.9
		c-4.5,1.9-9.6-0.2-11.5-4.7l0,0c-0.9-2.2-0.9-4.6,0-6.8c0.4-1.1,1.1-2,1.9-2.9l0,0c0.8-0.8,1.8-1.5,2.9-1.9
		C1094.1,312.2,1096.5,312.2,1098.7,313.1L1098.7,313.1z"/>
	<path d="M1098.7,308.5c-0.3,0.2-0.5,0.3-0.8,0.4c-0.6,0.3-1.3,0.5-1.9,0.5c-0.6,0.1-1.3,0-1.9-0.1h-0.1c-0.6-0.2-1.2-0.5-1.8-0.8
		c-0.5-0.3-1-0.8-1.4-1.2l-0.1-0.1c-0.2-0.3-0.4-0.5-0.6-0.8s-0.3-0.6-0.5-0.9l0,0c-1.2-2.5-0.8-5.2-0.4-7.9
		c1.8-10,2.3-20.8,4.1-30.8c0.1-0.3,0.2-0.6,0.3-0.9v-0.1c0.2-0.4,0.5-0.6,0.8-0.9h0.1c0.2-0.1,0.3-0.1,0.5-0.2c0.1,0,0.3,0,0.4,0
		c0.2,0,0.4-0.1,0.7,0l0.3,0.2c0.4,0.2,0.7,0.6,0.9,1l0.1,0.1c0.1,0.3,0.2,0.7,0.3,1.1c1.8,10.2,2.7,21.8,4,32.1c0,0.1,0,0.2,0,0.4
		l0,0c0.1,0.7,0.1,1.4,0.2,2.1c0,0.8,0,1.5-0.1,2.3v0.1c-0.1,0.7-0.4,1.4-0.7,2c-0.4,0.7-0.9,1.3-1.5,1.8
		C1099.1,308.1,1098.9,308.3,1098.7,308.5L1098.7,308.5z"/>
	<path d="M1105.7,329.5c0-0.3,0-0.6,0-0.9c0-0.7,0.2-1.4,0.5-2c0.2-0.6,0.6-1.1,1-1.5l0.1-0.1c0.5-0.5,1-0.9,1.6-1.1
		c0.6-0.3,1.2-0.5,1.8-0.6h0.1c0.3-0.1,0.7-0.1,1-0.1s0.7,0,1,0h0.1c1.4,0.1,2.7,0.6,3.9,1.3c1.1,0.7,2.2,1.4,3.2,2.3
		c8.1,6.3,16.3,12.5,24.5,18.8l0.1,0.1c0.2,0.2,0.4,0.5,0.6,0.8c0.2,0.4,0.3,0.7,0.3,1.1v0.3v0.2c0,0.2-0.1,0.4-0.2,0.6
		s-0.2,0.3-0.4,0.4l-0.1,0.1c-0.1,0.1-0.2,0.1-0.3,0.2c-0.4,0.2-0.9,0.3-1.4,0.2c-0.3,0-0.7-0.1-1-0.3l-30.1-12.6
		c-0.7-0.3-1.4-0.6-2.1-1c-0.7-0.3-1.3-0.7-1.9-1.2h-0.1c-1.2-1-2-2.3-2.2-3.8C1105.7,330.2,1105.7,329.8,1105.7,329.5L1105.7,329.5
		z"/>
</g>
<polygon class="st1" points="828.1,-141 812,-140.8 796.5,-111.4 807,-111.3 790.6,-79.6 827.7,-120.2 813.8,-120.2 "/>
<polygon class="st1" points="973.6,-6.9 953.8,-6.7 934.7,29.5 947.7,29.7 927.4,68.7 973.2,18.7 956.1,18.7 "/>
<g>
	<path d="M823.9,799.7c-5.3-8-7.1-17.9-4.9-27.2c1.6-7.4,4.9-14.3,9.5-20.2c4.7-6.1,10.7-11,17.6-14.4c9.4-4.8,20.4-5.8,30.6-2.7
		c2.3-9.6,8.3-18,16.7-23.2c7.6-4.9,16.2-8.1,25.2-9.3c9-1.4,18.2-1,27,1.2c10.7,2.8,20.1,8.2,25.7,16.7c8.9-6.4,19.9-9.3,30.8-8.1
		c8.7,0.7,17.2,3.2,25,7.3c7.6,3.8,14.3,9.4,19.4,16.2c5.3,7,7.8,15.8,6.9,24.6c13.6,0.9,25.6,9,31.5,21.3
		c2.8,5.6,4.6,11.6,5.1,17.8c0.6,6.3-0.1,12.6-2,18.6c-4.3,13.7-15,25.2-33.4,28.6c0.3,7.1-1.3,14.1-4.8,20.3
		c-5,8.7-12.2,16-20.9,21c-9.2,5.4-19.7,8.3-30.4,8.4c-11.5,0-22.7-3.7-31.9-10.6c-9.3,8.1-25.2,12.1-40.9,11.7
		c-6.7-0.1-13.4-1-19.8-2.7c-6.1-1.5-11.8-4.2-16.9-7.8c-5-3.5-8.6-8.5-10.4-14.3c-17.7,3.9-32.2,1.1-43.1-5.3
		c-14.1-8.4-22.7-23.7-22.6-40.1C813,817.2,816.9,807.4,823.9,799.7z"/>
	<path class="st3" d="M829.9,774.7c-1.8,7.6,0.2,15.6,5.4,21.4l0.4,0.5c1.9,2.4,1.6,5.9-0.8,7.8l0,0c-6.9,5.7-10.8,14.1-10.8,23
		c-0.1,12.5,6.4,24.1,17.2,30.5c9.5,5.7,23.2,7.7,40.5,2.5c0.5-0.1,1.1-0.2,1.6-0.2c3.1,0.1,5.5,2.6,5.5,5.7v0.1
		c0.1,4.9,2.6,9.5,6.7,12.1c4,2.8,8.5,4.8,13.2,5.9c5.6,1.5,11.3,2.3,17.1,2.4c15,0.3,29.8-3.5,35.7-11.5l0.3-0.3
		c2-2.3,5.5-2.6,7.8-0.6l0,0c7.9,7.1,18.2,11,28.8,11c8.7-0.1,17.2-2.4,24.7-6.9c7-4,12.7-9.7,16.7-16.7c3.2-5.5,4.3-12,3-18.2
		c-0.1-0.4-0.2-0.7-0.2-1.1c-0.2-3.1,2.1-5.7,5.1-6l0,0c16.4-1.2,25.9-10.4,29.4-21.4c2.8-9.3,2-19.3-2.4-27.9
		c-5.1-10.6-16.4-16.7-28-15.1c-3.1,0.3-5.8-1.9-6.1-4.9c-0.1-0.8,0-1.6,0.3-2.4c2.5-7.5,1.1-15.8-3.7-22.1
		c-4.1-5.4-9.4-9.9-15.5-12.9c-6.4-3.3-13.4-5.4-20.6-6c-10.6-0.8-20.9,2-27.3,9.7c-0.6,0.8-1.5,1.4-2.4,1.7c-2.9,1-6.1-0.5-7.1-3.4
		c0,0,0,0,0-0.1c-3-8.7-11.4-14.3-21.6-16.9c-7.4-1.8-15.2-2.1-22.7-1c-7.3,0.9-14.4,3.5-20.6,7.5c-7.6,4.6-12.4,12.8-12.7,21.7
		c0.1,1-0.2,1.9-0.6,2.8c-1.4,2.7-4.7,3.8-7.5,2.4l0,0c-8.7-4.6-19.1-4.7-27.8-0.1c-5.4,2.7-10,6.6-13.7,11.3
		C833.7,763.7,831.1,769,829.9,774.7L829.9,774.7z"/>
</g>
<g>
	<path d="M937.3,796.5c0.2,0.1,0.5,0.3,0.7,0.4l0.1,0.1c0.5,0.4,1,0.8,1.4,1.4c0.4,0.5,0.7,1.1,0.9,1.8l0,0c0.2,0.6,0.3,1.3,0.2,2
		c0,0.7-0.2,1.4-0.4,2l0,0c-0.1,0.3-0.3,0.7-0.4,1c-0.2,0.3-0.3,0.6-0.5,0.9c-0.8,1.1-1.9,2.1-3.1,2.7c-1.1,0.6-2.3,1.2-3.5,1.7
		c-9.5,3.9-18.9,8.6-28.4,12.4c-0.3,0.1-0.7,0.2-1,0.2l0,0c-0.4,0-0.9-0.1-1.3-0.3l-0.4-0.3c-0.1-0.1-0.3-0.3-0.3-0.5l-0.1-0.2
		l-0.1-0.3c0-0.1,0-0.3,0-0.4l0,0c0-0.5,0.2-0.9,0.5-1.3l0,0c0.2-0.3,0.4-0.5,0.7-0.7c8.4-7,17.2-13.6,25.7-20.4
		c0.6-0.5,1.2-0.9,1.8-1.3c0.6-0.4,1.3-0.7,1.9-1h0.1c0.7-0.3,1.4-0.4,2.1-0.4s1.5,0.1,2.2,0.3h0.1
		C936.7,796.2,937,796.4,937.3,796.5L937.3,796.5z"/>
	<path d="M922.9,852.9H940l6.4-43.9c0.1-0.8,0.8-1.5,1.6-1.5h6c0.8,0,1.5,0.6,1.6,1.4l7.4,44h17.2c0.5,0,0.9,0.4,0.9,0.9v6.7
		c0,0.5-0.4,0.9-0.9,0.9H923c-0.5,0-0.9-0.4-0.9-0.9v-6.7C922,853.2,922.4,852.9,922.9,852.9z"/>
	<path d="M954.9,786.7c1.1,0.4,2,1.1,2.9,1.9c1.6,1.6,2.5,3.8,2.6,6.1v0.2c0,2.3-0.9,4.6-2.6,6.2c-0.8,0.8-1.8,1.5-2.9,1.9
		c-4.5,1.9-9.6-0.2-11.5-4.7l0,0c-0.9-2.2-0.9-4.6,0-6.8c0.4-1.1,1.1-2,1.9-2.9l0,0c0.8-0.8,1.8-1.5,2.9-1.9
		C950.3,785.9,952.7,785.9,954.9,786.7L954.9,786.7z"/>
	<path d="M954.9,782.1c-0.3,0.2-0.5,0.3-0.8,0.5c-0.6,0.3-1.3,0.5-1.9,0.5c-0.6,0.1-1.3,0-1.9-0.2h-0.1c-0.6-0.2-1.2-0.5-1.8-0.8
		c-0.5-0.3-1-0.8-1.4-1.2l-0.1-0.1c-0.2-0.3-0.4-0.5-0.6-0.8s-0.3-0.6-0.5-0.9l0,0c-1.2-2.5-0.8-5.2-0.4-7.8
		c1.8-10,2.3-20.8,4.1-30.8c0.1-0.3,0.2-0.6,0.3-0.9v-0.1c0.2-0.4,0.5-0.6,0.8-0.9h0.1c0.2-0.1,0.3-0.1,0.5-0.2c0.1,0,0.3,0,0.4,0
		c0.2,0,0.4-0.1,0.7,0l0.3,0.2c0.4,0.2,0.7,0.6,0.9,1l0.1,0.1c0.1,0.3,0.2,0.7,0.3,1.1c1.8,10.2,2.7,21.8,4,32.1c0,0.1,0,0.2,0,0.4
		l0,0c0.1,0.7,0.2,1.4,0.2,2.1c0,0.8,0,1.5-0.1,2.3v0.1c-0.1,0.7-0.4,1.4-0.7,2c-0.4,0.7-0.9,1.3-1.5,1.8
		C955.4,781.9,955.1,782,954.9,782.1L954.9,782.1z"/>
	<path d="M961.9,803.1c0-0.3,0-0.6,0-0.9c0-0.7,0.2-1.4,0.5-2c0.2-0.6,0.6-1.1,1-1.5l0.1-0.1c0.5-0.5,1-0.9,1.6-1.1
		c0.6-0.3,1.2-0.5,1.8-0.6h0.1c0.3-0.1,0.7-0.1,1-0.1s0.7,0,1,0h0.1c1.4,0.1,2.7,0.6,3.9,1.3c1.1,0.7,2.2,1.4,3.2,2.3
		c8.1,6.3,16.3,12.5,24.5,18.8l0.1,0.1c0.2,0.2,0.4,0.5,0.6,0.8c0.2,0.4,0.3,0.7,0.3,1.1v0.3v0.2c0,0.2-0.1,0.4-0.2,0.6
		c-0.1,0.2-0.2,0.3-0.4,0.4l-0.1,0.1c-0.1,0.1-0.2,0.1-0.3,0.2c-0.4,0.2-0.9,0.3-1.4,0.2c-0.3,0-0.7-0.1-1-0.3l-30.1-12.6
		c-0.7-0.3-1.4-0.6-2.1-1c-0.7-0.3-1.3-0.7-1.9-1.2h-0.1c-1.2-1-2-2.3-2.2-3.8C961.9,803.9,961.9,803.5,961.9,803.1L961.9,803.1z"/>
</g>
<g>
	<g>
		<line class="st4" x1="953.5" y1="701.9" x2="953.5" y2="691.9"/>
		<line class="st5" x1="953.5" y1="671.9" x2="953.5" y2="521.9"/>
		<line class="st4" x1="953.5" y1="512" x2="953.5" y2="502"/>
		<g>
			<polygon class="st6" points="953.5,466.7 973.9,516.4 953.5,504.6 933.2,516.4 			"/>
		</g>
	</g>
</g>
<line class="st7" x1="921.2" y1="644.7" x2="986" y2="579.8"/>
<line class="st7" x1="922.8" y1="579.8" x2="987.7" y2="644.7"/>
<polyline class="st8" points="868,-192.3 859.5,-217.3 837.8,-195.6 837.8,-238.8 804.7,-205.6 804.7,-273.8 773.3,-242.4 "/>
<polyline class="st8" points="1028.9,-192.3 1037.4,-217.3 1059.1,-195.6 1059.1,-238.8 1092.3,-205.6 1092.3,-273.8 1121.7,-244.3 
	"/>
<polyline class="st8" points="947.8,-209.3 965.3,-224 931.1,-239.3 972.6,-258.7 917.7,-282.7 968.3,-312 945.6,-343.3 "/>
<g id="XMLID_29_">
	<g id="XMLID_30_">
		<line id="XMLID_27_" class="st0" x1="1544" y1="37.2" x2="1647.4" y2="37.2"/>
		<g id="XMLID_31_">
			<polygon id="XMLID_1_" class="st1" points="1682.7,37.2 1633,57.5 1644.8,37.2 1633,16.9 			"/>
		</g>
	</g>
</g>
<path id="XMLID_89_" d="M2205.1,512.2L2205.1,512.2l16.4-20.9c0.6-0.8,1.8-0.9,2.6-0.3c0.1,0.1,0.3,0.3,0.4,0.4l15.9,20.8l0.1,0.1
	l30.1,13.8c1,0.3,1.6,1.3,1.3,2.3c-0.2,0.9-1,1.4-1.9,1.4h-3.2v4.3c0,1.3-1,2.3-2.3,2.3s-2.3-1-2.3-2.3l0,0v-4.3h-2.3v4.3
	c0,1.3-1,2.3-2.3,2.3s-2.3-1-2.3-2.3v-4.3h-14.6v8.7l29.8,13.4c1,0.3,1.6,1.3,1.3,2.3c-0.2,0.9-1,1.4-1.9,1.4h-3.2v4.6
	c0,1.3-1,2.3-2.3,2.3s-2.3-1-2.3-2.3l0,0v-4.6h-2.3v4.6c0,1.3-1,2.3-2.3,2.3s-2.3-1-2.3-2.3l0,0v-4.6h-14.6v18.8l11.9,26.3
	c0.3,0.3,0.4,0.6,0.5,1l0,0l12.9,28.5h8v11.3h-25.6v-11.4h12.5l-34.7-26.4h-7.2l-34.5,26.5h12.3v11.3h-25.5v-11.3h8.1l25.3-55.9
	v-18.8h-15.8v4.6c0,1.3-1,2.3-2.3,2.3s-2.3-1-2.3-2.3l0,0v-4.6h-2.5v4.6c-0.1,1.3-1.2,2.2-2.5,2.1c-1.1-0.1-2.1-1-2.1-2.1v-4.6h-1.7
	c-1,0-1.9-0.9-1.9-1.9c0-0.7,0.4-1.4,1.1-1.7l30-13.6v-8.5h-15.8v4.3c0,1.3-1,2.3-2.3,2.3s-2.3-1-2.3-2.3l0,0v-4.3h-2.5v4.3
	c-0.1,1.3-1.2,2.2-2.5,2.1c-1.1-0.1-2.1-1-2.1-2.1v-4.3h-1.7c-1-0.1-1.8-0.9-1.8-2c0-0.7,0.4-1.3,1-1.6L2205.1,512.2L2205.1,512.2z
	 M2208.5,569.1l12.2-14l-11.9-13.7h-0.3L2208.5,569.1L2208.5,569.1z M2222.8,552.8l9.8-11.3h-19.7L2222.8,552.8L2222.8,552.8z
	 M2236.8,541.5l-11.9,13.6l12.2,14v-27.7L2236.8,541.5L2236.8,541.5z M2222.8,557.5l-13.3,15.3h26.6L2222.8,557.5z M2208.5,535.6
	l11.4-9.6l-11.4-9.6V535.6z M2222.8,523.7l9.5-7.9h-18.9L2222.8,523.7z M2237,516.5l-11.4,9.5l11.4,9.6V516.5z M2222.8,528.5
	l-11.1,9.3h22.1L2222.8,528.5z M2259.3,624.1l-9.2-20.4h-17.6L2259.3,624.1z M2212.9,603.7h-17.4l-9.3,20.5L2212.9,603.7z
	 M2244.3,600l-21.6-13.3l-21.6,13.2L2244.3,600z M2219.2,584.6l-11.8-7.2l-9,20L2219.2,584.6z M2222.8,582.4l9.5-5.8h-19
	L2222.8,582.4L2222.8,582.4z M2238,577.4l-11.7,7.2l20.8,12.7L2238,577.4L2238,577.4z M2240.8,526h20.6l-20.6-9.4V526L2240.8,526z
	 M2204.7,516.5L2184,526h20.7V516.5z M2240.8,542.6v9.2h20.4L2240.8,542.6z M2204.7,551.7v-9.3l-20.5,9.3H2204.7z M2235.3,511.7
	l-12.4-16.2l-12.7,16.2H2235.3z"/>
<path id="XMLID_33_" d="M2205.1-28.9L2205.1-28.9l16.4-20.9c0.6-0.8,1.8-0.9,2.6-0.3c0.1,0.1,0.3,0.3,0.4,0.4l15.9,20.8l0.1,0.1
	l30.1,13.8c1,0.3,1.6,1.3,1.3,2.3c-0.2,0.9-1,1.4-1.9,1.4h-3.2V-7c0,1.3-1,2.3-2.3,2.3s-2.3-1-2.3-2.3l0,0v-4.3h-2.3V-7
	c0,1.3-1,2.3-2.3,2.3s-2.3-1-2.3-2.3v-4.3h-14.6v8.7l29.8,13.4c1,0.3,1.6,1.3,1.3,2.3c-0.2,0.9-1,1.4-1.9,1.4h-3.2v4.6
	c0,1.3-1,2.3-2.3,2.3s-2.3-1-2.3-2.3l0,0v-4.6h-2.3v4.6c0,1.3-1,2.3-2.3,2.3s-2.3-1-2.3-2.3l0,0v-4.6h-14.6v18.8l11.9,26.3
	c0.3,0.3,0.4,0.6,0.5,1l0,0l12.9,28.5h8v11.3h-25.6V89h12.5l-34.7-26.4h-7.2l-34.5,26.5h12.3v11.3h-25.5V89.1h8.1l25.3-55.9V14.4
	h-15.8V19c0,1.3-1,2.3-2.3,2.3s-2.3-1-2.3-2.3l0,0v-4.6h-2.5V19c-0.1,1.3-1.2,2.2-2.5,2.1c-1.1-0.1-2.1-1-2.1-2.1v-4.6h-1.7
	c-1,0-1.9-0.9-1.9-1.9c0-0.7,0.4-1.4,1.1-1.7l30-13.6v-8.5h-15.8V-7c0,1.3-1,2.3-2.3,2.3s-2.3-1-2.3-2.3l0,0v-4.3h-2.5V-7
	c-0.1,1.3-1.2,2.2-2.5,2.1c-1.1-0.1-2.1-1-2.1-2.1v-4.3h-1.7c-1-0.1-1.8-0.9-1.8-2c0-0.7,0.4-1.3,1-1.6L2205.1-28.9L2205.1-28.9z
	 M2208.5,28l12.2-14l-11.9-13.7h-0.3V28L2208.5,28z M2222.8,11.7l9.8-11.3h-19.7L2222.8,11.7L2222.8,11.7z M2236.8,0.4L2224.9,14
	l12.2,14V0.3L2236.8,0.4L2236.8,0.4z M2222.8,16.4l-13.3,15.3h26.6L2222.8,16.4z M2208.5-5.5l11.4-9.6l-11.4-9.6V-5.5z M2222.8-17.4
	l9.5-7.9h-18.9L2222.8-17.4z M2237-24.6l-11.4,9.5l11.4,9.6V-24.6z M2222.8-12.6l-11.1,9.3h22.1L2222.8-12.6z M2259.3,83l-9.2-20.4
	h-17.6L2259.3,83z M2212.9,62.6h-17.4l-9.3,20.5L2212.9,62.6z M2244.3,58.9l-21.6-13.3l-21.6,13.2L2244.3,58.9z M2219.2,43.5
	l-11.8-7.2l-9,20L2219.2,43.5z M2222.8,41.3l9.5-5.8h-19L2222.8,41.3L2222.8,41.3z M2238,36.3l-11.7,7.2l20.8,12.7L2238,36.3
	L2238,36.3z M2240.8-15.1h20.6l-20.6-9.4V-15.1L2240.8-15.1z M2204.7-24.6l-20.7,9.5h20.7V-24.6z M2240.8,1.5v9.2h20.4L2240.8,1.5z
	 M2204.7,10.6V1.3l-20.5,9.3H2204.7z M2235.3-29.4l-12.4-16.2l-12.7,16.2H2235.3z"/>
<g id="XMLID_20_">
	<path id="XMLID_26_" d="M1729,32.4c-5,0-7.5,4.3-9.1,9l-3.8,12l-1.9-3.5c-8.4-0.5-9.4,4.2-1,8.5l0,0c-9.3,6-8,16.6-7.1,28.3
		c0,0.1,0,0.3,0,0.4v6.5c0,1.5,1.2,2.8,2.8,2.8h12c1.5,0,2.8-1.3,2.8-2.8v-2.3h57v2.3c0,1.6,1.3,2.8,2.8,2.8h12
		c1.6,0,2.8-1.3,2.8-2.8v-5c0.9-15.2,1.5-21.4-4.5-27.6l-1.5-2.3c9.1-4.3,8.4-9.3-0.3-8.8l-1.6,3.2l-2.9-11.7c-1.2-4.8-4.1-9-9-9
		h-23.2c0-0.3-0.1-0.6-0.1-0.9c5.3-0.8,7.2-3.6,7.2-9.1v-3.3h1.1c0.7,0,1.3-0.6,1.3-1.3v-1.5c0-0.7-0.6-1.3-1.3-1.3h-4.1V8
		c0-1.2-0.9-2.1-2.1-2.1l0,0c-1.2,0-2.1,1-2.1,2.1v6.8h-6.2V8c0-1.2-1-2.1-2.1-2.1l0,0l0,0c-1.2,0-2.1,1-2.1,2.1v6.8h-4
		c-0.7,0-1.3,0.6-1.3,1.3v1.6c0,0.7,0.6,1.3,1.3,1.3h0.8v3c0,5.5,2.1,8.9,7.9,9.5l0,0c0,0.3,0.1,0.6,0.1,0.9H1729L1729,32.4z"/>
	<path id="XMLID_25_" class="st3" d="M1755.1,70h3.8c0.5,0,1,0.5,1,1c0,0.2-0.1,0.4-0.2,0.5l-9,15.3c-0.3,0.5-0.9,0.6-1.3,0.3l0,0
		c-0.4-0.2-0.5-0.6-0.5-1.1l1.3-9.4l-4.5,0.1c-0.5,0-1-0.4-1-1l0,0c0-0.2,0-0.4,0.1-0.5l8.8-15.3c0.3-0.5,0.9-0.6,1.4-0.3
		c0.3,0.2,0.5,0.6,0.5,1L1755.1,70z"/>
	<path id="XMLID_24_" class="st3" d="M1725.4,40.5c0.3-0.7,0.8-1.3,1.4-1.7c1-1,2.5-1.6,3.9-1.6h45.8c3.8,0,6.1,3.2,6.9,6.9l3,12.2
		h-66.1l0,0l3.6-12.1C1724.1,42.8,1724.6,41.6,1725.4,40.5L1725.4,40.5z"/>
	<path id="XMLID_23_" class="st3" d="M1728.7,72.3L1718,71c-2.5-0.3-3.2,0.8-2.3,3l1.2,2.8c0.3,0.7,0.8,1.2,1.4,1.6
		c0.7,0.4,1.6,0.7,2.4,0.7l9.5,0.1c2.3,0,3.3-0.9,2.6-3C1732.2,74.1,1730.6,72.7,1728.7,72.3L1728.7,72.3z"/>
	<path id="XMLID_22_" class="st3" d="M1775.9,72.3l10.7-1.3c2.5-0.3,3.2,0.8,2.3,3l-1.2,2.8c-0.3,0.7-0.8,1.2-1.4,1.6
		c-0.7,0.4-1.6,0.7-2.4,0.7l-9.5,0.1c-2.3,0-3.3-0.9-2.6-3C1772.4,74.1,1774,72.7,1775.9,72.3z"/>
	<rect id="XMLID_21_" x="1746.3" y="20.3" class="st3" width="11.3" height="1.7"/>
</g>
<g id="XMLID_13_">
	<path id="XMLID_19_" d="M1821.1-26.8c-5,0-7.5,4.3-9.1,9l-3.8,12l-1.9-3.5c-8.4-0.5-9.4,4.2-1,8.5l0,0c-9.3,6-8,16.6-7.1,28.3
		c0,0.1,0,0.3,0,0.4v6.5c0,1.5,1.2,2.8,2.8,2.8h12c1.5,0,2.8-1.3,2.8-2.8v-2.3h57v2.3c0,1.6,1.3,2.8,2.8,2.8h12
		c1.6,0,2.8-1.3,2.8-2.8v-5c0.9-15.2,1.5-21.4-4.5-27.6l-1.5-2.3c9.1-4.3,8.4-9.3-0.3-8.8l-1.6,3.2l-2.9-11.7c-1.2-4.8-4.1-9-9-9
		h-23.2c0-0.3-0.1-0.6-0.1-0.9c5.3-0.8,7.2-3.6,7.2-9.1v-3.3h1.1c0.7,0,1.3-0.6,1.3-1.3V-43c0-0.7-0.6-1.3-1.3-1.3h-4.1v-6.8
		c0-1.2-0.9-2.1-2.1-2.1l0,0c-1.2,0-2.1,1-2.1,2.1v6.8h-6.2v-6.8c0-1.2-1-2.1-2.1-2.1l0,0l0,0c-1.2,0-2.1,1-2.1,2.1v6.8h-4
		c-0.7,0-1.3,0.6-1.3,1.3v1.6c0,0.7,0.6,1.3,1.3,1.3h0.8v3c0,5.5,2.1,8.9,7.9,9.5l0,0c0,0.3,0.1,0.6,0.1,0.9L1821.1-26.8
		L1821.1-26.8z"/>
	<path id="XMLID_18_" class="st3" d="M1847.2,10.8h3.8c0.5,0,1,0.5,1,1c0,0.2-0.1,0.4-0.2,0.5l-9,15.3c-0.3,0.5-0.9,0.6-1.3,0.3l0,0
		c-0.4-0.2-0.5-0.6-0.5-1.1l1.3-9.4l-4.5,0.1c-0.5,0-1-0.4-1-1l0,0c0-0.2,0-0.4,0.1-0.5l8.8-15.3c0.3-0.5,0.9-0.6,1.4-0.3
		c0.3,0.2,0.5,0.6,0.5,1L1847.2,10.8z"/>
	<path id="XMLID_17_" class="st3" d="M1817.5-18.7c0.3-0.7,0.8-1.3,1.4-1.7c1-1,2.5-1.6,3.9-1.6h45.8c3.8,0,6.1,3.2,6.9,6.9l3,12.2
		h-66.1l0,0L1816-15C1816.3-16.4,1816.8-17.6,1817.5-18.7L1817.5-18.7z"/>
	<path id="XMLID_16_" class="st3" d="M1820.8,13.1l-10.7-1.3c-2.5-0.3-3.2,0.8-2.3,3l1.2,2.8c0.3,0.7,0.8,1.2,1.4,1.6
		c0.7,0.4,1.6,0.7,2.4,0.7l9.5,0.1c2.3,0,3.3-0.9,2.6-3C1824.3,14.9,1822.7,13.5,1820.8,13.1L1820.8,13.1z"/>
	<path id="XMLID_15_" class="st3" d="M1868.1,13.1l10.7-1.3c2.5-0.3,3.2,0.8,2.3,3l-1.2,2.8c-0.3,0.7-0.8,1.2-1.4,1.6
		c-0.7,0.4-1.6,0.7-2.4,0.7l-9.5,0.1c-2.3,0-3.3-0.9-2.6-3C1864.5,14.9,1866.1,13.5,1868.1,13.1z"/>
	<rect id="XMLID_14_" x="1838.4" y="-38.9" class="st3" width="11.3" height="1.7"/>
</g>
<g id="XMLID_6_">
	<path id="XMLID_12_" d="M1912.2,36.9c-5,0-7.5,4.3-9.1,9l-3.8,12l-1.9-3.5c-8.4-0.5-9.4,4.2-1,8.5l0,0c-9.3,6-8,16.6-7.1,28.3
		c0,0.1,0,0.3,0,0.4v6.5c0,1.5,1.2,2.8,2.8,2.8h12c1.5,0,2.8-1.3,2.8-2.8v-2.3h57v2.3c0,1.6,1.3,2.8,2.8,2.8h12
		c1.6,0,2.8-1.3,2.8-2.8v-5c0.9-15.2,1.5-21.4-4.5-27.6l-1.5-2.3c9.1-4.3,8.4-9.3-0.3-8.8l-1.6,3.2l-2.9-11.7c-1.2-4.8-4.1-9-9-9
		h-23.2c0-0.3-0.1-0.6-0.1-0.9c5.3-0.8,7.2-3.6,7.2-9.1v-3.3h1.1c0.7,0,1.3-0.6,1.3-1.3v-1.5c0-0.7-0.6-1.3-1.3-1.3h-4.1v-6.7
		c0-1.2-0.9-2.1-2.1-2.1l0,0c-1.2,0-2.1,1-2.1,2.1v6.8h-6.2v-6.8c0-1.2-1-2.1-2.1-2.1l0,0l0,0c-1.2,0-2.1,1-2.1,2.1v6.8h-4
		c-0.7,0-1.3,0.6-1.3,1.3v1.6c0,0.7,0.6,1.3,1.3,1.3h0.8v3c0,5.5,2.1,8.9,7.9,9.5l0,0c0,0.3,0.1,0.6,0.1,0.9L1912.2,36.9z"/>
	<path id="XMLID_11_" class="st3" d="M1938.2,74.5h3.8c0.5,0,1,0.5,1,1c0,0.2-0.1,0.4-0.2,0.5l-9,15.3c-0.3,0.5-0.9,0.6-1.3,0.3l0,0
		c-0.4-0.2-0.5-0.6-0.5-1.1l1.3-9.4l-4.5,0.1c-0.5,0-1-0.4-1-1l0,0c0-0.2,0-0.4,0.1-0.5l8.8-15.3c0.3-0.5,0.9-0.6,1.4-0.3
		c0.3,0.2,0.5,0.6,0.5,1L1938.2,74.5z"/>
	<path id="XMLID_10_" class="st3" d="M1908.5,45c0.3-0.7,0.8-1.3,1.4-1.7c1-1,2.5-1.6,3.9-1.6h45.8c3.8,0,6.1,3.2,6.9,6.9l3,12.2
		h-66.1l0,0l3.6-12.1C1907.3,47.3,1907.8,46.1,1908.5,45L1908.5,45z"/>
	<path id="XMLID_9_" class="st3" d="M1911.8,76.9l-10.7-1.3c-2.5-0.3-3.2,0.8-2.3,3l1.2,2.8c0.3,0.7,0.8,1.2,1.4,1.6
		c0.7,0.4,1.6,0.7,2.4,0.7l9.5,0.1c2.3,0,3.3-0.9,2.6-3C1915.3,78.7,1913.7,77.2,1911.8,76.9L1911.8,76.9z"/>
	<path id="XMLID_8_" class="st3" d="M1959.1,76.9l10.7-1.3c2.5-0.3,3.2,0.8,2.3,3l-1.2,2.8c-0.3,0.7-0.8,1.2-1.4,1.6
		c-0.7,0.4-1.6,0.7-2.4,0.7l-9.5,0.1c-2.3,0-3.3-0.9-2.6-3C1955.5,78.7,1957.1,77.2,1959.1,76.9z"/>
	<rect id="XMLID_7_" x="1929.4" y="24.9" class="st3" width="11.3" height="1.7"/>
</g>
<g id="XMLID_38_">
	<path id="XMLID_43_" d="M1458,31.6c0.2,0.1,0.5,0.3,0.7,0.4l0.1,0.1c0.5,0.4,1,0.8,1.4,1.4c0.4,0.5,0.7,1.1,0.9,1.8l0,0
		c0.2,0.6,0.3,1.3,0.2,2c0,0.7-0.2,1.4-0.4,2l0,0c-0.1,0.3-0.3,0.7-0.4,1c-0.2,0.3-0.3,0.6-0.5,0.9c-0.8,1.1-1.9,2.1-3.1,2.7
		c-1.1,0.6-2.3,1.2-3.4,1.7c-9.5,3.9-18.9,8.6-28.4,12.4c-0.3,0.1-0.7,0.2-1,0.2l0,0c-0.4,0-0.9-0.1-1.3-0.3l-0.4-0.3
		c-0.1-0.1-0.3-0.3-0.3-0.5l-0.1-0.2l-0.1-0.3c0-0.1,0-0.3,0-0.4l0,0c0-0.5,0.2-0.9,0.5-1.3l0,0c0.2-0.3,0.4-0.5,0.7-0.7
		c8.4-7,17.2-13.6,25.7-20.3c0.6-0.5,1.2-0.9,1.8-1.3s1.3-0.7,1.9-1h0.1c0.7-0.3,1.4-0.4,2.1-0.4s1.5,0.1,2.2,0.3h0.1
		C1457.4,31.4,1457.7,31.5,1458,31.6L1458,31.6z"/>
	<path id="XMLID_42_" d="M1443.6,87.9h17.1l6.4-43.9c0.1-0.8,0.8-1.5,1.6-1.5h6c0.8,0,1.5,0.6,1.6,1.4l7.4,44h17.2
		c0.5,0,0.9,0.4,0.9,0.9v6.7c0,0.5-0.4,0.9-0.9,0.9h-57.2c-0.5,0-0.9-0.4-0.9-0.9v-6.7C1442.7,88.3,1443.1,87.9,1443.6,87.9z"/>
	<path id="XMLID_41_" d="M1475.6,21.9c1.1,0.4,2,1.1,2.9,1.9c1.6,1.6,2.5,3.8,2.6,6.1V30c0,2.3-0.9,4.6-2.6,6.2
		c-0.8,0.8-1.8,1.5-2.9,1.9c-4.5,1.9-9.6-0.2-11.5-4.7l0,0c-0.9-2.2-0.9-4.6,0-6.8c0.4-1.1,1.1-2,1.9-2.9l0,0
		c0.8-0.8,1.8-1.5,2.9-1.9C1471,21,1473.4,21,1475.6,21.9L1475.6,21.9z"/>
	<path id="XMLID_40_" d="M1475.6,17.3c-0.3,0.2-0.5,0.3-0.8,0.4c-0.6,0.3-1.3,0.5-1.9,0.5c-0.6,0.1-1.3,0-1.9-0.1h-0.1
		c-0.6-0.2-1.2-0.5-1.8-0.8c-0.5-0.3-1-0.8-1.4-1.2l-0.1-0.1c-0.2-0.3-0.4-0.5-0.6-0.8s-0.3-0.6-0.5-0.9l0,0
		c-1.2-2.5-0.8-5.2-0.4-7.9c1.8-10,2.3-20.8,4.1-30.8c0.1-0.3,0.2-0.6,0.3-0.9v-0.1c0.2-0.4,0.5-0.6,0.8-0.9h0.1
		c0.2-0.1,0.3-0.1,0.5-0.2c0.1,0,0.3,0,0.4,0c0.2,0,0.4-0.1,0.7,0l0.3,0.2c0.4,0.2,0.7,0.6,0.9,1l0.1,0.1c0.1,0.3,0.2,0.7,0.3,1.1
		c1.8,10.2,2.7,21.8,4,32.1c0,0.1,0,0.2,0,0.4l0,0c0.1,0.7,0.1,1.4,0.2,2.1c0,0.8,0,1.5-0.1,2.3v0.1c-0.1,0.7-0.4,1.4-0.7,2
		c-0.4,0.7-0.9,1.3-1.5,1.8C1476,16.9,1475.8,17.1,1475.6,17.3L1475.6,17.3z"/>
	<path id="XMLID_39_" d="M1482.6,38.3c0-0.3,0-0.6,0-0.9c0-0.7,0.2-1.4,0.5-2c0.2-0.6,0.6-1.1,1-1.5l0.1-0.1c0.5-0.5,1-0.9,1.6-1.1
		c0.6-0.3,1.2-0.5,1.8-0.6h0.1c0.3-0.1,0.7-0.1,1-0.1c0.3,0,0.7,0,1,0h0.1c1.4,0.1,2.7,0.6,3.9,1.3c1.1,0.7,2.2,1.4,3.2,2.3
		c8.1,6.3,16.3,12.5,24.5,18.8l0.1,0.1c0.2,0.2,0.4,0.5,0.6,0.8c0.2,0.4,0.3,0.7,0.3,1.1v0.3v0.2c0,0.2-0.1,0.4-0.2,0.6
		c-0.1,0.2-0.2,0.3-0.4,0.4l-0.1,0.1c-0.1,0.1-0.2,0.1-0.3,0.2c-0.4,0.2-0.9,0.3-1.4,0.2c-0.3,0-0.7-0.1-1-0.3l-30.1-12.6
		c-0.7-0.3-1.4-0.6-2.1-1c-0.7-0.3-1.3-0.7-1.9-1.2h-0.1c-1.2-1-2-2.3-2.2-3.8C1482.6,39,1482.6,38.6,1482.6,38.3L1482.6,38.3z"/>
</g>
<polygon id="XMLID_32_" class="st1" points="1618.8,7.1 1599,7.3 1579.9,43.5 1592.9,43.7 1572.6,82.7 1618.4,32.7 1601.3,32.7 "/>
<polygon id="XMLID_28_" class="st1" points="2105.2,537.7 2085.4,537.9 2066.3,574.1 2079.3,574.3 2059,613.3 2104.8,563.3 
	2087.7,563.3 "/>
<g id="XMLID_2_">
	<path id="XMLID_5_" class="st9" d="M1415.9-117.9c-2.8,0.1-5.1-2.2-5.1-5s2.2-5,5-5h88.1c0.4,0,0.8,0,1.1,0.1
		c3.1,0.5,6.1,1.4,8.7,2.8c2.9,1.6,5.4,3.8,7.3,6.7c6.6,10,5.7,19.2,1,26.1c-3.1,4.5-7.7,7.9-12.8,9.6c-5.2,1.8-10.9,2-16,0.1
		c-7.8-2.8-14.1-10.1-15-23.2c-0.2-2.7,1.9-5.1,4.6-5.3s5.1,1.9,5.3,4.6c0.6,8.4,4.2,12.9,8.5,14.5c2.9,1.1,6.3,1,9.4-0.1
		c3.2-1.1,6-3.1,7.8-5.7c2.6-3.8,3-9.1-1-15.1c-0.9-1.5-2.2-2.6-3.7-3.4c-1.6-0.8-3.4-1.4-5.4-1.7L1415.9-117.9L1415.9-117.9z"/>
	<path id="XMLID_4_" class="st9" d="M1393.1-162.7c-2.8,0-4.9-2.2-4.9-5c0-2.8,2.2-5,5-5h87.8c2-0.3,3.8-0.9,5.4-1.7
		c1.5-0.8,2.7-1.9,3.7-3.4c3.9-6,3.5-11.3,1-15.1c-1.8-2.6-4.6-4.6-7.8-5.7c-3.1-1-6.5-1.2-9.4-0.1c-4.3,1.5-7.9,6-8.5,14.5
		c-0.2,2.7-2.6,4.8-5.3,4.6c-2.7-0.2-4.8-2.6-4.6-5.3c0.9-13.1,7.2-20.4,15-23.2c5.2-1.8,10.9-1.6,16,0.1c5.1,1.8,9.8,5.1,12.8,9.6
		c4.6,6.8,5.6,16.1-1,26.1c-1.9,2.9-4.4,5.1-7.3,6.7c-2.6,1.4-5.5,2.3-8.7,2.8c-0.4,0-0.7,0.1-1.1,0.1L1393.1-162.7L1393.1-162.7z"
		/>
	<path id="XMLID_3_" class="st9" d="M1371.6-140.3c-2.7,0-5-2.2-5-5c0-2.8,2.2-5,5-5h183.7c2-0.3,3.9-0.9,5.4-1.7
		c1.5-0.8,2.7-1.9,3.7-3.4c3.9-6,3.5-11.3,1-15.1c-1.8-2.6-4.6-4.6-7.8-5.7c-3.1-1-6.5-1.2-9.4-0.1c-4.3,1.5-7.9,6-8.5,14.5
		c-0.2,2.7-2.6,4.8-5.3,4.6c-2.7-0.2-4.8-2.6-4.6-5.3c0.9-13.1,7.2-20.4,15-23.2c5.2-1.8,10.9-1.6,16,0.1c5.1,1.8,9.8,5.1,12.8,9.6
		c4.6,6.8,5.6,16.1-1,26.1c-1.9,2.9-4.4,5.1-7.3,6.7c-2.6,1.4-5.5,2.3-8.7,2.8c-0.4,0-0.7,0.1-1.1,0.1H1371.6L1371.6-140.3z"/>
</g>
<g id="XMLID_84_">
	<g id="XMLID_85_">
		<line id="XMLID_88_" class="st0" x1="2144" y1="570.9" x2="2020.1" y2="570.9"/>
		<g id="XMLID_86_">
			<polygon id="XMLID_87_" class="st1" points="2004.1,570.9 2026.7,561.7 2021.3,570.9 2026.7,580.2 			"/>
		</g>
	</g>
</g>
<g id="XMLID_77_">
	<path id="XMLID_83_" d="M1729.3,572.6c-5,0-7.5,4.3-9.1,9l-3.8,12l-1.9-3.5c-8.4-0.5-9.4,4.2-1,8.5l0,0c-9.3,6-8,16.6-7.1,28.3
		c0,0.1,0,0.3,0,0.4v6.5c0,1.5,1.2,2.8,2.8,2.8h12c1.5,0,2.8-1.3,2.8-2.8v-2.3h57v2.3c0,1.6,1.3,2.8,2.8,2.8h12
		c1.6,0,2.8-1.3,2.8-2.8v-5c0.9-15.2,1.5-21.4-4.5-27.6l-1.5-2.3c9.1-4.3,8.4-9.3-0.3-8.8l-1.6,3.2l-2.9-11.7c-1.2-4.8-4.1-9-9-9
		h-23.2c0-0.3-0.1-0.6-0.1-0.9c5.3-0.8,7.2-3.6,7.2-9.1v-3.3h1.1c0.7,0,1.3-0.6,1.3-1.3v-1.5c0-0.7-0.6-1.3-1.3-1.3h-4.1v-7
		c0-1.2-0.9-2.1-2.1-2.1l0,0c-1.2,0-2.1,1-2.1,2.1v6.8h-6.2v-6.8c0-1.2-1-2.1-2.1-2.1l0,0l0,0c-1.2,0-2.1,1-2.1,2.1v6.8h-4
		c-0.7,0-1.3,0.6-1.3,1.3v1.6c0,0.7,0.6,1.3,1.3,1.3h0.8v3c0,5.5,2.1,8.9,7.9,9.5l0,0c0,0.3,0.1,0.6,0.1,0.9H1729.3L1729.3,572.6z"
		/>
	<path id="XMLID_82_" class="st3" d="M1755.4,610.2h3.8c0.5,0,1,0.5,1,1c0,0.2-0.1,0.4-0.2,0.5l-9,15.3c-0.3,0.5-0.9,0.6-1.3,0.3
		l0,0c-0.4-0.2-0.5-0.6-0.5-1.1l1.3-9.4l-4.5,0.1c-0.5,0-1-0.4-1-1l0,0c0-0.2,0-0.4,0.1-0.5l8.8-15.3c0.3-0.5,0.9-0.6,1.4-0.3
		c0.3,0.2,0.5,0.6,0.5,1L1755.4,610.2z"/>
	<path id="XMLID_81_" class="st3" d="M1725.7,580.7c0.3-0.7,0.8-1.3,1.4-1.7c1-1,2.5-1.6,3.9-1.6h45.8c3.8,0,6.1,3.2,6.9,6.9l3,12.2
		h-66.1l0,0l3.6-12.1C1724.4,583,1724.9,581.8,1725.7,580.7L1725.7,580.7z"/>
	<path id="XMLID_80_" class="st3" d="M1729,612.5l-10.7-1.3c-2.5-0.3-3.2,0.8-2.3,3l1.2,2.8c0.3,0.7,0.8,1.2,1.4,1.6
		c0.7,0.4,1.6,0.7,2.4,0.7l9.5,0.1c2.3,0,3.3-0.9,2.6-3C1732.5,614.3,1730.9,612.9,1729,612.5L1729,612.5z"/>
	<path id="XMLID_79_" class="st3" d="M1776.2,612.5l10.7-1.3c2.5-0.3,3.2,0.8,2.3,3l-1.2,2.8c-0.3,0.7-0.8,1.2-1.4,1.6
		c-0.7,0.4-1.6,0.7-2.4,0.7l-9.5,0.1c-2.3,0-3.3-0.9-2.6-3C1772.7,614.3,1774.3,612.9,1776.2,612.5z"/>
	<rect id="XMLID_78_" x="1746.6" y="560.5" class="st3" width="11.3" height="1.7"/>
</g>
<g id="XMLID_70_">
	<path id="XMLID_76_" d="M1821.4,513.4c-5,0-7.5,4.3-9.1,9l-3.8,12l-1.9-3.5c-8.4-0.5-9.4,4.2-1,8.5l0,0c-9.3,6-8,16.6-7.1,28.3
		c0,0.1,0,0.3,0,0.4v6.5c0,1.5,1.2,2.8,2.8,2.8h12c1.5,0,2.8-1.3,2.8-2.8v-2.3h57v2.3c0,1.6,1.3,2.8,2.8,2.8h12
		c1.6,0,2.8-1.3,2.8-2.8v-5c0.9-15.2,1.5-21.4-4.5-27.6l-1.5-2.3c9.1-4.3,8.4-9.3-0.3-8.8l-1.6,3.2l-2.9-11.7c-1.2-4.8-4.1-9-9-9
		h-23.2c0-0.3-0.1-0.6-0.1-0.9c5.3-0.8,7.2-3.6,7.2-9.1v-3.3h1.1c0.7,0,1.3-0.6,1.3-1.3v-1.6c0-0.7-0.6-1.3-1.3-1.3h-4.1v-6.8
		c0-1.2-0.9-2.1-2.1-2.1l0,0c-1.2,0-2.1,1-2.1,2.1v6.8h-6.2v-6.8c0-1.2-1-2.1-2.1-2.1l0,0l0,0c-1.2,0-2.1,1-2.1,2.1v6.8h-4
		c-0.7,0-1.3,0.6-1.3,1.3v1.6c0,0.7,0.6,1.3,1.3,1.3h0.8v3c0,5.5,2.1,8.9,7.9,9.5l0,0c0,0.3,0.1,0.6,0.1,0.9L1821.4,513.4
		L1821.4,513.4z"/>
	<path id="XMLID_75_" class="st3" d="M1847.5,551h3.8c0.5,0,1,0.5,1,1c0,0.2-0.1,0.4-0.2,0.5l-9,15.3c-0.3,0.5-0.9,0.6-1.3,0.3l0,0
		c-0.4-0.2-0.5-0.6-0.5-1.1l1.3-9.4l-4.5,0.1c-0.5,0-1-0.4-1-1l0,0c0-0.2,0-0.4,0.1-0.5l8.8-15.3c0.3-0.5,0.9-0.6,1.4-0.3
		c0.3,0.2,0.5,0.6,0.5,1L1847.5,551z"/>
	<path id="XMLID_74_" class="st3" d="M1817.8,521.5c0.3-0.7,0.8-1.3,1.4-1.7c1-1,2.5-1.6,3.9-1.6h45.8c3.8,0,6.1,3.2,6.9,6.9l3,12.2
		h-66.1l0,0l3.6-12.1C1816.6,523.8,1817.1,522.6,1817.8,521.5L1817.8,521.5z"/>
	<path id="XMLID_73_" class="st3" d="M1821.1,553.3l-10.7-1.3c-2.5-0.3-3.2,0.8-2.3,3l1.2,2.8c0.3,0.7,0.8,1.2,1.4,1.6
		c0.7,0.4,1.6,0.7,2.4,0.7l9.5,0.1c2.3,0,3.3-0.9,2.6-3C1824.6,555.1,1823,553.7,1821.1,553.3L1821.1,553.3z"/>
	<path id="XMLID_72_" class="st3" d="M1868.4,553.3l10.7-1.3c2.5-0.3,3.2,0.8,2.3,3l-1.2,2.8c-0.3,0.7-0.8,1.2-1.4,1.6
		c-0.7,0.4-1.6,0.7-2.4,0.7l-9.5,0.1c-2.3,0-3.3-0.9-2.6-3C1864.8,555.1,1866.4,553.7,1868.4,553.3z"/>
	<rect id="XMLID_71_" x="1838.7" y="501.3" class="st3" width="11.3" height="1.7"/>
</g>
<g id="XMLID_63_">
	<path id="XMLID_69_" d="M1912.5,577.1c-5,0-7.5,4.3-9.1,9l-3.8,12l-1.9-3.5c-8.4-0.5-9.4,4.2-1,8.5l0,0c-9.3,6-8,16.6-7.1,28.3
		c0,0.1,0,0.3,0,0.4v6.5c0,1.5,1.2,2.8,2.8,2.8h12c1.5,0,2.8-1.3,2.8-2.8V636h57v2.3c0,1.6,1.3,2.8,2.8,2.8h12
		c1.6,0,2.8-1.3,2.8-2.8v-5c0.9-15.2,1.5-21.4-4.5-27.6l-1.5-2.3c9.1-4.3,8.4-9.3-0.3-8.8l-1.6,3.2l-2.9-11.7c-1.2-4.8-4.1-9-9-9
		h-23.2c0-0.3-0.1-0.6-0.1-0.9c5.3-0.8,7.2-3.6,7.2-9.1v-3.3h1.1c0.7,0,1.3-0.6,1.3-1.3V561c0-0.7-0.6-1.3-1.3-1.3h-4.1V553
		c0-1.2-0.9-2.1-2.1-2.1l0,0c-1.2,0-2.1,1-2.1,2.1v6.8h-6.2V553c0-1.2-1-2.1-2.1-2.1l0,0l0,0c-1.2,0-2.1,1-2.1,2.1v6.8h-4
		c-0.7,0-1.3,0.6-1.3,1.3v1.6c0,0.7,0.6,1.3,1.3,1.3h0.8v3c0,5.5,2.1,8.9,7.9,9.5l0,0c0,0.3,0.1,0.6,0.1,0.9L1912.5,577.1z"/>
	<path id="XMLID_68_" class="st3" d="M1938.5,614.7h3.8c0.5,0,1,0.5,1,1c0,0.2-0.1,0.4-0.2,0.5l-9,15.3c-0.3,0.5-0.9,0.6-1.3,0.3
		l0,0c-0.4-0.2-0.5-0.6-0.5-1.1l1.3-9.4l-4.5,0.1c-0.5,0-1-0.4-1-1l0,0c0-0.2,0-0.4,0.1-0.5l8.8-15.3c0.3-0.5,0.9-0.6,1.4-0.3
		c0.3,0.2,0.5,0.6,0.5,1L1938.5,614.7z"/>
	<path id="XMLID_67_" class="st3" d="M1908.8,585.2c0.3-0.7,0.8-1.3,1.4-1.7c1-1,2.5-1.6,3.9-1.6h45.8c3.8,0,6.1,3.2,6.9,6.9l3,12.2
		h-66.1l0,0l3.6-12.1C1907.6,587.5,1908.1,586.3,1908.8,585.2L1908.8,585.2z"/>
	<path id="XMLID_66_" class="st3" d="M1912.1,617.1l-10.7-1.3c-2.5-0.3-3.2,0.8-2.3,3l1.2,2.8c0.3,0.7,0.8,1.2,1.4,1.6
		c0.7,0.4,1.6,0.7,2.4,0.7l9.5,0.1c2.3,0,3.3-0.9,2.6-3C1915.6,618.9,1914,617.4,1912.1,617.1L1912.1,617.1z"/>
	<path id="XMLID_65_" class="st3" d="M1959.4,617.1l10.7-1.3c2.5-0.3,3.2,0.8,2.3,3l-1.2,2.8c-0.3,0.7-0.8,1.2-1.4,1.6
		c-0.7,0.4-1.6,0.7-2.4,0.7l-9.5,0.1c-2.3,0-3.3-0.9-2.6-3C1955.8,618.9,1957.4,617.4,1959.4,617.1z"/>
	<rect id="XMLID_64_" x="1929.7" y="565.1" class="st3" width="11.3" height="1.7"/>
</g>
<g id="XMLID_57_">
	<path id="XMLID_62_" d="M1457.8,572.8c0.2,0.1,0.5,0.3,0.7,0.4l0.1,0.1c0.5,0.4,1,0.8,1.4,1.4c0.4,0.5,0.7,1.1,0.9,1.8l0,0
		c0.2,0.6,0.3,1.3,0.2,2c0,0.7-0.2,1.4-0.4,2l0,0c-0.1,0.3-0.3,0.7-0.4,1c-0.2,0.3-0.3,0.6-0.5,0.9c-0.8,1.1-1.9,2.1-3.1,2.7
		c-1.1,0.6-2.3,1.2-3.4,1.7c-9.5,3.9-18.9,8.6-28.4,12.4c-0.3,0.1-0.7,0.2-1,0.2l0,0c-0.4,0-0.9-0.1-1.3-0.3l-0.4-0.3
		c-0.1-0.1-0.3-0.3-0.3-0.5l-0.1-0.2l-0.1-0.3c0-0.1,0-0.3,0-0.4l0,0c0-0.5,0.2-0.9,0.5-1.3l0,0c0.2-0.3,0.4-0.5,0.7-0.7
		c8.4-7,17.2-13.6,25.7-20.3c0.6-0.5,1.2-0.9,1.8-1.3c0.6-0.4,1.3-0.7,1.9-1h0.1c0.7-0.3,1.4-0.4,2.1-0.4s1.5,0.1,2.2,0.3h0.1
		C1457.2,572.6,1457.5,572.7,1457.8,572.8L1457.8,572.8z"/>
	<path id="XMLID_61_" d="M1443.4,629.1h17.1l6.4-43.9c0.1-0.8,0.8-1.5,1.6-1.5h6c0.8,0,1.5,0.6,1.6,1.4l7.4,44h17.2
		c0.5,0,0.9,0.4,0.9,0.9v6.7c0,0.5-0.4,0.9-0.9,0.9h-57.2c-0.5,0-0.9-0.4-0.9-0.9V630C1442.5,629.5,1442.9,629.1,1443.4,629.1z"/>
	<path id="XMLID_60_" d="M1475.4,563.1c1.1,0.4,2,1.1,2.9,1.9c1.6,1.6,2.5,3.8,2.6,6.1v0.1c0,2.3-0.9,4.6-2.6,6.2
		c-0.8,0.8-1.8,1.5-2.9,1.9c-4.5,1.9-9.6-0.2-11.5-4.7l0,0c-0.9-2.2-0.9-4.6,0-6.8c0.4-1.1,1.1-2,1.9-2.9l0,0
		c0.8-0.8,1.8-1.5,2.9-1.9C1470.8,562.2,1473.2,562.2,1475.4,563.1L1475.4,563.1z"/>
	<path id="XMLID_59_" d="M1475.4,558.5c-0.3,0.2-0.5,0.3-0.8,0.4c-0.6,0.3-1.3,0.5-1.9,0.5c-0.6,0.1-1.3,0-1.9-0.1h-0.1
		c-0.6-0.2-1.2-0.5-1.8-0.8c-0.5-0.3-1-0.8-1.4-1.2l-0.1-0.1c-0.2-0.3-0.4-0.5-0.6-0.8s-0.3-0.6-0.5-0.9l0,0
		c-1.2-2.5-0.8-5.2-0.4-7.9c1.8-10,2.3-20.8,4.1-30.8c0.1-0.3,0.2-0.6,0.3-0.9v-0.1c0.2-0.4,0.5-0.6,0.8-0.9h0.1
		c0.2-0.1,0.3-0.1,0.5-0.2c0.1,0,0.3,0,0.4,0c0.2,0,0.4-0.1,0.7,0l0.3,0.2c0.4,0.2,0.7,0.6,0.9,1l0.1,0.1c0.1,0.3,0.2,0.7,0.3,1.1
		c1.8,10.2,2.7,21.8,4,32.1c0,0.1,0,0.2,0,0.4l0,0c0.1,0.7,0.1,1.4,0.2,2.1c0,0.8,0,1.5-0.1,2.3v0.1c-0.1,0.7-0.4,1.4-0.7,2
		c-0.4,0.7-0.9,1.3-1.5,1.8C1475.8,558.1,1475.6,558.3,1475.4,558.5L1475.4,558.5z"/>
	<path id="XMLID_58_" d="M1482.4,579.5c0-0.3,0-0.6,0-0.9c0-0.7,0.2-1.4,0.5-2c0.2-0.6,0.6-1.1,1-1.5l0.1-0.1c0.5-0.5,1-0.9,1.6-1.1
		c0.6-0.3,1.2-0.5,1.8-0.6h0.1c0.3-0.1,0.7-0.1,1-0.1s0.7,0,1,0h0.1c1.4,0.1,2.7,0.6,3.9,1.3c1.1,0.7,2.2,1.4,3.2,2.3
		c8.1,6.3,16.3,12.5,24.5,18.8l0.1,0.1c0.2,0.2,0.4,0.5,0.6,0.8c0.2,0.4,0.3,0.7,0.3,1.1v0.3v0.2c0,0.2-0.1,0.4-0.2,0.6
		s-0.2,0.3-0.4,0.4l-0.1,0.1c-0.1,0.1-0.2,0.1-0.3,0.2c-0.4,0.2-0.9,0.3-1.4,0.2c-0.3,0-0.7-0.1-1-0.3l-30.1-12.6
		c-0.7-0.3-1.4-0.6-2.1-1c-0.7-0.3-1.3-0.7-1.9-1.2h-0.1c-1.2-1-2-2.3-2.2-3.8C1482.4,580.2,1482.4,579.8,1482.4,579.5L1482.4,579.5
		z"/>
</g>
<g id="XMLID_52_">
	<path id="XMLID_55_" class="st10" d="M1409,432.7c-2.8,0.1-5.1-2.2-5.1-5s2.2-5,5-5h88.1c0.4,0,0.8,0,1.1,0.1
		c3.1,0.5,6.1,1.4,8.7,2.8c2.9,1.6,5.4,3.8,7.3,6.7c6.6,10,5.7,19.2,1,26.1c-3.1,4.5-7.7,7.9-12.8,9.6c-5.2,1.8-10.9,2-16,0.1
		c-7.8-2.8-14.1-10.1-15-23.2c-0.2-2.7,1.9-5.1,4.6-5.3s5.1,1.9,5.3,4.6c0.6,8.4,4.2,12.9,8.5,14.5c2.9,1.1,6.3,1,9.4-0.1
		c3.2-1.1,6-3.1,7.8-5.7c2.6-3.8,3-9.1-1-15.1c-0.9-1.5-2.2-2.6-3.7-3.4c-1.6-0.8-3.4-1.4-5.4-1.7L1409,432.7L1409,432.7z"/>
	<path id="XMLID_54_" class="st10" d="M1386.2,387.9c-2.8,0-4.9-2.2-4.9-5s2.2-5,5-5h87.8c2-0.3,3.8-0.9,5.4-1.7
		c1.5-0.8,2.7-1.9,3.7-3.4c3.9-6,3.5-11.3,1-15.1c-1.8-2.6-4.6-4.6-7.8-5.7c-3.1-1-6.5-1.2-9.4-0.1c-4.3,1.5-7.9,6-8.5,14.5
		c-0.2,2.7-2.6,4.8-5.3,4.6c-2.7-0.2-4.8-2.6-4.6-5.3c0.9-13.1,7.2-20.4,15-23.2c5.2-1.8,10.9-1.6,16,0.1c5.1,1.8,9.8,5.1,12.8,9.6
		c4.6,6.8,5.6,16.1-1,26.1c-1.9,2.9-4.4,5.1-7.3,6.7c-2.6,1.4-5.5,2.3-8.7,2.8c-0.4,0-0.7,0.1-1.1,0.1L1386.2,387.9L1386.2,387.9z"
		/>
	<path id="XMLID_53_" class="st10" d="M1364.7,410.3c-2.7,0-5-2.2-5-5s2.2-5,5-5h183.7c2-0.3,3.9-0.9,5.4-1.7
		c1.5-0.8,2.7-1.9,3.7-3.4c3.9-6,3.5-11.3,1-15.1c-1.8-2.6-4.6-4.6-7.8-5.7c-3.1-1-6.5-1.2-9.4-0.1c-4.3,1.5-7.9,6-8.5,14.5
		c-0.2,2.7-2.6,4.8-5.3,4.6s-4.8-2.6-4.6-5.3c0.9-13.1,7.2-20.4,15-23.2c5.2-1.8,10.9-1.6,16,0.1c5.1,1.8,9.8,5.1,12.8,9.6
		c4.6,6.8,5.6,16.1-1,26.1c-1.9,2.9-4.4,5.1-7.3,6.7c-2.6,1.4-5.5,2.3-8.7,2.8c-0.4,0-0.7,0.1-1.1,0.1L1364.7,410.3L1364.7,410.3z"
		/>
</g>
<g>
	<path d="M1880,127.5h8.3c0.6,0,1.2,0.3,1.6,0.7c0.4,0.4,0.7,1,0.7,1.6v22.7c0,0.6-0.3,1.2-0.7,1.6c-0.4,0.4-1,0.7-1.6,0.7h-8.3v6.8
		c0,1.1-0.5,2.1-1.2,2.8c-0.7,0.7-1.7,1.2-2.8,1.2h-67.2c-1.1,0-2.1-0.5-2.8-1.2c-0.7-0.7-1.2-1.7-1.2-2.8v-41
		c0-1.1,0.4-2.1,1.2-2.8s1.7-1.2,2.8-1.2h67.2c1.1,0,2.1,0.5,2.8,1.2c0.7,0.7,1.2,1.7,1.2,2.8V127.5L1880,127.5z"/>
	<path class="st3" d="M1876,152.9v-23.4v-8.8l0,0l0,0h-67.2l0,0l0,0v41l0,0l0,0h67.2l0,0l0,0V152.9L1876,152.9z"/>
	<path class="st11" d="M1869.5,124.7c1.1,0,2.1,1,2.1,2.1v28.9c0,1.1-1,2.1-2.1,2.1h-7v-33h7V124.7z"/>
	<polygon points="1886.7,131.5 1880,131.5 1880,150.9 1886.7,150.9 	"/>
	<path d="M1815.2,124.7h7v33h-7c-1.1,0-2.1-0.9-2.1-2.1v-28.9C1813.1,125.6,1814.1,124.7,1815.2,124.7L1815.2,124.7z"/>
	<polygon points="1825.6,124.7 1834.6,124.7 1834.6,157.7 1825.6,157.7 	"/>
	<polygon points="1837.8,124.7 1846.9,124.7 1846.9,157.7 1837.8,157.7 	"/>
	<polygon points="1850.2,124.7 1859.3,124.7 1859.3,157.7 1850.2,157.7 	"/>
</g>
<g>
	<path d="M1880.6,668.7h8.3c0.6,0,1.2,0.3,1.6,0.7c0.4,0.4,0.7,1,0.7,1.6v22.7c0,0.6-0.3,1.2-0.7,1.6c-0.4,0.4-1,0.7-1.6,0.7h-8.3
		v6.8c0,1.1-0.5,2.1-1.2,2.8c-0.7,0.7-1.7,1.2-2.8,1.2h-67.2c-1.1,0-2.1-0.5-2.8-1.2c-0.7-0.7-1.2-1.7-1.2-2.8v-41
		c0-1.1,0.4-2.1,1.2-2.8c0.7-0.7,1.7-1.2,2.8-1.2h67.2c1.1,0,2.1,0.5,2.8,1.2c0.7,0.7,1.2,1.7,1.2,2.8V668.7L1880.6,668.7z"/>
	<path class="st3" d="M1876.6,694.1v-23.4v-8.8l0,0l0,0h-67.2l0,0l0,0v41l0,0l0,0h67.2l0,0l0,0V694.1L1876.6,694.1z"/>
	<path d="M1870.1,665.9c1.1,0,2.1,1,2.1,2.1v28.9c0,1.1-1,2.1-2.1,2.1h-7v-33L1870.1,665.9L1870.1,665.9z"/>
	<polygon points="1887.3,672.7 1880.6,672.7 1880.6,692.1 1887.3,692.1 	"/>
	<path class="st11" d="M1815.8,665.9h7v33h-7c-1.1,0-2.1-0.9-2.1-2.1v-28.9C1813.7,666.8,1814.7,665.9,1815.8,665.9L1815.8,665.9z"
		/>
	<polygon class="st11" points="1826.1,665.9 1835.2,665.9 1835.2,698.9 1826.1,698.9 	"/>
	<polygon class="st11" points="1838.4,665.9 1847.5,665.9 1847.5,698.9 1838.4,698.9 	"/>
	<polygon class="st11" points="1850.8,665.9 1859.9,665.9 1859.9,698.9 1850.8,698.9 	"/>
</g>
</svg>
