<?xml version="1.0" encoding="utf-8"?>
<!-- Generator: Adobe Illustrator 19.0.0, SVG Export Plug-In . SVG Version: 6.00 Build 0)  -->
<svg version="1.1" id="Layer_1" xmlns="http://www.w3.org/2000/svg" xmlns:xlink="http://www.w3.org/1999/xlink" x="0px" y="0px"
	 width="1920px" height="1080px" viewBox="480 -260 1920 1080" style="enable-background:new 480 -260 1920 1080;"
	 xml:space="preserve">
<style type="text/css">
	.st0{fill:#F3E7C5;stroke:#000000;stroke-width:6;stroke-linecap:round;stroke-linejoin:round;stroke-miterlimit:10;}
	.st1{fill:#FFFFFF;stroke:#000000;stroke-width:4;stroke-linejoin:round;stroke-miterlimit:10;}
	.st2{fill:#FFFFFF;stroke:#000000;stroke-width:3;stroke-miterlimit:10;}
	.st3{fill:#FFFFFF;}
	.st4{fill:none;stroke:#000000;stroke-width:4;stroke-miterlimit:10;}
</style>
<g>
	<path id="XMLID_5_" class="st0" d="M1369.7,189.1c0.1-2.7-5.5-7.1-8.5-10.5c-7.8-8.9-6.7-17.2,3.1-23.4c0.6-0.4,1.7-0.8,2.4-1.2
		c14.3-7.7,27.7-16.8,40-27.5c7.9-6.9,15.4-14.3,23-21.4c8.8-8.2,25.7-16.9,30-19s5-4,5-4c0.1-1.8-0.9-3.2-2-4.5
		c-3-3.7-5-8-6.5-12.5c-3.2-9.6-5.2-19.2-0.5-29c1.1-2.2,2.1-4.6,2.5-7c0.9-5.5,3.5-9.8,7.6-13.5c3.6-3.2,6.7-6.8,8.9-11
		c1.2-2.3,2.5-5.2-0.4-7.4c-2.5-1.9-5.2-1.6-7.4,0.1c-2.6,1.9-5.6,3-8.6,3.8c-13.6,3.9-27.3,5.7-40.5-1.9c-5.2-3-14.7-9.1-15.4-9.6
		s-1.1-0.7-1.6-1.4c-1.1-1.5,2.7-4.6,4.6-6.4c3.9-3.8,7-8.3,7.3-13.6c0.6-8.8,0.6-17.7-1.3-26.5c-2-9.1-3.8-18.2-4.4-27.5
		c-0.8-12.7,1.6-24.8,6.8-36.5c4.3-9.8,9.8-18.2,19.5-23.6c3.1-1.7,5.5-4.7,7.6-7.9c4.8-7.2,11.5-11.6,20-13.6
		c7.3-1.7,14.7-3.1,21-7.5c8.6-5.9,18.3-9.3,27.5-14c19.2-9.7,39.5-13.9,61-13c3.7,0.2,7.4-0.6,11-0.8c10.5-0.5,21-1.6,31.5-2
		c9.6-0.4,19.2-1.5,28.4-3.4c17.1-3.6,34.3-7.2,50.5-13.9c11.5-4.7,22.2-2.7,33,1.7c1.8,0.7,3.4,1.3,4.1,3.9
		c2.1,7.7,3.7,15.5,3.9,23.5c0.2,8.1,7.8,20.6,18.9,18.9c3.3-0.5,6,0.8,8.4,2.2c3.8,2.3,7.6,3.9,12.1,3.9c3.3,0,4.5,2.2,4.5,5.4
		c0.2,7.5,2.4,10.4,9.5,12.5c2.2,0.7,4.3,1.4,6.5,2c15.4,3.7,18.4,21.9,13.8,32.5c-2.9,6.8-3.1,13-1,20.1
		c4.1,14.2,4.8,28.8,1.2,43.4c-3.6,14.6-9.4,28.3-17.5,41c-2.9,4.6-5.3,9.5-6.6,15c-2,7.9-2.6,16-2.8,24c-0.3,11.2,0,22.3-0.1,33.5
		c-0.1,10.3-3.7,13.9-14,12.3c-5.2-0.8-10.4-0.6-15.5-0.8c-1,0-2,0.2-3,0c-10.1-1.9-20.2-3.2-30.5-3c-7.8,0.2-9.4,1.6-10.5,9
		c-0.9,5.7-0.7,11.1,3,16c3.2,4.2,2.9,6.2-1,10c-1.4,1.3-2.8,2.7-4.5,3.5c-5.4,2.6-6.1,9.6-3.4,13.5c5,7.4,11.9,12.1,21,11.9
		c6.6-0.1,12.6,1.1,18.5,3.8c2,0.9,4,1.6,6.1,2.4c4.8,1.9,9,0.8,12.5-3c2.2-2.4,4.9-4,8-5c5.8,1.5,8.5,6.6,10.5,11.5
		c3.1,7.4,6.3,14.5,8.3,22.4c1.3,5.4-1.1,9.7-1.4,14.6c-0.2,2.6-1.5,5.1-2.7,7.5c-3.3,6.6-2.1,12.8,1.2,19.1c3.3,6.1,2.3,8-3.9,11.1
		c-1.7,0.8-3.3,1.4-5,1.9c-5.9,1.8-10.5,4.6-11.6,11.5c-0.4,2.6-2.1,4.9-4.4,6.5c-5.2,3.7-8.3,9-11,14.5c-3,6.2-7.5,9.5-14.5,8.5
		c-4.9-0.7-8.7,0.7-11,5.5c-2.9,5.9-8.6,8.1-14.4,10.1c-5.2,1.8-6.2,6.2-2.5,9.9c0.7,0.7,1.3,1.6,2.5,1.5
		c11.7-0.4,17.6,8.9,24.2,15.8c4.7,4.9,2.8,12.5-0.4,18.1c-3.6,6.3-8.9,11.7-14.9,15.9c-2.5,1.8-5.9,2.6-9.4,2.2
		c-9.4-1-18.2,0.8-26,6.4c-5.5,3.9-11.9,5-18.5,5.6c-4.4,0.4-8.7,1.4-12,4.9c-1.5,1.5-3.3,2.7-5,4c-3.4,2.6-8,2.8-11.5,0.5
		c-3.5-2.4-7-4.4-11.5-4.6c-2.6-0.1-5.4-1.3-7-3.9c-1.8-2.8-4.5-3.3-7.5-3c-3.3,0.3-5.9-1-8.5-2.9c-4.3-3.1-11.4-7.1-14.5-5.6
		c-0.4,0.8-1,3.4,1.3,9.5c1.2,3.7,0.6,6-2.3,8c-3.7-0.5-7.1-2.3-10.5-3.9c-4.3-2-8.8-1.9-11.9,2c-3.8,4.9-8.8,6.4-14.6,7
		c-3.7,0.4-5.3,3.9-4.6,8c0.6,3.7,3.2,6.3,4.8,9.4c2.1,4,2.4,6.8-1.1,10.2c-4.3,4.2-3.3,7.7,2.4,9.4c3,0.9,5.9,2.1,8.5,4
		c3.8,2.9,3,7.6,3.9,11.5c1,4.6,2.6,8.2,7.6,9.5c1.6,0.4,3,1.6,4.5,2.4c3,1.8,3.7,4.3,2.5,7.5c-2.9,7.5-0.2,13.7,5,19
		c6.8,7,12.8,14.5,17.5,23c4,7.3,5.1,15.2,3.7,23c-1.6,9-0.2,17.5,1.4,26c0.8,3.9,0.1,7-2.3,9.5c-6.5,6.9-11.3,14.6-14.6,23.5
		c-2.4,6.5-7.6,11.6-11.8,17.1c-3,3.8-5.1,8-5.6,13c-0.6,5.8,3.5,9.2,8.6,9c4.2-0.2,8.1,1.1,11.5,3.5c4.5,3.3,4.3,5.8-0.5,8.9
		c-2.7,1.8-6,2.3-9,3.5c-8.3,3.3-14.4,9.4-20,16c-4.4,5.3-8.7,10.7-13,16c-2,2.4-3.9,3-6.6,0.6c-1.2-1.1-2.6-2.1-3.9-3
		c-4.8-3.3-10.4-0.5-11,5.5c-1.1,10.5,8.2,21,18.5,21c2.7,0,5.3,0,8,0c5.7,0.1,8.9,2.9,9.5,8.5c0.1,1.2,0,2.3,0,3.5
		c0,7.9,0,7.9,7,10.5c5,1.9,8.6,9.6,6.9,16c-1.3,4.7-3.4,8.9-8.9,10.3c-5.5,1.5-8.9,4.6-8.2,11.2c-0.2,7.2-7.8,7.5-7.8,7.5
		c0.6,4.6,4.6,7.4,6.2,11.6c-3.1,5.8-8.7,5.1-13.7,4.7c-3.4-0.3-6.8-1.6-10-2.9c-4.2-1.7-8.2-2.3-12.5-0.5c-3.3,1.3-6.4,0.5-9-1.9
		c-4.6-4.3-9.4-5.9-15-1.6c-1.2,0.9-3,1-4.5,1.6c-3.5,1.3-6,0.1-6.4-3.5c-1.1-8-5.2-14.4-10-20.5c-1.6-2.1-3.3-4.5-3.9-7
		c-0.8-3.4-0.1-7,2.9-9.5c3.3-2.7,6.6-5.4,10-8c9.9-7.4,14.7-17.2,15.1-29.5c0.2-5.6-1.2-11-1.1-16.5c0.1-2.4,0.5-4.4,1.9-6.6
		c3.9-6,6.9-12.4,12.4-17.7c5.2-4.9,6.3-12.5,5.7-19.8c-0.3-3.6-3.2-5.6-7.4-4.9s-8,1.9-8,1.9c0.2-4.7-2.3-8.8-6-8.9
		c-3-0.1-6,0.1-9,0.6c-4.8,0.8-10.2,1.6-14-3.7c-3.1-4.3-7.9-6.5-12.9-8c-2.9-0.9-6.1-1.9-6.4-5.1c-0.7-7.3-4.6-13.1-8.2-18.9
		c-5-8-8.2-8.6-16.4-4.1c-4.3,2.4-8.4,5.8-13,6.8c-7.9,1.7-15.9,3.1-24,4.1c-9.2,1.3-11.3,0.1-12.9-6.4c-2.1-8.7-8.1-10.7-15.1-11.3
		c-3.4-0.3-5.1-1.7-6-4.7c-1.7-5.7-4.2-11.1-9.1-14.3c-4-2.6-4.5-5.7-4.4-9.7c0.1-4.8,0.9-9.4,2-14c1.2-5.2-2-11.8-6.5-14
		c-4-1.9-8.5-0.6-12.5,4c-2.1,2.5-3.7,5.3-5.6,8c-3.5,4.8-5.9,10.9-12,12.9c-7.7,2.6-15.7,2.5-23.5,0c-5.7-1.8-7.3-5.6-5-10.9
		c0.9-2.1,2-4,3-6c3-5.9,2.5-10.8-1.5-14.5c-3.8-3.5-9.2-3.9-14.5-1c-2,1.1-4.2,2.1-6,3.5c-6,5-13.6,8.9-12.2,19
		c0.3,2.6-2.1,4.8-5.8,4.6c-4.3-0.3-8.3-1.9-12.5-2.1c-5.6-0.3-7.3-1.9-7.5-7.5c-0.1-2.5,0.1-5,0-7.5c-0.4-5.7-4.8-8.2-10-5.5
		c-5.6,2.9-11.5,4.7-17.5,6.5c-8.9,2.7-9.2,3.5-9.6,12.5c-0.2,5.5,0.9,10.3,4.6,14.5c0.9,1.1,1.9,2.2,2.5,3.5c1.5,3.3,1.4,6.5-2,8.4
		c-3.2,1.8-6.5,3-10.5,1.2c-5-2.2-8.7-6.2-13.4-8.6c-5.3-2.8-10.8-2.2-13.4,2.6c-7.9,14.6-19.2,25.9-32.5,35.5
		c-9.9,7.2-20.4,13.1-32.1,16.9c-9.3,3.1-18.9,3.4-28.5,4.2c-4.2,0.4-6.5-0.6-8.7-4.1c-1.1-1.8-2.4-3.8-3.2-5.6
		c-2.7-6.2-7.8-9.2-13.6-11.4c-7-2.7-14.2-5-21-8.1c-6.5-3-12.9-3.9-20.1-2.5c-10.5,2.1-10.9,2-10.9,12.6c0,3-1,5.2-3.6,6.5
		c-5.4,2.6-13.2,1-17.5-3.5c-2.9-3.1-6-6.1-8.4-9.5c-3.5-5-6.1-10.4-3.7-17c1.5-4,1.7-8.2,0.2-12.5c-0.6-1.7-0.7-3.8,1.3-5.5
		c4.6-3.8,9.7-6.9,15.6-7.8c5.3-0.8,10.4-1.6,15.5-3.1c6.7-2,12.7-0.6,18,4c1.1,0.9,2.2,1.9,3.5,2.5c15.4,6.8,30.4,14.4,47,18
		c3.8,0.8,7.8,1.3,11.5-0.1c4.1-1.5,8.3-1.4,12.5-1.4c7.6,0,11.4-2.9,14.1-10c2.3-6.1,5.6-7.2,11.9-5.4c5.2,1.4,9.4,4.9,13.6,8.3
		c4.5,3.6,9.6,5.3,15.5,3.1c5.3-2,10.7-3.7,15.6-6.9c3-2,4.4-3.9,3.3-7.1c-1.1-3.5-4.6-4.9-7.3-3.8c-2.7,1.1-5.6,1.2-8.1,1.4
		c-7.2,0.8-14.8,1.5-20.5-5.1c-3.4-3.9-7-7.7-11-11c-7-5.9-16.7-7.9-22.5,2.4c-0.9,1.7-2,3.3-3,5c-4.8,8-10.7,11.9-23,9.1
		c-9.6-2.2-17-7.8-23.9-14.1c-4.1-3.7-8.9-5.9-14-4.8c-7.6,1.8-14.1,0.3-20-4.3c-9.1-7.1-16.9-16-27-22c-2.5-1.5-2.4-4.1,0-5.9
		c2.8-2.1,5.8-4.1,9-5.5c6.3-2.8,12.1-6.1,17.1-11c2.4-2.3,5.9-5.4,9.3-2.9c7.1,5.1,14,2.8,21.1,0.8c7.1-1.9,13.8-5.4,21.5-4.5
		c6.7,0.8,13.3,1.2,20,2.1c5.5,0.7,8.7,4.4,8.4,10c-0.4,7.4,1.3,7.9,7.6,10.5c12.5,5.1,23.7,11.6,30.6,24
		c3.4,6.1,8.6,10.3,16.4,10.8c2.4,0.2,5,0.4,7.5,0.8c9,1.6,16.8-0.4,23.2-7.2c-0.8-2.9-2.2-5.4-2-7.9c0.4-4.5-2.2-6.5-5.7-6.9
		c-10.1-1.1-19.1-5.4-28.4-8.8c-8-2.9-16.2-6-22-12.9c-1.9-2.2-3.9-4.5-2.6-8c2.1-5.3,8.9-9.2,14.5-8c8,1.7,14.8,0.3,19-7.5
		c1.6-3,4.5-5.1,7.5-4.8c9.3,1,18.5,2,28,1.1c10.8-1,18.9-6.3,25.8-13.4c4.1-4.3,5.4-8.9,1.7-13.3c-3.3-3.9-7.2-6.8-12.5-6.4
		c-6.4,0.5-11.3-2.1-16-6c-12.8-10.5-25.6-21-40.5-28.5c-10.5-5.3-17.9-12.9-20-25c-1.1-6.2-3-12.3-3.9-18.5
		c-1.2-8,1.5-12.2,9.4-12.8c8.4-0.5,13.8-5,18.4-10.8c11.2-14.1,23.3-27.3,37.1-38.9c2.9-2.4,4.8-5.4,6.1-9c1.7-4.6,4-8.8,7.3-12.6
		c4.8-5.6,8.6-11.9,12.2-18.4c6.1-11,11-22.7,16.3-34.1c4.4-9.4,10.1-18.2,12.6-28.4c2.3-9.3,4.3-18.8,7.1-28
		c4-13.3,7.4-26.8,9.2-40.5c1.8-13,2.3-26.3,2.2-39.5c-0.1-6.8,1.2-13.4,4.1-19.5c6.6-13.8,8.9-28.5,9.9-43.5
		c0.4-6.8,1.6-13.5,3.6-20c1.2-4,2.7-8.3,7.9-9c4.9-0.6,6.7,3.5,8.9,6.5c3.9,5.3,7.9,10.3,13.1,14.5c8.7,7,14.9,6.7,23-1
		c2.1-1.9,4.3-3.7,6.5-5.5c6.5-5.3,14.9-5.5,19.9,4c2.1,4,2.9,8.6,5.2,12.4c4.6,8,4.9,16.3,3,25.1c-0.7,3.2-0.7,6.8,0,9.9
		c1.4,6.1,3.6,9.8,10.4,9.1c3.5-0.4,7,0.3,10.5-0.1c8-1,13.4,3.1,17.4,9.1c3,4.4,4.5,11.7-1.3,17.1c-5.3,4.8-9.5,10.8-14.7,15.8
		c-6.6,6.4-11.3,9.7-21.9,5.1c-2.1-0.9-4.3-1.8-6.5-2.5c-6.8-1.9-12.7,2.8-13,10c-0.3,6.1,2.1,11.3,4.6,16.5
		c3.6,7.7,8.7,14.8,10.8,23c3.6,13.6,3.1,26.6-9.8,36c-2.3,1.7-4,4.1-6.5,5.5c-0.8,0.4-1.3,1.3-2,2c-6.6,5.9-3.1,9.1,3,10.5
		c9.5,2.2,19.2,4.2,28.4,7.2C1361.2,190.9,1368.7,192.5,1369.7,189.1z"/>
	<path id="XMLID_56_" class="st0" d="M1120.7,423.6c-2.4-3.7-5.6-6.2-10-7c-2.5-0.5-4.6-1.9-6.5-3.5c-12.6-10.6-27.8-15-43.6-16.1
		c-8.5-0.6-17.8-1.6-26,3.5c-3.7,2.3-7.1,4.5-9,8.6c-1.4,3.1-3.1,6.2-0.9,9.5c2.5,3.8,6.7,4.1,10.5,3.9c2.9-0.2,5.8-1.3,8.6-2.7
		c8.8-4.6,16.8-2.6,24,3.9c2.8,2.5,5.6,5,8.5,7.5c7.2,6.1,15.5,9.1,25,9c8.5-0.1,17.6-7.6,19.5-16"/>
	<path id="XMLID_58_" class="st0" d="M1069.2,383.1c5.7-1,11.4-1.7,17-3.1c10.2-2.4,13.7-0.5,18.1,8c2.5,4.8,3.7,10.2,7.3,14.6
		c3,3.7,6.4,5.3,11.1,5.5c9.1,0.3,17.7,2,24.5,8.9c1.3,1.3,3.1,2.2,4.5,3.5c7.2,6.8,15.2,6.1,23.5,2.5c4.4-1.9,4.7-5.1,1.6-8.5
		c-3-3.3-6.9-5.3-10.6-7.3c-11-5.9-20.9-12.8-29.6-22c-10.5-11.2-24.5-16.3-39.3-19.2c-3.3-0.6-6.1-1.2-9.1,1
		c-3.3,2.5-7.4,1.2-10.9,0.9c-7.2-0.7-10.5,4.7-14.4,8.8c-2.3,2.5,1.2,6.2,5.9,6.4"/>
	<path id="XMLID_45_" class="st0" d="M1289.7-117.9c-3.7,1-5.5,4.1-7.5,7c-4.9,6.8-11.3,12.5-14.5,20.5c-3.7,9-7.3,18-7,28
		c0.3,8.3,6.8,12.1,14,8c10-5.7,15.7-15.1,21.5-24.5c8-12.8,4.5-27.3-3.6-37.5c-0.6-0.7-1.1-1.8-2.5-1.5"/>
	<path id="XMLID_46_" class="st0" d="M1336.7-165.9c-14.2,4-25.2,13.2-36.5,22c-3,2.3-4.9,5.4-6,9c-1.3,4,1.2,6.8,5.5,5.9
		c5.4-1.1,9.9-3.7,12.5-8.9c3.3-6.5,8.2-10.8,16-11.6c5.1-0.6,10-2.1,15-3.4c4.2-1.1,7.9-2.8,8.1-8.4c-3.7-4-8.7-4.8-14-4.5"/>
	<path id="XMLID_52_" class="st0" d="M1438.7-212.9c-0.9-2.2-5.8-2.4-11.5-2.2s-10.8,1.5-15.5,4.6c-9.4,6.2-19.9,9.6-31,11.6
		c-7.6,1.4-15.5,2.2-22.1,7.3c-2.1,1.6-4.6,2.8-4.8,5.6c-0.1,2.3-1.3,5.2,1.4,7c3,2,6.4,1.4,9.5,0.5c8.8-2.6,16.7-7.6,25.5-10.6
		c6.8-2.3,13.9-3.9,20.6-6.8c7.7-3.4,15.3-7,23-10.5C1436.7-207.7,1440-208.1,1438.7-212.9z"/>
	<path id="XMLID_53_" class="st0" d="M1527.2-225.4c-13.6-0.2-26.7,3.2-40,5.3c-8.7,1.4-17.6,1.8-26.5,1.1c-3.1-0.2-5.2,0.7-6.5,3.5
		c-1.2,2.7-0.5,5.3,1.1,7.4c1.6,2.2,3.4,3.7,7,2.3c2.9-1.1,6.6-0.3,9.9-0.2c4.3,0.2,8.2-1,12-3c5.1-2.7,10.5-4.4,16.5-4.1
		c6.3,0.3,12.6,0.7,18.5-2.4c2.9-1.6,6.7,0.9,9.6-1.9c1.3-1.3,4.3-1.3,3.9-4.1c-0.3-2.4-1.9-3.8-4.4-4"/>
	<path id="XMLID_50_" class="st0" d="M1565.2-220.9c0.3,0.7,1.4,1.2,2.1,1.4c1.9,0.6,4.1,1.5,5.4-0.4c4.6-7.3,12.3-5.9,19.1-6.9
		c3.3-0.5,6.7,0,10-1c3.9-1.2,6.7-3.4,9-6.5c1.1-1.4,1.2-2.5,0.5-4.1c-0.8-1.8-2.2-1.4-3.6-1.5c-5.1-0.1-9.8,1.6-14.5,3
		c-4.9,1.5-9.7-0.3-14.5-0.1C1570.9-236.6,1564.3-228.9,1565.2-220.9z"/>
	<path id="XMLID_2_" class="st0" d="M1651.7-253.4c0.3-3.3-6.7-5.5-11-6.5c-3.1-0.7-5.1,1.5-5.9,4c0,0-0.4,1.3-0.1,2.5
		s6.2,2.8,9.5,3.4c2.5,0.5,5.5,0.4,6.9-2C1651.1-252,1651.2-252.3,1651.7-253.4z"/>
	<path id="XMLID_4_" class="st0" d="M1682.2-246.9c2-2.6-0.4-6.8-3.6-8.4c-3.3-1.6-7.1-0.9-10.1,1.2c-2.3,1.5-1.7,5.6,0.7,7.1
		c2.2,1.5,4.6,2.4,7.5,1.6C1676.7-245.3,1679.6-246.2,1682.2-246.9z"/>
</g>
<g>
	<path id="XMLID_6_" class="st1" d="M1541.1,234.8c-0.8,0-2.8,0.8-4.6,1.9c-3.1,2,0.2,3.9,0.4,4.1c2.4,1.5,5.1,3.1,5.1,7.9
		c0.1,6.3-5,9.2-11.2,9.2c-6.3,0.1-11.4-2.9-11.3-9.2c0-4.9,2.6-6.4,5-7.9c0.2-0.1,3.5-2.1,0.3-4c-1.9-1.2-3.6-1.8-4.7-1.8l-1.5,0
		l-19.7,0.1l0-11.4c0-0.8-0.5-4.6-1.6-6.4c-2-3.1-3.9,0.2-4.1,0.4c-1.5,2.4-3.1,5.1-7.9,5.1c-6.3,0.1-9.2-5-9.2-11.2
		c-0.1-6.3,2.9-11.4,9.2-11.3c4.9,0,6.4,2.6,7.9,5c0.1,0.2,2.1,3.5,4,0.3c1.2-1.9,1.6-5,1.6-6.1l0-0.6l-0.1-11.2l19.2-0.1l2,0
		c0.8,0,2.8-0.8,4.6-1.9c3.1-2-0.2-3.9-0.4-4.1c-2.4-1.5-5.1-3.1-5.1-7.9c-0.1-6.3,5-9.2,11.2-9.2c6.3-0.1,11.4,2.9,11.3,9.2
		c0,4.9-2.6,6.4-5,7.9c-0.2,0.1-3.5,2.1-0.3,4c1.9,1.2,3.6,1.8,4.7,1.8l1.8,0l19.3-0.1l0,12.5l0,0.8c0,0.8,0.8,2.8,1.9,4.6
		c2,3.1,3.9-0.2,4.1-0.4c1.5-2.4,3.1-5.1,7.9-5.1c6.3-0.1,9.2,5,9.2,11.2c0.1,6.2-2.9,11.4-9.2,11.3c-4.9,0-6.4-2.6-7.9-5
		c-0.1-0.2-2.1-3.5-4-0.3c-1.2,1.9-1.8,3.6-1.8,4.7l0,1.7l0.1,11.6l-20.4,0.1L1541.1,234.8z"/>
	<path id="XMLID_16_" class="st1" d="M1604.5,234.8c-0.8,0-2.7,0.7-4.6,1.9c-3.1,1.9,0.2,4,0.3,4.1c2.5,1.5,5.1-0.5,5.1,4.4
		c0,6.3-5,9.2-11.3,9.3c-6.3,0-11.3-3-11.3-9.2c0-4.8,2.6-2.9,5-4.3c0.2,0,3.5-2.1,0.4-4.1c-1.9-1.2-3.6-1.9-4.6-1.9l-0.7,0
		l-20.4,0.1l-0.1-11.6l0-1.7c0-1,0.7-2.8,1.8-4.7c2-3.1,4,0.2,4.1,0.3c1.5,2.4,3,5.1,8,5c6.2-0.1,9.2-5,9.2-11.3
		c-0.1-6.2-3-11.3-9.3-11.3c-4.9,0-6.3,2.6-7.9,5.1c-0.2,0.2-2.1,3.4-4.1,0.3c-1.1-1.9-1.9-3.8-1.8-4.7l0-2.2l0-11l20.4-0.1l0.7,0
		c0.8,0,2.7-0.7,4.6-1.9c3.1-1.9-0.2-4-0.4-4.1c-2.4-1.5-5.1,0.1-5.1-4.7c0-6.3,5-9.2,11.3-9.3c6.3-0.1,11.3,3,11.3,9.2
		c0,4.8-2.7,3.2-5.1,4.7c-0.2,0-3.4,2.1-0.3,4.1c1.9,1.2,3.6,1.9,4.6,1.9l0.7,0l20.4-0.1l0,11.4l0,1.8c0,0.8,0.7,2.8,1.8,4.7
		c2,3.1,4-0.2,4.1-0.3c1.5-2.5,3.1-5.1,7.9-5.1c6.2-0.1,9.2,5,9.3,11.3c0.1,6.2-3,11.3-9.2,11.3c-4.9,0-6.4-2.6-8-5
		c-0.1-0.2-2.1-3.5-4.1-0.3c-1.1,1.9-1.8,3.6-1.8,4.7l0,0.7l0,12.5l-20.4,0.1L1604.5,234.8L1604.5,234.8z"/>
	<path id="XMLID_1_" class="st1" d="M1456.5,187.5c0.8,0,2.7-0.7,4.6-1.9c3.1-1.9-0.2-4-0.3-4.1c-2.5-1.5-5.1,0.1-5.1-4.7
		c0-6.3,5-9.2,11.3-9.3c6.3,0,11.3,3,11.3,9.2c0,4.8-2.7,3.2-5.1,4.7c-0.2,0-3.5,2.1-0.4,4.1c1.9,1.2,3.6,1.9,4.6,1.9l0.7,0
		l20.4-0.1l0.1,11.6l0,1.7c0,1-0.7,2.8-1.8,4.7c-2,3.1-4-0.2-4.1-0.3c-1.5-2.4-3-5.1-8-5c-6.2,0.1-9.2,5-9.2,11.3
		c0.1,6.2,3,11.3,9.3,11.3c4.9,0,6.3-2.6,7.9-5.1c0.2-0.2,2.1-3.4,4.1-0.3c1.1,1.9,1.9,3.8,1.8,4.7l0,2.2l0,11l-20.4,0.1l-0.7,0
		c-0.8,0-2.7,0.7-4.6,1.9c-3.1,1.9,0.2,4,0.4,4.1c2.4,1.5,5.1-0.5,5.1,4.4c0,6.3-5,9.2-11.3,9.3c-6.2,0.1-11.3-3-11.3-9.2
		c0-4.8,2.6-2.9,5-4.3c0.2,0,3.4-2.1,0.3-4.1c-1.9-1.2-3.6-1.9-4.6-1.9l-0.7,0l-20.4,0.1l0-11.4l0-1.8c0-0.8-0.7-2.8-1.8-4.7
		c-2-3.1-4,0.2-4.1,0.3c-1.5,2.5-3.1,5.1-7.9,5.1c-6.2,0.1-9.2-5-9.3-11.3c-0.1-6.2,3-11.3,9.2-11.3c4.9,0,6.4,2.6,8,5
		c0.1,0.2,2.1,3.5,4.1,0.3c1.1-1.9,1.8-3.6,1.8-4.7l0-0.7l0-12.5l20.4-0.1L1456.5,187.5L1456.5,187.5z"/>
	<path id="XMLID_10_" class="st1" d="M1562.2,247.8c-0.1,0.8,0.7,2.8,1.9,4.6c2,3.1,4-0.2,4.1-0.4c1.5-2.4-0.1-5.1,4.8-5.1
		c6.3,0,7.9,5,7.8,11.2c0,6.3-1.6,11.3-7.8,11.3c-4.9,0-3.3-2.7-4.8-5c0-0.2-2.2-3.5-4.1-0.4c-1.2,1.9-1.8,3.6-1.8,4.7l0,0.7l0,12.5
		l-20.4,0.1l-0.7,0c-0.8-0.1-2.8,0.7-4.6,1.9c-3.1,2,0.2,4,0.4,4.1c2.4,1.5,5.1,3.1,5.1,7.9c0,6.3-5,9.3-11.3,9.3s-11.3-3-11.3-9.2
		c0-4.9,2.6-6.4,5-7.9c0.2,0,3.5-2.2,0.4-4.1c-1.9-1.2-3.6-1.8-4.7-1.8l-1.8,0l-19.3,0l-0.1-11l-0.1-2.1c0.1-0.8-0.7-2.8-1.9-4.6
		c-2-3.1-4,0.2-4.1,0.4c-1.5,2.4,1.3,5.1-3.6,5.1c-6.3,0-8.5-5.7-8.5-12c0-6.3,2.2-10.5,8.4-10.5c4.9,0,2.1,2.7,3.6,5.1
		c0,0.2,2.2,3.5,4.1,0.4c1.2-1.9,1.8-3.6,1.8-4.7l0-0.7l0-12.5l19.5,0c1,0,4.4,1,6.4,2.1c3.2,1.9-0.2,4-0.4,4.1
		c-2.4,1.5-5,3.1-5,7.9c0,6.2,5,9.2,11.3,9.2s11.3-3,11.3-9.3c0-4.9-2.6-6.3-5.1-7.9c-0.1-0.1-3.4-2.1-0.4-4.1
		c1.9-1.1,4.6-2.1,5.4-2.2l20.4-0.1l0.1,11.6L1562.2,247.8z"/>
	<path id="XMLID_3_" class="st1" d="M1498.8,174.4c0.1-0.8-0.7-2.8-1.9-4.6c-2-3.1-4,0.2-4.1,0.4c-1.5,2.4,0.7,5.1-4.2,5.1
		c-6.3,0-7.6-5-7.6-11.3c0-6.3,1.3-11.3,7.5-11.2c4.9,0,2.7,2.7,4.2,5.1c0,0.2,2.2,3.5,4.1,0.4c1.2-1.9,1.8-3.6,1.8-4.7l0-0.7
		l0-12.5l20.4-0.1l0.7,0c0.8,0.1,2.8-0.7,4.6-1.9c3.1-2-0.2-4-0.4-4.1c-2.4-1.5-5.1-3.1-5.1-7.9c0-6.3,5-9.3,11.3-9.3
		c6.3,0,11.3,3,11.3,9.2c0,4.9-2.6,6.4-5,7.9c-0.2,0-3.5,2.2-0.4,4.1c1.9,1.2,3.6,1.8,4.7,1.8l1.8,0l19.3,0l0.1,11l0.1,2.1
		c-0.1,0.8,0.7,2.8,1.9,4.6c2,3.1,4-0.2,4.1-0.4c1.5-2.4-0.1-5.1,4.9-5.1c6.3,0,7.9,5,7.8,11.2c0,6.3-1.6,11.3-7.8,11.3
		c-4.9,0-3.4-2.7-4.8-5c0-0.2-2.2-3.5-4.1-0.4c-1.2,1.9-1.8,3.6-1.8,4.7l0,0.7l0,12.5l-19.5,0c-1,0-4.4-1-6.4-2.1
		c-3.2-1.9,0.2-4,0.4-4.1c2.4-1.5,5-3.1,5-7.9c0-6.2-5-9.2-11.3-9.2c-6.3,0-11.3,3-11.3,9.3c0,4.9,2.6,6.3,5.1,7.9
		c0.1,0.1,3.4,2.1,0.4,4.1c-1.9,1.1-4.6,2.1-5.4,2.2l-20.4,0.1l-0.1-11.6L1498.8,174.4z"/>
</g>
<g>
	<ellipse class="st2" cx="1615.5" cy="-6.4" rx="113.8" ry="56.9"/>
	<g>
		<path d="M1577.5-41.1c-1.8,0-2.7,1.5-3.2,3.2l-1.3,4.2l-0.7-1.2c-3-0.2-3.3,1.5-0.4,3l0,0c-3.3,2.1-2.8,5.9-2.5,10
			c0,0,0,0.1,0,0.1v2.3c0,0.5,0.4,1,1,1h4.2c0.5,0,1-0.5,1-1v-0.8h20.1v0.8c0,0.6,0.5,1,1,1h4.2c0.6,0,1-0.5,1-1v-1.8
			c0.3-5.4,0.5-7.6-1.6-9.8l-0.5-0.8c3.2-1.5,3-3.3-0.1-3.1l-0.6,1.1l-1-4.1c-0.4-1.7-1.4-3.2-3.2-3.2h-8.2c0-0.1,0-0.2,0-0.3
			c1.9-0.3,2.5-1.3,2.5-3.2v-1.2h0.4c0.2,0,0.5-0.2,0.5-0.5v-0.5c0-0.2-0.2-0.5-0.5-0.5h-1.4v-2.5c0-0.4-0.3-0.7-0.7-0.7l0,0
			c-0.4,0-0.7,0.4-0.7,0.7v2.4h-2.2v-2.4c0-0.4-0.4-0.7-0.7-0.7l0,0l0,0c-0.4,0-0.7,0.4-0.7,0.7v2.4h-1.4c-0.2,0-0.5,0.2-0.5,0.5
			v0.6c0,0.2,0.2,0.5,0.5,0.5h0.3v1.1c0,1.9,0.7,3.1,2.8,3.4l0,0c0,0.1,0,0.2,0,0.3H1577.5L1577.5-41.1z"/>
		<path class="st3" d="M1586.7-27.8h1.3c0.2,0,0.4,0.2,0.4,0.4c0,0.1,0,0.1-0.1,0.2l-3.2,5.4c-0.1,0.2-0.3,0.2-0.5,0.1l0,0
			c-0.1-0.1-0.2-0.2-0.2-0.4l0.5-3.3l-1.6,0c-0.2,0-0.4-0.1-0.4-0.4l0,0c0-0.1,0-0.1,0-0.2l3.1-5.4c0.1-0.2,0.3-0.2,0.5-0.1
			c0.1,0.1,0.2,0.2,0.2,0.4L1586.7-27.8z"/>
		<path class="st3" d="M1576.2-38.3c0.1-0.2,0.3-0.5,0.5-0.6c0.4-0.4,0.9-0.6,1.4-0.6h16.2c1.3,0,2.2,1.1,2.4,2.4l1.1,4.3h-23.4l0,0
			l1.3-4.3C1575.7-37.4,1575.9-37.9,1576.2-38.3L1576.2-38.3z"/>
		<path class="st3" d="M1577.4-27l-3.8-0.5c-0.9-0.1-1.1,0.3-0.8,1.1l0.4,1c0.1,0.2,0.3,0.4,0.5,0.6c0.2,0.1,0.6,0.2,0.8,0.2l3.4,0
			c0.8,0,1.2-0.3,0.9-1.1C1578.6-26.4,1578-26.9,1577.4-27L1577.4-27z"/>
		<path class="st3" d="M1594-27l3.8-0.5c0.9-0.1,1.1,0.3,0.8,1.1l-0.4,1c-0.1,0.2-0.3,0.4-0.5,0.6c-0.2,0.1-0.6,0.2-0.8,0.2l-3.4,0
			c-0.8,0-1.2-0.3-0.9-1.1C1592.8-26.4,1593.4-26.9,1594-27z"/>
		<rect x="1583.6" y="-45.4" class="st3" width="4" height="0.6"/>
	</g>
	<g>
		<path d="M1636.2-41.1c-1.8,0-2.7,1.5-3.2,3.2l-1.3,4.2l-0.7-1.2c-3-0.2-3.3,1.5-0.4,3l0,0c-3.3,2.1-2.8,5.9-2.5,10
			c0,0,0,0.1,0,0.1v2.3c0,0.5,0.4,1,1,1h4.2c0.5,0,1-0.5,1-1v-0.8h20.1v0.8c0,0.6,0.5,1,1,1h4.2c0.6,0,1-0.5,1-1v-1.8
			c0.3-5.4,0.5-7.6-1.6-9.8l-0.5-0.8c3.2-1.5,3-3.3-0.1-3.1l-0.6,1.1l-1-4.1c-0.4-1.7-1.4-3.2-3.2-3.2h-8.2c0-0.1,0-0.2,0-0.3
			c1.9-0.3,2.5-1.3,2.5-3.2v-1.2h0.4c0.2,0,0.5-0.2,0.5-0.5v-0.5c0-0.2-0.2-0.5-0.5-0.5h-1.4v-2.5c0-0.4-0.3-0.7-0.7-0.7l0,0
			c-0.4,0-0.7,0.4-0.7,0.7v2.4h-2.2v-2.4c0-0.4-0.4-0.7-0.7-0.7l0,0l0,0c-0.4,0-0.7,0.4-0.7,0.7v2.4h-1.4c-0.2,0-0.5,0.2-0.5,0.5
			v0.6c0,0.2,0.2,0.5,0.5,0.5h0.3v1.1c0,1.9,0.7,3.1,2.8,3.4l0,0c0,0.1,0,0.2,0,0.3H1636.2L1636.2-41.1z"/>
		<path class="st3" d="M1645.5-27.8h1.3c0.2,0,0.4,0.2,0.4,0.4c0,0.1,0,0.1-0.1,0.2l-3.2,5.4c-0.1,0.2-0.3,0.2-0.5,0.1l0,0
			c-0.1-0.1-0.2-0.2-0.2-0.4l0.5-3.3l-1.6,0c-0.2,0-0.4-0.1-0.4-0.4l0,0c0-0.1,0-0.1,0-0.2l3.1-5.4c0.1-0.2,0.3-0.2,0.5-0.1
			c0.1,0.1,0.2,0.2,0.2,0.4L1645.5-27.8z"/>
		<path class="st3" d="M1635-38.3c0.1-0.2,0.3-0.5,0.5-0.6c0.4-0.4,0.9-0.6,1.4-0.6h16.2c1.3,0,2.2,1.1,2.4,2.4l1.1,4.3h-23.4l0,0
			l1.3-4.3C1634.5-37.4,1634.7-37.9,1635-38.3L1635-38.3z"/>
		<path class="st3" d="M1636.1-27l-3.8-0.5c-0.9-0.1-1.1,0.3-0.8,1.1l0.4,1c0.1,0.2,0.3,0.4,0.5,0.6c0.2,0.1,0.6,0.2,0.8,0.2l3.4,0
			c0.8,0,1.2-0.3,0.9-1.1C1637.4-26.4,1636.8-26.9,1636.1-27L1636.1-27z"/>
		<path class="st3" d="M1652.8-27l3.8-0.5c0.9-0.1,1.1,0.3,0.8,1.1l-0.4,1c-0.1,0.2-0.3,0.4-0.5,0.6c-0.2,0.1-0.6,0.2-0.8,0.2
			l-3.4,0c-0.8,0-1.2-0.3-0.9-1.1C1651.6-26.4,1652.1-26.9,1652.8-27z"/>
		<rect x="1642.4" y="-45.4" class="st3" width="4" height="0.6"/>
	</g>
	<g>
		<path d="M1557.5,6.9c0,0.3-0.3,0.6-0.6,0.6h-27.3c-0.3,0-0.6-0.3-0.6-0.6V-6.5c-2.9,1.1-3.9-2.4-2.3-3.7L1543-22
			c0.2-0.2,0.5-0.2,0.7,0l16.2,11.8l0.1,0.1c1.9,2.1-0.1,4.8-2.4,3.7V6.9L1557.5,6.9z"/>
		<path class="st3" d="M1539.4-1.6h8.1v7.6h8.7V-7.1c0,0,0-0.1,0-0.1l-12.7-9.3l-13,9.3c0,0.1,0,0.1,0,0.1V6h8.8V-1.6L1539.4-1.6z"
			/>
		<rect x="1540.9" y="-10.3" width="2.1" height="2.1"/>
		<rect x="1543.8" y="-7.4" width="2.1" height="2.1"/>
		<polygon points="1540.9,-7.4 1543,-7.4 1543,-5.2 1540.9,-5.2 		"/>
		<rect x="1543.8" y="-10.3" width="2.1" height="2.1"/>
	</g>
	<g>
		<path d="M1555.3-11.3h-23.1c-0.1,0-0.1,0-0.2,0c-0.1,0-0.3-0.1-0.3-0.2c-0.1-0.1-0.2-0.3-0.2-0.4c0,0,0-0.1,0-0.2l0,0l2.7-9.7
			c0-0.1,0.1-0.3,0.2-0.4c0.1-0.1,0.3-0.2,0.5-0.2h17.6c0.2,0,0.3,0.1,0.5,0.2l0,0c0.1,0.1,0.2,0.3,0.2,0.4l2.7,9.7
			c0,0.1,0,0.1,0,0.2c0,0.2-0.1,0.3-0.2,0.4c-0.1,0.1-0.2,0.2-0.3,0.2C1555.5-11.3,1555.4-11.3,1555.3-11.3L1555.3-11.3z"/>
		<polygon class="st3" points="1553.9,-12.3 1553.3,-15.6 1547.9,-15.6 1548.3,-12.3 		"/>
		<polygon class="st3" points="1547.1,-12.3 1546.7,-15.6 1540.1,-15.6 1539.6,-12.3 		"/>
		<polygon class="st3" points="1538.4,-12.3 1538.9,-15.6 1533.8,-15.6 1533,-12.3 		"/>
		<polygon class="st3" points="1547.3,-21.2 1547.5,-19.5 1552.5,-19.5 1552.1,-21.2 		"/>
		<polygon class="st3" points="1535.3,-21.2 1534.8,-19.5 1539.4,-19.5 1539.7,-21.2 		"/>
		<polygon class="st3" points="1540.9,-21.2 1540.7,-19.5 1546.3,-19.5 1546.1,-21.2 		"/>
		<polygon class="st3" points="1547.6,-18.4 1547.8,-16.7 1553.1,-16.7 1552.7,-18.4 		"/>
		<polygon class="st3" points="1534.5,-18.4 1534.1,-16.7 1539,-16.7 1539.3,-18.4 		"/>
		<polygon class="st3" points="1540.5,-18.4 1540.3,-16.7 1546.6,-16.7 1546.4,-18.4 		"/>
	</g>
	<g>
		<path d="M1628.5,21.7c0,0.3-0.3,0.6-0.6,0.6h-27.3c-0.3,0-0.6-0.3-0.6-0.6V8.3c-2.9,1.1-3.9-2.4-2.3-3.7L1614-7.2
			c0.2-0.2,0.5-0.2,0.7,0l16.2,11.8l0.1,0.1c1.9,2.1-0.1,4.8-2.4,3.7V21.7L1628.5,21.7z"/>
		<path class="st3" d="M1610.4,13.2h8.1v7.6h8.7V7.7c0,0,0-0.1,0-0.1l-12.7-9.3l-13,9.3c0,0.1,0,0.1,0,0.1v13.2h8.8L1610.4,13.2
			L1610.4,13.2z"/>
		<rect x="1611.9" y="4.5" width="2.1" height="2.1"/>
		<rect x="1614.8" y="7.4" width="2.1" height="2.1"/>
		<polygon points="1611.9,7.4 1614,7.4 1614,9.6 1611.9,9.6 		"/>
		<rect x="1614.8" y="4.5" width="2.1" height="2.1"/>
	</g>
	<g>
		<path d="M1626.3,3.5h-23.1c-0.1,0-0.1,0-0.2,0c-0.1,0-0.3-0.1-0.3-0.2c-0.1-0.1-0.2-0.3-0.2-0.4c0,0,0-0.1,0-0.2l0,0l2.7-9.7
			c0-0.1,0.1-0.3,0.2-0.4c0.1-0.1,0.3-0.2,0.5-0.2h17.6c0.2,0,0.3,0.1,0.5,0.2l0,0c0.1,0.1,0.2,0.3,0.2,0.4l2.7,9.7
			c0,0.1,0,0.1,0,0.2c0,0.2-0.1,0.3-0.2,0.4c-0.1,0.1-0.2,0.2-0.3,0.2C1626.5,3.5,1626.4,3.5,1626.3,3.5L1626.3,3.5z"/>
		<polygon class="st3" points="1625,2.5 1624.3,-0.8 1618.9,-0.8 1619.3,2.5 		"/>
		<polygon class="st3" points="1618.1,2.5 1617.7,-0.8 1611.1,-0.8 1610.6,2.5 		"/>
		<polygon class="st3" points="1609.4,2.5 1609.9,-0.8 1604.9,-0.8 1604,2.5 		"/>
		<polygon class="st3" points="1618.3,-6.4 1618.5,-4.6 1623.5,-4.6 1623.1,-6.4 		"/>
		<polygon class="st3" points="1606.3,-6.4 1605.9,-4.6 1610.5,-4.6 1610.8,-6.4 		"/>
		<polygon class="st3" points="1612,-6.4 1611.7,-4.6 1617.3,-4.6 1617.1,-6.4 		"/>
		<polygon class="st3" points="1618.7,-3.6 1618.9,-1.9 1624.1,-1.9 1623.7,-3.6 		"/>
		<polygon class="st3" points="1605.6,-3.6 1605.1,-1.9 1610.1,-1.9 1610.3,-3.6 		"/>
		<polygon class="st3" points="1611.5,-3.6 1611.3,-1.9 1617.6,-1.9 1617.4,-3.6 		"/>
	</g>
	<g>
		<path d="M1699.6,6.9c0,0.3-0.3,0.6-0.6,0.6h-27.3c-0.3,0-0.6-0.3-0.6-0.6V-6.5c-2.9,1.1-3.9-2.4-2.3-3.7L1685-22
			c0.2-0.2,0.5-0.2,0.7,0l16.2,11.8l0.1,0.1c1.9,2.1-0.1,4.8-2.4,3.7V6.9L1699.6,6.9z"/>
		<path class="st3" d="M1681.4-1.6h8.1v7.6h8.7V-7.1c0,0,0-0.1,0-0.1l-12.7-9.3l-13,9.3c0,0.1,0,0.1,0,0.1V6h8.8V-1.6L1681.4-1.6z"
			/>
		<rect x="1683" y="-10.3" width="2.1" height="2.1"/>
		<rect x="1685.9" y="-7.4" width="2.1" height="2.1"/>
		<polygon points="1683,-7.4 1685.1,-7.4 1685.1,-5.2 1683,-5.2 		"/>
		<rect x="1685.9" y="-10.3" width="2.1" height="2.1"/>
	</g>
</g>
<g>
	<ellipse class="st2" cx="1266.8" cy="289.9" rx="83.6" ry="41.8"/>
	<g>
		<path d="M1213,284c0.1,0,0.2,0.1,0.2,0.1l0,0c0.2,0.1,0.3,0.3,0.5,0.5c0.1,0.2,0.2,0.4,0.3,0.6l0,0c0.1,0.2,0.1,0.4,0.1,0.7
			c0,0.2-0.1,0.5-0.1,0.7l0,0c0,0.1-0.1,0.2-0.1,0.3c-0.1,0.1-0.1,0.2-0.2,0.3c-0.3,0.4-0.6,0.7-1.1,0.9c-0.4,0.2-0.8,0.4-1.2,0.6
			c-3.2,1.3-6.5,2.9-9.7,4.2c-0.1,0-0.2,0.1-0.3,0.1l0,0c-0.1,0-0.3,0-0.4-0.1l-0.1-0.1c0,0-0.1-0.1-0.1-0.2l0-0.1l0-0.1
			c0,0,0-0.1,0-0.1l0,0c0-0.2,0.1-0.3,0.2-0.4l0,0c0.1-0.1,0.1-0.2,0.2-0.2c2.9-2.4,5.9-4.6,8.8-6.9c0.2-0.2,0.4-0.3,0.6-0.4
			c0.2-0.1,0.4-0.2,0.6-0.3h0c0.2-0.1,0.5-0.1,0.7-0.1s0.5,0,0.8,0.1h0C1212.8,284,1212.9,284,1213,284L1213,284z"/>
		<path d="M1208,303.2h5.8l2.2-15c0-0.3,0.3-0.5,0.5-0.5h2c0.3,0,0.5,0.2,0.5,0.5l2.5,15h5.9c0.2,0,0.3,0.1,0.3,0.3v2.3
			c0,0.2-0.1,0.3-0.3,0.3h-19.5c-0.2,0-0.3-0.1-0.3-0.3v-2.3C1207.7,303.4,1207.9,303.2,1208,303.2z"/>
		<path d="M1219,280.7c0.4,0.1,0.7,0.4,1,0.6c0.5,0.5,0.9,1.3,0.9,2.1v0c0,0.8-0.3,1.6-0.9,2.1c-0.3,0.3-0.6,0.5-1,0.6
			c-1.5,0.6-3.3-0.1-3.9-1.6l0,0c-0.3-0.8-0.3-1.6,0-2.3c0.1-0.4,0.4-0.7,0.6-1l0,0c0.3-0.3,0.6-0.5,1-0.6
			C1217.4,280.4,1218.2,280.4,1219,280.7L1219,280.7z"/>
		<path d="M1219,279.1c-0.1,0.1-0.2,0.1-0.3,0.1c-0.2,0.1-0.4,0.2-0.6,0.2c-0.2,0-0.4,0-0.6,0h0c-0.2-0.1-0.4-0.2-0.6-0.3
			c-0.2-0.1-0.3-0.3-0.5-0.4l0,0c-0.1-0.1-0.1-0.2-0.2-0.3c-0.1-0.1-0.1-0.2-0.2-0.3l0,0c-0.4-0.9-0.3-1.8-0.1-2.7
			c0.6-3.4,0.8-7.1,1.4-10.5c0-0.1,0.1-0.2,0.1-0.3v0c0.1-0.1,0.2-0.2,0.3-0.3h0c0.1,0,0.1,0,0.2-0.1c0,0,0.1,0,0.1,0
			c0.1,0,0.1,0,0.2,0l0.1,0.1c0.1,0.1,0.2,0.2,0.3,0.3l0,0c0,0.1,0.1,0.2,0.1,0.4c0.6,3.5,0.9,7.4,1.4,11c0,0,0,0.1,0,0.1l0,0
			c0,0.2,0,0.5,0.1,0.7c0,0.3,0,0.5,0,0.8v0c0,0.2-0.1,0.5-0.2,0.7c-0.1,0.2-0.3,0.4-0.5,0.6C1219.1,279,1219,279.1,1219,279.1
			L1219,279.1z"/>
		<path d="M1221.4,286.3c0-0.1,0-0.2,0-0.3c0-0.2,0.1-0.5,0.2-0.7c0.1-0.2,0.2-0.4,0.3-0.5l0,0c0.2-0.2,0.3-0.3,0.5-0.4
			c0.2-0.1,0.4-0.2,0.6-0.2h0c0.1,0,0.2,0,0.3,0s0.2,0,0.3,0h0c0.5,0,0.9,0.2,1.3,0.4c0.4,0.2,0.8,0.5,1.1,0.8
			c2.8,2.2,5.6,4.3,8.4,6.4l0,0c0.1,0.1,0.1,0.2,0.2,0.3c0.1,0.1,0.1,0.2,0.1,0.4v0.1v0.1c0,0.1,0,0.1-0.1,0.2
			c0,0.1-0.1,0.1-0.1,0.1l0,0c0,0-0.1,0-0.1,0.1c-0.1,0.1-0.3,0.1-0.5,0.1c-0.1,0-0.2,0-0.3-0.1l-10.3-4.3c-0.2-0.1-0.5-0.2-0.7-0.3
			c-0.2-0.1-0.4-0.2-0.6-0.4h0c-0.4-0.3-0.7-0.8-0.8-1.3C1221.4,286.5,1221.4,286.4,1221.4,286.3L1221.4,286.3z"/>
	</g>
	<g>
		<path d="M1261.8,284c0.1,0,0.2,0.1,0.2,0.1l0,0c0.2,0.1,0.3,0.3,0.5,0.5c0.1,0.2,0.2,0.4,0.3,0.6l0,0c0.1,0.2,0.1,0.4,0.1,0.7
			c0,0.2-0.1,0.5-0.1,0.7l0,0c0,0.1-0.1,0.2-0.1,0.3c-0.1,0.1-0.1,0.2-0.2,0.3c-0.3,0.4-0.6,0.7-1.1,0.9c-0.4,0.2-0.8,0.4-1.2,0.6
			c-3.2,1.3-6.5,2.9-9.7,4.2c-0.1,0-0.2,0.1-0.3,0.1l0,0c-0.1,0-0.3,0-0.4-0.1l-0.1-0.1c0,0-0.1-0.1-0.1-0.2l0-0.1l0-0.1
			c0,0,0-0.1,0-0.1l0,0c0-0.2,0.1-0.3,0.2-0.4l0,0c0.1-0.1,0.1-0.2,0.2-0.2c2.9-2.4,5.9-4.6,8.8-6.9c0.2-0.2,0.4-0.3,0.6-0.4
			c0.2-0.1,0.4-0.2,0.6-0.3h0c0.2-0.1,0.5-0.1,0.7-0.1s0.5,0,0.8,0.1h0C1261.6,284,1261.7,284,1261.8,284L1261.8,284z"/>
		<path d="M1256.9,303.2h5.8l2.2-15c0-0.3,0.3-0.5,0.5-0.5h2c0.3,0,0.5,0.2,0.5,0.5l2.5,15h5.9c0.2,0,0.3,0.1,0.3,0.3v2.3
			c0,0.2-0.1,0.3-0.3,0.3h-19.5c-0.2,0-0.3-0.1-0.3-0.3v-2.3C1256.6,303.4,1256.7,303.2,1256.9,303.2z"/>
		<path d="M1267.8,280.7c0.4,0.1,0.7,0.4,1,0.6c0.5,0.5,0.9,1.3,0.9,2.1v0c0,0.8-0.3,1.6-0.9,2.1c-0.3,0.3-0.6,0.5-1,0.6
			c-1.5,0.6-3.3-0.1-3.9-1.6l0,0c-0.3-0.8-0.3-1.6,0-2.3c0.1-0.4,0.4-0.7,0.6-1l0,0c0.3-0.3,0.6-0.5,1-0.6
			C1266.2,280.4,1267,280.4,1267.8,280.7L1267.8,280.7z"/>
		<path d="M1267.8,279.1c-0.1,0.1-0.2,0.1-0.3,0.1c-0.2,0.1-0.4,0.2-0.6,0.2c-0.2,0-0.4,0-0.6,0h0c-0.2-0.1-0.4-0.2-0.6-0.3
			c-0.2-0.1-0.3-0.3-0.5-0.4l0,0c-0.1-0.1-0.1-0.2-0.2-0.3c-0.1-0.1-0.1-0.2-0.2-0.3l0,0c-0.4-0.9-0.3-1.8-0.1-2.7
			c0.6-3.4,0.8-7.1,1.4-10.5c0-0.1,0.1-0.2,0.1-0.3v0c0.1-0.1,0.2-0.2,0.3-0.3h0c0.1,0,0.1,0,0.2-0.1c0,0,0.1,0,0.1,0
			c0.1,0,0.1,0,0.2,0l0.1,0.1c0.1,0.1,0.2,0.2,0.3,0.3l0,0c0,0.1,0.1,0.2,0.1,0.4c0.6,3.5,0.9,7.4,1.4,11c0,0,0,0.1,0,0.1l0,0
			c0,0.2,0,0.5,0.1,0.7c0,0.3,0,0.5,0,0.8v0c0,0.2-0.1,0.5-0.2,0.7c-0.1,0.2-0.3,0.4-0.5,0.6C1267.9,279,1267.9,279.1,1267.8,279.1
			L1267.8,279.1z"/>
		<path d="M1270.2,286.3c0-0.1,0-0.2,0-0.3c0-0.2,0.1-0.5,0.2-0.7c0.1-0.2,0.2-0.4,0.3-0.5l0,0c0.2-0.2,0.3-0.3,0.5-0.4
			c0.2-0.1,0.4-0.2,0.6-0.2h0c0.1,0,0.2,0,0.3,0c0.1,0,0.2,0,0.3,0h0c0.5,0,0.9,0.2,1.3,0.4c0.4,0.2,0.8,0.5,1.1,0.8
			c2.8,2.2,5.6,4.3,8.4,6.4l0,0c0.1,0.1,0.1,0.2,0.2,0.3c0.1,0.1,0.1,0.2,0.1,0.4v0.1v0.1c0,0.1,0,0.1-0.1,0.2s-0.1,0.1-0.1,0.1l0,0
			c0,0-0.1,0-0.1,0.1c-0.1,0.1-0.3,0.1-0.5,0.1c-0.1,0-0.2,0-0.3-0.1l-10.3-4.3c-0.2-0.1-0.5-0.2-0.7-0.3c-0.2-0.1-0.4-0.2-0.6-0.4
			h0c-0.4-0.3-0.7-0.8-0.8-1.3C1270.2,286.5,1270.2,286.4,1270.2,286.3L1270.2,286.3z"/>
	</g>
	<g>
		<path d="M1310.6,284c0.1,0,0.2,0.1,0.2,0.1l0,0c0.2,0.1,0.3,0.3,0.5,0.5c0.1,0.2,0.2,0.4,0.3,0.6l0,0c0.1,0.2,0.1,0.4,0.1,0.7
			c0,0.2-0.1,0.5-0.1,0.7l0,0c0,0.1-0.1,0.2-0.1,0.3c-0.1,0.1-0.1,0.2-0.2,0.3c-0.3,0.4-0.6,0.7-1.1,0.9c-0.4,0.2-0.8,0.4-1.2,0.6
			c-3.2,1.3-6.5,2.9-9.7,4.2c-0.1,0-0.2,0.1-0.3,0.1l0,0c-0.1,0-0.3,0-0.4-0.1l-0.1-0.1c0,0-0.1-0.1-0.1-0.2l0-0.1l0-0.1
			c0,0,0-0.1,0-0.1l0,0c0-0.2,0.1-0.3,0.2-0.4l0,0c0.1-0.1,0.1-0.2,0.2-0.2c2.9-2.4,5.9-4.6,8.8-6.9c0.2-0.2,0.4-0.3,0.6-0.4
			c0.2-0.1,0.4-0.2,0.6-0.3h0c0.2-0.1,0.5-0.1,0.7-0.1s0.5,0,0.8,0.1h0C1310.4,284,1310.5,284,1310.6,284L1310.6,284z"/>
		<path d="M1305.7,303.2h5.8l2.2-15c0-0.3,0.3-0.5,0.5-0.5h2c0.3,0,0.5,0.2,0.5,0.5l2.5,15h5.9c0.2,0,0.3,0.1,0.3,0.3v2.3
			c0,0.2-0.1,0.3-0.3,0.3h-19.5c-0.2,0-0.3-0.1-0.3-0.3v-2.3C1305.4,303.4,1305.5,303.2,1305.7,303.2z"/>
		<path d="M1316.6,280.7c0.4,0.1,0.7,0.4,1,0.6c0.5,0.5,0.9,1.3,0.9,2.1v0c0,0.8-0.3,1.6-0.9,2.1c-0.3,0.3-0.6,0.5-1,0.6
			c-1.5,0.6-3.3-0.1-3.9-1.6l0,0c-0.3-0.8-0.3-1.6,0-2.3c0.1-0.4,0.4-0.7,0.6-1l0,0c0.3-0.3,0.6-0.5,1-0.6
			C1315.1,280.4,1315.9,280.4,1316.6,280.7L1316.6,280.7z"/>
		<path d="M1316.6,279.1c-0.1,0.1-0.2,0.1-0.3,0.1c-0.2,0.1-0.4,0.2-0.6,0.2c-0.2,0-0.4,0-0.6,0h0c-0.2-0.1-0.4-0.2-0.6-0.3
			c-0.2-0.1-0.3-0.3-0.5-0.4l0,0c-0.1-0.1-0.1-0.2-0.2-0.3s-0.1-0.2-0.2-0.3l0,0c-0.4-0.9-0.3-1.8-0.1-2.7c0.6-3.4,0.8-7.1,1.4-10.5
			c0-0.1,0.1-0.2,0.1-0.3v0c0.1-0.1,0.2-0.2,0.3-0.3h0c0.1,0,0.1,0,0.2-0.1c0,0,0.1,0,0.1,0c0.1,0,0.1,0,0.2,0l0.1,0.1
			c0.1,0.1,0.2,0.2,0.3,0.3l0,0c0,0.1,0.1,0.2,0.1,0.4c0.6,3.5,0.9,7.4,1.4,11c0,0,0,0.1,0,0.1l0,0c0,0.2,0,0.5,0.1,0.7
			c0,0.3,0,0.5,0,0.8v0c0,0.2-0.1,0.5-0.2,0.7c-0.1,0.2-0.3,0.4-0.5,0.6C1316.8,279,1316.7,279.1,1316.6,279.1L1316.6,279.1z"/>
		<path d="M1319,286.3c0-0.1,0-0.2,0-0.3c0-0.2,0.1-0.5,0.2-0.7c0.1-0.2,0.2-0.4,0.3-0.5l0,0c0.2-0.2,0.3-0.3,0.5-0.4
			c0.2-0.1,0.4-0.2,0.6-0.2h0c0.1,0,0.2,0,0.3,0c0.1,0,0.2,0,0.3,0h0c0.5,0,0.9,0.2,1.3,0.4c0.4,0.2,0.8,0.5,1.1,0.8
			c2.8,2.2,5.6,4.3,8.4,6.4l0,0c0.1,0.1,0.1,0.2,0.2,0.3c0.1,0.1,0.1,0.2,0.1,0.4v0.1v0.1c0,0.1,0,0.1-0.1,0.2
			c0,0.1-0.1,0.1-0.1,0.1l0,0c0,0-0.1,0-0.1,0.1c-0.1,0.1-0.3,0.1-0.5,0.1c-0.1,0-0.2,0-0.3-0.1l-10.3-4.3c-0.2-0.1-0.5-0.2-0.7-0.3
			c-0.2-0.1-0.4-0.2-0.6-0.4h0c-0.4-0.3-0.7-0.8-0.8-1.3C1319,286.5,1319,286.4,1319,286.3L1319,286.3z"/>
	</g>
</g>
<g>
	<ellipse class="st2" cx="1417.3" cy="403.2" rx="108.1" ry="54.1"/>
	<g>
		<path d="M1381.7,370.2c-1.7,0-2.5,1.4-3.1,3l-1.3,4l-0.6-1.2c-2.8-0.2-3.2,1.4-0.3,2.9l0,0c-3.1,2-2.7,5.6-2.4,9.5
			c0,0,0,0.1,0,0.1v2.2c0,0.5,0.4,0.9,0.9,0.9h4c0.5,0,0.9-0.4,0.9-0.9V390h19.1v0.8c0,0.5,0.4,0.9,0.9,0.9h4c0.5,0,0.9-0.4,0.9-0.9
			v-1.7c0.3-5.1,0.5-7.2-1.5-9.3l-0.5-0.8c3.1-1.4,2.8-3.1-0.1-3l-0.5,1.1l-1-3.9c-0.4-1.6-1.4-3-3-3h-7.8c0-0.1,0-0.2,0-0.3
			c1.8-0.3,2.4-1.2,2.4-3.1v-1.1h0.4c0.2,0,0.4-0.2,0.4-0.4v-0.5c0-0.2-0.2-0.4-0.4-0.4h-1.4V362c0-0.4-0.3-0.7-0.7-0.7l0,0
			c-0.4,0-0.7,0.3-0.7,0.7v2.3h-2.1V362c0-0.4-0.3-0.7-0.7-0.7l0,0l0,0c-0.4,0-0.7,0.3-0.7,0.7v2.3h-1.3c-0.2,0-0.4,0.2-0.4,0.4v0.5
			c0,0.2,0.2,0.4,0.4,0.4h0.3v1c0,1.8,0.7,3,2.7,3.2l0,0c0,0.1,0,0.2,0,0.3H1381.7L1381.7,370.2z"/>
		<path class="st3" d="M1390.5,382.8h1.3c0.2,0,0.3,0.2,0.3,0.3c0,0.1,0,0.1-0.1,0.2l-3,5.1c-0.1,0.2-0.3,0.2-0.4,0.1l0,0
			c-0.1-0.1-0.2-0.2-0.2-0.4l0.4-3.2l-1.5,0c-0.2,0-0.3-0.1-0.3-0.3l0,0c0-0.1,0-0.1,0-0.2l3-5.1c0.1-0.2,0.3-0.2,0.5-0.1
			c0.1,0.1,0.2,0.2,0.2,0.3L1390.5,382.8z"/>
		<path class="st3" d="M1380.5,372.9c0.1-0.2,0.3-0.4,0.5-0.6c0.3-0.3,0.8-0.5,1.3-0.5h15.4c1.3,0,2,1.1,2.3,2.3l1,4.1h-22.2l0,0
			l1.2-4.1C1380,373.7,1380.2,373.3,1380.5,372.9L1380.5,372.9z"/>
		<path class="st3" d="M1381.6,383.6l-3.6-0.4c-0.8-0.1-1.1,0.3-0.8,1l0.4,0.9c0.1,0.2,0.3,0.4,0.5,0.5c0.2,0.1,0.5,0.2,0.8,0.2
			l3.2,0c0.8,0,1.1-0.3,0.9-1C1382.8,384.2,1382.2,383.7,1381.6,383.6L1381.6,383.6z"/>
		<path class="st3" d="M1397.4,383.6l3.6-0.4c0.8-0.1,1.1,0.3,0.8,1l-0.4,0.9c-0.1,0.2-0.3,0.4-0.5,0.5c-0.2,0.1-0.5,0.2-0.8,0.2
			l-3.2,0c-0.8,0-1.1-0.3-0.9-1C1396.3,384.2,1396.8,383.7,1397.4,383.6z"/>
		<rect x="1387.5" y="366.2" class="st3" width="3.8" height="0.6"/>
	</g>
	<g>
		<path d="M1437.5,370.2c-1.7,0-2.5,1.4-3.1,3l-1.3,4l-0.6-1.2c-2.8-0.2-3.2,1.4-0.3,2.9l0,0c-3.1,2-2.7,5.6-2.4,9.5
			c0,0,0,0.1,0,0.1v2.2c0,0.5,0.4,0.9,0.9,0.9h4c0.5,0,0.9-0.4,0.9-0.9V390h19.1v0.8c0,0.5,0.4,0.9,0.9,0.9h4c0.5,0,0.9-0.4,0.9-0.9
			v-1.7c0.3-5.1,0.5-7.2-1.5-9.3l-0.5-0.8c3.1-1.4,2.8-3.1-0.1-3l-0.5,1.1l-1-3.9c-0.4-1.6-1.4-3-3-3h-7.8c0-0.1,0-0.2,0-0.3
			c1.8-0.3,2.4-1.2,2.4-3.1v-1.1h0.4c0.2,0,0.4-0.2,0.4-0.4v-0.5c0-0.2-0.2-0.4-0.4-0.4h-1.4V362c0-0.4-0.3-0.7-0.7-0.7l0,0
			c-0.4,0-0.7,0.3-0.7,0.7v2.3h-2.1V362c0-0.4-0.3-0.7-0.7-0.7l0,0l0,0c-0.4,0-0.7,0.3-0.7,0.7v2.3h-1.3c-0.2,0-0.4,0.2-0.4,0.4v0.5
			c0,0.2,0.2,0.4,0.4,0.4h0.3v1c0,1.8,0.7,3,2.7,3.2l0,0c0,0.1,0,0.2,0,0.3H1437.5L1437.5,370.2z"/>
		<path class="st3" d="M1446.3,382.8h1.3c0.2,0,0.3,0.2,0.3,0.3c0,0.1,0,0.1-0.1,0.2l-3,5.1c-0.1,0.2-0.3,0.2-0.4,0.1l0,0
			c-0.1-0.1-0.2-0.2-0.2-0.4l0.4-3.2l-1.5,0c-0.2,0-0.3-0.1-0.3-0.3l0,0c0-0.1,0-0.1,0-0.2l3-5.1c0.1-0.2,0.3-0.2,0.5-0.1
			c0.1,0.1,0.2,0.2,0.2,0.3L1446.3,382.8z"/>
		<path class="st3" d="M1436.3,372.9c0.1-0.2,0.3-0.4,0.5-0.6c0.3-0.3,0.8-0.5,1.3-0.5h15.4c1.3,0,2,1.1,2.3,2.3l1,4.1h-22.2l0,0
			l1.2-4.1C1435.9,373.7,1436.1,373.3,1436.3,372.9L1436.3,372.9z"/>
		<path class="st3" d="M1437.4,383.6l-3.6-0.4c-0.8-0.1-1.1,0.3-0.8,1l0.4,0.9c0.1,0.2,0.3,0.4,0.5,0.5c0.2,0.1,0.5,0.2,0.8,0.2
			l3.2,0c0.8,0,1.1-0.3,0.9-1C1438.6,384.2,1438.1,383.7,1437.4,383.6L1437.4,383.6z"/>
		<path class="st3" d="M1453.3,383.6l3.6-0.4c0.8-0.1,1.1,0.3,0.8,1l-0.4,0.9c-0.1,0.2-0.3,0.4-0.5,0.5c-0.2,0.1-0.5,0.2-0.8,0.2
			l-3.2,0c-0.8,0-1.1-0.3-0.9-1C1452.1,384.2,1452.7,383.7,1453.3,383.6z"/>
		<rect x="1443.3" y="366.2" class="st3" width="3.8" height="0.6"/>
	</g>
	<g>
		<path d="M1362.8,415.9c0,0.3-0.2,0.5-0.5,0.5h-25.9c-0.3,0-0.5-0.2-0.5-0.5v-12.8c-2.7,1-3.7-2.3-2.2-3.5l15.3-11.2
			c0.2-0.2,0.5-0.2,0.7,0l15.4,11.2l0.1,0.1c1.8,2-0.1,4.6-2.3,3.5V415.9L1362.8,415.9z"/>
		<path class="st3" d="M1345.5,407.8h7.7v7.3h8.2v-12.6c0,0,0-0.1,0-0.1l-12-8.8l-12.3,8.8c0,0.1,0,0.1,0,0.1V415h8.4V407.8
			L1345.5,407.8z"/>
		<rect x="1346.9" y="399.5" width="2" height="2"/>
		<rect x="1349.7" y="402.2" width="2" height="2"/>
		<polygon points="1346.9,402.2 1349,402.2 1349,404.3 1346.9,404.3 		"/>
		<rect x="1349.7" y="399.5" width="2" height="2"/>
	</g>
	<g>
		<path d="M1430.2,429.9c0,0.3-0.2,0.5-0.5,0.5h-25.9c-0.3,0-0.5-0.2-0.5-0.5v-12.8c-2.7,1-3.7-2.3-2.2-3.5l15.3-11.2
			c0.2-0.2,0.5-0.2,0.7,0l15.4,11.2l0.1,0.1c1.8,2-0.1,4.6-2.3,3.5V429.9L1430.2,429.9z"/>
		<path class="st3" d="M1413,421.9h7.7v7.3h8.2v-12.6c0,0,0-0.1,0-0.1l-12-8.8l-12.3,8.8c0,0.1,0,0.1,0,0.1v12.5h8.4V421.9
			L1413,421.9z"/>
		<rect x="1414.4" y="413.6" width="2" height="2"/>
		<rect x="1417.2" y="416.3" width="2" height="2"/>
		<polygon points="1414.4,416.3 1416.4,416.3 1416.4,418.4 1414.4,418.4 		"/>
		<rect x="1417.2" y="413.6" width="2" height="2"/>
	</g>
	<g>
		<path d="M1497.7,415.9c0,0.3-0.2,0.5-0.5,0.5h-25.9c-0.3,0-0.5-0.2-0.5-0.5v-12.8c-2.7,1-3.7-2.3-2.2-3.5l15.3-11.2
			c0.2-0.2,0.5-0.2,0.7,0l15.4,11.2l0.1,0.1c1.8,2-0.1,4.6-2.3,3.5V415.9L1497.7,415.9z"/>
		<path class="st3" d="M1480.5,407.8h7.7v7.3h8.2v-12.6c0,0,0-0.1,0-0.1l-12-8.8l-12.3,8.8c0,0.1,0,0.1,0,0.1V415h8.4L1480.5,407.8
			L1480.5,407.8z"/>
		<rect x="1481.9" y="399.5" width="2" height="2"/>
		<rect x="1484.7" y="402.2" width="2" height="2"/>
		<polygon points="1481.9,402.2 1484,402.2 1484,404.3 1481.9,404.3 		"/>
		<rect x="1484.7" y="399.5" width="2" height="2"/>
	</g>
	<g>
		<path d="M1495.4,398.6h-22c-0.1,0-0.1,0-0.2,0c-0.1,0-0.3-0.1-0.3-0.2c-0.1-0.1-0.2-0.3-0.2-0.4c0,0,0-0.1,0-0.1l0,0l2.6-9.2
			c0-0.1,0.1-0.3,0.2-0.4c0.1-0.1,0.3-0.2,0.5-0.2h16.8c0.2,0,0.3,0.1,0.4,0.1l0,0c0.1,0.1,0.2,0.3,0.2,0.4l2.6,9.2
			c0,0.1,0,0.1,0,0.1c0,0.1-0.1,0.3-0.2,0.4c-0.1,0.1-0.2,0.1-0.3,0.2C1495.5,398.6,1495.4,398.6,1495.4,398.6L1495.4,398.6z"/>
		<polygon class="st3" points="1494,397.6 1493.4,394.5 1488.3,394.5 1488.7,397.6 		"/>
		<polygon class="st3" points="1487.5,397.6 1487.2,394.5 1480.8,394.5 1480.4,397.6 		"/>
		<polygon class="st3" points="1479.2,397.6 1479.7,394.5 1474.9,394.5 1474.1,397.6 		"/>
		<polygon class="st3" points="1487.7,389.1 1487.9,390.8 1492.6,390.8 1492.3,389.1 		"/>
		<polygon class="st3" points="1476.3,389.1 1475.9,390.8 1480.3,390.8 1480.5,389.1 		"/>
		<polygon class="st3" points="1481.7,389.1 1481.5,390.8 1486.7,390.8 1486.6,389.1 		"/>
		<polygon class="st3" points="1488,391.8 1488.2,393.4 1493.2,393.4 1492.9,391.8 		"/>
		<polygon class="st3" points="1475.6,391.8 1475.2,393.4 1479.9,393.4 1480.1,391.8 		"/>
		<polygon class="st3" points="1481.2,391.8 1481,393.4 1487,393.4 1486.9,391.8 		"/>
	</g>
</g>
<g>
	<g>
		<path class="st4" d="M1337.1,258c0,0,14.8-9.3,36.7-16.7c14.2-4.8,29.8-6.1,37.3-6.5"/>
		<g>
			<polygon points="1403.4,242 1409.9,234.9 1402.9,228.4 1408.6,228.2 1415.7,234.7 1409.1,241.8 			"/>
		</g>
	</g>
</g>
<g>
	<g>
		<path class="st4" d="M1438,341c0,0,0-11.6,10.9-33.7c6.1-12.2,13.1-20,17.3-23.9"/>
		<g>
			<polygon points="1464.6,293.8 1465.3,284.2 1455.8,283.6 1460.1,279.8 1469.7,280.5 1469,290 			"/>
		</g>
	</g>
</g>
<g>
	<g>
		<path class="st4" d="M1584.7,55.7c0,0-12.3,11.1-19.2,25.6c-4.9,10.3-9.4,27.9-11.4,36"/>
		<g>
			<polygon points="1549.5,107.9 1554.4,116.1 1562.7,111.2 1561.2,116.8 1553,121.7 1548.1,113.5 			"/>
		</g>
	</g>
</g>
</svg>
