<?xml version="1.0" encoding="utf-8"?>
<!-- Generator: Adobe Illustrator 19.0.0, SVG Export Plug-In . SVG Version: 6.00 Build 0)  -->
<svg version="1.1" id="Layer_2" xmlns="http://www.w3.org/2000/svg" xmlns:xlink="http://www.w3.org/1999/xlink" x="0px" y="0px"
	 width="1920px" height="1351.9px" viewBox="480 -395.9 1920 1351.9" style="enable-background:new 480 -395.9 1920 1351.9;"
	 xml:space="preserve">
<style type="text/css">
	.st0{fill:none;stroke:#F6C32E;stroke-width:5;stroke-miterlimit:10;}
	.st1{fill:#F6C32E;}
	.st2{fill:#FFFFFF;}
	.st3{fill:#FFFFFF;stroke:#000000;stroke-width:3;stroke-miterlimit:10;}
	.st4{fill:none;stroke:#EC6F59;stroke-width:5;stroke-miterlimit:10;}
	.st5{fill:#EC6F59;}
	.st6{fill:none;stroke:#5DDDF0;stroke-width:5;stroke-miterlimit:10;}
	.st7{fill:#5DDDF0;}
	.st8{fill:none;stroke:#EC6F59;stroke-width:5;stroke-linecap:square;stroke-miterlimit:10;}
	.st9{fill:#FAD15C;}
</style>
<line class="st0" x1="1459.2" y1="73.7" x2="1459.2" y2="-154.2"/>
<g>
	<polygon class="st1" points="921.1,5.5 941.4,55.2 921.1,43.4 900.8,55.2 	"/>
</g>
<g>
	<polygon class="st1" points="1459.2,5.5 1479.5,55.2 1459.2,43.4 1438.9,55.2 	"/>
</g>
<g>
	<polygon class="st1" points="1996.5,55.2 1976.2,5.5 1996.5,17.3 2016.8,5.5 	"/>
</g>
<polyline class="st0" points="920.4,73.7 921,-13 1459.7,-13 "/>
<g>
	<polyline class="st0" points="1996.4,73.7 1995.9,-13 1459.7,-13 	"/>
</g>
<g id="_x3C_Group_x3E_">
	<path d="M1402.1-284.3h114.1c3.4,0,6.1,2.8,6.1,6.1v109.6c0,3.4-2.8,6.1-6.1,6.1h-8.8v5.2c0,1.7-1.4,3.1-3.1,3.1h-6.9v8.8
		c0,0.6-0.5,1.1-1.1,1.1h-8.8c-1.2,0-2.3-1-2.3-2.3v-7.6h-9.1v8.8c0,0.6-0.5,1.1-1.1,1.1h-8.8c-1.2,0-2.3-1-2.3-2.3v-7.6h-9.1v8.8
		c0,0.6-0.5,1.1-1.1,1.1h-8.8c-1.2,0-2.3-1-2.3-2.3v-7.6h-9.1v8.8c0,0.6-0.5,1.1-1.1,1.1h-8.8c-1.2,0-2.3-1-2.3-2.3v-7.6h-7
		c-1.7,0-3.1-1.4-3.1-3.1v-5.2h-8.8c-3.4,0-6.1-2.8-6.1-6.1v-109.6C1396-281.6,1398.8-284.3,1402.1-284.3L1402.1-284.3z"/>
	<path class="st2" d="M1412.2-273.7h93.9c3.4,0,6.1,2.8,6.1,6.1v88.8c0,3.4-2.8,6.1-6.1,6.1h-93.9c-3.4,0-6.1-2.8-6.1-6.1v-88.8
		C1406.1-270.9,1408.9-273.7,1412.2-273.7L1412.2-273.7z"/>
	<path d="M1418.9-256h80.6c0.9,0,1.7,0.4,2.3,1s1,1.4,1,2.3v14.7c0,0.9-0.4,1.7-1,2.3s-1.4,1-2.3,1h-80.6c-0.9,0-1.7-0.4-2.3-1
		s-1-1.4-1-2.3v-14.7c0-0.9,0.4-1.7,1-2.3S1418-256,1418.9-256z"/>
	<path class="st2" d="M1485.9-253.4v16.1h13.6c0.2,0,0.4-0.1,0.5-0.2c0.1-0.1,0.2-0.3,0.2-0.5v-14.7c0-0.2-0.1-0.4-0.2-0.5
		s-0.3-0.2-0.5-0.2H1485.9z"/>
	<rect x="1468.9" y="-253.4" class="st2" width="14.3" height="16.1"/>
	<rect x="1452.1" y="-253.4" class="st2" width="14.3" height="16.1"/>
	<rect x="1435.1" y="-253.4" class="st2" width="14.3" height="16.1"/>
	<path class="st2" d="M1432.5-237.3v-16.1h-13.6c-0.2,0-0.4,0.1-0.5,0.2s-0.2,0.3-0.2,0.5v14.7c0,0.2,0.1,0.4,0.2,0.5
		s0.3,0.2,0.5,0.2H1432.5L1432.5-237.3z"/>
	<path d="M1462.4-198.3h4.3c0.6,0,1.1,0.5,1.1,1.1c0,0.2-0.1,0.4-0.2,0.6l-10.2,17.7c-0.2,0.3-0.6,0.5-1,0.5c-0.6,0-1.1-0.5-1.1-1.1
		c0-0.1,0-0.2,0-0.2l1.5-10.8l-5.1,0.1l0,0c-0.6,0-1.1-0.5-1.1-1.1l0,0c0-0.2,0.1-0.4,0.2-0.6l10.1-17.6c0.2-0.3,0.6-0.5,1-0.5
		c0.6,0,1.1,0.5,1.1,1.1v0.1L1462.4-198.3z"/>
	<ellipse cx="1503.8" cy="-265.3" rx="2.9" ry="3"/>
	<ellipse cx="1414.6" cy="-265.3" rx="2.9" ry="3"/>
	<ellipse cx="1414.6" cy="-181" rx="2.9" ry="3"/>
	<ellipse cx="1503.8" cy="-181" rx="2.9" ry="3"/>
	<path d="M1493.1-240.4c-0.8,0-1.5-0.3-2-0.8s-0.8-1.2-0.8-2.1v-4.1c0-0.9,0.3-1.6,0.8-2.1s1.2-0.8,2-0.8s1.5,0.3,2,0.8
		s0.8,1.2,0.8,2.1v4.1c0,0.9-0.3,1.6-0.8,2.1C1494.7-240.7,1494-240.4,1493.1-240.4z"/>
	<path class="st2" d="M1493.1-242.4c0.2,0,0.3-0.1,0.4-0.2s0.1-0.3,0.1-0.6v-4.4c0-0.2,0-0.4-0.1-0.6c-0.1-0.1-0.2-0.2-0.4-0.2
		c-0.2,0-0.3,0.1-0.4,0.2s-0.1,0.3-0.1,0.6v4.4c0,0.2,0,0.4,0.1,0.6C1492.9-242.4,1493-242.4,1493.1-242.4z"/>
	<path d="M1476.4-240.4c-0.8,0-1.5-0.3-2-0.8s-0.8-1.2-0.8-2.1v-4.1c0-0.9,0.3-1.6,0.8-2.1s1.2-0.8,2-0.8s1.5,0.3,2,0.8
		s0.8,1.2,0.8,2.1v4.1c0,0.9-0.3,1.6-0.8,2.1S1477.3-240.4,1476.4-240.4z"/>
	<path class="st2" d="M1476.4-242.4c0.2,0,0.3-0.1,0.4-0.2s0.1-0.3,0.1-0.6v-4.4c0-0.2,0-0.4-0.1-0.6c-0.1-0.1-0.2-0.2-0.4-0.2
		c-0.2,0-0.3,0.1-0.4,0.2s-0.1,0.3-0.1,0.6v4.4c0,0.2,0,0.4,0.1,0.6S1476.3-242.4,1476.4-242.4z"/>
	<path d="M1459-240.4c-0.8,0-1.5-0.3-2-0.8s-0.8-1.2-0.8-2.1v-4.1c0-0.9,0.3-1.6,0.8-2.1s1.2-0.8,2-0.8s1.5,0.3,2,0.8
		s0.8,1.2,0.8,2.1v4.1c0,0.9-0.3,1.6-0.8,2.1S1459.8-240.4,1459-240.4z"/>
	<path class="st2" d="M1459-242.4c0.2,0,0.3-0.1,0.4-0.2s0.1-0.3,0.1-0.6v-4.4c0-0.2,0-0.4-0.1-0.6c-0.1-0.1-0.2-0.2-0.4-0.2
		c-0.2,0-0.3,0.1-0.4,0.2s-0.1,0.3-0.1,0.6v4.4c0,0.2,0,0.4,0.1,0.6S1458.8-242.4,1459-242.4z"/>
	<path d="M1442.2-240.4c-0.8,0-1.5-0.3-2-0.8s-0.8-1.2-0.8-2.1v-4.1c0-0.9,0.3-1.6,0.8-2.1s1.2-0.8,2-0.8s1.5,0.3,2,0.8
		s0.8,1.2,0.8,2.1v4.1c0,0.9-0.3,1.6-0.8,2.1S1443-240.4,1442.2-240.4z"/>
	<path class="st2" d="M1442.2-242.4c0.2,0,0.3-0.1,0.4-0.2s0.1-0.3,0.1-0.6v-4.4c0-0.2,0-0.4-0.1-0.6c-0.1-0.1-0.2-0.2-0.4-0.2
		c-0.2,0-0.3,0.1-0.4,0.2s-0.1,0.3-0.1,0.6v4.4c0,0.2,0,0.4,0.1,0.6C1441.9-242.4,1442-242.4,1442.2-242.4z"/>
	<path d="M1425.5-240.4c-0.8,0-1.5-0.3-2-0.8s-0.8-1.2-0.8-2.1v-4.1c0-0.9,0.3-1.6,0.8-2.1s1.2-0.8,2-0.8s1.5,0.3,2,0.8
		s0.8,1.2,0.8,2.1v4.1c0,0.9-0.3,1.6-0.8,2.1S1426.3-240.4,1425.5-240.4z"/>
	<path class="st2" d="M1425.5-242.4c0.2,0,0.3-0.1,0.4-0.2s0.1-0.3,0.1-0.6v-4.4c0-0.2,0-0.4-0.1-0.6c-0.1-0.1-0.2-0.2-0.4-0.2
		c-0.2,0-0.3,0.1-0.4,0.2s-0.1,0.3-0.1,0.6v4.4c0,0.2,0,0.4,0.1,0.6S1425.3-242.4,1425.5-242.4z"/>
	<path d="M1441.6-214.4c-1.2,0-2.1-0.9-2.1-2.1s0.9-2.1,2.1-2.1h35.2c1.2,0,2.1,0.9,2.1,2.1s-0.9,2.1-2.1,2.1H1441.6z"/>
	<path d="M1427.7-225c-1.2,0-2.1-0.9-2.1-2.1c0-1.2,0.9-2.1,2.1-2.1h62.9c1.2,0,2.1,0.9,2.1,2.1c0,1.2-0.9,2.1-2.1,2.1H1427.7z"/>
</g>
<line class="st0" x1="1235.4" y1="-219.5" x2="1396" y2="-219.5"/>
<path d="M1202-278.9L1202-278.9l16.4-20.9c0.6-0.8,1.8-0.9,2.6-0.3c0.1,0.1,0.3,0.3,0.4,0.4l15.9,20.8l0.1,0.1l30.1,13.8
	c1,0.3,1.6,1.3,1.3,2.3c-0.2,0.9-1,1.4-1.9,1.4h-3.2v4.3c0,1.3-1,2.3-2.3,2.3s-2.3-1-2.3-2.3l0,0v-4.3h-2.3v4.3c0,1.3-1,2.3-2.3,2.3
	s-2.3-1-2.3-2.3v-4.3h-14.6v8.7l29.8,13.4c1,0.3,1.6,1.3,1.3,2.3c-0.2,0.9-1,1.4-1.9,1.4h-3.2v4.6c0,1.3-1,2.3-2.3,2.3
	s-2.3-1-2.3-2.3l0,0v-4.6h-2.3v4.6c0,1.3-1,2.3-2.3,2.3s-2.3-1-2.3-2.3l0,0v-4.6h-14.6v18.8l11.9,26.3c0.3,0.3,0.4,0.6,0.5,1l0,0
	l12.9,28.5h8v11.3h-25.6V-161h12.5l-34.7-26.4h-7.2l-34.5,26.5h12.3v11.3h-25.5v-11.3h8.1l25.3-55.9v-18.8h-15.8v4.6
	c0,1.3-1,2.3-2.3,2.3s-2.3-1-2.3-2.3l0,0v-4.6h-2.5v4.6c-0.1,1.3-1.2,2.2-2.5,2.1c-1.1-0.1-2.1-1-2.1-2.1v-4.6h-1.7
	c-1,0-1.9-0.9-1.9-1.9c0-0.7,0.4-1.4,1.1-1.7l30-13.6v-8.5h-15.8v4.3c0,1.3-1,2.3-2.3,2.3s-2.3-1-2.3-2.3l0,0v-4.3h-2.5v4.3
	c-0.1,1.3-1.2,2.2-2.5,2.1c-1.1-0.1-2.1-1-2.1-2.1v-4.3h-1.7c-1-0.1-1.8-0.9-1.8-2c0-0.7,0.4-1.3,1-1.6L1202-278.9L1202-278.9z
	 M1205.4-222l12.2-14l-11.9-13.7h-0.3L1205.4-222L1205.4-222z M1219.7-238.3l9.8-11.3h-19.7L1219.7-238.3L1219.7-238.3z
	 M1233.7-249.6l-11.9,13.6l12.2,14v-27.7L1233.7-249.6L1233.7-249.6z M1219.7-233.6l-13.3,15.3h26.6L1219.7-233.6z M1205.4-255.5
	l11.4-9.6l-11.4-9.6V-255.5z M1219.7-267.4l9.5-7.9h-18.9L1219.7-267.4z M1233.9-274.6l-11.4,9.5l11.4,9.6V-274.6z M1219.7-262.6
	l-11.1,9.3h22.1L1219.7-262.6z M1256.2-167l-9.2-20.4h-17.6L1256.2-167z M1209.8-187.4h-17.4l-9.3,20.5L1209.8-187.4z M1241.2-191.1
	l-21.6-13.3l-21.6,13.2L1241.2-191.1z M1216.1-206.5l-11.8-7.2l-9,20L1216.1-206.5z M1219.7-208.7l9.5-5.8h-19L1219.7-208.7
	L1219.7-208.7z M1234.9-213.7l-11.7,7.2l20.8,12.7L1234.9-213.7L1234.9-213.7z M1237.7-265.1h20.6l-20.6-9.4V-265.1L1237.7-265.1z
	 M1201.6-274.6l-20.7,9.5h20.7V-274.6z M1237.7-248.5v9.2h20.4L1237.7-248.5z M1201.6-239.4v-9.3l-20.5,9.3L1201.6-239.4
	L1201.6-239.4z M1232.2-279.4l-12.4-16.2l-12.7,16.2H1232.2z"/>
<g>
	<ellipse class="st3" cx="921.1" cy="236.8" rx="244.8" ry="122.4"/>
	<g id="_x3C_Group_x3E__2_">
		<path d="M890.8,73.7H950c1.7,0,3.2,1.4,3.2,3.2v56.8c0,1.7-1.4,3.2-3.2,3.2h-4.6v2.7c0,0.9-0.7,1.6-1.6,1.6h-3.6v4.5
			c0,0.3-0.3,0.6-0.6,0.6H935c-0.6,0-1.2-0.5-1.2-1.2v-4h-4.7v4.5c0,0.3-0.3,0.6-0.6,0.6h-4.6c-0.6,0-1.2-0.5-1.2-1.2v-4H918v4.5
			c0,0.3-0.3,0.6-0.6,0.6h-4.6c-0.6,0-1.2-0.5-1.2-1.2v-4h-4.7v4.5c0,0.3-0.3,0.6-0.6,0.6h-4.6c-0.6,0-1.2-0.5-1.2-1.2v-4h-3.7
			c-0.9,0-1.6-0.7-1.6-1.6v-2.7h-4.6c-1.7,0-3.2-1.4-3.2-3.2V76.5C887.6,75.1,889,73.7,890.8,73.7L890.8,73.7z"/>
		<path class="st2" d="M896,79.2h48.7c1.7,0,3.2,1.4,3.2,3.2v46.1c0,1.7-1.4,3.2-3.2,3.2H896c-1.7,0-3.2-1.4-3.2-3.2V82.4
			C892.9,80.6,894.3,79.2,896,79.2L896,79.2z"/>
		<path d="M899.5,88.4h41.8c0.5,0,0.9,0.2,1.2,0.5s0.5,0.7,0.5,1.2v7.6c0,0.5-0.2,0.9-0.5,1.2c-0.3,0.3-0.7,0.5-1.2,0.5h-41.8
			c-0.5,0-0.9-0.2-1.2-0.5s-0.5-0.7-0.5-1.2v-7.6c0-0.5,0.2-0.9,0.5-1.2C898.6,88.6,899,88.4,899.5,88.4z"/>
		<path class="st2" d="M934.2,89.8v8.3h7.1c0.1,0,0.2,0,0.3-0.1s0.1-0.2,0.1-0.3v-7.6c0-0.1,0-0.2-0.1-0.3s-0.2-0.1-0.3-0.1
			C941.3,89.8,934.2,89.8,934.2,89.8z"/>
		<rect x="925.4" y="89.8" class="st2" width="7.4" height="8.3"/>
		<rect x="916.7" y="89.8" class="st2" width="7.4" height="8.3"/>
		<rect x="907.9" y="89.8" class="st2" width="7.4" height="8.3"/>
		<path class="st2" d="M906.5,98.1v-8.3h-7c-0.1,0-0.2,0-0.3,0.1s-0.1,0.2-0.1,0.3v7.6c0,0.1,0,0.2,0.1,0.3s0.2,0.1,0.3,0.1
			L906.5,98.1L906.5,98.1z"/>
		<path d="M922.1,118.3h2.2c0.3,0,0.6,0.3,0.6,0.6c0,0.1,0,0.2-0.1,0.3l-5.3,9.1c-0.1,0.2-0.3,0.3-0.5,0.3c-0.3,0-0.6-0.3-0.6-0.6
			v-0.1l0.8-5.6h-2.7l0,0c-0.3,0-0.6-0.3-0.6-0.6l0,0c0-0.1,0-0.2,0.1-0.3l5.3-9.1c0.1-0.2,0.3-0.3,0.5-0.3c0.3,0,0.6,0.3,0.6,0.6
			v0.1L922.1,118.3z"/>
		<ellipse cx="943.5" cy="83.6" rx="1.5" ry="1.6"/>
		<ellipse cx="897.3" cy="83.6" rx="1.5" ry="1.6"/>
		<ellipse cx="897.3" cy="127.3" rx="1.5" ry="1.6"/>
		<ellipse cx="943.5" cy="127.3" rx="1.5" ry="1.6"/>
		<path d="M938,96.5c-0.4,0-0.8-0.1-1-0.4c-0.3-0.3-0.4-0.6-0.4-1.1v-2.1c0-0.4,0.1-0.8,0.4-1.1s0.6-0.4,1-0.4s0.8,0.1,1,0.4
			s0.4,0.6,0.4,1.1V95c0,0.4-0.1,0.8-0.4,1.1C938.8,96.3,938.4,96.5,938,96.5z"/>
		<path class="st2" d="M938,95.5c0.1,0,0.2,0,0.2-0.1s0.1-0.2,0.1-0.3v-2.3c0-0.1,0-0.2-0.1-0.3c0-0.1-0.1-0.1-0.2-0.1
			c-0.1,0-0.2,0-0.2,0.1s-0.1,0.2-0.1,0.3v2.3c0,0.1,0,0.2,0.1,0.3C937.8,95.4,937.9,95.5,938,95.5z"/>
		<path d="M929.3,96.5c-0.4,0-0.8-0.1-1-0.4c-0.3-0.3-0.4-0.6-0.4-1.1v-2.1c0-0.4,0.1-0.8,0.4-1.1c0.3-0.3,0.6-0.4,1-0.4
			s0.8,0.1,1,0.4s0.4,0.6,0.4,1.1V95c0,0.4-0.1,0.8-0.4,1.1C930.1,96.3,929.8,96.5,929.3,96.5z"/>
		<path class="st2" d="M929.3,95.5c0.1,0,0.2,0,0.2-0.1s0.1-0.2,0.1-0.3v-2.3c0-0.1,0-0.2-0.1-0.3c0-0.1-0.1-0.1-0.2-0.1
			s-0.2,0-0.2,0.1s-0.1,0.2-0.1,0.3v2.3c0,0.1,0,0.2,0.1,0.3C929.2,95.4,929.2,95.5,929.3,95.5z"/>
		<path d="M920.3,96.5c-0.4,0-0.8-0.1-1-0.4c-0.3-0.3-0.4-0.6-0.4-1.1v-2.1c0-0.4,0.1-0.8,0.4-1.1c0.3-0.3,0.6-0.4,1-0.4
			s0.8,0.1,1,0.4c0.3,0.3,0.4,0.6,0.4,1.1V95c0,0.4-0.1,0.8-0.4,1.1C921.1,96.3,920.7,96.5,920.3,96.5z"/>
		<path class="st2" d="M920.3,95.5c0.1,0,0.2,0,0.2-0.1s0.1-0.2,0.1-0.3v-2.3c0-0.1,0-0.2-0.1-0.3c0-0.1-0.1-0.1-0.2-0.1
			s-0.2,0-0.2,0.1s-0.1,0.2-0.1,0.3v2.3c0,0.1,0,0.2,0.1,0.3C920.1,95.4,920.2,95.5,920.3,95.5z"/>
		<path d="M911.6,96.5c-0.4,0-0.8-0.1-1-0.4c-0.3-0.3-0.4-0.6-0.4-1.1v-2.1c0-0.4,0.1-0.8,0.4-1.1s0.6-0.4,1-0.4s0.8,0.1,1,0.4
			s0.4,0.6,0.4,1.1V95c0,0.4-0.1,0.8-0.4,1.1C912.4,96.3,912,96.5,911.6,96.5z"/>
		<path class="st2" d="M911.6,95.5c0.1,0,0.2,0,0.2-0.1s0.1-0.2,0.1-0.3v-2.3c0-0.1,0-0.2-0.1-0.3c0-0.1-0.1-0.1-0.2-0.1
			c-0.1,0-0.2,0-0.2,0.1s-0.1,0.3-0.1,0.3v2.3c0,0.1,0,0.2,0.1,0.3C911.4,95.4,911.5,95.5,911.6,95.5z"/>
		<path d="M902.9,96.5c-0.4,0-0.8-0.1-1-0.4c-0.3-0.3-0.4-0.6-0.4-1.1v-2.1c0-0.4,0.1-0.8,0.4-1.1c0.3-0.3,0.6-0.4,1-0.4
			s0.8,0.1,1,0.4c0.3,0.3,0.4,0.6,0.4,1.1V95c0,0.4-0.1,0.8-0.4,1.1C903.7,96.3,903.3,96.5,902.9,96.5z"/>
		<path class="st2" d="M902.9,95.5c0.1,0,0.2,0,0.2-0.1s0.1-0.2,0.1-0.3v-2.3c0-0.1,0-0.2-0.1-0.3c0-0.1-0.1-0.1-0.2-0.1
			c-0.1,0-0.2,0-0.2,0.1s-0.1,0.2-0.1,0.3v2.3c0,0.1,0,0.2,0.1,0.3C902.7,95.4,902.8,95.5,902.9,95.5z"/>
		<path d="M911.2,110c-0.6,0-1.1-0.5-1.1-1.1s0.5-1.1,1.1-1.1h18.3c0.6,0,1.1,0.5,1.1,1.1s-0.5,1.1-1.1,1.1H911.2z"/>
		<path d="M904.1,104.5c-0.6,0-1.1-0.5-1.1-1.1s0.5-1.1,1.1-1.1h32.6c0.6,0,1.1,0.5,1.1,1.1s-0.5,1.1-1.1,1.1H904.1z"/>
	</g>
	<g>
		<path d="M839.3,162.1c-3.8,0-5.7,3.3-6.9,6.8l-2.9,9.1l-1.4-2.7c-6.4-0.4-7.1,3.2-0.8,6.5l0,0c-7.1,4.6-6.1,12.6-5.4,21.5
			c0,0.1,0,0.2,0,0.3v4.9c0,1.1,0.9,2.1,2.1,2.1h9.1c1.1,0,2.1-1,2.1-2.1v-1.7h43.3v1.7c0,1.2,1,2.1,2.1,2.1h9.1
			c1.2,0,2.1-1,2.1-2.1v-3.8c0.7-11.6,1.1-16.3-3.4-21l-1.1-1.7c6.9-3.3,6.4-7.1-0.2-6.7l-1.2,2.4l-2.2-8.9
			c-0.9-3.6-3.1-6.8-6.8-6.8h-17.6c0-0.2-0.1-0.5-0.1-0.7c4-0.6,5.5-2.7,5.5-6.9V152h0.8c0.5,0,1-0.5,1-1v-1.1c0-0.5-0.5-1-1-1h-3.1
			v-5.3c0-0.9-0.7-1.6-1.6-1.6l0,0c-0.9,0-1.6,0.8-1.6,1.6v5.2h-4.7v-5.2c0-0.9-0.8-1.6-1.6-1.6l0,0l0,0c-0.9,0-1.6,0.8-1.6,1.6v5.2
			h-3c-0.5,0-1,0.5-1,1v1.2c0,0.5,0.5,1,1,1h0.6v2.3c0,4.2,1.6,6.8,6,7.2l0,0c0,0.2,0.1,0.5,0.1,0.7H839.3L839.3,162.1z"/>
		<path class="st2" d="M859.2,190.7h2.9c0.4,0,0.8,0.4,0.8,0.8c0,0.2-0.1,0.3-0.2,0.4l-6.8,11.6c-0.2,0.4-0.7,0.5-1,0.2l0,0
			c-0.3-0.2-0.4-0.5-0.4-0.8l1-7.1l-3.4,0.1c-0.4,0-0.8-0.3-0.8-0.8l0,0c0-0.2,0-0.3,0.1-0.4L858,183c0.2-0.4,0.7-0.5,1.1-0.2
			c0.2,0.2,0.4,0.5,0.4,0.8L859.2,190.7z"/>
		<path class="st2" d="M836.6,168.3c0.2-0.5,0.6-1,1.1-1.3c0.8-0.8,1.9-1.2,3-1.2h34.8c2.9,0,4.6,2.4,5.2,5.2l2.3,9.3h-50.2l0,0
			l2.7-9.2C835.6,170,836,169.1,836.6,168.3L836.6,168.3z"/>
		<path class="st2" d="M839.1,192.5l-8.1-1c-1.9-0.2-2.4,0.6-1.7,2.3l0.9,2.1c0.2,0.5,0.6,0.9,1.1,1.2c0.5,0.3,1.2,0.5,1.8,0.5
			l7.2,0.1c1.7,0,2.5-0.7,2-2.3C841.8,193.8,840.6,192.8,839.1,192.5L839.1,192.5z"/>
		<path class="st2" d="M875,192.5l8.1-1c1.9-0.2,2.4,0.6,1.7,2.3l-0.9,2.1c-0.2,0.5-0.6,0.9-1.1,1.2c-0.5,0.3-1.2,0.5-1.8,0.5
			l-7.2,0.1c-1.7,0-2.5-0.7-2-2.3C872.3,193.8,873.5,192.8,875,192.5z"/>
		<rect x="852.5" y="152.9" class="st2" width="8.6" height="1.3"/>
	</g>
	<g>
		<path d="M965.8,162.1c-3.8,0-5.7,3.3-6.9,6.8l-2.9,9.1l-1.4-2.7c-6.4-0.4-7.1,3.2-0.8,6.5l0,0c-7.1,4.6-6.1,12.6-5.4,21.5
			c0,0.1,0,0.2,0,0.3v4.9c0,1.1,0.9,2.1,2.1,2.1h9.1c1.1,0,2.1-1,2.1-2.1v-1.7h43.3v1.7c0,1.2,1,2.1,2.1,2.1h9.1
			c1.2,0,2.1-1,2.1-2.1v-3.8c0.7-11.6,1.1-16.3-3.4-21l-1.1-1.7c6.9-3.3,6.4-7.1-0.2-6.7l-1.2,2.4l-2.2-8.9
			c-0.9-3.6-3.1-6.8-6.8-6.8h-17.6c0-0.2-0.1-0.5-0.1-0.7c4-0.6,5.5-2.7,5.5-6.9V152h0.8c0.5,0,1-0.5,1-1v-1.1c0-0.5-0.5-1-1-1h-3.1
			v-5.3c0-0.9-0.7-1.6-1.6-1.6l0,0c-0.9,0-1.6,0.8-1.6,1.6v5.2H981v-5.2c0-0.9-0.8-1.6-1.6-1.6l0,0l0,0c-0.9,0-1.6,0.8-1.6,1.6v5.2
			h-3c-0.5,0-1,0.5-1,1v1.2c0,0.5,0.5,1,1,1h0.6v2.3c0,4.2,1.6,6.8,6,7.2l0,0c0,0.2,0.1,0.5,0.1,0.7H965.8L965.8,162.1z"/>
		<path class="st2" d="M985.6,190.7h2.9c0.4,0,0.8,0.4,0.8,0.8c0,0.2-0.1,0.3-0.2,0.4l-6.8,11.6c-0.2,0.4-0.7,0.5-1,0.2l0,0
			c-0.3-0.2-0.4-0.5-0.4-0.8l1-7.1l-3.4,0.1c-0.4,0-0.8-0.3-0.8-0.8l0,0c0-0.2,0-0.3,0.1-0.4l6.7-11.6c0.2-0.4,0.7-0.5,1.1-0.2
			c0.2,0.2,0.4,0.5,0.4,0.8L985.6,190.7z"/>
		<path class="st2" d="M963,168.3c0.2-0.5,0.6-1,1.1-1.3c0.8-0.8,1.9-1.2,3-1.2h34.8c2.9,0,4.6,2.4,5.2,5.2l2.3,9.3h-50.2l0,0
			l2.7-9.2C962.1,170,962.4,169.1,963,168.3L963,168.3z"/>
		<path class="st2" d="M965.6,192.5l-8.1-1c-1.9-0.2-2.4,0.6-1.7,2.3l0.9,2.1c0.2,0.5,0.6,0.9,1.1,1.2c0.5,0.3,1.2,0.5,1.8,0.5
			l7.2,0.1c1.7,0,2.5-0.7,2-2.3C968.2,193.8,967,192.8,965.6,192.5L965.6,192.5z"/>
		<path class="st2" d="M1001.4,192.5l8.1-1c1.9-0.2,2.4,0.6,1.7,2.3l-0.9,2.1c-0.2,0.5-0.6,0.9-1.1,1.2c-0.5,0.3-1.2,0.5-1.8,0.5
			l-7.2,0.1c-1.7,0-2.5-0.7-2-2.3C998.8,193.8,1000,192.8,1001.4,192.5z"/>
		<rect x="978.9" y="152.9" class="st2" width="8.6" height="1.3"/>
	</g>
	<g>
		<path d="M796.5,265.5c0,0.6-0.6,1.2-1.2,1.2h-58.7c-0.6,0-1.2-0.6-1.2-1.2v-28.9c-6.1,2.4-8.4-5.2-4.9-7.9l34.7-25.4
			c0.4-0.4,1-0.4,1.5-0.1l34.8,25.4l0.1,0.1c4.2,4.5-0.2,10.3-5.2,7.9V265.5L796.5,265.5z"/>
		<path class="st2" d="M757.4,247.2h17.4v16.4h18.7v-28.4c0-0.1,0-0.2,0-0.2l-27.2-20l-27.9,20c0,0.1,0.1,0.2,0.1,0.3v28.3h19V247.2
			L757.4,247.2z"/>
		<rect x="760.6" y="228.5" width="4.5" height="4.6"/>
		<rect x="766.9" y="234.6" width="4.5" height="4.6"/>
		<polygon points="760.6,234.6 765.2,234.6 765.2,239.3 760.6,239.3 		"/>
		<rect x="766.9" y="228.5" width="4.5" height="4.6"/>
	</g>
	<g>
		<path d="M791.7,226.3H742c-0.2,0-0.2,0-0.4-0.1c-0.2-0.1-0.6-0.2-0.7-0.4c-0.2-0.2-0.4-0.6-0.4-0.9c0-0.1,0-0.2,0.1-0.3l0,0
			l5.9-20.8c0.1-0.2,0.2-0.7,0.5-0.8c0.2-0.2,0.7-0.4,1.1-0.4h37.9c0.4,0,0.7,0.2,1,0.3l0.1,0.1c0.2,0.2,0.4,0.6,0.5,0.8l5.9,20.8
			c0,0.2,0.1,0.2,0.1,0.3c0,0.3-0.2,0.7-0.4,0.9c-0.2,0.2-0.5,0.3-0.7,0.4C792,226.3,791.9,226.3,791.7,226.3L791.7,226.3z"/>
		<polygon class="st2" points="788.7,224.1 787.3,217 775.8,217 776.5,224.1 		"/>
		<polygon class="st2" points="774,224.1 773.1,217 758.9,217 757.9,224.1 		"/>
		<polygon class="st2" points="755.2,224.1 756.3,217 745.4,217 743.6,224.1 		"/>
		<polygon class="st2" points="774.5,205 774.9,208.7 785.6,208.7 784.8,205 		"/>
		<polygon class="st2" points="748.6,205 747.6,208.7 757.5,208.7 758.1,205 		"/>
		<polygon class="st2" points="760.8,205 760.3,208.7 772.2,208.7 771.8,205 		"/>
		<polygon class="st2" points="775.1,211 775.5,214.7 786.8,214.7 786.1,211 		"/>
		<polygon class="st2" points="747,211 746.1,214.7 756.6,214.7 757.2,211 		"/>
		<polygon class="st2" points="759.8,211 759.3,214.7 772.9,214.7 772.6,211 		"/>
	</g>
	<g>
		<path d="M949.2,297.3c0,0.6-0.6,1.2-1.2,1.2h-58.7c-0.6,0-1.2-0.6-1.2-1.2v-28.9c-6.1,2.4-8.4-5.2-4.9-7.9l34.7-25.4
			c0.4-0.4,1-0.4,1.5-0.1l34.8,25.4l0.1,0.1c4.2,4.5-0.2,10.3-5.2,7.9V297.3L949.2,297.3z"/>
		<path class="st2" d="M910.2,279.1h17.4v16.4h18.7v-28.4c0-0.1,0-0.2,0-0.2l-27.2-20l-27.9,20c0,0.1,0.1,0.2,0.1,0.3v28.3h19
			L910.2,279.1L910.2,279.1z"/>
		<rect x="913.5" y="260.3" width="4.5" height="4.6"/>
		<rect x="919.7" y="266.5" width="4.5" height="4.6"/>
		<polygon points="913.5,266.5 918,266.5 918,271.2 913.5,271.2 		"/>
		<rect x="919.7" y="260.3" width="4.5" height="4.6"/>
	</g>
	<g>
		<path d="M944.5,258.2h-49.7c-0.2,0-0.2,0-0.4-0.1c-0.2-0.1-0.6-0.2-0.7-0.4c-0.2-0.2-0.4-0.6-0.4-0.9c0-0.1,0-0.2,0.1-0.3l0,0
			l5.9-20.8c0.1-0.2,0.2-0.7,0.5-0.8c0.2-0.2,0.7-0.4,1.1-0.4h37.9c0.4,0,0.7,0.2,1,0.3l0.1,0.1c0.2,0.2,0.4,0.6,0.5,0.8l5.9,20.8
			c0,0.2,0.1,0.2,0.1,0.3c0,0.3-0.2,0.7-0.4,0.9c-0.2,0.2-0.5,0.3-0.7,0.4C944.8,258.2,944.6,258.2,944.5,258.2L944.5,258.2z"/>
		<polygon class="st2" points="941.6,255.9 940.1,248.9 928.5,248.9 929.4,255.9 		"/>
		<polygon class="st2" points="926.7,255.9 926,248.9 911.7,248.9 910.6,255.9 		"/>
		<polygon class="st2" points="908.1,255.9 909.1,248.9 898.3,248.9 896.4,255.9 		"/>
		<polygon class="st2" points="927.2,236.9 927.6,240.6 938.3,240.6 937.6,236.9 		"/>
		<polygon class="st2" points="901.4,236.9 900.4,240.6 910.4,240.6 911,236.9 		"/>
		<polygon class="st2" points="913.6,236.9 913,240.6 925.1,240.6 924.6,236.9 		"/>
		<polygon class="st2" points="928,242.9 928.4,246.6 939.6,246.6 938.8,242.9 		"/>
		<polygon class="st2" points="899.8,242.9 898.8,246.6 909.5,246.6 910,242.9 		"/>
		<polygon class="st2" points="912.6,242.9 912,246.6 925.6,246.6 925.3,242.9 		"/>
	</g>
	<g>
		<path d="M1102.1,265.5c0,0.6-0.6,1.2-1.2,1.2h-58.7c-0.6,0-1.2-0.6-1.2-1.2v-28.9c-6.1,2.4-8.4-5.2-4.9-7.9l34.7-25.4
			c0.4-0.4,1-0.4,1.5-0.1l34.8,25.4l0.1,0.1c4.2,4.5-0.2,10.3-5.2,7.9V265.5L1102.1,265.5z"/>
		<path class="st2" d="M1063,247.2h17.4v16.4h18.7v-28.4c0-0.1,0-0.2,0-0.2l-27.2-20l-27.9,20c0,0.1,0.1,0.2,0.1,0.3v28.3h19
			L1063,247.2L1063,247.2z"/>
		<rect x="1066.3" y="228.5" width="4.5" height="4.6"/>
		<rect x="1072.5" y="234.6" width="4.5" height="4.6"/>
		<polygon points="1066.3,234.6 1070.9,234.6 1070.9,239.3 1066.3,239.3 		"/>
		<rect x="1072.5" y="228.5" width="4.5" height="4.6"/>
	</g>
</g>
<g>
	<g>
		<line class="st4" x1="766.1" y1="422.2" x2="766.1" y2="302.4"/>
		<g>
			<polygon class="st5" points="766.1,267.1 786.4,316.8 766.1,305 745.8,316.8 			"/>
		</g>
	</g>
</g>
<g>
	<g>
		<line class="st4" x1="919.7" y1="560.9" x2="919.7" y2="333.8"/>
		<g>
			<polygon class="st5" points="919.7,298.5 940,348.2 919.7,336.4 899.4,348.2 			"/>
		</g>
	</g>
</g>
<g>
	<g>
		<line class="st6" x1="919.7" y1="746.4" x2="919.7" y2="607.7"/>
		<g>
			<polygon class="st7" points="919.7,572.3 940,622.1 919.7,610.2 899.4,622.1 			"/>
		</g>
	</g>
</g>
<g>
	<g>
		<line class="st4" x1="1071.7" y1="422.2" x2="1071.7" y2="302.4"/>
		<g>
			<polygon class="st5" points="1071.7,267.1 1092,316.8 1071.7,305 1051.4,316.8 			"/>
		</g>
	</g>
</g>
<line class="st8" x1="766.1" y1="422.2" x2="1071.7" y2="422.2"/>
<g>
	<path class="st7" d="M911.1,701c-2.9-1.2-5.5-2.8-7.7-5c-2.5-2.7-4-5.9-4.3-9.5c-0.3-3.4,0.2-6.7,1.4-9.9c0.9-2.5,2.1-4.8,3.4-7.1
		c1.6-2.8,3.3-5.7,5-8.5c2.2-3.9,4-8,5.2-12.3c0.3-1,0.5-2,0.8-3.1c0-0.1,0-0.2,0.1-0.3c0.1,0,0.1,0.1,0.2,0.1
		c3.9,3.7,7.8,7.4,11.3,11.4c2.7,3,5.2,6.2,7.3,9.7c1.9,3.2,3.4,6.5,4.3,10.2c0.7,3,1,6,0.8,9c-0.4,6.6-4.3,12.4-10,15
		c-1.2,0.6-4.4,1.4-9.9,1.4C914.1,701.9,911.5,701.3,911.1,701z"/>
	<path class="st2" d="M930.1,695.2c1.6-3.3,2.3-6.7,2.1-10.4c-0.2-3.4-1.1-6.5-2.7-9.5c-1.7-3.3-3.9-6.1-6.6-8.6
		c-0.5-0.5-1-1-1.6-1.5c-0.1-0.1-0.1-0.1-0.2-0.2c0.9,7.2-0.8,13.7-4.4,19.8c-0.2-1.7-0.6-3.3-1.4-4.8c-0.8-1.5-1.8-2.8-3.1-4
		c-0.1,0.3-0.1,0.5-0.2,0.7c-0.6,2.2-1.5,4.3-2.5,6.3c-0.7,1.4-1.4,2.8-1.9,4.3c-0.6,1.7-0.8,3.5-0.7,5.3c0.1,1.5,0.6,2.8,1.3,4.1
		c1,1.8,4.2,4.8,10.7,4.8C925,701.5,928.9,697.5,930.1,695.2z"/>
</g>
<polygon class="st1" points="1334.5,-244.3 1318.4,-244.1 1302.9,-214.7 1313.4,-214.6 1297,-182.9 1334.1,-223.5 1320.2,-223.5 "/>
<polygon class="st1" points="1480,-110.2 1460.2,-110 1441.1,-73.8 1454.1,-73.6 1433.8,-34.6 1479.6,-84.6 1462.5,-84.6 "/>
<g>
	<path class="st5" d="M905.2,408.9c-1.5-13,6.2-22.2,20.4-27.4c-8.7,11.3,7.5,23.6,8.3,35.4c2.1-3.6,3.3-8.3,3.5-14.7
		c10.7,16.8,1.8,44.2-21.7,40.3c-2.2-0.4-4.2-1-6.1-2.1c-8.6-4.6-13.7-14.6-13.7-24.1c0-6.1,2.6-11.5,6-15.8
		C902.3,404.7,903.3,407.8,905.2,408.9L905.2,408.9z"/>
	<path class="st9" d="M912.8,427.7c-2.4-6.3-2.1-16.4,4.7-19.9c0,11.6,11.5,13.1,9.4,25.5c2-2.2,2.9-5.8,3.1-8.6
		c3.1,7.1,0.7,12.8-3.8,15.7c-13.5,8.8-25.1-9-17.4-18.8C909.1,423.8,911.8,427.2,912.8,427.7L912.8,427.7z"/>
</g>
<g>
	<polygon points="874.6,503.8 873.5,514.7 885.5,514.7 884.4,503.8 	"/>
	<polygon points="963.2,542 963.2,564.3 866.6,564.3 866.6,530.6 871.8,531.3 872.5,524 886.5,524 887.5,533.1 	"/>
	<path d="M885.3,501c0.2,0.6,0,1.3-0.6,1.6s-1.3,0-1.6-0.6l0,0c-0.3-0.7-0.5-1.4-0.4-2.2c0.1-0.7,0.3-1.4,0.6-1.9
		c0.3-0.6,1.1-0.8,1.6-0.5l0,0c0.1,0.1,0.2,0.2,0.3,0.2c0.8,0.7,1.7,1.2,2.7,1.5c0.5,0.2,1,0.1,1.4-0.1s0.7-0.5,0.8-0.9
		c0.3-0.8,0.4-1.7,0.3-2.5c-0.1-0.7,0.5-1.2,1.1-1.3c0.5-0.1,1,0.2,1.2,0.7c0.8,1.4,2.2,2.3,3.9,2.5c0.8,0.1,1.5,0.1,2.3-0.2
		c0.6-0.2,1.2-0.5,1.7-1c0.8-1,1.1-2.4,0.8-3.6c-0.2-0.7,0.3-1.3,0.9-1.4c0.2,0,0.2,0,0.4,0c1.8,0.2,3.6-0.7,4.5-2.3
		c0.3-0.6,0.5-1.2,0.5-1.8s-0.2-1.1-0.5-1.7c-0.6-1-1.9-1.7-3.9-1.4c-0.5,0.1-1.1-0.3-1.3-0.8c-0.3-1.3-1.1-2.3-2.3-3
		c-0.5-0.2-1.1-0.4-1.7-0.3c-0.6,0.1-1.1,0.3-1.6,0.7c-1,0.8-1.6,1.9-1.6,3.2c-0.1,0.7-0.6,1.1-1.3,1.1c-0.5-0.1-0.9-0.4-1.1-0.9
		c-0.2-1.1-0.8-2-1.7-2.7c-0.6-0.5-1.3-0.7-2-0.7s-1.5,0.3-2.2,0.7c-0.9,0.5-1.7,1.4-2,2.3c-0.2,0.6-0.9,0.9-1.5,0.7
		c-0.2-0.1-0.3-0.2-0.4-0.2c-0.8-0.9-2-1.5-3.3-1.6c-0.5,0-1.1,0.2-1.6,0.5s-0.8,0.8-1.1,1.2c-0.5,1.3-0.4,2.7,0.1,3.9
		c0.2,0.6-0.2,1.3-0.8,1.5l0,0h-0.1c-1.3,0.3-2.3,1.2-2.7,2.5c-0.1,0.5-0.1,1,0,1.5s0.3,0.9,0.6,1.4c0.7,0.9,2,1.5,3.9,1.2
		c0.7-0.1,1.3,0.3,1.4,1c0.1,0.3,0,0.7-0.2,0.9c-0.4,0.5-0.7,1.1-0.9,1.7s-0.3,1.1-0.3,1.7c0.2,0.6-0.3,1.3-0.9,1.4
		c-0.6,0.2-1.3-0.3-1.4-0.9c0-0.2,0-0.3,0-0.5c0-0.8,0.2-1.7,0.5-2.5l0.2-0.5c-1.6-0.2-3-0.9-4.1-2.2c-0.5-0.7-0.9-1.5-1.1-2.3
		s-0.2-1.7,0.1-2.6c0.4-1.7,1.6-3.1,3.2-3.9c-0.4-1.4-0.3-3,0.3-4.5c0.8-2,2.7-3.2,4.8-3.1c1.3,0.1,2.6,0.5,3.7,1.3
		c0.6-0.8,1.4-1.6,2.3-2.1c1-0.6,2.2-1,3.4-1.1l0,0c1.3,0,2.6,0.4,3.6,1.2c0.4,0.3,0.8,0.7,1.1,1.1c0.5-0.7,1-1.3,1.6-1.7
		c0.8-0.6,1.7-1.1,2.7-1.2s2,0,3,0.5c1.4,0.8,2.6,2,3.2,3.6c2.1-0.2,4.2,0.8,5.3,2.7c0.5,0.9,0.8,1.9,0.8,2.9c0,1.1-0.2,2-0.8,3
		c-1.1,2-3,3.3-5.3,3.6c0.1,1.6-0.5,3.2-1.5,4.3c-0.8,0.8-1.7,1.4-2.8,1.7c-2.3,0.6-4.8,0.2-6.9-1.3c-0.1,0.2-0.2,0.5-0.2,0.7
		c-0.4,0.9-1.1,1.7-2,2c-0.9,0.4-1.9,0.5-2.8,0.2c-0.8-0.2-1.7-0.5-2.4-1C885.2,500.7,885.2,500.7,885.3,501z"/>
	<polygon points="873.3,516.6 872.7,521.9 886.3,521.9 885.8,516.6 	"/>
	<rect x="864" y="566.2" width="100.8" height="3.7"/>
	<path class="st2" d="M878.8,546.7h8c0.6,0,1.1,0.5,1.1,1.1v10.1c0,0.6-0.5,1.1-1.1,1.1l0,0h-8c-0.6,0-1.1-0.5-1.1-1.1l0,0v-10.1
		C877.7,547.3,878.2,546.7,878.8,546.7L878.8,546.7z"/>
	<path class="st2" d="M902,546.7h8c0.6,0,1.1,0.5,1.1,1.1v10.1c0,0.6-0.5,1.1-1.1,1.1l0,0h-8c-0.6,0-1.1-0.5-1.1-1.1l0,0v-10.1
		C901,547.3,901.4,546.7,902,546.7L902,546.7z"/>
</g>
<g>
	<ellipse class="st3" cx="1459.2" cy="236.8" rx="244.8" ry="122.4"/>
	<g id="_x3C_Group_x3E__1_">
		<path d="M1428.8,73.7h59.2c1.7,0,3.2,1.4,3.2,3.2v56.8c0,1.7-1.4,3.2-3.2,3.2h-4.6v2.7c0,0.9-0.7,1.6-1.6,1.6h-3.6v4.5
			c0,0.3-0.3,0.6-0.6,0.6h-4.6c-0.6,0-1.2-0.5-1.2-1.2v-4h-4.7v4.5c0,0.3-0.3,0.6-0.6,0.6h-4.6c-0.6,0-1.2-0.5-1.2-1.2v-4h-4.7v4.5
			c0,0.3-0.3,0.6-0.6,0.6h-4.6c-0.6,0-1.2-0.5-1.2-1.2v-4h-4.7v4.5c0,0.3-0.3,0.6-0.6,0.6h-4.6c-0.6,0-1.2-0.5-1.2-1.2v-4h-3.7
			c-0.9,0-1.6-0.7-1.6-1.6v-2.7h-4.6c-1.7,0-3.2-1.4-3.2-3.2V76.5C1425.7,75.1,1427.1,73.7,1428.8,73.7L1428.8,73.7z"/>
		<path class="st2" d="M1434.1,79.2h48.7c1.7,0,3.2,1.4,3.2,3.2v46.1c0,1.7-1.4,3.2-3.2,3.2h-48.7c-1.7,0-3.2-1.4-3.2-3.2V82.4
			C1430.9,80.6,1432.3,79.2,1434.1,79.2L1434.1,79.2z"/>
		<path d="M1437.6,88.4h41.8c0.5,0,0.9,0.2,1.2,0.5c0.3,0.3,0.5,0.7,0.5,1.2v7.6c0,0.5-0.2,0.9-0.5,1.2s-0.7,0.5-1.2,0.5h-41.8
			c-0.5,0-0.9-0.2-1.2-0.5s-0.5-0.7-0.5-1.2v-7.6c0-0.5,0.2-0.9,0.5-1.2C1436.6,88.6,1437.1,88.4,1437.6,88.4z"/>
		<path class="st2" d="M1472.3,89.8v8.3h7.1c0.1,0,0.2,0,0.3-0.1c0.1-0.1,0.1-0.2,0.1-0.3v-7.6c0-0.1,0-0.2-0.1-0.3
			s-0.2-0.1-0.3-0.1C1479.3,89.8,1472.3,89.8,1472.3,89.8z"/>
		<rect x="1463.5" y="89.8" class="st2" width="7.4" height="8.3"/>
		<rect x="1454.7" y="89.8" class="st2" width="7.4" height="8.3"/>
		<rect x="1446" y="89.8" class="st2" width="7.4" height="8.3"/>
		<path class="st2" d="M1444.6,98.1v-8.3h-7c-0.1,0-0.2,0-0.3,0.1s-0.1,0.2-0.1,0.3v7.6c0,0.1,0,0.2,0.1,0.3s0.2,0.1,0.3,0.1
			L1444.6,98.1L1444.6,98.1z"/>
		<path d="M1460.1,118.3h2.2c0.3,0,0.6,0.3,0.6,0.6c0,0.1,0,0.2-0.1,0.3l-5.3,9.1c-0.1,0.2-0.3,0.3-0.5,0.3c-0.3,0-0.6-0.3-0.6-0.6
			v-0.1l0.8-5.6h-2.7l0,0c-0.3,0-0.6-0.3-0.6-0.6l0,0c0-0.1,0-0.2,0.1-0.3l5.3-9.1c0.1-0.2,0.3-0.3,0.5-0.3c0.3,0,0.6,0.3,0.6,0.6
			v0.1L1460.1,118.3z"/>
		<ellipse cx="1481.6" cy="83.6" rx="1.5" ry="1.6"/>
		<ellipse cx="1435.3" cy="83.6" rx="1.5" ry="1.6"/>
		<ellipse cx="1435.3" cy="127.3" rx="1.5" ry="1.6"/>
		<ellipse cx="1481.6" cy="127.3" rx="1.5" ry="1.6"/>
		<path d="M1476.1,96.5c-0.4,0-0.8-0.1-1-0.4c-0.3-0.3-0.4-0.6-0.4-1.1v-2.1c0-0.4,0.1-0.8,0.4-1.1s0.6-0.4,1-0.4s0.8,0.1,1,0.4
			s0.4,0.6,0.4,1.1V95c0,0.4-0.1,0.8-0.4,1.1C1476.8,96.3,1476.5,96.5,1476.1,96.5z"/>
		<path class="st2" d="M1476.1,95.5c0.1,0,0.2,0,0.2-0.1s0.1-0.2,0.1-0.3v-2.3c0-0.1,0-0.2-0.1-0.3c0-0.1-0.1-0.1-0.2-0.1
			s-0.2,0-0.2,0.1s-0.1,0.2-0.1,0.3v2.3c0,0.1,0,0.2,0.1,0.3C1475.9,95.4,1476,95.5,1476.1,95.5z"/>
		<path d="M1467.4,96.5c-0.4,0-0.8-0.1-1-0.4c-0.3-0.3-0.4-0.6-0.4-1.1v-2.1c0-0.4,0.1-0.8,0.4-1.1s0.6-0.4,1-0.4s0.8,0.1,1,0.4
			c0.3,0.3,0.4,0.6,0.4,1.1V95c0,0.4-0.1,0.8-0.4,1.1C1468.2,96.3,1467.8,96.5,1467.4,96.5z"/>
		<path class="st2" d="M1467.4,95.5c0.1,0,0.2,0,0.2-0.1s0.1-0.2,0.1-0.3v-2.3c0-0.1,0-0.2-0.1-0.3c0-0.1-0.1-0.1-0.2-0.1
			s-0.2,0-0.2,0.1s-0.1,0.2-0.1,0.3v2.3c0,0.1,0,0.2,0.1,0.3C1467.2,95.4,1467.3,95.5,1467.4,95.5z"/>
		<path d="M1458.3,96.5c-0.4,0-0.8-0.1-1-0.4c-0.3-0.3-0.4-0.6-0.4-1.1v-2.1c0-0.4,0.1-0.8,0.4-1.1s0.6-0.4,1-0.4s0.8,0.1,1,0.4
			c0.3,0.3,0.4,0.6,0.4,1.1V95c0,0.4-0.1,0.8-0.4,1.1C1459.1,96.3,1458.8,96.5,1458.3,96.5z"/>
		<path class="st2" d="M1458.3,95.5c0.1,0,0.2,0,0.2-0.1s0.1-0.2,0.1-0.3v-2.3c0-0.1,0-0.2-0.1-0.3c0-0.1-0.1-0.1-0.2-0.1
			s-0.2,0-0.2,0.1s-0.1,0.2-0.1,0.3v2.3c0,0.1,0,0.2,0.1,0.3C1458.2,95.4,1458.2,95.5,1458.3,95.5z"/>
		<path d="M1449.6,96.5c-0.4,0-0.8-0.1-1-0.4c-0.3-0.3-0.4-0.6-0.4-1.1v-2.1c0-0.4,0.1-0.8,0.4-1.1s0.6-0.4,1-0.4s0.8,0.1,1,0.4
			c0.3,0.3,0.4,0.6,0.4,1.1V95c0,0.4-0.1,0.8-0.4,1.1C1450.4,96.3,1450.1,96.5,1449.6,96.5z"/>
		<path class="st2" d="M1449.6,95.5c0.1,0,0.2,0,0.2-0.1s0.1-0.2,0.1-0.3v-2.3c0-0.1,0-0.2-0.1-0.3c0-0.1-0.1-0.1-0.2-0.1
			s-0.2,0-0.2,0.1s-0.1,0.2-0.1,0.3v2.3c0,0.1,0,0.2,0.1,0.3C1449.5,95.4,1449.5,95.5,1449.6,95.5z"/>
		<path d="M1441,96.5c-0.4,0-0.8-0.1-1-0.4c-0.3-0.3-0.4-0.6-0.4-1.1v-2.1c0-0.4,0.1-0.8,0.4-1.1s0.6-0.4,1-0.4s0.8,0.1,1,0.4
			s0.4,0.6,0.4,1.1V95c0,0.4-0.1,0.8-0.4,1.1C1441.7,96.3,1441.4,96.5,1441,96.5z"/>
		<path class="st2" d="M1441,95.5c0.1,0,0.2,0,0.2-0.1s0.1-0.2,0.1-0.3v-2.3c0-0.1,0-0.2-0.1-0.3c0-0.1-0.1-0.1-0.2-0.1
			s-0.2,0-0.2,0.1s-0.1,0.2-0.1,0.3v2.3c0,0.1,0,0.2,0.1,0.3C1440.8,95.4,1440.9,95.5,1441,95.5z"/>
		<path d="M1449.3,110c-0.6,0-1.1-0.5-1.1-1.1s0.5-1.1,1.1-1.1h18.3c0.6,0,1.1,0.5,1.1,1.1s-0.5,1.1-1.1,1.1H1449.3z"/>
		<path d="M1442.1,104.5c-0.6,0-1.1-0.5-1.1-1.1s0.5-1.1,1.1-1.1h32.6c0.6,0,1.1,0.5,1.1,1.1s-0.5,1.1-1.1,1.1H1442.1z"/>
	</g>
	<g>
		<path d="M1301.5,219.5c0.2,0.1,0.5,0.3,0.7,0.4l0.1,0.1c0.5,0.4,1,0.8,1.4,1.4c0.4,0.5,0.7,1.1,0.9,1.8l0,0c0.2,0.6,0.3,1.3,0.2,2
			c0,0.7-0.2,1.4-0.4,2l0,0c-0.1,0.3-0.3,0.7-0.4,1c-0.2,0.3-0.3,0.6-0.5,0.9c-0.8,1.1-1.9,2.1-3.1,2.7c-1.1,0.6-2.3,1.2-3.4,1.7
			c-9.5,3.9-18.9,8.6-28.4,12.4c-0.3,0.1-0.7,0.2-1,0.2l0,0c-0.4,0-0.9-0.1-1.3-0.3l-0.4-0.3c-0.1-0.1-0.3-0.3-0.3-0.5l-0.1-0.2
			l-0.1-0.3c0-0.1,0-0.3,0-0.4l0,0c0-0.5,0.2-0.9,0.5-1.3l0,0c0.2-0.3,0.4-0.5,0.7-0.7c8.4-7,17.2-13.6,25.7-20.3
			c0.6-0.5,1.2-0.9,1.8-1.3c0.6-0.4,1.3-0.7,1.9-1h0.1c0.7-0.3,1.4-0.4,2.1-0.4s1.5,0.1,2.2,0.3h0.1
			C1300.9,219.3,1301.2,219.4,1301.5,219.5L1301.5,219.5z"/>
		<path d="M1287.1,275.8h17.1l6.4-43.9c0.1-0.8,0.8-1.5,1.6-1.5h6c0.8,0,1.5,0.6,1.6,1.4l7.4,44h17.2c0.5,0,0.9,0.4,0.9,0.9v6.7
			c0,0.5-0.4,0.9-0.9,0.9h-57.2c-0.5,0-0.9-0.4-0.9-0.9v-6.7C1286.2,276.2,1286.6,275.8,1287.1,275.8z"/>
		<path d="M1319.1,209.8c1.1,0.4,2,1.1,2.9,1.9c1.6,1.6,2.5,3.8,2.6,6.1v0.1c0,2.3-0.9,4.6-2.6,6.2c-0.8,0.8-1.8,1.5-2.9,1.9
			c-4.5,1.9-9.6-0.2-11.5-4.7l0,0c-0.9-2.2-0.9-4.6,0-6.8c0.4-1.1,1.1-2,1.9-2.9l0,0c0.8-0.8,1.8-1.5,2.9-1.9
			C1314.5,208.9,1316.9,208.9,1319.1,209.8L1319.1,209.8z"/>
		<path d="M1319.1,205.2c-0.3,0.2-0.5,0.3-0.8,0.4c-0.6,0.3-1.3,0.5-1.9,0.5c-0.6,0.1-1.3,0-1.9-0.1h-0.1c-0.6-0.2-1.2-0.5-1.8-0.8
			c-0.5-0.3-1-0.8-1.4-1.2l-0.1-0.1c-0.2-0.3-0.4-0.5-0.6-0.8s-0.3-0.6-0.5-0.9l0,0c-1.2-2.5-0.8-5.2-0.4-7.9
			c1.8-10,2.3-20.8,4.1-30.8c0.1-0.3,0.2-0.6,0.3-0.9v-0.1c0.2-0.4,0.5-0.6,0.8-0.9h0.1c0.2-0.1,0.3-0.1,0.5-0.2c0.1,0,0.3,0,0.4,0
			c0.2,0,0.4-0.1,0.7,0l0.3,0.2c0.4,0.2,0.7,0.6,0.9,1l0.1,0.1c0.1,0.3,0.2,0.7,0.3,1.1c1.8,10.2,2.7,21.8,4,32.1c0,0.1,0,0.2,0,0.4
			l0,0c0.1,0.7,0.1,1.4,0.2,2.1c0,0.8,0,1.5-0.1,2.3v0.1c-0.1,0.7-0.4,1.4-0.7,2c-0.4,0.7-0.9,1.3-1.5,1.8
			C1319.5,204.8,1319.3,205,1319.1,205.2L1319.1,205.2z"/>
		<path d="M1326.1,226.2c0-0.3,0-0.6,0-0.9c0-0.7,0.2-1.4,0.5-2c0.2-0.6,0.6-1.1,1-1.5l0.1-0.1c0.5-0.5,1-0.9,1.6-1.1
			c0.6-0.3,1.2-0.5,1.8-0.6h0.1c0.3-0.1,0.7-0.1,1-0.1s0.7,0,1,0h0.1c1.4,0.1,2.7,0.6,3.9,1.3c1.1,0.7,2.2,1.4,3.2,2.3
			c8.1,6.3,16.3,12.5,24.5,18.8l0.1,0.1c0.2,0.2,0.4,0.5,0.6,0.8c0.2,0.4,0.3,0.7,0.3,1.1v0.3v0.2c0,0.2-0.1,0.4-0.2,0.6
			s-0.2,0.3-0.4,0.4l-0.1,0.1c-0.1,0.1-0.2,0.1-0.3,0.2c-0.4,0.2-0.9,0.3-1.4,0.2c-0.3,0-0.7-0.1-1-0.3l-30.1-12.6
			c-0.7-0.3-1.4-0.6-2.1-1c-0.7-0.3-1.3-0.7-1.9-1.2h-0.1c-1.2-1-2-2.3-2.2-3.8C1326.1,226.9,1326.1,226.5,1326.1,226.2
			L1326.1,226.2z"/>
	</g>
	<g>
		<path d="M1444.5,219.5c0.2,0.1,0.5,0.3,0.7,0.4l0.1,0.1c0.5,0.4,1,0.8,1.4,1.4c0.4,0.5,0.7,1.1,0.9,1.8l0,0c0.2,0.6,0.3,1.3,0.2,2
			c0,0.7-0.2,1.4-0.4,2l0,0c-0.1,0.3-0.3,0.7-0.4,1c-0.2,0.3-0.3,0.6-0.5,0.9c-0.8,1.1-1.9,2.1-3.1,2.7c-1.1,0.6-2.3,1.2-3.4,1.7
			c-9.5,3.9-18.9,8.6-28.4,12.4c-0.3,0.1-0.7,0.2-1,0.2l0,0c-0.4,0-0.9-0.1-1.3-0.3l-0.4-0.3c-0.1-0.1-0.3-0.3-0.3-0.5l-0.1-0.2
			l-0.1-0.3c0-0.1,0-0.3,0-0.4l0,0c0-0.5,0.2-0.9,0.5-1.3l0,0c0.2-0.3,0.4-0.5,0.7-0.7c8.4-7,17.2-13.6,25.7-20.3
			c0.6-0.5,1.2-0.9,1.8-1.3c0.6-0.4,1.3-0.7,1.9-1h0.1c0.7-0.3,1.4-0.4,2.1-0.4s1.5,0.1,2.2,0.3h0.1
			C1443.9,219.3,1444.2,219.4,1444.5,219.5L1444.5,219.5z"/>
		<path d="M1430.1,275.8h17.1l6.4-43.9c0.1-0.8,0.8-1.5,1.6-1.5h6c0.8,0,1.5,0.6,1.6,1.4l7.4,44h17.2c0.5,0,0.9,0.4,0.9,0.9v6.7
			c0,0.5-0.4,0.9-0.9,0.9h-57.2c-0.5,0-0.9-0.4-0.9-0.9v-6.7C1429.2,276.2,1429.6,275.8,1430.1,275.8z"/>
		<path d="M1462.1,209.8c1.1,0.4,2,1.1,2.9,1.9c1.6,1.6,2.5,3.8,2.6,6.1v0.1c0,2.3-0.9,4.6-2.6,6.2c-0.8,0.8-1.8,1.5-2.9,1.9
			c-4.5,1.9-9.6-0.2-11.5-4.7l0,0c-0.9-2.2-0.9-4.6,0-6.8c0.4-1.1,1.1-2,1.9-2.9l0,0c0.8-0.8,1.8-1.5,2.9-1.9
			C1457.5,208.9,1459.9,208.9,1462.1,209.8L1462.1,209.8z"/>
		<path d="M1462.1,205.2c-0.3,0.2-0.5,0.3-0.8,0.4c-0.6,0.3-1.3,0.5-1.9,0.5c-0.6,0.1-1.3,0-1.9-0.1h-0.1c-0.6-0.2-1.2-0.5-1.8-0.8
			c-0.5-0.3-1-0.8-1.4-1.2l-0.1-0.1c-0.2-0.3-0.4-0.5-0.6-0.8s-0.3-0.6-0.5-0.9l0,0c-1.2-2.5-0.8-5.2-0.4-7.9
			c1.8-10,2.3-20.8,4.1-30.8c0.1-0.3,0.2-0.6,0.3-0.9v-0.1c0.2-0.4,0.5-0.6,0.8-0.9h0.1c0.2-0.1,0.3-0.1,0.5-0.2c0.1,0,0.3,0,0.4,0
			c0.2,0,0.4-0.1,0.7,0l0.3,0.2c0.4,0.2,0.7,0.6,0.9,1l0.1,0.1c0.1,0.3,0.2,0.7,0.3,1.1c1.8,10.2,2.7,21.8,4,32.1c0,0.1,0,0.2,0,0.4
			l0,0c0.1,0.7,0.1,1.4,0.2,2.1c0,0.8,0,1.5-0.1,2.3v0.1c-0.1,0.7-0.4,1.4-0.7,2c-0.4,0.7-0.9,1.3-1.5,1.8
			C1462.5,204.8,1462.3,205,1462.1,205.2L1462.1,205.2z"/>
		<path d="M1469.1,226.2c0-0.3,0-0.6,0-0.9c0-0.7,0.2-1.4,0.5-2c0.2-0.6,0.6-1.1,1-1.5l0.1-0.1c0.5-0.5,1-0.9,1.6-1.1
			c0.6-0.3,1.2-0.5,1.8-0.6h0.1c0.3-0.1,0.7-0.1,1-0.1s0.7,0,1,0h0.1c1.4,0.1,2.7,0.6,3.9,1.3c1.1,0.7,2.2,1.4,3.2,2.3
			c8.1,6.3,16.3,12.5,24.5,18.8l0.1,0.1c0.2,0.2,0.4,0.5,0.6,0.8c0.2,0.4,0.3,0.7,0.3,1.1v0.3v0.2c0,0.2-0.1,0.4-0.2,0.6
			s-0.2,0.3-0.4,0.4l-0.1,0.1c-0.1,0.1-0.2,0.1-0.3,0.2c-0.4,0.2-0.9,0.3-1.4,0.2c-0.3,0-0.7-0.1-1-0.3l-30.1-12.6
			c-0.7-0.3-1.4-0.6-2.1-1c-0.7-0.3-1.3-0.7-1.9-1.2h-0.1c-1.2-1-2-2.3-2.2-3.8C1469.1,226.9,1469.1,226.5,1469.1,226.2
			L1469.1,226.2z"/>
	</g>
	<g>
		<path d="M1587.5,219.5c0.2,0.1,0.5,0.3,0.7,0.4l0.1,0.1c0.5,0.4,1,0.8,1.4,1.4c0.4,0.5,0.7,1.1,0.9,1.8l0,0c0.2,0.6,0.3,1.3,0.2,2
			c0,0.7-0.2,1.4-0.4,2l0,0c-0.1,0.3-0.3,0.7-0.4,1c-0.2,0.3-0.3,0.6-0.5,0.9c-0.8,1.1-1.9,2.1-3.1,2.7c-1.1,0.6-2.3,1.2-3.4,1.7
			c-9.5,3.9-18.9,8.6-28.4,12.4c-0.3,0.1-0.7,0.2-1,0.2l0,0c-0.4,0-0.9-0.1-1.3-0.3l-0.4-0.3c-0.1-0.1-0.3-0.3-0.3-0.5l-0.1-0.2
			l-0.1-0.3c0-0.1,0-0.3,0-0.4l0,0c0-0.5,0.2-0.9,0.5-1.3l0,0c0.2-0.3,0.4-0.5,0.7-0.7c8.4-7,17.2-13.6,25.7-20.3
			c0.6-0.5,1.2-0.9,1.8-1.3c0.6-0.4,1.3-0.7,1.9-1h0.1c0.7-0.3,1.4-0.4,2.1-0.4s1.5,0.1,2.2,0.3h0.1
			C1586.9,219.3,1587.2,219.4,1587.5,219.5L1587.5,219.5z"/>
		<path d="M1573.1,275.8h17.1l6.4-43.9c0.1-0.8,0.8-1.5,1.6-1.5h6c0.8,0,1.5,0.6,1.6,1.4l7.4,44h17.2c0.5,0,0.9,0.4,0.9,0.9v6.7
			c0,0.5-0.4,0.9-0.9,0.9h-57.2c-0.5,0-0.9-0.4-0.9-0.9v-6.7C1572.2,276.2,1572.6,275.8,1573.1,275.8z"/>
		<path d="M1605.1,209.8c1.1,0.4,2,1.1,2.9,1.9c1.6,1.6,2.5,3.8,2.6,6.1v0.1c0,2.3-0.9,4.6-2.6,6.2c-0.8,0.8-1.8,1.5-2.9,1.9
			c-4.5,1.9-9.6-0.2-11.5-4.7l0,0c-0.9-2.2-0.9-4.6,0-6.8c0.4-1.1,1.1-2,1.9-2.9l0,0c0.8-0.8,1.8-1.5,2.9-1.9
			C1600.5,208.9,1602.9,208.9,1605.1,209.8L1605.1,209.8z"/>
		<path d="M1605.1,205.2c-0.3,0.2-0.5,0.3-0.8,0.4c-0.6,0.3-1.3,0.5-1.9,0.5c-0.6,0.1-1.3,0-1.9-0.1h-0.1c-0.6-0.2-1.2-0.5-1.8-0.8
			c-0.5-0.3-1-0.8-1.4-1.2l-0.1-0.1c-0.2-0.3-0.4-0.5-0.6-0.8s-0.3-0.6-0.5-0.9l0,0c-1.2-2.5-0.8-5.2-0.4-7.9
			c1.8-10,2.3-20.8,4.1-30.8c0.1-0.3,0.2-0.6,0.3-0.9v-0.1c0.2-0.4,0.5-0.6,0.8-0.9h0.1c0.2-0.1,0.3-0.1,0.5-0.2c0.1,0,0.3,0,0.4,0
			c0.2,0,0.4-0.1,0.7,0l0.3,0.2c0.4,0.2,0.7,0.6,0.9,1l0.1,0.1c0.1,0.3,0.2,0.7,0.3,1.1c1.8,10.2,2.7,21.8,4,32.1c0,0.1,0,0.2,0,0.4
			l0,0c0.1,0.7,0.1,1.4,0.2,2.1c0,0.8,0,1.5-0.1,2.3v0.1c-0.1,0.7-0.4,1.4-0.7,2c-0.4,0.7-0.9,1.3-1.5,1.8
			C1605.5,204.8,1605.3,205,1605.1,205.2L1605.1,205.2z"/>
		<path d="M1612.1,226.2c0-0.3,0-0.6,0-0.9c0-0.7,0.2-1.4,0.5-2c0.2-0.6,0.6-1.1,1-1.5l0.1-0.1c0.5-0.5,1-0.9,1.6-1.1
			c0.6-0.3,1.2-0.5,1.8-0.6h0.1c0.3-0.1,0.7-0.1,1-0.1s0.7,0,1,0h0.1c1.4,0.1,2.7,0.6,3.9,1.3c1.1,0.7,2.2,1.4,3.2,2.3
			c8.1,6.3,16.3,12.5,24.5,18.8l0.1,0.1c0.2,0.2,0.4,0.5,0.6,0.8c0.2,0.4,0.3,0.7,0.3,1.1v0.3v0.2c0,0.2-0.1,0.4-0.2,0.6
			s-0.2,0.3-0.4,0.4l-0.1,0.1c-0.1,0.1-0.2,0.1-0.3,0.2c-0.4,0.2-0.9,0.3-1.4,0.2c-0.3,0-0.7-0.1-1-0.3l-30.1-12.6
			c-0.7-0.3-1.4-0.6-2.1-1c-0.7-0.3-1.3-0.7-1.9-1.2h-0.1c-1.2-1-2-2.3-2.2-3.8C1612.1,226.9,1612.1,226.5,1612.1,226.2
			L1612.1,226.2z"/>
	</g>
</g>
<g>
	<ellipse class="st3" cx="1997.5" cy="236.8" rx="244.8" ry="122.4"/>
	<g id="_x3C_Group_x3E__3_">
		<path d="M1967.2,73.7h59.2c1.7,0,3.2,1.4,3.2,3.2v56.8c0,1.7-1.4,3.2-3.2,3.2h-4.6v2.7c0,0.9-0.7,1.6-1.6,1.6h-3.6v4.5
			c0,0.3-0.3,0.6-0.6,0.6h-4.6c-0.6,0-1.2-0.5-1.2-1.2v-4h-4.7v4.5c0,0.3-0.3,0.6-0.6,0.6h-4.6c-0.6,0-1.2-0.5-1.2-1.2v-4h-4.7v4.5
			c0,0.3-0.3,0.6-0.6,0.6h-4.6c-0.6,0-1.2-0.5-1.2-1.2v-4h-4.7v4.5c0,0.3-0.3,0.6-0.6,0.6h-4.6c-0.6,0-1.2-0.5-1.2-1.2v-4h-3.7
			c-0.9,0-1.6-0.7-1.6-1.6v-2.7h-4.6c-1.7,0-3.2-1.4-3.2-3.2V76.5C1964,75.1,1965.4,73.7,1967.2,73.7L1967.2,73.7z"/>
		<path class="st2" d="M1972.4,79.2h48.7c1.7,0,3.2,1.4,3.2,3.2v46.1c0,1.7-1.4,3.2-3.2,3.2h-48.7c-1.7,0-3.2-1.4-3.2-3.2V82.4
			C1969.3,80.6,1970.7,79.2,1972.4,79.2L1972.4,79.2z"/>
		<path d="M1975.9,88.4h41.8c0.5,0,0.9,0.2,1.2,0.5c0.3,0.3,0.5,0.7,0.5,1.2v7.6c0,0.5-0.2,0.9-0.5,1.2s-0.7,0.5-1.2,0.5h-41.8
			c-0.5,0-0.9-0.2-1.2-0.5c-0.3-0.3-0.5-0.7-0.5-1.2v-7.6c0-0.5,0.2-0.9,0.5-1.2C1975,88.6,1975.4,88.4,1975.9,88.4z"/>
		<path class="st2" d="M2010.6,89.8v8.3h7.1c0.1,0,0.2,0,0.3-0.1s0.1-0.2,0.1-0.3v-7.6c0-0.1,0-0.2-0.1-0.3s-0.2-0.1-0.3-0.1
			C2017.7,89.8,2010.6,89.8,2010.6,89.8z"/>
		<rect x="2001.8" y="89.8" class="st2" width="7.4" height="8.3"/>
		<rect x="1993.1" y="89.8" class="st2" width="7.4" height="8.3"/>
		<rect x="1984.3" y="89.8" class="st2" width="7.4" height="8.3"/>
		<path class="st2" d="M1982.9,98.1v-8.3h-7c-0.1,0-0.2,0-0.3,0.1s-0.1,0.2-0.1,0.3v7.6c0,0.1,0,0.2,0.1,0.3s0.2,0.1,0.3,0.1
			L1982.9,98.1L1982.9,98.1z"/>
		<path d="M1998.4,118.3h2.2c0.3,0,0.6,0.3,0.6,0.6c0,0.1,0,0.2-0.1,0.3l-5.3,9.1c-0.1,0.2-0.3,0.3-0.5,0.3c-0.3,0-0.6-0.3-0.6-0.6
			v-0.1l0.8-5.6h-2.7l0,0c-0.3,0-0.6-0.3-0.6-0.6l0,0c0-0.1,0-0.2,0.1-0.3l5.3-9.1c0.1-0.2,0.3-0.3,0.5-0.3c0.3,0,0.6,0.3,0.6,0.6
			v0.1L1998.4,118.3z"/>
		<ellipse cx="2019.9" cy="83.6" rx="1.5" ry="1.6"/>
		<ellipse cx="1973.6" cy="83.6" rx="1.5" ry="1.6"/>
		<ellipse cx="1973.6" cy="127.3" rx="1.5" ry="1.6"/>
		<ellipse cx="2019.9" cy="127.3" rx="1.5" ry="1.6"/>
		<path d="M2014.4,96.5c-0.4,0-0.8-0.1-1-0.4c-0.3-0.3-0.4-0.6-0.4-1.1v-2.1c0-0.4,0.1-0.8,0.4-1.1s0.6-0.4,1-0.4s0.8,0.1,1,0.4
			s0.4,0.6,0.4,1.1V95c0,0.4-0.1,0.8-0.4,1.1C2015.2,96.3,2014.8,96.5,2014.4,96.5z"/>
		<path class="st2" d="M2014.4,95.5c0.1,0,0.2,0,0.2-0.1s0.1-0.2,0.1-0.3v-2.3c0-0.1,0-0.2-0.1-0.3c0-0.1-0.1-0.1-0.2-0.1
			s-0.2,0-0.2,0.1s-0.1,0.2-0.1,0.3v2.3c0,0.1,0,0.2,0.1,0.3C2014.2,95.4,2014.3,95.5,2014.4,95.5z"/>
		<path d="M2005.7,96.5c-0.4,0-0.8-0.1-1-0.4c-0.3-0.3-0.4-0.6-0.4-1.1v-2.1c0-0.4,0.1-0.8,0.4-1.1s0.6-0.4,1-0.4s0.8,0.1,1,0.4
			c0.3,0.3,0.4,0.6,0.4,1.1V95c0,0.4-0.1,0.8-0.4,1.1C2006.5,96.3,2006.2,96.5,2005.7,96.5z"/>
		<path class="st2" d="M2005.7,95.5c0.1,0,0.2,0,0.2-0.1s0.1-0.2,0.1-0.3v-2.3c0-0.1,0-0.2-0.1-0.3c0-0.1-0.1-0.1-0.2-0.1
			s-0.2,0-0.2,0.1s-0.1,0.2-0.1,0.3v2.3c0,0.1,0,0.2,0.1,0.3C2005.6,95.4,2005.6,95.5,2005.7,95.5z"/>
		<path d="M1996.7,96.5c-0.4,0-0.8-0.1-1-0.4c-0.3-0.3-0.4-0.6-0.4-1.1v-2.1c0-0.4,0.1-0.8,0.4-1.1s0.6-0.4,1-0.4s0.8,0.1,1,0.4
			c0.3,0.3,0.4,0.6,0.4,1.1V95c0,0.4-0.1,0.8-0.4,1.1C1997.5,96.3,1997.1,96.5,1996.7,96.5z"/>
		<path class="st2" d="M1996.7,95.5c0.1,0,0.2,0,0.2-0.1s0.1-0.2,0.1-0.3v-2.3c0-0.1,0-0.2-0.1-0.3c0-0.1-0.1-0.1-0.2-0.1
			s-0.2,0-0.2,0.1s-0.1,0.2-0.1,0.3v2.3c0,0.1,0,0.2,0.1,0.3C1996.5,95.4,1996.6,95.5,1996.7,95.5z"/>
		<path d="M1988,96.5c-0.4,0-0.8-0.1-1-0.4c-0.3-0.3-0.4-0.6-0.4-1.1v-2.1c0-0.4,0.1-0.8,0.4-1.1s0.6-0.4,1-0.4s0.8,0.1,1,0.4
			c0.3,0.3,0.4,0.6,0.4,1.1V95c0,0.4-0.1,0.8-0.4,1.1C1988.8,96.3,1988.4,96.5,1988,96.5z"/>
		<path class="st2" d="M1988,95.5c0.1,0,0.2,0,0.2-0.1s0.1-0.2,0.1-0.3v-2.3c0-0.1,0-0.2-0.1-0.3c0-0.1-0.1-0.1-0.2-0.1
			s-0.2,0-0.2,0.1s-0.1,0.2-0.1,0.3v2.3c0,0.1,0,0.2,0.1,0.3C1987.8,95.4,1987.9,95.5,1988,95.5z"/>
		<path d="M1979.3,96.5c-0.4,0-0.8-0.1-1-0.4c-0.3-0.3-0.4-0.6-0.4-1.1v-2.1c0-0.4,0.1-0.8,0.4-1.1s0.6-0.4,1-0.4s0.8,0.1,1,0.4
			s0.4,0.6,0.4,1.1V95c0,0.4-0.1,0.8-0.4,1.1C1980.1,96.3,1979.7,96.5,1979.3,96.5z"/>
		<path class="st2" d="M1979.3,95.5c0.1,0,0.2,0,0.2-0.1s0.1-0.2,0.1-0.3v-2.3c0-0.1,0-0.2-0.1-0.3c0-0.1-0.1-0.1-0.2-0.1
			s-0.2,0-0.2,0.1s-0.1,0.2-0.1,0.3v2.3c0,0.1,0,0.2,0.1,0.3C1979.1,95.4,1979.2,95.5,1979.3,95.5z"/>
		<path d="M1987.6,110c-0.6,0-1.1-0.5-1.1-1.1s0.5-1.1,1.1-1.1h18.3c0.6,0,1.1,0.5,1.1,1.1s-0.5,1.1-1.1,1.1H1987.6z"/>
		<path d="M1980.5,104.5c-0.6,0-1.1-0.5-1.1-1.1s0.5-1.1,1.1-1.1h32.6c0.6,0,1.1,0.5,1.1,1.1s-0.5,1.1-1.1,1.1H1980.5z"/>
	</g>
	<g>
		<path d="M1916.8,162.1c-3.8,0-5.7,3.3-6.9,6.8l-2.9,9.1l-1.4-2.7c-6.4-0.4-7.1,3.2-0.8,6.5l0,0c-7.1,4.6-6.1,12.6-5.4,21.5
			c0,0.1,0,0.2,0,0.3v4.9c0,1.1,0.9,2.1,2.1,2.1h9.1c1.1,0,2.1-1,2.1-2.1v-1.7h43.3v1.7c0,1.2,1,2.1,2.1,2.1h9.1
			c1.2,0,2.1-1,2.1-2.1v-3.8c0.7-11.6,1.1-16.3-3.4-21l-1.1-1.7c6.9-3.3,6.4-7.1-0.2-6.7l-1.2,2.4l-2.2-8.9
			c-0.9-3.6-3.1-6.8-6.8-6.8h-17.6c0-0.2-0.1-0.5-0.1-0.7c4-0.6,5.5-2.7,5.5-6.9V152h0.8c0.5,0,1-0.5,1-1v-1.1c0-0.5-0.5-1-1-1h-3.1
			v-5.3c0-0.9-0.7-1.6-1.6-1.6l0,0c-0.9,0-1.6,0.8-1.6,1.6v5.2h-4.7v-5.2c0-0.9-0.8-1.6-1.6-1.6l0,0l0,0c-0.9,0-1.6,0.8-1.6,1.6v5.2
			h-3c-0.5,0-1,0.5-1,1v1.2c0,0.5,0.5,1,1,1h0.6v2.3c0,4.2,1.6,6.8,6,7.2l0,0c0,0.2,0.1,0.5,0.1,0.7H1916.8L1916.8,162.1z"/>
		<path class="st2" d="M1936.7,190.7h2.9c0.4,0,0.8,0.4,0.8,0.8c0,0.2-0.1,0.3-0.2,0.4l-6.8,11.6c-0.2,0.4-0.7,0.5-1,0.2l0,0
			c-0.3-0.2-0.4-0.5-0.4-0.8l1-7.1l-3.4,0.1c-0.4,0-0.8-0.3-0.8-0.8l0,0c0-0.2,0-0.3,0.1-0.4l6.7-11.6c0.2-0.4,0.7-0.5,1.1-0.2
			c0.2,0.2,0.4,0.5,0.4,0.8L1936.7,190.7z"/>
		<path class="st2" d="M1914.1,168.3c0.2-0.5,0.6-1,1.1-1.3c0.8-0.8,1.9-1.2,3-1.2h34.8c2.9,0,4.6,2.4,5.2,5.2l2.3,9.3h-50.2l0,0
			l2.7-9.2C1913.1,170,1913.5,169.1,1914.1,168.3L1914.1,168.3z"/>
		<path class="st2" d="M1916.6,192.5l-8.1-1c-1.9-0.2-2.4,0.6-1.7,2.3l0.9,2.1c0.2,0.5,0.6,0.9,1.1,1.2c0.5,0.3,1.2,0.5,1.8,0.5
			l7.2,0.1c1.7,0,2.5-0.7,2-2.3C1919.3,193.8,1918.1,192.8,1916.6,192.5L1916.6,192.5z"/>
		<path class="st2" d="M1952.5,192.5l8.1-1c1.9-0.2,2.4,0.6,1.7,2.3l-0.9,2.1c-0.2,0.5-0.6,0.9-1.1,1.2c-0.5,0.3-1.2,0.5-1.8,0.5
			l-7.2,0.1c-1.7,0-2.5-0.7-2-2.3C1949.8,193.8,1951,192.8,1952.5,192.5z"/>
		<rect x="1930" y="152.9" class="st2" width="8.6" height="1.3"/>
	</g>
	<g>
		<path d="M2043.3,162.1c-3.8,0-5.7,3.3-6.9,6.8l-2.9,9.1l-1.4-2.7c-6.4-0.4-7.1,3.2-0.8,6.5l0,0c-7.1,4.6-6.1,12.6-5.4,21.5
			c0,0.1,0,0.2,0,0.3v4.9c0,1.1,0.9,2.1,2.1,2.1h9.1c1.1,0,2.1-1,2.1-2.1v-1.7h43.3v1.7c0,1.2,1,2.1,2.1,2.1h9.1
			c1.2,0,2.1-1,2.1-2.1v-3.8c0.7-11.6,1.1-16.3-3.4-21l-1.1-1.7c6.9-3.3,6.4-7.1-0.2-6.7l-1.2,2.4l-2.2-8.9
			c-0.9-3.6-3.1-6.8-6.8-6.8h-17.6c0-0.2-0.1-0.5-0.1-0.7c4-0.6,5.5-2.7,5.5-6.9V152h0.8c0.5,0,1-0.5,1-1v-1.1c0-0.5-0.5-1-1-1h-3.1
			v-5.3c0-0.9-0.7-1.6-1.6-1.6l0,0c-0.9,0-1.6,0.8-1.6,1.6v5.2h-4.7v-5.2c0-0.9-0.8-1.6-1.6-1.6l0,0l0,0c-0.9,0-1.6,0.8-1.6,1.6v5.2
			h-3c-0.5,0-1,0.5-1,1v1.2c0,0.5,0.5,1,1,1h0.6v2.3c0,4.2,1.6,6.8,6,7.2l0,0c0,0.2,0.1,0.5,0.1,0.7H2043.3L2043.3,162.1z"/>
		<path class="st2" d="M2063.1,190.7h2.9c0.4,0,0.8,0.4,0.8,0.8c0,0.2-0.1,0.3-0.2,0.4l-6.8,11.6c-0.2,0.4-0.7,0.5-1,0.2l0,0
			c-0.3-0.2-0.4-0.5-0.4-0.8l1-7.1l-3.4,0.1c-0.4,0-0.8-0.3-0.8-0.8l0,0c0-0.2,0-0.3,0.1-0.4l6.7-11.6c0.2-0.4,0.7-0.5,1.1-0.2
			c0.2,0.2,0.4,0.5,0.4,0.8L2063.1,190.7z"/>
		<path class="st2" d="M2040.5,168.3c0.2-0.5,0.6-1,1.1-1.3c0.8-0.8,1.9-1.2,3-1.2h34.8c2.9,0,4.6,2.4,5.2,5.2l2.3,9.3h-50.2l0,0
			l2.7-9.2C2039.6,170,2039.9,169.1,2040.5,168.3L2040.5,168.3z"/>
		<path class="st2" d="M2043.1,192.5l-8.1-1c-1.9-0.2-2.4,0.6-1.7,2.3l0.9,2.1c0.2,0.5,0.6,0.9,1.1,1.2c0.5,0.3,1.2,0.5,1.8,0.5
			l7.2,0.1c1.7,0,2.5-0.7,2-2.3C2045.7,193.8,2044.5,192.8,2043.1,192.5L2043.1,192.5z"/>
		<path class="st2" d="M2078.9,192.5l8.1-1c1.9-0.2,2.4,0.6,1.7,2.3l-0.9,2.1c-0.2,0.5-0.6,0.9-1.1,1.2c-0.5,0.3-1.2,0.5-1.8,0.5
			l-7.2,0.1c-1.7,0-2.5-0.7-2-2.3C2076.3,193.8,2077.5,192.8,2078.9,192.5z"/>
		<rect x="2056.4" y="152.9" class="st2" width="8.6" height="1.3"/>
	</g>
	<g>
		<path d="M1874,265.5c0,0.6-0.6,1.2-1.2,1.2h-58.7c-0.6,0-1.2-0.6-1.2-1.2v-28.9c-6.1,2.4-8.4-5.2-4.9-7.9l34.7-25.4
			c0.4-0.4,1-0.4,1.5-0.1l34.8,25.4l0.1,0.1c4.2,4.5-0.2,10.3-5.2,7.9V265.5L1874,265.5z"/>
		<path class="st2" d="M1834.9,247.2h17.4v16.4h18.7v-28.4c0-0.1,0-0.2,0-0.2l-27.2-20l-27.9,20c0,0.1,0.1,0.2,0.1,0.3v28.3h19
			V247.2L1834.9,247.2z"/>
		<rect x="1838.1" y="228.5" width="4.5" height="4.6"/>
		<rect x="1844.4" y="234.6" width="4.5" height="4.6"/>
		<polygon points="1838.1,234.6 1842.7,234.6 1842.7,239.3 1838.1,239.3 		"/>
		<rect x="1844.4" y="228.5" width="4.5" height="4.6"/>
	</g>
	<g>
		<path d="M2026.7,297.3c0,0.6-0.6,1.2-1.2,1.2h-58.7c-0.6,0-1.2-0.6-1.2-1.2v-28.9c-6.1,2.4-8.4-5.2-4.9-7.9l34.7-25.4
			c0.4-0.4,1-0.4,1.5-0.1l34.8,25.4l0.1,0.1c4.2,4.5-0.2,10.3-5.2,7.9V297.3L2026.7,297.3z"/>
		<path class="st2" d="M1987.7,279.1h17.4v16.4h18.7v-28.4c0-0.1,0-0.2,0-0.2l-27.2-20l-27.9,20c0,0.1,0.1,0.2,0.1,0.3v28.3h19
			V279.1L1987.7,279.1z"/>
		<rect x="1991" y="260.3" width="4.5" height="4.6"/>
		<rect x="1997.2" y="266.5" width="4.5" height="4.6"/>
		<polygon points="1991,266.5 1995.5,266.5 1995.5,271.2 1991,271.2 		"/>
		<rect x="1997.2" y="260.3" width="4.5" height="4.6"/>
	</g>
	<g>
		<path d="M2179.6,265.5c0,0.6-0.6,1.2-1.2,1.2h-58.7c-0.6,0-1.2-0.6-1.2-1.2v-28.9c-6.1,2.4-8.4-5.2-4.9-7.9l34.7-25.4
			c0.4-0.4,1-0.4,1.5-0.1l34.8,25.4l0.1,0.1c4.2,4.5-0.2,10.3-5.2,7.9L2179.6,265.5L2179.6,265.5z"/>
		<path class="st2" d="M2140.5,247.2h17.4v16.4h18.7v-28.4c0-0.1,0-0.2,0-0.2l-27.2-20l-27.9,20c0,0.1,0.1,0.2,0.1,0.3v28.3h19
			V247.2L2140.5,247.2z"/>
		<rect x="2143.8" y="228.5" width="4.5" height="4.6"/>
		<rect x="2150" y="234.6" width="4.5" height="4.6"/>
		<polygon points="2143.8,234.6 2148.4,234.6 2148.4,239.3 2143.8,239.3 		"/>
		<rect x="2150" y="228.5" width="4.5" height="4.6"/>
	</g>
	<g>
		<path d="M2174.2,226.3h-49.7c-0.2,0-0.2,0-0.4-0.1c-0.2-0.1-0.6-0.2-0.7-0.4c-0.2-0.2-0.4-0.6-0.4-0.9c0-0.1,0-0.2,0.1-0.3l0,0
			l5.9-20.8c0.1-0.2,0.2-0.7,0.5-0.8c0.2-0.2,0.7-0.4,1.1-0.4h37.9c0.4,0,0.7,0.2,1,0.3l0.1,0.1c0.2,0.2,0.4,0.6,0.5,0.8l5.9,20.8
			c0,0.2,0.1,0.2,0.1,0.3c0,0.3-0.2,0.7-0.4,0.9c-0.2,0.2-0.5,0.3-0.7,0.4C2174.4,226.3,2174.4,226.3,2174.2,226.3L2174.2,226.3z"/>
		<polygon class="st2" points="2171.2,224.1 2169.8,217 2158.3,217 2159,224.1 		"/>
		<polygon class="st2" points="2156.4,224.1 2155.6,217 2141.3,217 2140.3,224.1 		"/>
		<polygon class="st2" points="2137.7,224.1 2138.7,217 2127.9,217 2126,224.1 		"/>
		<polygon class="st2" points="2156.9,205 2157.3,208.7 2168,208.7 2167.2,205 		"/>
		<polygon class="st2" points="2131,205 2130,208.7 2140,208.7 2140.6,205 		"/>
		<polygon class="st2" points="2143.2,205 2142.7,208.7 2154.7,208.7 2154.3,205 		"/>
		<polygon class="st2" points="2157.6,211 2158,214.7 2169.3,214.7 2168.5,211 		"/>
		<polygon class="st2" points="2129.5,211 2128.5,214.7 2139.1,214.7 2139.7,211 		"/>
		<polygon class="st2" points="2142.2,211 2141.7,214.7 2155.3,214.7 2155,211 		"/>
	</g>
</g>
</svg>
