<?xml version="1.0" encoding="utf-8"?>
<!-- Generator: Adobe Illustrator 19.0.0, SVG Export Plug-In . SVG Version: 6.00 Build 0)  -->
<svg version="1.1" id="Layer_2" xmlns="http://www.w3.org/2000/svg" xmlns:xlink="http://www.w3.org/1999/xlink" x="0px" y="0px"
	 width="1920px" height="1351.9px" viewBox="480 -395.9 1920 1351.9" style="enable-background:new 480 -395.9 1920 1351.9;"
	 xml:space="preserve">
<style type="text/css">
	.st0{fill:none;stroke:#EC6F59;stroke-width:3;stroke-miterlimit:10;stroke-dasharray:12;}
	.st1{fill:none;stroke:#EC6F59;stroke-width:3;stroke-linecap:square;stroke-miterlimit:10;stroke-dasharray:12;}
	.st2{fill:#EC6F59;}
	.st3{fill:#FAD15C;}
	.st4{fill:none;stroke:#F6C32E;stroke-width:5;stroke-miterlimit:10;}
	.st5{fill:#F6C32E;}
	.st6{fill:#FFFFFF;}
	.st7{fill:#C89D28;}
	.st8{fill:#C6D8F2;}
	.st9{fill:none;stroke:#F6C32E;stroke-width:5;stroke-linecap:square;stroke-miterlimit:10;}
	.st10{fill:none;stroke:#F6C32E;stroke-width:3;stroke-miterlimit:10;}
	.st11{fill:none;stroke:#F6C32E;stroke-width:3;stroke-miterlimit:10;stroke-dasharray:12.31,12.31;}
	.st12{fill:none;stroke:#F6C32E;stroke-width:3;stroke-miterlimit:10;stroke-dasharray:12.096,12.096;}
	.st13{fill:none;stroke:#F6C32E;stroke-width:3;stroke-miterlimit:10;stroke-dasharray:12;}
	.st14{fill:none;stroke:#EC6F59;stroke-width:5;stroke-linecap:square;stroke-miterlimit:10;}
	.st15{fill:none;stroke:#F6C32E;stroke-width:3;stroke-linecap:square;stroke-miterlimit:10;}
	.st16{fill:none;stroke:#F6C32E;stroke-width:3;stroke-linecap:square;stroke-miterlimit:10;stroke-dasharray:11.656,11.656;}
	.st17{fill:none;stroke:#EC6F59;stroke-width:5;stroke-miterlimit:10;}
	.st18{fill:none;stroke:#000000;stroke-width:3;stroke-miterlimit:10;}
</style>
<g>
	<g>
		<line class="st0" x1="961.4" y1="295.2" x2="961.4" y2="140.8"/>
	</g>
</g>
<g>
	<g>
		<line class="st0" x1="1115" y1="455.2" x2="1115" y2="140.8"/>
	</g>
</g>
<g>
	<g>
		<line class="st0" x1="1267" y1="295.2" x2="1267" y2="140.8"/>
	</g>
</g>
<line class="st1" x1="961.4" y1="295.2" x2="1267" y2="295.2"/>
<g>
	<path class="st2" d="M1109.2,289.1c-0.6-5.5,2.6-9.4,8.6-11.6c-3.7,4.8,3.2,10,3.5,15c0.9-1.5,1.4-3.5,1.5-6.2
		c4.5,7.1,0.8,18.7-9.2,17.1c-0.9-0.2-1.8-0.4-2.6-0.9c-3.6-1.9-5.8-6.2-5.8-10.2c0-2.6,1.1-4.9,2.5-6.7
		C1108,287.3,1108.4,288.6,1109.2,289.1L1109.2,289.1z"/>
	<path class="st3" d="M1112.4,297c-1-2.7-0.9-6.9,2-8.4c0,4.9,4.9,5.5,4,10.8c0.8-0.9,1.2-2.5,1.3-3.6c1.3,3,0.3,5.4-1.6,6.6
		c-5.7,3.7-10.6-3.8-7.4-8C1110.9,295.4,1112,296.8,1112.4,297L1112.4,297z"/>
</g>
<g>
	<g>
		<line class="st4" x1="920.5" y1="140.8" x2="920.5" y2="337.5"/>
	</g>
</g>
<g>
	<g>
		<line class="st4" x1="1073.8" y1="140.8" x2="1073.8" y2="417.3"/>
		<g>
			<polygon class="st5" points="1073.8,455.2 1053.5,405.5 1073.8,417.3 1094.1,405.5 			"/>
		</g>
	</g>
</g>
<g>
	<g>
		<line class="st4" x1="1223.9" y1="140.8" x2="1223.9" y2="337.5"/>
	</g>
</g>
<polygon class="st5" points="1094.1,307.4 1074.3,307.6 1055.2,343.8 1068.2,344 1047.9,383 1093.7,333 1076.6,333 "/>
<g>
	<path d="M983.9,139.1c0,0.9-0.8,1.7-1.7,1.7H898c-0.9,0-1.7-0.8-1.7-1.7V97.6c-8.8,3.4-12.1-7.4-7.1-11.3L939,49.8
		c0.6-0.6,1.5-0.6,2.2-0.1l50,36.4l0.2,0.2c6,6.4-0.3,14.8-7.5,11.4V139.1L983.9,139.1z"/>
	<path class="st6" d="M927.8,112.9h25v23.6h26.8V95.7c0-0.1,0-0.3,0-0.3l-39.1-28.7l-40,28.7c0,0.2,0.1,0.3,0.1,0.4v40.6h27.2V112.9
		L927.8,112.9z"/>
	<rect x="932.5" y="86" width="6.5" height="6.6"/>
	<rect x="941.5" y="94.8" width="6.5" height="6.6"/>
	<polygon points="932.5,94.8 939.1,94.8 939.1,101.6 932.5,101.6 	"/>
	<rect x="941.5" y="86" width="6.5" height="6.6"/>
</g>
<g>
	<path d="M971.4,81.6h-59.9c-0.2,0-0.3,0-0.5-0.1c-0.3-0.1-0.7-0.3-0.9-0.5c-0.3-0.3-0.5-0.7-0.5-1.1c0-0.1,0-0.3,0.1-0.4l0,0
		l7.1-25.1c0.1-0.3,0.3-0.8,0.6-1c0.3-0.3,0.8-0.5,1.3-0.5h45.7c0.5,0,0.9,0.2,1.2,0.4l0.1,0.1c0.3,0.3,0.5,0.7,0.6,1l7.1,25.1
		c0,0.2,0.1,0.3,0.1,0.4c0,0.4-0.2,0.9-0.5,1.1c-0.3,0.3-0.6,0.4-0.9,0.5C971.7,81.6,971.6,81.6,971.4,81.6L971.4,81.6z"/>
	<polygon class="st6" points="967.8,78.9 966.1,70.4 952.2,70.4 953.1,78.9 	"/>
	<polygon class="st6" points="950,78.9 949,70.4 931.8,70.4 930.6,78.9 	"/>
	<polygon class="st6" points="927.4,78.9 928.7,70.4 915.6,70.4 913.4,78.9 	"/>
	<polygon class="st6" points="950.6,55.9 951.1,60.4 964,60.4 963,55.9 	"/>
	<polygon class="st6" points="919.4,55.9 918.2,60.4 930.2,60.4 930.9,55.9 	"/>
	<polygon class="st6" points="934.1,55.9 933.5,60.4 947.9,60.4 947.4,55.9 	"/>
	<polygon class="st6" points="951.4,63.2 951.9,67.6 965.5,67.6 964.6,63.2 	"/>
	<polygon class="st6" points="917.5,63.2 916.4,67.6 929.1,67.6 929.8,63.2 	"/>
	<polygon class="st6" points="932.9,63.2 932.3,67.6 948.7,67.6 948.3,63.2 	"/>
</g>
<g>
	<path d="M1136.6,139.1c0,0.9-0.8,1.7-1.7,1.7h-84.2c-0.9,0-1.7-0.8-1.7-1.7V97.6c-8.8,3.4-12.1-7.4-7.1-11.3l49.8-36.5
		c0.6-0.6,1.5-0.6,2.2-0.1l50,36.4l0.2,0.2c6,6.4-0.3,14.8-7.5,11.4L1136.6,139.1L1136.6,139.1z"/>
	<path class="st6" d="M1080.6,112.9h24.9v23.6h26.8V95.7c0-0.1,0-0.3,0-0.3l-39.1-28.7l-40,28.7c0,0.2,0.1,0.3,0.1,0.4v40.6h27.3
		L1080.6,112.9L1080.6,112.9z"/>
	<rect x="1085.3" y="86" width="6.5" height="6.6"/>
	<rect x="1094.2" y="94.8" width="6.5" height="6.6"/>
	<polygon points="1085.3,94.8 1091.8,94.8 1091.8,101.6 1085.3,101.6 	"/>
	<rect x="1094.2" y="86" width="6.5" height="6.6"/>
</g>
<g>
	<path d="M1124.1,81.6h-59.9c-0.2,0-0.3,0-0.5-0.1c-0.3-0.1-0.7-0.3-0.9-0.5c-0.3-0.3-0.5-0.7-0.5-1.1c0-0.1,0-0.3,0.1-0.4l0,0
		l7.1-25.1c0.1-0.3,0.3-0.8,0.6-1c0.3-0.3,0.8-0.5,1.3-0.5h45.7c0.5,0,0.9,0.2,1.2,0.4l0.1,0.1c0.3,0.3,0.5,0.7,0.6,1l7.1,25.1
		c0,0.2,0.1,0.3,0.1,0.4c0,0.4-0.2,0.9-0.5,1.1c-0.3,0.3-0.6,0.4-0.9,0.5C1124.5,81.6,1124.3,81.6,1124.1,81.6L1124.1,81.6z"/>
	<polygon class="st6" points="1120.6,78.9 1118.9,70.4 1104.9,70.4 1105.9,78.9 	"/>
	<polygon class="st6" points="1102.7,78.9 1101.8,70.4 1084.6,70.4 1083.3,78.9 	"/>
	<polygon class="st6" points="1080.2,78.9 1081.5,70.4 1068.4,70.4 1066.1,78.9 	"/>
	<polygon class="st6" points="1103.3,55.9 1103.8,60.4 1116.7,60.4 1115.8,55.9 	"/>
	<polygon class="st6" points="1072.2,55.9 1071,60.4 1083,60.4 1083.7,55.9 	"/>
	<polygon class="st6" points="1086.9,55.9 1086.2,60.4 1100.7,60.4 1100.2,55.9 	"/>
	<polygon class="st6" points="1104.2,63.2 1104.7,67.6 1118.3,67.6 1117.3,63.2 	"/>
	<polygon class="st6" points="1070.2,63.2 1069,67.6 1081.9,67.6 1082.6,63.2 	"/>
	<polygon class="st6" points="1085.7,63.2 1085,67.6 1101.4,67.6 1101,63.2 	"/>
</g>
<g>
	<path d="M1289.5,139.1c0,0.9-0.8,1.7-1.7,1.7h-84.2c-0.9,0-1.7-0.8-1.7-1.7V97.6c-8.8,3.4-12.1-7.4-7.1-11.3l49.8-36.5
		c0.6-0.6,1.5-0.6,2.2-0.1l50,36.4l0.2,0.2c6,6.4-0.3,14.8-7.5,11.4L1289.5,139.1L1289.5,139.1z"/>
	<path class="st6" d="M1233.5,112.9h24.9v23.6h26.8V95.7c0-0.1,0-0.3,0-0.3l-39.1-28.7l-40,28.7c0,0.2,0.1,0.3,0.1,0.4v40.6h27.3
		L1233.5,112.9L1233.5,112.9z"/>
	<rect x="1238.2" y="86" width="6.5" height="6.6"/>
	<rect x="1247.1" y="94.8" width="6.5" height="6.6"/>
	<polygon points="1238.2,94.8 1244.8,94.8 1244.8,101.6 1238.2,101.6 	"/>
	<rect x="1247.1" y="86" width="6.5" height="6.6"/>
</g>
<g>
	<path d="M1277.1,81.6h-59.9c-0.2,0-0.3,0-0.5-0.1c-0.3-0.1-0.7-0.3-0.9-0.5c-0.3-0.3-0.5-0.7-0.5-1.1c0-0.1,0-0.3,0.1-0.4l0,0
		l7.1-25.1c0.1-0.3,0.3-0.8,0.6-1c0.3-0.3,0.8-0.5,1.3-0.5h45.7c0.5,0,0.9,0.2,1.2,0.4l0.1,0.1c0.3,0.3,0.5,0.7,0.6,1l7.1,25.1
		c0,0.2,0.1,0.3,0.1,0.4c0,0.4-0.2,0.9-0.5,1.1c-0.3,0.3-0.6,0.4-0.9,0.5C1277.4,81.6,1277.2,81.6,1277.1,81.6L1277.1,81.6z"/>
	<polygon class="st6" points="1273.5,78.9 1271.8,70.4 1257.9,70.4 1258.8,78.9 	"/>
	<polygon class="st6" points="1255.6,78.9 1254.7,70.4 1237.5,70.4 1236.3,78.9 	"/>
	<polygon class="st6" points="1233.1,78.9 1234.4,70.4 1221.3,70.4 1219.1,78.9 	"/>
	<polygon class="st6" points="1256.2,55.9 1256.7,60.4 1269.7,60.4 1268.7,55.9 	"/>
	<polygon class="st6" points="1225.1,55.9 1223.9,60.4 1235.9,60.4 1236.6,55.9 	"/>
	<polygon class="st6" points="1239.8,55.9 1239.1,60.4 1253.6,60.4 1253.1,55.9 	"/>
	<polygon class="st6" points="1257.1,63.2 1257.6,67.6 1271.2,67.6 1270.3,63.2 	"/>
	<polygon class="st6" points="1223.2,63.2 1222,67.6 1234.8,67.6 1235.5,63.2 	"/>
	<polygon class="st6" points="1238.6,63.2 1238,67.6 1254.4,67.6 1253.9,63.2 	"/>
</g>
<g>
	<path class="st7" d="M1049.9-149.9c-1.6-2.6-0.7-6,1.9-7.6s6-0.7,7.6,1.9c0,0.1,0.1,0.1,0.1,0.2l7.1,12.3c1.6,2.7,0.7,6.1-2,7.6
		c-2.7,1.6-6.1,0.7-7.6-2L1049.9-149.9z"/>
	<path class="st7" d="M1094.3-131.5c27.5,0,49.7,22.3,49.7,49.8S1121.7-32,1094.2-32s-49.7-22.3-49.7-49.8
		c0-13.2,5.3-25.8,14.6-35.1C1068.4-126.3,1081.1-131.6,1094.3-131.5L1094.3-131.5z"/>
	<path class="st7" d="M1089.8-162.9c-0.2-3.1,2.2-5.7,5.3-5.8c3.1-0.2,5.7,2.2,5.8,5.3c0,0.2,0,0.4,0,0.6v14.2
		c0.2,3.1-2.2,5.7-5.3,5.8c-3.1,0.2-5.7-2.2-5.8-5.3c0-0.2,0-0.4,0-0.6C1089.8-148.7,1089.8-162.9,1089.8-162.9z"/>
	<path class="st7" d="M1131-154.3c1.4-2.7,4.7-3.8,7.4-2.5c2.7,1.4,3.8,4.7,2.5,7.4c-0.1,0.2-0.2,0.4-0.3,0.5l-7.1,12.4
		c-1.5,2.7-4.8,3.7-7.5,2.2s-3.7-4.8-2.2-7.5c0-0.1,0.1-0.2,0.1-0.2L1131-154.3L1131-154.3z"/>
	<path class="st7" d="M1162.3-126.2c2.7-1.5,6-0.6,7.6,2c1.5,2.7,0.6,6-2,7.6l0,0l-12.3,7.1c-2.7,1.6-6.1,0.7-7.6-2
		c-1.6-2.7-0.7-6.1,2-7.6L1162.3-126.2z"/>
	<path class="st7" d="M1175.4-86.2c3.1-0.2,5.7,2.2,5.8,5.3s-2.2,5.7-5.3,5.8c-0.2,0-0.4,0-0.6,0H1161c-3.1,0.2-5.7-2.2-5.8-5.3
		s2.2-5.7,5.3-5.8c0.2,0,0.4,0,0.6,0H1175.4z"/>
	<path class="st7" d="M1166.7-45.1c2.7,1.4,3.8,4.8,2.4,7.5s-4.8,3.8-7.5,2.4c-0.1-0.1-0.3-0.2-0.4-0.2l-12.4-7.1
		c-2.7-1.4-3.8-4.7-2.4-7.5c1.4-2.7,4.7-3.8,7.5-2.4c0.2,0.1,0.3,0.2,0.5,0.3L1166.7-45.1L1166.7-45.1z"/>
	<path class="st7" d="M1138.6-13.8c1.5,2.7,0.6,6-2,7.6c-2.7,1.5-6,0.6-7.6-2l0,0l-7.2-12.3c-1.6-2.7-0.7-6.1,2-7.6
		c2.7-1.6,6.1-0.7,7.6,2L1138.6-13.8L1138.6-13.8z"/>
	<path class="st7" d="M1098.7-0.7c0.2,3.1-2.2,5.7-5.3,5.8c-3.1,0.2-5.7-2.2-5.8-5.3c0-0.2,0-0.4,0-0.6V-15
		c-0.2-3.1,2.2-5.7,5.3-5.8c3.1-0.2,5.7,2.2,5.8,5.3c0,0.2,0,0.4,0,0.6V-0.7z"/>
	<path class="st7" d="M1057.5-9.4c-1.6,2.6-5.1,3.4-7.7,1.7c-2.4-1.5-3.3-4.7-2-7.2l7.1-12.4c1.3-2.8,4.7-3.9,7.4-2.6
		c2.8,1.3,3.9,4.7,2.6,7.4c-0.1,0.2-0.2,0.4-0.4,0.6L1057.5-9.4L1057.5-9.4z"/>
	<path class="st7" d="M1026.2-37.4c-2.7,1.5-6,0.6-7.6-2c-1.5-2.7-0.6-6,2-7.6l12.3-7.2c2.7-1.6,6.1-0.7,7.6,2
		c1.6,2.7,0.7,6.1-2,7.6L1026.2-37.4L1026.2-37.4z"/>
	<path class="st7" d="M1013.2-77.4c-3.1,0.2-5.7-2.2-5.8-5.3c-0.2-3.1,2.2-5.7,5.3-5.8c0.2,0,0.4,0,0.6,0h14.2
		c3.1-0.2,5.7,2.2,5.8,5.3c0.2,3.1-2.2,5.7-5.3,5.8c-0.2,0-0.4,0-0.6,0H1013.2z"/>
	<path class="st7" d="M1021.8-118.6c-2.7-1.4-3.8-4.7-2.5-7.4c1.3-2.7,4.7-3.8,7.4-2.5c0.2,0.1,0.4,0.2,0.5,0.3l12.4,7.1
		c2.7,1.5,3.7,4.8,2.2,7.5s-4.8,3.7-7.5,2.2c-0.1,0-0.2-0.1-0.2-0.1L1021.8-118.6z"/>
</g>
<g>
	<path class="st8" d="M1624.5-76.1c-5.3-8-7.1-17.9-4.9-27.2c1.6-7.4,4.9-14.3,9.5-20.2c4.7-6.1,10.7-11,17.6-14.4
		c9.4-4.8,20.4-5.8,30.6-2.7c2.3-9.6,8.3-18,16.7-23.2c7.6-4.9,16.2-8.1,25.2-9.3c9-1.4,18.2-1,27,1.2c10.7,2.8,20.1,8.2,25.7,16.7
		c8.9-6.4,19.9-9.3,30.8-8.1c8.7,0.7,17.2,3.2,25,7.3c7.6,3.8,14.3,9.4,19.4,16.2c5.3,7,7.8,15.8,6.9,24.6
		c13.6,0.9,25.6,9,31.5,21.3c2.8,5.6,4.6,11.6,5.1,17.8c0.6,6.3-0.1,12.6-2,18.6c-4.3,13.7-15,25.2-33.4,28.6
		c0.3,7.1-1.3,14.1-4.8,20.3c-5,8.7-12.2,16-20.9,21c-9.2,5.4-19.7,8.3-30.4,8.4c-11.5,0-22.7-3.7-31.9-10.6
		c-9.3,8.1-25.2,12.1-40.9,11.7c-6.7-0.1-13.4-1-19.8-2.7c-6.1-1.5-11.8-4.2-16.9-7.8c-5-3.5-8.6-8.5-10.4-14.3
		c-17.7,3.9-32.2,1.1-43.1-5.3c-14.1-8.4-22.7-23.7-22.6-40.1C1613.6-58.6,1617.5-68.4,1624.5-76.1z"/>
	<path class="st6" d="M1630.5-101.1c-1.8,7.6,0.2,15.6,5.4,21.4l0.4,0.5c1.9,2.4,1.6,5.9-0.8,7.8l0,0c-6.9,5.7-10.8,14.1-10.8,23
		c-0.1,12.5,6.4,24.1,17.2,30.5c9.5,5.7,23.2,7.7,40.5,2.5c0.5-0.1,1.1-0.2,1.6-0.2c3.1,0.1,5.5,2.6,5.5,5.7v0.1
		c0.1,4.9,2.6,9.5,6.7,12.1c4,2.8,8.5,4.8,13.2,5.9c5.6,1.5,11.3,2.3,17.1,2.4c15,0.3,29.8-3.5,35.7-11.5l0.3-0.3
		c2-2.3,5.5-2.6,7.8-0.6l0,0c7.9,7.1,18.2,11,28.8,11c8.7-0.1,17.2-2.4,24.7-6.9c7-4,12.7-9.7,16.7-16.7c3.2-5.5,4.3-12,3-18.2
		c-0.1-0.4-0.2-0.7-0.2-1.1c-0.2-3.1,2.1-5.7,5.1-6l0,0c16.4-1.2,25.9-10.4,29.4-21.4c2.8-9.3,2-19.3-2.4-27.9
		c-5.1-10.6-16.4-16.7-28-15.1c-3.1,0.3-5.8-1.9-6.1-4.9c-0.1-0.8,0-1.6,0.3-2.4c2.5-7.5,1.1-15.8-3.7-22.1
		c-4.1-5.4-9.4-9.9-15.5-12.9c-6.4-3.3-13.4-5.4-20.6-6c-10.6-0.8-20.9,2-27.3,9.7c-0.6,0.8-1.5,1.4-2.4,1.7c-2.9,1-6.1-0.5-7.1-3.4
		c0,0,0,0,0-0.1c-3-8.7-11.4-14.3-21.6-16.9c-7.4-1.8-15.2-2.1-22.7-1c-7.3,0.9-14.4,3.5-20.6,7.5c-7.6,4.6-12.4,12.8-12.7,21.7
		c0.1,1-0.2,1.9-0.6,2.8c-1.4,2.7-4.7,3.8-7.5,2.4l0,0c-8.7-4.6-19.1-4.7-27.8-0.1c-5.4,2.7-10,6.6-13.7,11.3
		C1634.3-112.1,1631.7-106.8,1630.5-101.1L1630.5-101.1z"/>
</g>
<line class="st9" x1="920.5" y1="337.5" x2="1223.9" y2="337.5"/>
<g>
	<g>
		<g>
			<g>
				<line class="st10" x1="1576" y1="140.8" x2="1576" y2="146.8"/>
				<line class="st11" x1="1576" y1="159.2" x2="1576" y2="325.3"/>
				<line class="st10" x1="1576" y1="331.5" x2="1576" y2="337.5"/>
			</g>
		</g>
	</g>
</g>
<g>
	<g>
		<g>
			<g>
				<line class="st10" x1="1729.3" y1="140.8" x2="1729.3" y2="146.8"/>
				<line class="st12" x1="1729.3" y1="158.9" x2="1729.3" y2="443.2"/>
				<line class="st10" x1="1729.3" y1="449.2" x2="1729.3" y2="455.2"/>
			</g>
		</g>
	</g>
</g>
<g>
	<g>
		<line class="st13" x1="1879.4" y1="140.8" x2="1879.4" y2="337.5"/>
	</g>
</g>
<line class="st14" x1="1616.9" y1="295.2" x2="1922.5" y2="295.2"/>
<g>
	<g>
		<line class="st15" x1="1576" y1="337.5" x2="1582" y2="337.5"/>
		<line class="st16" x1="1593.6" y1="337.5" x2="1867.5" y2="337.5"/>
		<line class="st15" x1="1873.4" y1="337.5" x2="1879.4" y2="337.5"/>
	</g>
</g>
<polygon class="st5" points="1738.4,321.7 1728.2,321.8 1718.3,340.5 1725,340.6 1714.5,360.8 1738.2,334.9 1729.4,334.9 "/>
<g>
	<g>
		<line class="st17" x1="1616.9" y1="295.2" x2="1616.9" y2="176.1"/>
		<g>
			<polygon class="st2" points="1616.9,140.8 1637.2,190.5 1616.9,178.7 1596.6,190.5 			"/>
		</g>
	</g>
</g>
<g>
	<g>
		<line class="st17" x1="1770.5" y1="455.2" x2="1770.5" y2="176.1"/>
		<g>
			<polygon class="st2" points="1770.5,140.8 1790.8,190.5 1770.5,178.7 1750.2,190.5 			"/>
		</g>
	</g>
</g>
<g>
	<g>
		<line class="st17" x1="1922.5" y1="295.2" x2="1922.5" y2="176.1"/>
		<g>
			<polygon class="st2" points="1922.5,140.8 1942.8,190.5 1922.5,178.7 1902.2,190.5 			"/>
		</g>
	</g>
</g>
<g>
	<path class="st2" d="M1757.3,287.3c-1.4-12.5,6-21.4,19.6-26.4c-8.4,10.9,7.2,22.7,8,34.1c2-3.5,3.2-8,3.4-14.1
		c10.3,16.2,1.7,42.5-20.9,38.8c-2.1-0.4-4-1-5.9-2c-8.3-4.4-13.2-14-13.2-23.2c0-5.9,2.5-11.1,5.8-15.2
		C1754.5,283.2,1755.5,286.2,1757.3,287.3L1757.3,287.3z"/>
	<path class="st3" d="M1764.6,305.4c-2.3-6.1-2-15.8,4.5-19.1c0,11.2,11.1,12.6,9,24.5c1.9-2.1,2.8-5.6,3-8.3
		c3,6.8,0.7,12.3-3.7,15.1c-13,8.5-24.2-8.7-16.7-18.1C1761,301.6,1763.6,304.9,1764.6,305.4L1764.6,305.4z"/>
</g>
<g>
	<path d="M1639.4,139.1c0,0.9-0.8,1.7-1.7,1.7h-84.2c-0.9,0-1.7-0.8-1.7-1.7V97.6c-8.8,3.4-12.1-7.4-7.1-11.3l49.8-36.5
		c0.6-0.6,1.5-0.6,2.2-0.1l50,36.4l0.2,0.2c6,6.4-0.3,14.8-7.5,11.4L1639.4,139.1L1639.4,139.1z"/>
	<path class="st6" d="M1583.3,112.9h25v23.6h26.8V95.7c0-0.1,0-0.3,0-0.3L1596,66.7l-40,28.7c0,0.2,0.1,0.3,0.1,0.4v40.6h27.2V112.9
		L1583.3,112.9z"/>
	<rect x="1588" y="86" width="6.5" height="6.6"/>
	<rect x="1597" y="94.8" width="6.5" height="6.6"/>
	<polygon points="1588,94.8 1594.6,94.8 1594.6,101.6 1588,101.6 	"/>
	<rect x="1597" y="86" width="6.5" height="6.6"/>
</g>
<g>
	<path d="M1626.9,81.6H1567c-0.2,0-0.3,0-0.5-0.1c-0.3-0.1-0.7-0.3-0.9-0.5c-0.3-0.3-0.5-0.7-0.5-1.1c0-0.1,0-0.3,0.1-0.4l0,0
		l7.1-25.1c0.1-0.3,0.3-0.8,0.6-1c0.3-0.3,0.8-0.5,1.3-0.5h45.7c0.5,0,0.9,0.2,1.2,0.4l0.1,0.1c0.3,0.3,0.5,0.7,0.6,1l7.1,25.1
		c0,0.2,0.1,0.3,0.1,0.4c0,0.4-0.2,0.9-0.5,1.1c-0.3,0.3-0.6,0.4-0.9,0.5C1627.2,81.6,1627.1,81.6,1626.9,81.6L1626.9,81.6z"/>
	<polygon class="st6" points="1623.3,78.9 1621.6,70.4 1607.7,70.4 1608.6,78.9 	"/>
	<polygon class="st6" points="1605.5,78.9 1604.5,70.4 1587.3,70.4 1586.1,78.9 	"/>
	<polygon class="st6" points="1582.9,78.9 1584.2,70.4 1571.1,70.4 1568.9,78.9 	"/>
	<polygon class="st6" points="1606.1,55.9 1606.6,60.4 1619.5,60.4 1618.5,55.9 	"/>
	<polygon class="st6" points="1574.9,55.9 1573.7,60.4 1585.7,60.4 1586.4,55.9 	"/>
	<polygon class="st6" points="1589.6,55.9 1589,60.4 1603.4,60.4 1602.9,55.9 	"/>
	<polygon class="st6" points="1606.9,63.2 1607.4,67.6 1621,67.6 1620.1,63.2 	"/>
	<polygon class="st6" points="1573,63.2 1571.9,67.6 1584.6,67.6 1585.3,63.2 	"/>
	<polygon class="st6" points="1588.4,63.2 1587.8,67.6 1604.2,67.6 1603.8,63.2 	"/>
</g>
<g>
	<path d="M1792.1,139.1c0,0.9-0.8,1.7-1.7,1.7h-84.2c-0.9,0-1.7-0.8-1.7-1.7V97.6c-8.8,3.4-12.1-7.4-7.1-11.3l49.8-36.5
		c0.6-0.6,1.5-0.6,2.2-0.1l50,36.4l0.2,0.2c6,6.4-0.3,14.8-7.5,11.4L1792.1,139.1L1792.1,139.1z"/>
	<path class="st6" d="M1736.1,112.9h24.9v23.6h26.8V95.7c0-0.1,0-0.3,0-0.3l-39.1-28.7l-40,28.7c0,0.2,0.1,0.3,0.1,0.4v40.6h27.3
		V112.9L1736.1,112.9z"/>
	<rect x="1740.8" y="86" width="6.5" height="6.6"/>
	<rect x="1749.7" y="94.8" width="6.5" height="6.6"/>
	<polygon points="1740.8,94.8 1747.3,94.8 1747.3,101.6 1740.8,101.6 	"/>
	<rect x="1749.7" y="86" width="6.5" height="6.6"/>
</g>
<g>
	<path d="M1779.6,81.6h-59.9c-0.2,0-0.3,0-0.5-0.1c-0.3-0.1-0.7-0.3-0.9-0.5c-0.3-0.3-0.5-0.7-0.5-1.1c0-0.1,0-0.3,0.1-0.4l0,0
		l7.1-25.1c0.1-0.3,0.3-0.8,0.6-1c0.3-0.3,0.8-0.5,1.3-0.5h45.7c0.5,0,0.9,0.2,1.2,0.4l0.1,0.1c0.3,0.3,0.5,0.7,0.6,1l7.1,25.1
		c0,0.2,0.1,0.3,0.1,0.4c0,0.4-0.2,0.9-0.5,1.1c-0.3,0.3-0.6,0.4-0.9,0.5C1780,81.6,1779.8,81.6,1779.6,81.6L1779.6,81.6z"/>
	<polygon class="st6" points="1776.1,78.9 1774.4,70.4 1760.4,70.4 1761.4,78.9 	"/>
	<polygon class="st6" points="1758.2,78.9 1757.3,70.4 1740.1,70.4 1738.8,78.9 	"/>
	<polygon class="st6" points="1735.7,78.9 1737,70.4 1723.9,70.4 1721.6,78.9 	"/>
	<polygon class="st6" points="1758.8,55.9 1759.3,60.4 1772.2,60.4 1771.3,55.9 	"/>
	<polygon class="st6" points="1727.7,55.9 1726.5,60.4 1738.5,60.4 1739.2,55.9 	"/>
	<polygon class="st6" points="1742.4,55.9 1741.7,60.4 1756.2,60.4 1755.7,55.9 	"/>
	<polygon class="st6" points="1759.7,63.2 1760.2,67.6 1773.8,67.6 1772.8,63.2 	"/>
	<polygon class="st6" points="1725.7,63.2 1724.5,67.6 1737.4,67.6 1738.1,63.2 	"/>
	<polygon class="st6" points="1741.2,63.2 1740.5,67.6 1756.9,67.6 1756.5,63.2 	"/>
</g>
<g>
	<path d="M1945,139.1c0,0.9-0.8,1.7-1.7,1.7h-84.2c-0.9,0-1.7-0.8-1.7-1.7V97.6c-8.8,3.4-12.1-7.4-7.1-11.3l49.8-36.5
		c0.6-0.6,1.5-0.6,2.2-0.1l50,36.4l0.2,0.2c6,6.4-0.3,14.8-7.5,11.4L1945,139.1L1945,139.1z"/>
	<path class="st6" d="M1889,112.9h24.9v23.6h26.8V95.7c0-0.1,0-0.3,0-0.3l-39.1-28.7l-40,28.7c0,0.2,0.1,0.3,0.1,0.4v40.6h27.3
		L1889,112.9L1889,112.9z"/>
	<rect x="1893.7" y="86" width="6.5" height="6.6"/>
	<rect x="1902.6" y="94.8" width="6.5" height="6.6"/>
	<polygon points="1893.7,94.8 1900.3,94.8 1900.3,101.6 1893.7,101.6 	"/>
	<rect x="1902.6" y="86" width="6.5" height="6.6"/>
</g>
<g>
	<path d="M1932.6,81.6h-59.9c-0.2,0-0.3,0-0.5-0.1c-0.3-0.1-0.7-0.3-0.9-0.5c-0.3-0.3-0.5-0.7-0.5-1.1c0-0.1,0-0.3,0.1-0.4l0,0
		l7.1-25.1c0.1-0.3,0.3-0.8,0.6-1c0.3-0.3,0.8-0.5,1.3-0.5h45.7c0.5,0,0.9,0.2,1.2,0.4l0.1,0.1c0.3,0.3,0.5,0.7,0.6,1l7.1,25.1
		c0,0.2,0.1,0.3,0.1,0.4c0,0.4-0.2,0.9-0.5,1.1c-0.3,0.3-0.6,0.4-0.9,0.5C1932.9,81.6,1932.7,81.6,1932.6,81.6L1932.6,81.6z"/>
	<polygon class="st6" points="1929,78.9 1927.3,70.4 1913.4,70.4 1914.3,78.9 	"/>
	<polygon class="st6" points="1911.1,78.9 1910.2,70.4 1893,70.4 1891.8,78.9 	"/>
	<polygon class="st6" points="1888.6,78.9 1889.9,70.4 1876.8,70.4 1874.6,78.9 	"/>
	<polygon class="st6" points="1911.7,55.9 1912.2,60.4 1925.2,60.4 1924.2,55.9 	"/>
	<polygon class="st6" points="1880.6,55.9 1879.4,60.4 1891.4,60.4 1892.1,55.9 	"/>
	<polygon class="st6" points="1895.3,55.9 1894.6,60.4 1909.1,60.4 1908.6,55.9 	"/>
	<polygon class="st6" points="1912.6,63.2 1913.1,67.6 1926.7,67.6 1925.8,63.2 	"/>
	<polygon class="st6" points="1878.7,63.2 1877.5,67.6 1890.3,67.6 1891,63.2 	"/>
	<polygon class="st6" points="1894.1,63.2 1893.5,67.6 1909.9,67.6 1909.4,63.2 	"/>
</g>
<g>
	<path class="st8" d="M1741.8-97.9l-15.9-14.5c-2.6-2.4-2.8-6.5-0.4-9.1s6.5-2.8,9.1-0.4l7.3,6.6v-9.3c0-3.6,2.9-6.5,6.5-6.5
		s6.5,2.9,6.5,6.5v9.9l8.5-7.8c2.6-2.4,6.7-2.2,9.1,0.4s2.2,6.7-0.4,9.1l-17.2,15.7v15.8h15.7l15.3-16.8c2.4-2.6,6.5-2.8,9.1-0.4
		s2.8,6.5,0.4,9.1l-7.4,8.1h10c3.6,0,6.5,2.9,6.5,6.5s-2.9,6.5-6.5,6.5h-9.1l7.1,7.7c2.4,2.6,2.2,6.7-0.4,9.1
		c-2.6,2.4-6.7,2.2-9.1-0.4l-15-16.4h-16.8v16l17.2,15.7c2.6,2.4,2.8,6.5,0.4,9.1s-6.5,2.8-9.1,0.4l-8.5-7.8v9.7
		c0,3.6-2.9,6.5-6.5,6.5s-6.5-2.9-6.5-6.5v-9.1l-7.3,6.6c-2.6,2.4-6.7,2.2-9.1-0.4c-2.4-2.6-2.2-6.7,0.4-9.1l15.9-14.5v-16.6h-15.9
		l-15,16.4c-2.4,2.6-6.5,2.8-9.1,0.4c-2.6-2.4-2.8-6.5-0.4-9.1l7.1-7.7h-9.8c-3.6,0-6.5-2.9-6.5-6.5s2.9-6.5,6.5-6.5h10.7l-7.4-8.1
		c-2.4-2.6-2.2-6.7,0.4-9.1s6.7-2.2,9.1,0.4l15.3,16.8h15L1741.8-97.9L1741.8-97.9z"/>
</g>
<g>
	<path d="M1146.3,498.8v97.2c0,3.1-1.3,5.8-3.3,7.9c-2,2-4.8,3.3-7.9,3.3h-8.2v5.9c0,1.3-1.1,2.4-2.4,2.4h-11.5
		c-1.3,0-2.4-1.1-2.4-2.4V607h-32.8v5.9c0,1.3-1.1,2.4-2.4,2.4h-11.5c-1.3,0-2.4-1.1-2.4-2.4V607h-8.2c-3.1,0-5.9-1.3-7.9-3.3
		c-2-2-3.3-4.8-3.3-7.9v-97c0-10.8,12.4-18,28.7-21.4v-7.4c0-3.4,1.4-6.6,3.7-8.8c1.9-1.9,4.3-3.2,7.1-3.5l24.9-0.1
		c3,0.3,5.6,1.6,7.6,3.6c2.3,2.3,3.7,5.4,3.7,8.8v7C1133.9,480.3,1146.3,487.4,1146.3,498.8L1146.3,498.8z"/>
	<path class="st6" d="M1047.1,560.2h94v-61.4c0-8.7-11.5-14.3-26.3-16.9c-6.2-1.1-13-1.6-19.8-1.6c-6.8,0-13.6,0.6-19.9,1.7
		c-15.6,2.7-28,8.5-28,17V560.2L1047.1,560.2z"/>
	<path class="st6" d="M1141.1,565.3h-94v30.6c0,1.6,0.7,3.1,1.8,4.2c1.1,1.1,2.6,1.8,4.2,1.8h82.1c1.6,0,3.1-0.7,4.2-1.8
		c1.1-1.1,1.8-2.6,1.8-4.2V565.3L1141.1,565.3z"/>
	<path class="st6" d="M1075.8,476.6c6.1-1,12.7-1.5,19.2-1.5c5.9,0,11.9,0.4,17.4,1.1v-6.2c0-2-0.8-3.8-2.2-5.2
		c-1.3-1.3-3.2-2.2-5.2-2.2h-22c-2,0-3.8,0.8-5.2,2.2c-1.3,1.3-2.2,3.2-2.2,5.2L1075.8,476.6L1075.8,476.6z"/>
	<path d="M1110.8,593.8h-33.4c-0.2,0-0.4-0.2-0.4-0.4v0c0-0.9-0.2-1.8-0.4-2.7c-0.2-1.1-0.5-2.3-0.5-3.8c0-2.4,0.5-4.8,1.4-6.9
		c0.9-2.2,2.2-4.2,3.9-5.8c1.6-1.6,3.6-3,5.8-3.9c2.1-0.9,4.5-1.4,6.9-1.4c2.4,0,4.7,0.5,6.9,1.4c2.2,0.9,4.2,2.3,5.8,3.9
		c1.7,1.7,3,3.6,3.9,5.9c0.9,2.1,1.4,4.5,1.4,6.9c0,1.4-0.3,2.6-0.5,3.7c-0.2,1-0.4,1.9-0.4,2.8
		C1111.2,593.7,1111,593.8,1110.8,593.8L1110.8,593.8L1110.8,593.8z"/>
	<path class="st6" d="M1079.3,591.3h29.6c0.2-0.6,0.3-1.3,0.4-1.9c0.1-0.6,0.2-1.2,0.2-1.9h-2.4c-0.2,0-0.4-0.2-0.4-0.4v-1.8
		c0-0.2,0.2-0.4,0.4-0.4h2.3c-0.2-1.6-0.7-3.1-1.3-4.5c-0.7-1.4-1.6-2.8-2.6-3.9l-1.5,1.5c-0.1,0.1-0.4,0.1-0.5,0l-1.3-1.3
		c-0.1-0.1-0.1-0.4,0-0.5l1.4-1.4c-1.2-0.9-2.6-1.7-4-2.3c-1.4-0.5-2.9-0.9-4.5-0.9v2.1c0,0.2-0.2,0.4-0.4,0.4h-1.8
		c-0.2,0-0.4-0.2-0.4-0.4v-2c-1.6,0.2-3.1,0.6-4.5,1.2c-1.4,0.6-2.8,1.5-3.9,2.5l1.5,1.5c0.1,0.1,0.1,0.4,0,0.5l-1.3,1.3
		c-0.1,0.1-0.4,0.1-0.5,0l-1.5-1.5c-1,1.2-1.8,2.6-2.4,4c-0.6,1.4-0.9,3-1.1,4.6h2.4c0.2,0,0.4,0.2,0.4,0.4v1.8
		c0,0.2-0.2,0.4-0.4,0.4h-2.3c0,0.5,0.1,0.9,0.2,1.4C1079.1,590.3,1079.2,590.8,1079.3,591.3L1079.3,591.3L1079.3,591.3z"/>
	<path d="M1093,584.3l8.3-5.3c0.2-0.1,0.4-0.1,0.5,0l0.8,0.8c0.1,0.1,0.1,0.4,0,0.5l-6.3,7.3c-1,1-2,1.2-2.9,1
		c-0.4-0.1-0.8-0.4-1.1-0.7s-0.5-0.7-0.6-1.2C1091.7,586,1092,585,1093,584.3L1093,584.3L1093,584.3L1093,584.3z"/>
	<path d="M1058.7,580.9h6.1c1.3,0,2.4,1.1,2.4,2.4v1.7c0,1.3-1.1,2.4-2.4,2.4h-6.1c-1.3,0-2.4-1.1-2.4-2.4v-1.7
		C1056.3,582,1057.4,580.9,1058.7,580.9L1058.7,580.9z"/>
	<path d="M1123.5,580.9h6.1c1.3,0,2.4,1.1,2.4,2.4v1.7c0,1.3-1.1,2.4-2.4,2.4h-6.1c-1.3,0-2.4-1.1-2.4-2.4v-1.7
		C1121,582,1122.1,580.9,1123.5,580.9L1123.5,580.9z"/>
	<path class="st18" d="M1061.7,505.5c0,0,9.1-6,18.4-6s16.4,11.9,28.3,11.9c11.9,0,18.1-6,18.1-6"/>
	<path class="st18" d="M1061.7,523.6c0,0,9.1-6,18.4-6s16.4,11.9,28.3,11.9c11.9,0,18.1-6,18.1-6"/>
	<path class="st18" d="M1061.7,541.5c0,0,9.1-6,18.4-6s16.4,11.9,28.3,11.9c11.9,0,18.1-6,18.1-6"/>
</g>
<g>
	<path d="M1802.8,498.4v97.2c0,3.1-1.3,5.8-3.3,7.9c-2,2-4.8,3.3-7.9,3.3h-8.2v5.9c0,1.3-1.1,2.4-2.4,2.4h-11.5
		c-1.3,0-2.4-1.1-2.4-2.4v-5.9h-32.8v5.9c0,1.3-1.1,2.4-2.4,2.4h-11.5c-1.3,0-2.4-1.1-2.4-2.4v-5.9h-8.2c-3.1,0-5.9-1.3-7.9-3.3
		c-2-2-3.3-4.8-3.3-7.9v-97c0-10.8,12.4-18,28.7-21.4v-7.4c0-3.4,1.4-6.6,3.7-8.8c1.9-1.9,4.3-3.2,7.1-3.5l24.9-0.1
		c3,0.3,5.6,1.6,7.6,3.6c2.3,2.3,3.7,5.4,3.7,8.8v7C1790.4,480,1802.8,487.1,1802.8,498.4L1802.8,498.4z"/>
	<path class="st6" d="M1703.6,559.8h94v-61.4c0-8.7-11.5-14.3-26.3-16.9c-6.2-1.1-13-1.6-19.8-1.6c-6.8,0-13.6,0.6-19.9,1.7
		c-15.6,2.7-28,8.5-28,17V559.8L1703.6,559.8z"/>
	<path class="st6" d="M1797.6,565h-94v30.6c0,1.6,0.7,3.1,1.8,4.2s2.6,1.8,4.2,1.8h82.1c1.6,0,3.1-0.7,4.2-1.8
		c1.1-1.1,1.8-2.6,1.8-4.2V565L1797.6,565z"/>
	<path class="st6" d="M1732.3,476.3c6.1-1,12.7-1.5,19.2-1.5c5.9,0,11.9,0.4,17.4,1.1v-6.2c0-2-0.8-3.8-2.2-5.2
		c-1.3-1.3-3.2-2.2-5.2-2.2h-22c-2,0-3.8,0.8-5.2,2.2c-1.3,1.3-2.2,3.2-2.2,5.2L1732.3,476.3L1732.3,476.3z"/>
	<path d="M1767.3,593.5h-33.4c-0.2,0-0.4-0.2-0.4-0.4v0c0-0.9-0.2-1.8-0.4-2.7c-0.2-1.1-0.5-2.3-0.5-3.8c0-2.4,0.5-4.8,1.4-6.9
		c0.9-2.2,2.2-4.2,3.9-5.8c1.6-1.6,3.6-3,5.8-3.9c2.1-0.9,4.5-1.4,6.9-1.4c2.4,0,4.7,0.5,6.9,1.4c2.2,0.9,4.2,2.3,5.8,3.9
		c1.7,1.7,3,3.6,3.9,5.9c0.9,2.1,1.4,4.5,1.4,6.9c0,1.4-0.3,2.6-0.5,3.7c-0.2,1-0.4,1.9-0.4,2.8
		C1767.7,593.4,1767.5,593.5,1767.3,593.5L1767.3,593.5L1767.3,593.5z"/>
	<path class="st6" d="M1735.8,591h29.6c0.2-0.6,0.3-1.3,0.4-1.9c0.1-0.6,0.2-1.2,0.2-1.9h-2.4c-0.2,0-0.4-0.2-0.4-0.4V585
		c0-0.2,0.2-0.4,0.4-0.4h2.3c-0.2-1.6-0.7-3.1-1.3-4.5c-0.7-1.4-1.6-2.8-2.6-3.9l-1.5,1.5c-0.1,0.1-0.4,0.1-0.5,0l-1.3-1.3
		c-0.1-0.1-0.1-0.4,0-0.5l1.4-1.4c-1.2-0.9-2.6-1.7-4-2.3c-1.4-0.5-2.9-0.9-4.5-0.9v2.1c0,0.2-0.2,0.4-0.4,0.4h-1.8
		c-0.2,0-0.4-0.2-0.4-0.4v-2c-1.6,0.2-3.1,0.6-4.5,1.2c-1.4,0.6-2.8,1.5-3.9,2.5l1.5,1.5c0.1,0.1,0.1,0.4,0,0.5l-1.3,1.3
		c-0.1,0.1-0.4,0.1-0.5,0l-1.5-1.5c-1,1.2-1.8,2.6-2.4,4c-0.6,1.4-0.9,3-1.1,4.6h2.4c0.2,0,0.4,0.2,0.4,0.4v1.8
		c0,0.2-0.2,0.4-0.4,0.4h-2.3c0,0.5,0.1,0.9,0.2,1.4C1735.5,590,1735.7,590.5,1735.8,591L1735.8,591L1735.8,591z"/>
	<path d="M1749.5,584l8.3-5.3c0.2-0.1,0.4-0.1,0.5,0l0.8,0.8c0.1,0.1,0.1,0.4,0,0.5l-6.3,7.3c-1,1-2,1.2-2.9,1
		c-0.4-0.1-0.8-0.4-1.1-0.7s-0.5-0.7-0.6-1.2C1748.2,585.7,1748.5,584.7,1749.5,584L1749.5,584L1749.5,584L1749.5,584z"/>
	<path d="M1715.1,580.6h6.1c1.3,0,2.4,1.1,2.4,2.4v1.7c0,1.3-1.1,2.4-2.4,2.4h-6.1c-1.3,0-2.4-1.1-2.4-2.4V583
		C1712.7,581.7,1713.8,580.6,1715.1,580.6L1715.1,580.6z"/>
	<path d="M1779.9,580.6h6.1c1.3,0,2.4,1.1,2.4,2.4v1.7c0,1.3-1.1,2.4-2.4,2.4h-6.1c-1.3,0-2.4-1.1-2.4-2.4V583
		C1777.5,581.7,1778.6,580.6,1779.9,580.6L1779.9,580.6z"/>
	<path class="st18" d="M1718.2,505.2c0,0,9.1-6,18.4-6c9.3,0,16.4,11.9,28.3,11.9c11.9,0,18.1-6,18.1-6"/>
	<path class="st18" d="M1718.2,523.3c0,0,9.1-6,18.4-6c9.3,0,16.4,11.9,28.3,11.9c11.9,0,18.1-6,18.1-6"/>
	<path class="st18" d="M1718.2,541.2c0,0,9.1-6,18.4-6c9.3,0,16.4,11.9,28.3,11.9c11.9,0,18.1-6,18.1-6"/>
</g>
</svg>
