<?xml version="1.0" encoding="utf-8"?>
<!-- Generator: Adobe Illustrator 19.0.0, SVG Export Plug-In . SVG Version: 6.00 Build 0)  -->
<svg version="1.1" id="Layer_1" xmlns="http://www.w3.org/2000/svg" xmlns:xlink="http://www.w3.org/1999/xlink" x="0px" y="0px"
	 width="1183.8px" height="1121.9px" viewBox="588 0 1183.8 1121.9" style="enable-background:new 588 0 1183.8 1121.9;"
	 xml:space="preserve">
<style type="text/css">
	.st0{fill:none;stroke:#F6C32E;stroke-width:5;stroke-miterlimit:10;}
	.st1{fill:#F6C32E;}
	.st2{fill:#FFFFFF;}
	.st3{fill:#23549F;}
	.st4{fill:#F2F2F2;}
	.st5{fill:#BFBFBF;}
</style>
<g id="XMLID_29_">
	<g id="XMLID_30_">
		<line id="XMLID_27_" class="st0" x1="873.5" y1="303.5" x2="976.9" y2="303.5"/>
		<g id="XMLID_31_">
			<polygon id="XMLID_1_" class="st1" points="1012.2,303.5 962.5,323.8 974.3,303.5 962.5,283.2 			"/>
		</g>
	</g>
</g>
<path id="XMLID_89_" d="M1534.6,778.5L1534.6,778.5l16.4-20.9c0.6-0.8,1.8-0.9,2.6-0.3c0.1,0.1,0.3,0.3,0.4,0.4l15.9,20.8l0.1,0.1
	l30.1,13.8c1,0.3,1.6,1.3,1.3,2.3c-0.2,0.9-1,1.4-1.9,1.4h-3.2v4.3c0,1.3-1,2.3-2.3,2.3s-2.3-1-2.3-2.3l0,0v-4.3h-2.3v4.3
	c0,1.3-1,2.3-2.3,2.3s-2.3-1-2.3-2.3v-4.3h-14.6v8.7l29.8,13.4c1,0.3,1.6,1.3,1.3,2.3c-0.2,0.9-1,1.4-1.9,1.4h-3.2v4.6
	c0,1.3-1,2.3-2.3,2.3s-2.3-1-2.3-2.3l0,0v-4.6h-2.3v4.6c0,1.3-1,2.3-2.3,2.3s-2.3-1-2.3-2.3l0,0v-4.6h-14.6v18.8L1582,867
	c0.3,0.3,0.4,0.6,0.5,1l0,0l12.9,28.5h8v11.3h-25.6v-11.4h12.5l-34.7-26.4h-7.2l-34.5,26.5h12.3v11.3h-25.5v-11.3h8.1l25.3-55.9
	v-18.8h-15.8v4.6c0,1.3-1,2.3-2.3,2.3s-2.3-1-2.3-2.3l0,0v-4.6h-2.5v4.6c-0.1,1.3-1.2,2.2-2.5,2.1c-1.1-0.1-2.1-1-2.1-2.1v-4.6h-1.7
	c-1,0-1.9-0.9-1.9-1.9c0-0.7,0.4-1.4,1.1-1.7l30-13.6v-8.5h-15.8v4.3c0,1.3-1,2.3-2.3,2.3s-2.3-1-2.3-2.3l0,0v-4.3h-2.5v4.3
	c-0.1,1.3-1.2,2.2-2.5,2.1c-1.1-0.1-2.1-1-2.1-2.1v-4.3h-1.7c-1-0.1-1.8-0.9-1.8-2c0-0.7,0.4-1.3,1-1.6L1534.6,778.5L1534.6,778.5z
	 M1538,835.4l12.2-14l-11.9-13.7h-0.3L1538,835.4L1538,835.4z M1552.3,819.1l9.8-11.3h-19.7L1552.3,819.1L1552.3,819.1z
	 M1566.3,807.8l-11.9,13.6l12.2,14v-27.7L1566.3,807.8L1566.3,807.8z M1552.3,823.8l-13.3,15.3h26.6L1552.3,823.8z M1538,801.9
	l11.4-9.6l-11.4-9.6V801.9z M1552.3,790l9.5-7.9h-18.9L1552.3,790z M1566.5,782.8l-11.4,9.5l11.4,9.6V782.8z M1552.3,794.8
	l-11.1,9.3h22.1L1552.3,794.8z M1588.8,890.4l-9.2-20.4H1562L1588.8,890.4z M1542.4,870H1525l-9.3,20.5L1542.4,870z M1573.8,866.3
	l-21.6-13.3l-21.6,13.2L1573.8,866.3z M1548.7,850.9l-11.8-7.2l-9,20L1548.7,850.9z M1552.3,848.7l9.5-5.8h-19L1552.3,848.7
	L1552.3,848.7z M1567.5,843.7l-11.7,7.2l20.8,12.7L1567.5,843.7L1567.5,843.7z M1570.3,792.3h20.6l-20.6-9.4V792.3L1570.3,792.3z
	 M1534.2,782.8l-20.7,9.5h20.7V782.8z M1570.3,808.9v9.2h20.4L1570.3,808.9z M1534.2,818v-9.3l-20.5,9.3H1534.2z M1564.8,778
	l-12.4-16.2l-12.7,16.2H1564.8z"/>
<path id="XMLID_33_" d="M1534.6,237.4L1534.6,237.4l16.4-20.9c0.6-0.8,1.8-0.9,2.6-0.3c0.1,0.1,0.3,0.3,0.4,0.4l15.9,20.8l0.1,0.1
	l30.1,13.8c1,0.3,1.6,1.3,1.3,2.3c-0.2,0.9-1,1.4-1.9,1.4h-3.2v4.3c0,1.3-1,2.3-2.3,2.3s-2.3-1-2.3-2.3l0,0V255h-2.3v4.3
	c0,1.3-1,2.3-2.3,2.3s-2.3-1-2.3-2.3V255h-14.6v8.7l29.8,13.4c1,0.3,1.6,1.3,1.3,2.3c-0.2,0.9-1,1.4-1.9,1.4h-3.2v4.6
	c0,1.3-1,2.3-2.3,2.3s-2.3-1-2.3-2.3l0,0v-4.6h-2.3v4.6c0,1.3-1,2.3-2.3,2.3s-2.3-1-2.3-2.3l0,0v-4.6h-14.6v18.8l11.9,26.3
	c0.3,0.3,0.4,0.6,0.5,1l0,0l12.9,28.5h8v11.3h-25.6v-11.4h12.5l-34.7-26.4h-7.2l-34.5,26.5h12.3v11.3h-25.5v-11.3h8.1l25.3-55.9
	v-18.8h-15.8v4.6c0,1.3-1,2.3-2.3,2.3s-2.3-1-2.3-2.3l0,0v-4.6h-2.5v4.6c-0.1,1.3-1.2,2.2-2.5,2.1c-1.1-0.1-2.1-1-2.1-2.1v-4.6h-1.7
	c-1,0-1.9-0.9-1.9-1.9c0-0.7,0.4-1.4,1.1-1.7l30-13.6V255h-15.8v4.3c0,1.3-1,2.3-2.3,2.3s-2.3-1-2.3-2.3l0,0V255h-2.5v4.3
	c-0.1,1.3-1.2,2.2-2.5,2.1c-1.1-0.1-2.1-1-2.1-2.1V255h-1.7c-1-0.1-1.8-0.9-1.8-2c0-0.7,0.4-1.3,1-1.6L1534.6,237.4L1534.6,237.4z
	 M1538,294.3l12.2-14l-11.9-13.7h-0.3L1538,294.3L1538,294.3z M1552.3,278l9.8-11.3h-19.7L1552.3,278L1552.3,278z M1566.3,266.7
	l-11.9,13.6l12.2,14v-27.7L1566.3,266.7L1566.3,266.7z M1552.3,282.7L1539,298h26.6L1552.3,282.7z M1538,260.8l11.4-9.6l-11.4-9.6
	V260.8z M1552.3,248.9l9.5-7.9h-18.9L1552.3,248.9z M1566.5,241.7l-11.4,9.5l11.4,9.6V241.7z M1552.3,253.7l-11.1,9.3h22.1
	L1552.3,253.7z M1588.8,349.3l-9.2-20.4H1562L1588.8,349.3z M1542.4,328.9H1525l-9.3,20.5L1542.4,328.9z M1573.8,325.2l-21.6-13.3
	l-21.6,13.2L1573.8,325.2z M1548.7,309.8l-11.8-7.2l-9,20L1548.7,309.8z M1552.3,307.6l9.5-5.8h-19L1552.3,307.6L1552.3,307.6z
	 M1567.5,302.6l-11.7,7.2l20.8,12.7L1567.5,302.6L1567.5,302.6z M1570.3,251.2h20.6l-20.6-9.4V251.2L1570.3,251.2z M1534.2,241.7
	l-20.7,9.5h20.7V241.7z M1570.3,267.8v9.2h20.4L1570.3,267.8z M1534.2,276.9v-9.3l-20.5,9.3H1534.2z M1564.8,236.9l-12.4-16.2
	l-12.7,16.2H1564.8z"/>
<g id="XMLID_20_">
	<path id="XMLID_26_" d="M1058.5,298.7c-5,0-7.5,4.3-9.1,9l-3.8,12l-1.9-3.5c-8.4-0.5-9.4,4.2-1,8.5l0,0c-9.3,6-8,16.6-7.1,28.3
		c0,0.1,0,0.3,0,0.4v6.5c0,1.5,1.2,2.8,2.8,2.8h12c1.5,0,2.8-1.3,2.8-2.8v-2.3h57v2.3c0,1.6,1.3,2.8,2.8,2.8h12
		c1.6,0,2.8-1.3,2.8-2.8v-5c0.9-15.2,1.5-21.4-4.5-27.6l-1.5-2.3c9.1-4.3,8.4-9.3-0.3-8.8l-1.6,3.2l-2.9-11.7c-1.2-4.8-4.1-9-9-9
		h-23.2c0-0.3-0.1-0.6-0.1-0.9c5.3-0.8,7.2-3.6,7.2-9.1v-3.3h1.1c0.7,0,1.3-0.6,1.3-1.3v-1.5c0-0.7-0.6-1.3-1.3-1.3h-4.1v-7
		c0-1.2-0.9-2.1-2.1-2.1l0,0c-1.2,0-2.1,1-2.1,2.1v6.8h-6.2v-6.8c0-1.2-1-2.1-2.1-2.1l0,0l0,0c-1.2,0-2.1,1-2.1,2.1v6.8h-4
		c-0.7,0-1.3,0.6-1.3,1.3v1.6c0,0.7,0.6,1.3,1.3,1.3h0.8v3c0,5.5,2.1,8.9,7.9,9.5l0,0c0,0.3,0.1,0.6,0.1,0.9H1058.5L1058.5,298.7z"
		/>
	<path id="XMLID_25_" class="st2" d="M1084.6,336.3h3.8c0.5,0,1,0.5,1,1c0,0.2-0.1,0.4-0.2,0.5l-9,15.3c-0.3,0.5-0.9,0.6-1.3,0.3
		l0,0c-0.4-0.2-0.5-0.6-0.5-1.1l1.3-9.4l-4.5,0.1c-0.5,0-1-0.4-1-1l0,0c0-0.2,0-0.4,0.1-0.5l8.8-15.3c0.3-0.5,0.9-0.6,1.4-0.3
		c0.3,0.2,0.5,0.6,0.5,1L1084.6,336.3z"/>
	<path id="XMLID_24_" class="st2" d="M1054.9,306.8c0.3-0.7,0.8-1.3,1.4-1.7c1-1,2.5-1.6,3.9-1.6h45.8c3.8,0,6.1,3.2,6.9,6.9l3,12.2
		h-66.1l0,0l3.6-12.1C1053.6,309.1,1054.1,307.9,1054.9,306.8L1054.9,306.8z"/>
	<path id="XMLID_23_" class="st2" d="M1058.2,338.6l-10.7-1.3c-2.5-0.3-3.2,0.8-2.3,3l1.2,2.8c0.3,0.7,0.8,1.2,1.4,1.6
		c0.7,0.4,1.6,0.7,2.4,0.7l9.5,0.1c2.3,0,3.3-0.9,2.6-3C1061.7,340.4,1060.1,339,1058.2,338.6L1058.2,338.6z"/>
	<path id="XMLID_22_" class="st2" d="M1105.4,338.6l10.7-1.3c2.5-0.3,3.2,0.8,2.3,3l-1.2,2.8c-0.3,0.7-0.8,1.2-1.4,1.6
		c-0.7,0.4-1.6,0.7-2.4,0.7l-9.5,0.1c-2.3,0-3.3-0.9-2.6-3C1101.9,340.4,1103.5,339,1105.4,338.6z"/>
	<rect id="XMLID_21_" x="1075.8" y="286.6" class="st2" width="11.3" height="1.7"/>
</g>
<g id="XMLID_13_">
	<path id="XMLID_19_" d="M1150.6,239.5c-5,0-7.5,4.3-9.1,9l-3.8,12l-1.9-3.5c-8.4-0.5-9.4,4.2-1,8.5l0,0c-9.3,6-8,16.6-7.1,28.3
		c0,0.1,0,0.3,0,0.4v6.5c0,1.5,1.2,2.8,2.8,2.8h12c1.5,0,2.8-1.3,2.8-2.8v-2.3h57v2.3c0,1.6,1.3,2.8,2.8,2.8h12
		c1.6,0,2.8-1.3,2.8-2.8v-5c0.9-15.2,1.5-21.4-4.5-27.6l-1.5-2.3c9.1-4.3,8.4-9.3-0.3-8.8l-1.6,3.2l-2.9-11.7c-1.2-4.8-4.1-9-9-9
		h-23.2c0-0.3-0.1-0.6-0.1-0.9c5.3-0.8,7.2-3.6,7.2-9.1v-3.3h1.1c0.7,0,1.3-0.6,1.3-1.3v-1.6c0-0.7-0.6-1.3-1.3-1.3h-4.1v-6.8
		c0-1.2-0.9-2.1-2.1-2.1l0,0c-1.2,0-2.1,1-2.1,2.1v6.8h-6.2v-6.8c0-1.2-1-2.1-2.1-2.1l0,0l0,0c-1.2,0-2.1,1-2.1,2.1v6.8h-4
		c-0.7,0-1.3,0.6-1.3,1.3v1.6c0,0.7,0.6,1.3,1.3,1.3h0.8v3c0,5.5,2.1,8.9,7.9,9.5l0,0c0,0.3,0.1,0.6,0.1,0.9L1150.6,239.5
		L1150.6,239.5z"/>
	<path id="XMLID_18_" class="st2" d="M1176.7,277.1h3.8c0.5,0,1,0.5,1,1c0,0.2-0.1,0.4-0.2,0.5l-9,15.3c-0.3,0.5-0.9,0.6-1.3,0.3
		l0,0c-0.4-0.2-0.5-0.6-0.5-1.1l1.3-9.4l-4.5,0.1c-0.5,0-1-0.4-1-1l0,0c0-0.2,0-0.4,0.1-0.5l8.8-15.3c0.3-0.5,0.9-0.6,1.4-0.3
		c0.3,0.2,0.5,0.6,0.5,1L1176.7,277.1z"/>
	<path id="XMLID_17_" class="st2" d="M1147,247.6c0.3-0.7,0.8-1.3,1.4-1.7c1-1,2.5-1.6,3.9-1.6h45.8c3.8,0,6.1,3.2,6.9,6.9l3,12.2
		h-66.1l0,0l3.6-12.1C1145.8,249.9,1146.3,248.7,1147,247.6L1147,247.6z"/>
	<path id="XMLID_16_" class="st2" d="M1150.3,279.4l-10.7-1.3c-2.5-0.3-3.2,0.8-2.3,3l1.2,2.8c0.3,0.7,0.8,1.2,1.4,1.6
		c0.7,0.4,1.6,0.7,2.4,0.7l9.5,0.1c2.3,0,3.3-0.9,2.6-3C1153.8,281.2,1152.2,279.8,1150.3,279.4L1150.3,279.4z"/>
	<path id="XMLID_15_" class="st2" d="M1197.6,279.4l10.7-1.3c2.5-0.3,3.2,0.8,2.3,3l-1.2,2.8c-0.3,0.7-0.8,1.2-1.4,1.6
		c-0.7,0.4-1.6,0.7-2.4,0.7l-9.5,0.1c-2.3,0-3.3-0.9-2.6-3C1194,281.2,1195.6,279.8,1197.6,279.4z"/>
	<rect id="XMLID_14_" x="1167.9" y="227.4" class="st2" width="11.3" height="1.7"/>
</g>
<g id="XMLID_6_">
	<path id="XMLID_12_" d="M1241.7,303.2c-5,0-7.5,4.3-9.1,9l-3.8,12l-1.9-3.5c-8.4-0.5-9.4,4.2-1,8.5l0,0c-9.3,6-8,16.6-7.1,28.3
		c0,0.1,0,0.3,0,0.4v6.5c0,1.5,1.2,2.8,2.8,2.8h12c1.5,0,2.8-1.3,2.8-2.8v-2.3h57v2.3c0,1.6,1.3,2.8,2.8,2.8h12
		c1.6,0,2.8-1.3,2.8-2.8v-5c0.9-15.2,1.5-21.4-4.5-27.6l-1.5-2.3c9.1-4.3,8.4-9.3-0.3-8.8l-1.6,3.2l-2.9-11.7c-1.2-4.8-4.1-9-9-9
		H1268c0-0.3-0.1-0.6-0.1-0.9c5.3-0.8,7.2-3.6,7.2-9.1v-3.3h1.1c0.7,0,1.3-0.6,1.3-1.3v-1.5c0-0.7-0.6-1.3-1.3-1.3h-4.1v-6.7
		c0-1.2-0.9-2.1-2.1-2.1l0,0c-1.2,0-2.1,1-2.1,2.1v6.8h-6.2v-6.8c0-1.2-1-2.1-2.1-2.1l0,0l0,0c-1.2,0-2.1,1-2.1,2.1v6.8h-4
		c-0.7,0-1.3,0.6-1.3,1.3v1.6c0,0.7,0.6,1.3,1.3,1.3h0.8v3c0,5.5,2.1,8.9,7.9,9.5l0,0c0,0.3,0.1,0.6,0.1,0.9L1241.7,303.2z"/>
	<path id="XMLID_11_" class="st2" d="M1267.7,340.8h3.8c0.5,0,1,0.5,1,1c0,0.2-0.1,0.4-0.2,0.5l-9,15.3c-0.3,0.5-0.9,0.6-1.3,0.3
		l0,0c-0.4-0.2-0.5-0.6-0.5-1.1l1.3-9.4l-4.5,0.1c-0.5,0-1-0.4-1-1l0,0c0-0.2,0-0.4,0.1-0.5l8.8-15.3c0.3-0.5,0.9-0.6,1.4-0.3
		c0.3,0.2,0.5,0.6,0.5,1L1267.7,340.8z"/>
	<path id="XMLID_10_" class="st2" d="M1238,311.3c0.3-0.7,0.8-1.3,1.4-1.7c1-1,2.5-1.6,3.9-1.6h45.8c3.8,0,6.1,3.2,6.9,6.9l3,12.2
		h-66.1l0,0l3.6-12.1C1236.8,313.6,1237.3,312.4,1238,311.3L1238,311.3z"/>
	<path id="XMLID_9_" class="st2" d="M1241.3,343.2l-10.7-1.3c-2.5-0.3-3.2,0.8-2.3,3l1.2,2.8c0.3,0.7,0.8,1.2,1.4,1.6
		c0.7,0.4,1.6,0.7,2.4,0.7l9.5,0.1c2.3,0,3.3-0.9,2.6-3C1244.8,345,1243.2,343.5,1241.3,343.2L1241.3,343.2z"/>
	<path id="XMLID_8_" class="st2" d="M1288.6,343.2l10.7-1.3c2.5-0.3,3.2,0.8,2.3,3l-1.2,2.8c-0.3,0.7-0.8,1.2-1.4,1.6
		c-0.7,0.4-1.6,0.7-2.4,0.7l-9.5,0.1c-2.3,0-3.3-0.9-2.6-3C1285,345,1286.6,343.5,1288.6,343.2z"/>
	<rect id="XMLID_7_" x="1258.9" y="291.2" class="st2" width="11.3" height="1.7"/>
</g>
<g id="XMLID_38_">
	<path id="XMLID_43_" d="M787.5,297.9c0.2,0.1,0.5,0.3,0.7,0.4l0.1,0.1c0.5,0.4,1,0.8,1.4,1.4c0.4,0.5,0.7,1.1,0.9,1.8l0,0
		c0.2,0.6,0.3,1.3,0.2,2c0,0.7-0.2,1.4-0.4,2l0,0c-0.1,0.3-0.3,0.7-0.4,1c-0.2,0.3-0.3,0.6-0.5,0.9c-0.8,1.1-1.9,2.1-3.1,2.7
		c-1.1,0.6-2.3,1.2-3.4,1.7c-9.5,3.9-18.9,8.6-28.4,12.4c-0.3,0.1-0.7,0.2-1,0.2l0,0c-0.4,0-0.9-0.1-1.3-0.3l-0.4-0.3
		c-0.1-0.1-0.3-0.3-0.3-0.5l-0.1-0.2l-0.1-0.3c0-0.1,0-0.3,0-0.4l0,0c0-0.5,0.2-0.9,0.5-1.3l0,0c0.2-0.3,0.4-0.5,0.7-0.7
		c8.4-7,17.2-13.6,25.7-20.3c0.6-0.5,1.2-0.9,1.8-1.3s1.3-0.7,1.9-1h0.1c0.7-0.3,1.4-0.4,2.1-0.4c0.7,0,1.5,0.1,2.2,0.3h0.1
		C786.9,297.7,787.2,297.8,787.5,297.9L787.5,297.9z"/>
	<path id="XMLID_42_" d="M773.1,354.2h17.1l6.4-43.9c0.1-0.8,0.8-1.5,1.6-1.5h6c0.8,0,1.5,0.6,1.6,1.4l7.4,44h17.2
		c0.5,0,0.9,0.4,0.9,0.9v6.7c0,0.5-0.4,0.9-0.9,0.9h-57.2c-0.5,0-0.9-0.4-0.9-0.9v-6.7C772.2,354.6,772.6,354.2,773.1,354.2z"/>
	<path id="XMLID_41_" d="M805.1,288.2c1.1,0.4,2,1.1,2.9,1.9c1.6,1.6,2.5,3.8,2.6,6.1v0.1c0,2.3-0.9,4.6-2.6,6.2
		c-0.8,0.8-1.8,1.5-2.9,1.9c-4.5,1.9-9.6-0.2-11.5-4.7l0,0c-0.9-2.2-0.9-4.6,0-6.8c0.4-1.1,1.1-2,1.9-2.9l0,0
		c0.8-0.8,1.8-1.5,2.9-1.9C800.5,287.3,802.9,287.3,805.1,288.2L805.1,288.2z"/>
	<path id="XMLID_40_" d="M805.1,283.6c-0.3,0.2-0.5,0.3-0.8,0.4c-0.6,0.3-1.3,0.5-1.9,0.5c-0.6,0.1-1.3,0-1.9-0.1h-0.1
		c-0.6-0.2-1.2-0.5-1.8-0.8c-0.5-0.3-1-0.8-1.4-1.2l-0.1-0.1c-0.2-0.3-0.4-0.5-0.6-0.8s-0.3-0.6-0.5-0.9l0,0
		c-1.2-2.5-0.8-5.2-0.4-7.9c1.8-10,2.3-20.8,4.1-30.8c0.1-0.3,0.2-0.6,0.3-0.9v-0.1c0.2-0.4,0.5-0.6,0.8-0.9h0.1
		c0.2-0.1,0.3-0.1,0.5-0.2c0.1,0,0.3,0,0.4,0c0.2,0,0.4-0.1,0.7,0l0.3,0.2c0.4,0.2,0.7,0.6,0.9,1l0.1,0.1c0.1,0.3,0.2,0.7,0.3,1.1
		c1.8,10.2,2.7,21.8,4,32.1c0,0.1,0,0.2,0,0.4l0,0c0.1,0.7,0.1,1.4,0.2,2.1c0,0.8,0,1.5-0.1,2.3v0.1c-0.1,0.7-0.4,1.4-0.7,2
		c-0.4,0.7-0.9,1.3-1.5,1.8C805.5,283.2,805.3,283.4,805.1,283.6L805.1,283.6z"/>
	<path id="XMLID_39_" d="M812.1,304.6c0-0.3,0-0.6,0-0.9c0-0.7,0.2-1.4,0.5-2c0.2-0.6,0.6-1.1,1-1.5l0.1-0.1c0.5-0.5,1-0.9,1.6-1.1
		c0.6-0.3,1.2-0.5,1.8-0.6h0.1c0.3-0.1,0.7-0.1,1-0.1s0.7,0,1,0h0.1c1.4,0.1,2.7,0.6,3.9,1.3c1.1,0.7,2.2,1.4,3.2,2.3
		c8.1,6.3,16.3,12.5,24.5,18.8l0.1,0.1c0.2,0.2,0.4,0.5,0.6,0.8c0.2,0.4,0.3,0.7,0.3,1.1v0.3v0.2c0,0.2-0.1,0.4-0.2,0.6
		s-0.2,0.3-0.4,0.4l-0.1,0.1c-0.1,0.1-0.2,0.1-0.3,0.2c-0.4,0.2-0.9,0.3-1.4,0.2c-0.3,0-0.7-0.1-1-0.3l-30.1-12.6
		c-0.7-0.3-1.4-0.6-2.1-1c-0.7-0.3-1.3-0.7-1.9-1.2h-0.1c-1.2-1-2-2.3-2.2-3.8C812.1,305.3,812.1,304.9,812.1,304.6L812.1,304.6z"/>
</g>
<polygon id="XMLID_32_" class="st1" points="948.3,273.4 928.5,273.6 909.4,309.8 922.4,310 902.1,349 947.9,299 930.8,299 "/>
<polygon id="XMLID_28_" class="st1" points="1434.7,804 1414.9,804.2 1395.8,840.4 1408.8,840.6 1388.5,879.6 1434.3,829.6 
	1417.2,829.6 "/>
<g id="XMLID_2_">
	<path id="XMLID_5_" class="st3" d="M745.4,148.4c-2.8,0.1-5.1-2.2-5.1-5c0-2.8,2.2-5,5-5h88.1c0.4,0,0.8,0,1.1,0.1
		c3.1,0.5,6.1,1.4,8.7,2.8c2.9,1.6,5.4,3.8,7.3,6.7c6.6,10,5.7,19.2,1,26.1c-3.1,4.5-7.7,7.9-12.8,9.6c-5.2,1.8-10.9,2-16,0.1
		c-7.8-2.8-14.1-10.1-15-23.2c-0.2-2.7,1.9-5.1,4.6-5.3c2.7-0.2,5.1,1.9,5.3,4.6c0.6,8.4,4.2,12.9,8.5,14.5c2.9,1.1,6.3,1,9.4-0.1
		c3.2-1.1,6-3.1,7.8-5.7c2.6-3.8,3-9.1-1-15.1c-0.9-1.5-2.2-2.6-3.7-3.4c-1.6-0.8-3.4-1.4-5.4-1.7L745.4,148.4L745.4,148.4z"/>
	<path id="XMLID_4_" class="st3" d="M722.6,103.6c-2.8,0-4.9-2.2-4.9-5s2.2-5,5-5h87.8c2-0.3,3.8-0.9,5.4-1.7
		c1.5-0.8,2.7-1.9,3.7-3.4c3.9-6,3.5-11.3,1-15.1c-1.8-2.6-4.6-4.6-7.8-5.7c-3.1-1-6.5-1.2-9.4-0.1c-4.3,1.5-7.9,6-8.5,14.5
		c-0.2,2.7-2.6,4.8-5.3,4.6s-4.8-2.6-4.6-5.3c0.9-13.1,7.2-20.4,15-23.2c5.2-1.8,10.9-1.6,16,0.1c5.1,1.8,9.8,5.1,12.8,9.6
		c4.6,6.8,5.6,16.1-1,26.1c-1.9,2.9-4.4,5.1-7.3,6.7c-2.6,1.4-5.5,2.3-8.7,2.8c-0.4,0-0.7,0.1-1.1,0.1L722.6,103.6L722.6,103.6z"/>
	<path id="XMLID_3_" class="st3" d="M701.1,126c-2.7,0-5-2.2-5-5s2.2-5,5-5h183.7c2-0.3,3.9-0.9,5.4-1.7s2.7-1.9,3.7-3.4
		c3.9-6,3.5-11.3,1-15.1c-1.8-2.6-4.6-4.6-7.8-5.7c-3.1-1-6.5-1.2-9.4-0.1c-4.3,1.5-7.9,6-8.5,14.5c-0.2,2.7-2.6,4.8-5.3,4.6
		s-4.8-2.6-4.6-5.3c0.9-13.1,7.2-20.4,15-23.2c5.2-1.8,10.9-1.6,16,0.1c5.1,1.8,9.8,5.1,12.8,9.6c4.6,6.8,5.6,16.1-1,26.1
		c-1.9,2.9-4.4,5.1-7.3,6.7c-2.6,1.4-5.5,2.3-8.7,2.8c-0.4,0-0.7,0.1-1.1,0.1L701.1,126L701.1,126z"/>
</g>
<g id="XMLID_84_">
	<g id="XMLID_85_">
		<line id="XMLID_88_" class="st0" x1="1473.5" y1="837.2" x2="1349.6" y2="837.2"/>
		<g id="XMLID_86_">
			<polygon id="XMLID_87_" class="st1" points="1333.6,837.2 1356.2,828 1350.8,837.2 1356.2,846.5 			"/>
		</g>
	</g>
</g>
<g id="XMLID_77_">
	<path id="XMLID_83_" d="M1058.8,838.9c-5,0-7.5,4.3-9.1,9l-3.8,12l-1.9-3.5c-8.4-0.5-9.4,4.2-1,8.5l0,0c-9.3,6-8,16.6-7.1,28.3
		c0,0.1,0,0.3,0,0.4v6.5c0,1.5,1.2,2.8,2.8,2.8h12c1.5,0,2.8-1.3,2.8-2.8v-2.3h57v2.3c0,1.6,1.3,2.8,2.8,2.8h12
		c1.6,0,2.8-1.3,2.8-2.8v-5c0.9-15.2,1.5-21.4-4.5-27.6l-1.5-2.3c9.1-4.3,8.4-9.3-0.3-8.8l-1.6,3.2l-2.9-11.7c-1.2-4.8-4.1-9-9-9
		h-23.2c0-0.3-0.1-0.6-0.1-0.9c5.3-0.8,7.2-3.6,7.2-9.1v-3.3h1.1c0.7,0,1.3-0.6,1.3-1.3v-1.5c0-0.7-0.6-1.3-1.3-1.3h-4.1v-7
		c0-1.2-0.9-2.1-2.1-2.1l0,0c-1.2,0-2.1,1-2.1,2.1v6.8h-6.2v-6.8c0-1.2-1-2.1-2.1-2.1l0,0l0,0c-1.2,0-2.1,1-2.1,2.1v6.8h-4
		c-0.7,0-1.3,0.6-1.3,1.3v1.6c0,0.7,0.6,1.3,1.3,1.3h0.8v3c0,5.5,2.1,8.9,7.9,9.5l0,0c0,0.3,0.1,0.6,0.1,0.9H1058.8L1058.8,838.9z"
		/>
	<path id="XMLID_82_" class="st2" d="M1084.9,876.5h3.8c0.5,0,1,0.5,1,1c0,0.2-0.1,0.4-0.2,0.5l-9,15.3c-0.3,0.5-0.9,0.6-1.3,0.3
		l0,0c-0.4-0.2-0.5-0.6-0.5-1.1l1.3-9.4l-4.5,0.1c-0.5,0-1-0.4-1-1l0,0c0-0.2,0-0.4,0.1-0.5l8.8-15.3c0.3-0.5,0.9-0.6,1.4-0.3
		c0.3,0.2,0.5,0.6,0.5,1L1084.9,876.5z"/>
	<path id="XMLID_81_" class="st2" d="M1055.2,847c0.3-0.7,0.8-1.3,1.4-1.7c1-1,2.5-1.6,3.9-1.6h45.8c3.8,0,6.1,3.2,6.9,6.9l3,12.2
		h-66.1l0,0l3.6-12.1C1053.9,849.3,1054.4,848.1,1055.2,847L1055.2,847z"/>
	<path id="XMLID_80_" class="st2" d="M1058.5,878.8l-10.7-1.3c-2.5-0.3-3.2,0.8-2.3,3l1.2,2.8c0.3,0.7,0.8,1.2,1.4,1.6
		c0.7,0.4,1.6,0.7,2.4,0.7l9.5,0.1c2.3,0,3.3-0.9,2.6-3C1062,880.6,1060.4,879.2,1058.5,878.8L1058.5,878.8z"/>
	<path id="XMLID_79_" class="st2" d="M1105.7,878.8l10.7-1.3c2.5-0.3,3.2,0.8,2.3,3l-1.2,2.8c-0.3,0.7-0.8,1.2-1.4,1.6
		c-0.7,0.4-1.6,0.7-2.4,0.7l-9.5,0.1c-2.3,0-3.3-0.9-2.6-3C1102.2,880.6,1103.8,879.2,1105.7,878.8z"/>
	<rect id="XMLID_78_" x="1076.1" y="826.8" class="st2" width="11.3" height="1.7"/>
</g>
<g id="XMLID_70_">
	<path id="XMLID_76_" d="M1150.9,779.7c-5,0-7.5,4.3-9.1,9l-3.8,12l-1.9-3.5c-8.4-0.5-9.4,4.2-1,8.5l0,0c-9.3,6-8,16.6-7.1,28.3
		c0,0.1,0,0.3,0,0.4v6.5c0,1.5,1.2,2.8,2.8,2.8h12c1.5,0,2.8-1.3,2.8-2.8v-2.3h57v2.3c0,1.6,1.3,2.8,2.8,2.8h12
		c1.6,0,2.8-1.3,2.8-2.8v-5c0.9-15.2,1.5-21.4-4.5-27.6l-1.5-2.3c9.1-4.3,8.4-9.3-0.3-8.8l-1.6,3.2l-2.9-11.7c-1.2-4.8-4.1-9-9-9
		h-23.2c0-0.3-0.1-0.6-0.1-0.9c5.3-0.8,7.2-3.6,7.2-9.1v-3.3h1.1c0.7,0,1.3-0.6,1.3-1.3v-1.6c0-0.7-0.6-1.3-1.3-1.3h-4.1v-6.8
		c0-1.2-0.9-2.1-2.1-2.1l0,0c-1.2,0-2.1,1-2.1,2.1v6.8h-6.2v-6.8c0-1.2-1-2.1-2.1-2.1l0,0l0,0c-1.2,0-2.1,1-2.1,2.1v6.8h-4
		c-0.7,0-1.3,0.6-1.3,1.3v1.6c0,0.7,0.6,1.3,1.3,1.3h0.8v3c0,5.5,2.1,8.9,7.9,9.5l0,0c0,0.3,0.1,0.6,0.1,0.9L1150.9,779.7
		L1150.9,779.7z"/>
	<path id="XMLID_75_" class="st2" d="M1177,817.3h3.8c0.5,0,1,0.5,1,1c0,0.2-0.1,0.4-0.2,0.5l-9,15.3c-0.3,0.5-0.9,0.6-1.3,0.3l0,0
		c-0.4-0.2-0.5-0.6-0.5-1.1l1.3-9.4l-4.5,0.1c-0.5,0-1-0.4-1-1l0,0c0-0.2,0-0.4,0.1-0.5l8.8-15.3c0.3-0.5,0.9-0.6,1.4-0.3
		c0.3,0.2,0.5,0.6,0.5,1L1177,817.3z"/>
	<path id="XMLID_74_" class="st2" d="M1147.3,787.8c0.3-0.7,0.8-1.3,1.4-1.7c1-1,2.5-1.6,3.9-1.6h45.8c3.8,0,6.1,3.2,6.9,6.9l3,12.2
		h-66.1l0,0l3.6-12.1C1146.1,790.1,1146.6,788.9,1147.3,787.8L1147.3,787.8z"/>
	<path id="XMLID_73_" class="st2" d="M1150.6,819.6l-10.7-1.3c-2.5-0.3-3.2,0.8-2.3,3l1.2,2.8c0.3,0.7,0.8,1.2,1.4,1.6
		c0.7,0.4,1.6,0.7,2.4,0.7l9.5,0.1c2.3,0,3.3-0.9,2.6-3C1154.1,821.4,1152.5,820,1150.6,819.6L1150.6,819.6z"/>
	<path id="XMLID_72_" class="st2" d="M1197.9,819.6l10.7-1.3c2.5-0.3,3.2,0.8,2.3,3l-1.2,2.8c-0.3,0.7-0.8,1.2-1.4,1.6
		c-0.7,0.4-1.6,0.7-2.4,0.7l-9.5,0.1c-2.3,0-3.3-0.9-2.6-3C1194.3,821.4,1195.9,820,1197.9,819.6z"/>
	<rect id="XMLID_71_" x="1168.2" y="767.6" class="st2" width="11.3" height="1.7"/>
</g>
<g id="XMLID_63_">
	<path id="XMLID_69_" d="M1242,843.4c-5,0-7.5,4.3-9.1,9l-3.8,12l-1.9-3.5c-8.4-0.5-9.4,4.2-1,8.5l0,0c-9.3,6-8,16.6-7.1,28.3
		c0,0.1,0,0.3,0,0.4v6.5c0,1.5,1.2,2.8,2.8,2.8h12c1.5,0,2.8-1.3,2.8-2.8v-2.3h57v2.3c0,1.6,1.3,2.8,2.8,2.8h12
		c1.6,0,2.8-1.3,2.8-2.8v-5c0.9-15.2,1.5-21.4-4.5-27.6l-1.5-2.3c9.1-4.3,8.4-9.3-0.3-8.8l-1.6,3.2l-2.9-11.7c-1.2-4.8-4.1-9-9-9
		h-23.2c0-0.3-0.1-0.6-0.1-0.9c5.3-0.8,7.2-3.6,7.2-9.1v-3.3h1.1c0.7,0,1.3-0.6,1.3-1.3v-1.5c0-0.7-0.6-1.3-1.3-1.3h-4.1v-6.7
		c0-1.2-0.9-2.1-2.1-2.1l0,0c-1.2,0-2.1,1-2.1,2.1v6.8h-6.2v-6.8c0-1.2-1-2.1-2.1-2.1l0,0l0,0c-1.2,0-2.1,1-2.1,2.1v6.8h-4
		c-0.7,0-1.3,0.6-1.3,1.3v1.6c0,0.7,0.6,1.3,1.3,1.3h0.8v3c0,5.5,2.1,8.9,7.9,9.5l0,0c0,0.3,0.1,0.6,0.1,0.9L1242,843.4z"/>
	<path id="XMLID_68_" class="st2" d="M1268,881h3.8c0.5,0,1,0.5,1,1c0,0.2-0.1,0.4-0.2,0.5l-9,15.3c-0.3,0.5-0.9,0.6-1.3,0.3l0,0
		c-0.4-0.2-0.5-0.6-0.5-1.1l1.3-9.4l-4.5,0.1c-0.5,0-1-0.4-1-1l0,0c0-0.2,0-0.4,0.1-0.5l8.8-15.3c0.3-0.5,0.9-0.6,1.4-0.3
		c0.3,0.2,0.5,0.6,0.5,1L1268,881z"/>
	<path id="XMLID_67_" class="st2" d="M1238.3,851.5c0.3-0.7,0.8-1.3,1.4-1.7c1-1,2.5-1.6,3.9-1.6h45.8c3.8,0,6.1,3.2,6.9,6.9l3,12.2
		h-66.1l0,0l3.6-12.1C1237.1,853.8,1237.6,852.6,1238.3,851.5L1238.3,851.5z"/>
	<path id="XMLID_66_" class="st2" d="M1241.6,883.4l-10.7-1.3c-2.5-0.3-3.2,0.8-2.3,3l1.2,2.8c0.3,0.7,0.8,1.2,1.4,1.6
		c0.7,0.4,1.6,0.7,2.4,0.7l9.5,0.1c2.3,0,3.3-0.9,2.6-3C1245.1,885.2,1243.5,883.7,1241.6,883.4L1241.6,883.4z"/>
	<path id="XMLID_65_" class="st2" d="M1288.9,883.4l10.7-1.3c2.5-0.3,3.2,0.8,2.3,3l-1.2,2.8c-0.3,0.7-0.8,1.2-1.4,1.6
		c-0.7,0.4-1.6,0.7-2.4,0.7l-9.5,0.1c-2.3,0-3.3-0.9-2.6-3C1285.3,885.2,1286.9,883.7,1288.9,883.4z"/>
	<rect id="XMLID_64_" x="1259.2" y="831.4" class="st2" width="11.3" height="1.7"/>
</g>
<g id="XMLID_57_">
	<path id="XMLID_62_" d="M787.3,839.1c0.2,0.1,0.5,0.3,0.7,0.4l0.1,0.1c0.5,0.4,1,0.8,1.4,1.4c0.4,0.5,0.7,1.1,0.9,1.8l0,0
		c0.2,0.6,0.3,1.3,0.2,2c0,0.7-0.2,1.4-0.4,2l0,0c-0.1,0.3-0.3,0.7-0.4,1c-0.2,0.3-0.3,0.6-0.5,0.9c-0.8,1.1-1.9,2.1-3.1,2.7
		c-1.1,0.6-2.3,1.2-3.4,1.7c-9.5,3.9-18.9,8.6-28.4,12.4c-0.3,0.1-0.7,0.2-1,0.2l0,0c-0.4,0-0.9-0.1-1.3-0.3l-0.4-0.3
		c-0.1-0.1-0.3-0.3-0.3-0.5l-0.1-0.2l-0.1-0.3c0-0.1,0-0.3,0-0.4l0,0c0-0.5,0.2-0.9,0.5-1.3l0,0c0.2-0.3,0.4-0.5,0.7-0.7
		c8.4-7,17.2-13.6,25.7-20.3c0.6-0.5,1.2-0.9,1.8-1.3c0.6-0.4,1.3-0.7,1.9-1h0.1c0.7-0.3,1.4-0.4,2.1-0.4s1.5,0.1,2.2,0.3h0.1
		C786.7,838.9,787,839,787.3,839.1L787.3,839.1z"/>
	<path id="XMLID_61_" d="M772.9,895.4H790l6.4-43.9c0.1-0.8,0.8-1.5,1.6-1.5h6c0.8,0,1.5,0.6,1.6,1.4l7.4,44h17.2
		c0.5,0,0.9,0.4,0.9,0.9v6.7c0,0.5-0.4,0.9-0.9,0.9H773c-0.5,0-0.9-0.4-0.9-0.9v-6.7C772,895.8,772.4,895.4,772.9,895.4z"/>
	<path id="XMLID_60_" d="M804.9,829.4c1.1,0.4,2,1.1,2.9,1.9c1.6,1.6,2.5,3.8,2.6,6.1v0.1c0,2.3-0.9,4.6-2.6,6.2
		c-0.8,0.8-1.8,1.5-2.9,1.9c-4.5,1.9-9.6-0.2-11.5-4.7l0,0c-0.9-2.2-0.9-4.6,0-6.8c0.4-1.1,1.1-2,1.9-2.9l0,0
		c0.8-0.8,1.8-1.5,2.9-1.9C800.3,828.5,802.7,828.5,804.9,829.4L804.9,829.4z"/>
	<path id="XMLID_59_" d="M804.9,824.8c-0.3,0.2-0.5,0.3-0.8,0.4c-0.6,0.3-1.3,0.5-1.9,0.5c-0.6,0.1-1.3,0-1.9-0.1h-0.1
		c-0.6-0.2-1.2-0.5-1.8-0.8c-0.5-0.3-1-0.8-1.4-1.2l-0.1-0.1c-0.2-0.3-0.4-0.5-0.6-0.8s-0.3-0.6-0.5-0.9l0,0
		c-1.2-2.5-0.8-5.2-0.4-7.9c1.8-10,2.3-20.8,4.1-30.8c0.1-0.3,0.2-0.6,0.3-0.9v-0.1c0.2-0.4,0.5-0.6,0.8-0.9h0.1
		c0.2-0.1,0.3-0.1,0.5-0.2c0.1,0,0.3,0,0.4,0c0.2,0,0.4-0.1,0.7,0l0.3,0.2c0.4,0.2,0.7,0.6,0.9,1l0.1,0.1c0.1,0.3,0.2,0.7,0.3,1.1
		c1.8,10.2,2.7,21.8,4,32.1c0,0.1,0,0.2,0,0.4l0,0c0.1,0.7,0.1,1.4,0.2,2.1c0,0.8,0,1.5-0.1,2.3v0.1c-0.1,0.7-0.4,1.4-0.7,2
		c-0.4,0.7-0.9,1.3-1.5,1.8C805.3,824.4,805.1,824.6,804.9,824.8L804.9,824.8z"/>
	<path id="XMLID_58_" d="M811.9,845.8c0-0.3,0-0.6,0-0.9c0-0.7,0.2-1.4,0.5-2c0.2-0.6,0.6-1.1,1-1.5l0.1-0.1c0.5-0.5,1-0.9,1.6-1.1
		c0.6-0.3,1.2-0.5,1.8-0.6h0.1c0.3-0.1,0.7-0.1,1-0.1s0.7,0,1,0h0.1c1.4,0.1,2.7,0.6,3.9,1.3c1.1,0.7,2.2,1.4,3.2,2.3
		c8.1,6.3,16.3,12.5,24.5,18.8l0.1,0.1c0.2,0.2,0.4,0.5,0.6,0.8c0.2,0.4,0.3,0.7,0.3,1.1v0.3v0.2c0,0.2-0.1,0.4-0.2,0.6
		s-0.2,0.3-0.4,0.4l-0.1,0.1c-0.1,0.1-0.2,0.1-0.3,0.2c-0.4,0.2-0.9,0.3-1.4,0.2c-0.3,0-0.7-0.1-1-0.3L818.2,853
		c-0.7-0.3-1.4-0.6-2.1-1c-0.7-0.3-1.3-0.7-1.9-1.2h-0.1c-1.2-1-2-2.3-2.2-3.8C811.9,846.5,811.9,846.1,811.9,845.8L811.9,845.8z"/>
</g>
<g id="XMLID_52_">
	<path id="XMLID_55_" class="st4" d="M738.5,699c-2.8,0.1-5.1-2.2-5.1-5c0-2.8,2.2-5,5-5h88.1c0.4,0,0.8,0,1.1,0.1
		c3.1,0.5,6.1,1.4,8.7,2.8c2.9,1.6,5.4,3.8,7.3,6.7c6.6,10,5.7,19.2,1,26.1c-3.1,4.5-7.7,7.9-12.8,9.6c-5.2,1.8-10.9,2-16,0.1
		c-7.8-2.8-14.1-10.1-15-23.2c-0.2-2.7,1.9-5.1,4.6-5.3c2.7-0.2,5.1,1.9,5.3,4.6c0.6,8.4,4.2,12.9,8.5,14.5c2.9,1.1,6.3,1,9.4-0.1
		c3.2-1.1,6-3.1,7.8-5.7c2.6-3.8,3-9.1-1-15.1c-0.9-1.5-2.2-2.6-3.7-3.4c-1.6-0.8-3.4-1.4-5.4-1.7H738.5L738.5,699z"/>
	<path id="XMLID_54_" class="st4" d="M715.7,654.2c-2.8,0-4.9-2.2-4.9-5c0-2.8,2.2-5,5-5h87.8c2-0.3,3.8-0.9,5.4-1.7
		c1.5-0.8,2.7-1.9,3.7-3.4c3.9-6,3.5-11.3,1-15.1c-1.8-2.6-4.6-4.6-7.8-5.7c-3.1-1-6.5-1.2-9.4-0.1c-4.3,1.5-7.9,6-8.5,14.5
		c-0.2,2.7-2.6,4.8-5.3,4.6s-4.8-2.6-4.6-5.3c0.9-13.1,7.2-20.4,15-23.2c5.2-1.8,10.9-1.6,16,0.1c5.1,1.8,9.8,5.1,12.8,9.6
		c4.6,6.8,5.6,16.1-1,26.1c-1.9,2.9-4.4,5.1-7.3,6.7c-2.6,1.4-5.5,2.3-8.7,2.8c-0.4,0-0.7,0.1-1.1,0.1L715.7,654.2L715.7,654.2z"/>
	<path id="XMLID_53_" class="st4" d="M694.2,676.6c-2.7,0-5-2.2-5-5s2.2-5,5-5h183.7c2-0.3,3.9-0.9,5.4-1.7s2.7-1.9,3.7-3.4
		c3.9-6,3.5-11.3,1-15.1c-1.8-2.6-4.6-4.6-7.8-5.7c-3.1-1-6.5-1.2-9.4-0.1c-4.3,1.5-7.9,6-8.5,14.5c-0.2,2.7-2.6,4.8-5.3,4.6
		c-2.7-0.2-4.8-2.6-4.6-5.3c0.9-13.1,7.2-20.4,15-23.2c5.2-1.8,10.9-1.6,16,0.1c5.1,1.8,9.8,5.1,12.8,9.6c4.6,6.8,5.6,16.1-1,26.1
		c-1.9,2.9-4.4,5.1-7.3,6.7c-2.6,1.4-5.5,2.3-8.7,2.8c-0.4,0-0.7,0.1-1.1,0.1H694.2L694.2,676.6z"/>
</g>
<g>
	<path d="M1209.5,393.8h8.3c0.6,0,1.2,0.3,1.6,0.7c0.4,0.4,0.7,1,0.7,1.6v22.7c0,0.6-0.3,1.2-0.7,1.6c-0.4,0.4-1,0.7-1.6,0.7h-8.3
		v6.8c0,1.1-0.5,2.1-1.2,2.8c-0.7,0.7-1.7,1.2-2.8,1.2h-67.2c-1.1,0-2.1-0.5-2.8-1.2c-0.7-0.7-1.2-1.7-1.2-2.8v-41
		c0-1.1,0.4-2.1,1.2-2.8s1.7-1.2,2.8-1.2h67.2c1.1,0,2.1,0.5,2.8,1.2c0.7,0.7,1.2,1.7,1.2,2.8V393.8L1209.5,393.8z"/>
	<path class="st2" d="M1205.5,419.2v-23.4V387l0,0l0,0h-67.2l0,0l0,0v41l0,0l0,0h67.2l0,0l0,0V419.2L1205.5,419.2z"/>
	<path class="st5" d="M1199,391c1.1,0,2.1,1,2.1,2.1V422c0,1.1-1,2.1-2.1,2.1h-7v-33h7V391z"/>
	<polygon points="1216.2,397.8 1209.5,397.8 1209.5,417.2 1216.2,417.2 	"/>
	<path d="M1144.7,391h7v33h-7c-1.1,0-2.1-0.9-2.1-2.1V393C1142.6,391.9,1143.6,391,1144.7,391L1144.7,391z"/>
	<polygon points="1155.1,391 1164.1,391 1164.1,424 1155.1,424 	"/>
	<polygon points="1167.3,391 1176.4,391 1176.4,424 1167.3,424 	"/>
	<polygon points="1179.7,391 1188.8,391 1188.8,424 1179.7,424 	"/>
</g>
<g>
	<path d="M1210.1,935h8.3c0.6,0,1.2,0.3,1.6,0.7s0.7,1,0.7,1.6V960c0,0.6-0.3,1.2-0.7,1.6c-0.4,0.4-1,0.7-1.6,0.7h-8.3v6.8
		c0,1.1-0.5,2.1-1.2,2.8s-1.7,1.2-2.8,1.2h-67.2c-1.1,0-2.1-0.5-2.8-1.2c-0.7-0.7-1.2-1.7-1.2-2.8v-41c0-1.1,0.4-2.1,1.2-2.8
		c0.7-0.7,1.7-1.2,2.8-1.2h67.2c1.1,0,2.1,0.5,2.8,1.2c0.7,0.7,1.2,1.7,1.2,2.8V935L1210.1,935z"/>
	<path class="st2" d="M1206.1,960.4V937v-8.8l0,0l0,0h-67.2l0,0l0,0v41l0,0l0,0h67.2l0,0l0,0V960.4L1206.1,960.4z"/>
	<path d="M1199.6,932.2c1.1,0,2.1,1,2.1,2.1v28.9c0,1.1-1,2.1-2.1,2.1h-7v-33L1199.6,932.2L1199.6,932.2z"/>
	<polygon points="1216.8,939 1210.1,939 1210.1,958.4 1216.8,958.4 	"/>
	<path class="st5" d="M1145.3,932.2h7v33h-7c-1.1,0-2.1-0.9-2.1-2.1v-28.9C1143.2,933.1,1144.2,932.2,1145.3,932.2L1145.3,932.2z"/>
	<polygon class="st5" points="1155.6,932.2 1164.7,932.2 1164.7,965.2 1155.6,965.2 	"/>
	<polygon class="st5" points="1167.9,932.2 1177,932.2 1177,965.2 1167.9,965.2 	"/>
	<polygon class="st5" points="1180.3,932.2 1189.4,932.2 1189.4,965.2 1180.3,965.2 	"/>
</g>
</svg>
